<?xml version="1.0" encoding="ISO-8859-1" standalone="no"?>
<!DOCTYPE svg PUBLIC "-//W3C//DTD SVG 20010904//EN"
  "http://www.w3.org/TR/2001/REC-SVG-20010904/DTD/svg10.dtd">
<!-- Created by DISLIN (http://www.dislin.de)
Version: 11.5
Date   : 26.06.2026 22:55:08
-->
<svg width="853" height="603"
  xmlns="http://www.w3.org/2000/svg"
  xmlns:xlink="http://www.w3.org/1999/xlink">

<g fill="none" stroke="#000000" stroke-width="1.000">
<line x1="157.74" y1="444.55" x2="851.52" y2="444.55"/>
<line x1="157.74" y1="444.55" x2="157.74" y2="451.43"/>
<line x1="201.05" y1="449.13" x2="201.05" y2="444.55"/>
<line x1="244.36" y1="444.55" x2="244.36" y2="451.43"/>
<line x1="287.95" y1="449.13" x2="287.95" y2="444.55"/>
<line x1="331.26" y1="444.55" x2="331.26" y2="451.43"/>
<line x1="374.57" y1="449.13" x2="374.57" y2="444.55"/>
<line x1="417.87" y1="444.55" x2="417.87" y2="451.43"/>
<line x1="461.18" y1="449.13" x2="461.18" y2="444.55"/>
<line x1="504.77" y1="444.55" x2="504.77" y2="451.43"/>
<line x1="548.08" y1="449.13" x2="548.08" y2="444.55"/>
<line x1="591.39" y1="444.55" x2="591.39" y2="451.43"/>
<line x1="634.70" y1="449.13" x2="634.70" y2="444.55"/>
<line x1="678.00" y1="444.55" x2="678.00" y2="451.43"/>
<line x1="721.31" y1="449.13" x2="721.31" y2="444.55"/>
<line x1="764.90" y1="444.55" x2="764.90" y2="451.43"/>
<line x1="808.21" y1="449.13" x2="808.21" y2="444.55"/>
</g>
<g font-family="Times" font-weight="normal" font-style="normal"
font-size="15" stroke="none" fill="#000000">
<text x="144.26" y="468.35">-</text>
<text x="150.33" y="468.35">4</text>
<text x="158.86" y="468.35">.</text>
<text x="163.64" y="468.35">0</text>
<text x="230.88" y="468.35">-</text>
<text x="236.94" y="468.35">3</text>
<text x="245.48" y="468.35">.</text>
<text x="250.26" y="468.35">0</text>
<text x="317.78" y="468.35">-</text>
<text x="323.85" y="468.35">2</text>
<text x="332.38" y="468.35">.</text>
<text x="337.16" y="468.35">0</text>
<text x="404.39" y="468.35">-</text>
<text x="410.46" y="468.35">1</text>
<text x="418.99" y="468.35">.</text>
<text x="423.77" y="468.35">0</text>
<text x="494.16" y="468.35">0</text>
<text x="502.69" y="468.35">.</text>
<text x="507.48" y="468.35">0</text>
<text x="580.78" y="468.35">1</text>
<text x="589.31" y="468.35">.</text>
<text x="594.09" y="468.35">0</text>
<text x="667.68" y="468.35">2</text>
<text x="676.21" y="468.35">.</text>
<text x="680.99" y="468.35">0</text>
<text x="754.29" y="468.35">3</text>
<text x="762.82" y="468.35">.</text>
<text x="767.61" y="468.35">0</text>
<text x="841.19" y="468.35">4</text>
<text x="849.73" y="468.35">.</text>
<text x="854.51" y="468.35">0</text>
</g>
<g font-family="Times" font-weight="normal" font-style="normal"
font-size="15" stroke="none" fill="#000000">
<text x="501.05" y="487.28">x</text>
</g>
<g fill="none" stroke="#000000" stroke-width="1.000">
<line x1="851.52" y1="444.55" x2="851.52" y2="451.43"/>
<line x1="157.74" y1="444.55" x2="157.74" y2="63.38"/>
<line x1="150.86" y1="444.55" x2="157.74" y2="444.55"/>
<line x1="157.74" y1="420.74" x2="153.15" y2="420.74"/>
<line x1="150.86" y1="396.94" x2="157.74" y2="396.94"/>
<line x1="157.74" y1="373.13" x2="153.15" y2="373.13"/>
<line x1="150.86" y1="349.33" x2="157.74" y2="349.33"/>
<line x1="157.74" y1="325.52" x2="153.15" y2="325.52"/>
<line x1="150.86" y1="301.72" x2="157.74" y2="301.72"/>
<line x1="157.74" y1="277.91" x2="153.15" y2="277.91"/>
<line x1="150.86" y1="254.11" x2="157.74" y2="254.11"/>
<line x1="157.74" y1="230.02" x2="153.15" y2="230.02"/>
<line x1="150.86" y1="206.21" x2="157.74" y2="206.21"/>
<line x1="157.74" y1="182.41" x2="153.15" y2="182.41"/>
<line x1="150.86" y1="158.60" x2="157.74" y2="158.60"/>
<line x1="157.74" y1="134.80" x2="153.15" y2="134.80"/>
<line x1="150.86" y1="110.99" x2="157.74" y2="110.99"/>
<line x1="157.74" y1="87.19" x2="153.15" y2="87.19"/>
</g>
<g font-family="Times" font-weight="normal" font-style="normal"
font-size="15" stroke="none" fill="#000000">
<text x="117.02" y="449.13">-</text>
<text x="123.08" y="449.13">0</text>
<text x="131.61" y="449.13">.</text>
<text x="136.40" y="449.13">8</text>
<text x="117.02" y="401.52">-</text>
<text x="123.08" y="401.52">0</text>
<text x="131.61" y="401.52">.</text>
<text x="136.40" y="401.52">6</text>
<text x="117.02" y="353.92">-</text>
<text x="123.08" y="353.92">0</text>
<text x="131.61" y="353.92">.</text>
<text x="136.40" y="353.92">4</text>
<text x="117.02" y="306.31">-</text>
<text x="123.08" y="306.31">0</text>
<text x="131.61" y="306.31">.</text>
<text x="136.40" y="306.31">2</text>
<text x="123.04" y="258.70">0</text>
<text x="131.57" y="258.70">.</text>
<text x="136.35" y="258.70">0</text>
<text x="123.04" y="210.80">0</text>
<text x="131.57" y="210.80">.</text>
<text x="136.35" y="210.80">2</text>
<text x="123.04" y="163.19">0</text>
<text x="131.57" y="163.19">.</text>
<text x="136.35" y="163.19">4</text>
<text x="123.04" y="115.58">0</text>
<text x="131.57" y="115.58">.</text>
<text x="136.35" y="115.58">6</text>
<text x="123.04" y="67.97">0</text>
<text x="131.57" y="67.97">.</text>
<text x="136.35" y="67.97">8</text>
</g>
<g font-family="Times" font-weight="normal" font-style="normal"
font-size="15" stroke="none" fill="#000000">
<text x="108.12" y="266.73" rotate="-90">f</text>
<text x="108.12" y="260.66" rotate="-90">(</text>
<text x="108.12" y="254.59" rotate="-90">x</text>
<text x="108.12" y="246.06" rotate="-90">)</text>
</g>
<g fill="none" stroke="#000000" stroke-width="1.000">
<line x1="150.86" y1="63.38" x2="157.74" y2="63.38"/>
<line x1="157.74" y1="63.38" x2="851.52" y2="63.38"/>
<line x1="157.74" y1="63.38" x2="157.74" y2="56.50"/>
<line x1="201.05" y1="58.79" x2="201.05" y2="63.38"/>
<line x1="244.36" y1="63.38" x2="244.36" y2="56.50"/>
<line x1="287.95" y1="58.79" x2="287.95" y2="63.38"/>
<line x1="331.26" y1="63.38" x2="331.26" y2="56.50"/>
<line x1="374.57" y1="58.79" x2="374.57" y2="63.38"/>
<line x1="417.87" y1="63.38" x2="417.87" y2="56.50"/>
<line x1="461.18" y1="58.79" x2="461.18" y2="63.38"/>
<line x1="504.77" y1="63.38" x2="504.77" y2="56.50"/>
<line x1="548.08" y1="58.79" x2="548.08" y2="63.38"/>
<line x1="591.39" y1="63.38" x2="591.39" y2="56.50"/>
<line x1="634.70" y1="58.79" x2="634.70" y2="63.38"/>
<line x1="678.00" y1="63.38" x2="678.00" y2="56.50"/>
<line x1="721.31" y1="58.79" x2="721.31" y2="63.38"/>
<line x1="764.90" y1="63.38" x2="764.90" y2="56.50"/>
<line x1="808.21" y1="58.79" x2="808.21" y2="63.38"/>
<line x1="851.52" y1="63.38" x2="851.52" y2="56.50"/>
<line x1="851.52" y1="444.55" x2="851.52" y2="63.38"/>
<line x1="851.52" y1="444.55" x2="851.52" y2="444.55"/>
<line x1="851.52" y1="420.74" x2="851.52" y2="420.74"/>
<line x1="851.52" y1="396.94" x2="851.52" y2="396.94"/>
<line x1="851.52" y1="373.13" x2="851.52" y2="373.13"/>
<line x1="851.52" y1="349.33" x2="851.52" y2="349.33"/>
<line x1="851.52" y1="325.52" x2="851.52" y2="325.52"/>
<line x1="851.52" y1="301.72" x2="851.52" y2="301.72"/>
<line x1="851.52" y1="277.91" x2="851.52" y2="277.91"/>
<line x1="851.52" y1="254.11" x2="851.52" y2="254.11"/>
<line x1="851.52" y1="230.02" x2="851.52" y2="230.02"/>
<line x1="851.52" y1="206.21" x2="851.52" y2="206.21"/>
<line x1="851.52" y1="182.41" x2="851.52" y2="182.41"/>
<line x1="851.52" y1="158.60" x2="851.52" y2="158.60"/>
<line x1="851.52" y1="134.80" x2="851.52" y2="134.80"/>
<line x1="851.52" y1="110.99" x2="851.52" y2="110.99"/>
<line x1="851.52" y1="87.19" x2="851.52" y2="87.19"/>
<line x1="851.52" y1="63.38" x2="851.52" y2="63.38"/>
<polyline points="
 157.74, 63.38 851.52, 63.38 851.52, 444.55 157.74, 444.55 157.74, 63.38"/>
</g>
<g fill="none" stroke="#bfbfbf" stroke-width="1.000">
<line x1="244.36" y1="63.67" x2="244.36" y2="444.26"/>
<line x1="331.26" y1="444.26" x2="331.26" y2="63.67"/>
<line x1="417.87" y1="63.67" x2="417.87" y2="444.26"/>
<line x1="504.77" y1="444.26" x2="504.77" y2="63.67"/>
<line x1="591.39" y1="63.67" x2="591.39" y2="444.26"/>
<line x1="678.00" y1="444.26" x2="678.00" y2="63.67"/>
<line x1="764.90" y1="63.67" x2="764.90" y2="444.26"/>
<line x1="158.03" y1="396.94" x2="851.23" y2="396.94"/>
<line x1="851.23" y1="349.33" x2="158.03" y2="349.33"/>
<line x1="158.03" y1="301.72" x2="851.23" y2="301.72"/>
<line x1="851.23" y1="254.11" x2="158.03" y2="254.11"/>
<line x1="158.03" y1="206.21" x2="851.23" y2="206.21"/>
<line x1="851.23" y1="158.60" x2="158.03" y2="158.60"/>
<line x1="158.03" y1="110.99" x2="851.23" y2="110.99"/>
</g>
<g fill="none" stroke="#ff0000" stroke-width="1.000">
<polyline points="
 232.18, 253.96 235.84, 257.93 239.50, 261.98 243.16, 266.13 246.81, 270.36
 250.47, 274.66 254.13, 279.03 257.78, 283.47 261.44, 287.96 265.10, 292.50
 268.75, 297.08 272.41, 301.70 276.07, 306.33 279.73, 310.99 283.38, 315.65
 287.04, 320.31 290.70, 324.96 294.35, 329.59 298.01, 334.19 301.67, 338.75
 305.32, 343.26 308.98, 347.71 312.64, 352.09 316.30, 356.39 319.95, 360.60
 323.61, 364.71 327.27, 368.70 330.92, 372.57 334.58, 376.31 338.24, 379.91
 341.89, 383.35 345.55, 386.62 349.21, 389.72 352.87, 392.63 356.52, 395.34
 360.18, 397.85 363.84, 400.14 367.49, 402.19 371.15, 404.01 374.81, 405.59
 378.46, 406.90 382.12, 407.95 385.78, 408.72 389.44, 409.21 393.09, 409.41
 396.75, 409.31 400.41, 408.90 404.06, 408.17 407.72, 407.13 411.38, 405.75
 415.03, 404.05 418.69, 402.00 422.35, 399.61 426.01, 396.88 429.66, 393.79
 433.32, 390.36 436.98, 386.56 440.63, 382.41 444.29, 377.90 447.95, 373.03
 451.60, 367.80 455.26, 362.21 458.92, 356.27 462.57, 349.98 466.23, 343.34
 469.89, 336.35 473.55, 329.02 477.20, 321.35 480.86, 313.36 484.52, 305.04
 488.17, 296.41 491.83, 287.48 495.49, 278.25 499.14, 268.74 502.80, 258.96
 506.46, 248.97 510.12, 239.19 513.77, 229.68 517.43, 220.45 521.09, 211.52
 524.74, 202.89 528.40, 194.57 532.06, 186.58 535.71, 178.91 539.37, 171.58
 543.03, 164.59 546.69, 157.95 550.34, 151.65 554.00, 145.71 557.66, 140.13
 561.31, 134.90 564.97, 130.03 568.63, 125.52 572.28, 121.37 575.94, 117.57
 579.60, 114.13 583.26, 111.05 586.91, 108.31 590.57, 105.93 594.23, 103.88"/>
<polyline points="
 594.23, 103.88 597.88, 102.17 601.54, 100.80 605.20, 99.76 608.85, 99.03
 612.51, 98.62 616.17, 98.52 619.83, 98.71 623.48, 99.20 627.14, 99.98
 630.80, 101.03 634.45, 102.34 638.11, 103.91 641.77, 105.73 645.42, 107.79
 649.08, 110.08 652.74, 112.59 656.40, 115.30 660.05, 118.21 663.71, 121.31
 667.37, 124.58 671.02, 128.02 674.68, 131.62 678.34, 135.35 681.99, 139.23
 685.65, 143.22 689.31, 147.33 692.97, 151.54 696.62, 155.84 700.28, 160.22
 703.94, 164.67 707.59, 169.18 711.25, 173.74 714.91, 178.34 718.56, 182.97
 722.22, 187.62 725.88, 192.28 729.54, 196.94 733.19, 201.59 736.85, 206.23
 740.51, 210.85 744.16, 215.43 747.82, 219.97 751.48, 224.46 755.13, 228.89
 758.79, 233.27 762.45, 237.57 766.10, 241.80 769.76, 245.94 773.42, 250.00
 777.08, 253.96"/>
</g>
<g font-family="Times" font-weight="normal" font-style="normal"
font-size="15" stroke="none" fill="#000000">
<text x="504.77" y="73.42">P</text>
<text x="514.16" y="73.42">e</text>
<text x="521.84" y="73.42">a</text>
<text x="529.51" y="73.42">k</text>
</g>
<g font-family="Times" font-weight="normal" font-style="normal"
font-size="15" stroke="none" fill="#000000">
<text x="249.52" y="264.15">L</text>
<text x="259.76" y="264.15">e</text>
<text x="267.44" y="264.15">f</text>
<text x="273.51" y="264.15">t</text>
</g>
<g font-family="Times" font-weight="normal" font-style="normal"
font-size="15" stroke="none" fill="#000000">
<text x="707.83" y="264.15">R</text>
<text x="718.93" y="264.15">i</text>
<text x="724.14" y="264.15">g</text>
<text x="732.67" y="264.15">h</text>
<text x="741.21" y="264.15">t</text>
</g>
<g font-family="Times" font-weight="normal" font-style="normal"
font-size="17" stroke="none" fill="#000000">
<text x="384.03" y="34.13">D</text>
<text x="397.32" y="34.13">a</text>
<text x="405.85" y="34.13">m</text>
<text x="419.97" y="34.13">p</text>
<text x="429.45" y="34.13">e</text>
<text x="437.97" y="34.13">d</text>
<text x="447.45" y="34.13"> </text>
<text x="452.77" y="34.13">S</text>
<text x="463.20" y="34.13">i</text>
<text x="468.99" y="34.13">n</text>
<text x="478.47" y="34.13">e</text>
<text x="486.99" y="34.13"> </text>
<text x="492.31" y="34.13">w</text>
<text x="505.60" y="34.13">i</text>
<text x="511.39" y="34.13">t</text>
<text x="517.17" y="34.13">h</text>
<text x="526.65" y="34.13"> </text>
<text x="531.97" y="34.13">A</text>
<text x="545.26" y="34.13">n</text>
<text x="554.74" y="34.13">n</text>
<text x="564.21" y="34.13">o</text>
<text x="573.69" y="34.13">t</text>
<text x="579.48" y="34.13">a</text>
<text x="588.01" y="34.13">t</text>
<text x="593.80" y="34.13">i</text>
<text x="599.59" y="34.13">o</text>
<text x="609.07" y="34.13">n</text>
<text x="618.55" y="34.13">s</text>
</g>
</svg>
