<?xml version="1.0" encoding="ISO-8859-1" standalone="no"?>
<!DOCTYPE svg PUBLIC "-//W3C//DTD SVG 20010904//EN"
  "http://www.w3.org/TR/2001/REC-SVG-20010904/DTD/svg10.dtd">
<!-- Created by DISLIN (http://www.dislin.de)
Version: 11.5
Date   : 29.06.2026 09:48:44
-->
<svg width="853" height="603"
  xmlns="http://www.w3.org/2000/svg"
  xmlns:xlink="http://www.w3.org/1999/xlink">

<g fill="none" stroke="#000000" stroke-width="1.000">
<line x1="129.06" y1="524.85" x2="799.89" y2="524.85"/>
<line x1="129.06" y1="531.73" x2="129.06" y2="524.85"/>
<line x1="170.93" y1="524.85" x2="170.93" y2="529.44"/>
<line x1="212.81" y1="531.73" x2="212.81" y2="524.85"/>
<line x1="254.97" y1="524.85" x2="254.97" y2="529.44"/>
<line x1="296.84" y1="531.73" x2="296.84" y2="524.85"/>
<line x1="338.71" y1="524.85" x2="338.71" y2="529.44"/>
<line x1="380.59" y1="531.73" x2="380.59" y2="524.85"/>
<line x1="422.46" y1="524.85" x2="422.46" y2="529.44"/>
<line x1="464.62" y1="531.73" x2="464.62" y2="524.85"/>
<line x1="506.49" y1="524.85" x2="506.49" y2="529.44"/>
<line x1="548.37" y1="531.73" x2="548.37" y2="524.85"/>
<line x1="590.24" y1="524.85" x2="590.24" y2="529.44"/>
<line x1="632.11" y1="531.73" x2="632.11" y2="524.85"/>
<line x1="673.99" y1="524.85" x2="673.99" y2="529.44"/>
<line x1="716.15" y1="531.73" x2="716.15" y2="524.85"/>
<line x1="758.02" y1="524.85" x2="758.02" y2="529.44"/>
</g>
<g font-family="Times" font-weight="normal" font-style="normal"
font-size="15" stroke="none" fill="#000000">
<text x="115.58" y="548.65">-</text>
<text x="121.65" y="548.65">4</text>
<text x="130.18" y="548.65">.</text>
<text x="134.96" y="548.65">0</text>
<text x="199.33" y="548.65">-</text>
<text x="205.40" y="548.65">3</text>
<text x="213.93" y="548.65">.</text>
<text x="218.71" y="548.65">0</text>
<text x="283.36" y="548.65">-</text>
<text x="289.43" y="548.65">2</text>
<text x="297.96" y="548.65">.</text>
<text x="302.74" y="548.65">0</text>
<text x="367.11" y="548.65">-</text>
<text x="373.18" y="548.65">1</text>
<text x="381.71" y="548.65">.</text>
<text x="386.49" y="548.65">0</text>
<text x="454.01" y="548.65">0</text>
<text x="462.54" y="548.65">.</text>
<text x="467.32" y="548.65">0</text>
<text x="537.76" y="548.65">1</text>
<text x="546.29" y="548.65">.</text>
<text x="551.07" y="548.65">0</text>
<text x="621.79" y="548.65">2</text>
<text x="630.32" y="548.65">.</text>
<text x="635.10" y="548.65">0</text>
<text x="705.54" y="548.65">3</text>
<text x="714.07" y="548.65">.</text>
<text x="718.85" y="548.65">0</text>
<text x="789.57" y="548.65">4</text>
<text x="798.10" y="548.65">.</text>
<text x="802.88" y="548.65">0</text>
</g>
<g font-family="Times" font-weight="normal" font-style="normal"
font-size="15" stroke="none" fill="#000000">
<text x="460.89" y="567.58">x</text>
</g>
<g fill="none" stroke="#000000" stroke-width="1.000">
<line x1="799.89" y1="531.73" x2="799.89" y2="524.85"/>
<line x1="129.06" y1="524.85" x2="129.06" y2="103.54"/>
<line x1="129.06" y1="524.85" x2="122.18" y2="524.85"/>
<line x1="124.47" y1="498.46" x2="129.06" y2="498.46"/>
<line x1="129.06" y1="472.08" x2="122.18" y2="472.08"/>
<line x1="124.47" y1="445.98" x2="129.06" y2="445.98"/>
<line x1="129.06" y1="419.59" x2="122.18" y2="419.59"/>
<line x1="124.47" y1="393.21" x2="129.06" y2="393.21"/>
<line x1="129.06" y1="366.82" x2="122.18" y2="366.82"/>
<line x1="124.47" y1="340.44" x2="129.06" y2="340.44"/>
<line x1="129.06" y1="314.34" x2="122.18" y2="314.34"/>
<line x1="124.47" y1="287.95" x2="129.06" y2="287.95"/>
<line x1="129.06" y1="261.56" x2="122.18" y2="261.56"/>
<line x1="124.47" y1="235.18" x2="129.06" y2="235.18"/>
<line x1="129.06" y1="208.79" x2="122.18" y2="208.79"/>
<line x1="124.47" y1="182.41" x2="129.06" y2="182.41"/>
<line x1="129.06" y1="156.31" x2="122.18" y2="156.31"/>
<line x1="124.47" y1="129.92" x2="129.06" y2="129.92"/>
</g>
<g font-family="Times" font-weight="normal" font-style="normal"
font-size="15" stroke="none" fill="#000000">
<text x="88.34" y="529.44">-</text>
<text x="94.40" y="529.44">0</text>
<text x="102.93" y="529.44">.</text>
<text x="107.72" y="529.44">8</text>
<text x="88.34" y="476.67">-</text>
<text x="94.40" y="476.67">0</text>
<text x="102.93" y="476.67">.</text>
<text x="107.72" y="476.67">6</text>
<text x="88.34" y="424.18">-</text>
<text x="94.40" y="424.18">0</text>
<text x="102.93" y="424.18">.</text>
<text x="107.72" y="424.18">4</text>
<text x="88.34" y="371.41">-</text>
<text x="94.40" y="371.41">0</text>
<text x="102.93" y="371.41">.</text>
<text x="107.72" y="371.41">2</text>
<text x="94.36" y="318.93">0</text>
<text x="102.89" y="318.93">.</text>
<text x="107.67" y="318.93">0</text>
<text x="94.36" y="266.15">0</text>
<text x="102.89" y="266.15">.</text>
<text x="107.67" y="266.15">2</text>
<text x="94.36" y="213.38">0</text>
<text x="102.89" y="213.38">.</text>
<text x="107.67" y="213.38">4</text>
<text x="94.36" y="160.90">0</text>
<text x="102.89" y="160.90">.</text>
<text x="107.67" y="160.90">6</text>
<text x="94.36" y="108.12">0</text>
<text x="102.89" y="108.12">.</text>
<text x="107.67" y="108.12">8</text>
</g>
<g font-family="Times" font-weight="normal" font-style="normal"
font-size="15" stroke="none" fill="#000000">
<text x="79.44" y="326.96" rotate="-90">f</text>
<text x="79.44" y="320.89" rotate="-90">(</text>
<text x="79.44" y="314.82" rotate="-90">x</text>
<text x="79.44" y="306.29" rotate="-90">)</text>
</g>
<g fill="none" stroke="#000000" stroke-width="1.000">
<line x1="129.06" y1="103.54" x2="122.18" y2="103.54"/>
<line x1="129.06" y1="103.54" x2="799.89" y2="103.54"/>
<line x1="129.06" y1="96.65" x2="129.06" y2="103.54"/>
<line x1="170.93" y1="103.54" x2="170.93" y2="98.95"/>
<line x1="212.81" y1="96.65" x2="212.81" y2="103.54"/>
<line x1="254.97" y1="103.54" x2="254.97" y2="98.95"/>
<line x1="296.84" y1="96.65" x2="296.84" y2="103.54"/>
<line x1="338.71" y1="103.54" x2="338.71" y2="98.95"/>
<line x1="380.59" y1="96.65" x2="380.59" y2="103.54"/>
<line x1="422.46" y1="103.54" x2="422.46" y2="98.95"/>
<line x1="464.62" y1="96.65" x2="464.62" y2="103.54"/>
<line x1="506.49" y1="103.54" x2="506.49" y2="98.95"/>
<line x1="548.37" y1="96.65" x2="548.37" y2="103.54"/>
<line x1="590.24" y1="103.54" x2="590.24" y2="98.95"/>
<line x1="632.11" y1="96.65" x2="632.11" y2="103.54"/>
<line x1="673.99" y1="103.54" x2="673.99" y2="98.95"/>
<line x1="716.15" y1="96.65" x2="716.15" y2="103.54"/>
<line x1="758.02" y1="103.54" x2="758.02" y2="98.95"/>
<line x1="799.89" y1="96.65" x2="799.89" y2="103.54"/>
<line x1="799.89" y1="524.85" x2="799.89" y2="103.54"/>
<line x1="799.89" y1="524.85" x2="806.78" y2="524.85"/>
<line x1="804.48" y1="498.46" x2="799.89" y2="498.46"/>
<line x1="799.89" y1="472.08" x2="806.78" y2="472.08"/>
<line x1="804.48" y1="445.98" x2="799.89" y2="445.98"/>
<line x1="799.89" y1="419.59" x2="806.78" y2="419.59"/>
<line x1="804.48" y1="393.21" x2="799.89" y2="393.21"/>
<line x1="799.89" y1="366.82" x2="806.78" y2="366.82"/>
<line x1="804.48" y1="340.44" x2="799.89" y2="340.44"/>
<line x1="799.89" y1="314.34" x2="806.78" y2="314.34"/>
<line x1="804.48" y1="287.95" x2="799.89" y2="287.95"/>
<line x1="799.89" y1="261.56" x2="806.78" y2="261.56"/>
<line x1="804.48" y1="235.18" x2="799.89" y2="235.18"/>
<line x1="799.89" y1="208.79" x2="806.78" y2="208.79"/>
<line x1="804.48" y1="182.41" x2="799.89" y2="182.41"/>
<line x1="799.89" y1="156.31" x2="806.78" y2="156.31"/>
<line x1="804.48" y1="129.92" x2="799.89" y2="129.92"/>
<line x1="799.89" y1="103.54" x2="806.78" y2="103.54"/>
</g>
<g fill="none" stroke="#bfbfbf" stroke-width="1.000">
<line x1="212.81" y1="524.56" x2="212.81" y2="103.82"/>
<line x1="296.84" y1="103.82" x2="296.84" y2="524.56"/>
<line x1="380.59" y1="524.56" x2="380.59" y2="103.82"/>
<line x1="464.62" y1="103.82" x2="464.62" y2="524.56"/>
<line x1="548.37" y1="524.56" x2="548.37" y2="103.82"/>
<line x1="632.11" y1="103.82" x2="632.11" y2="524.56"/>
<line x1="716.15" y1="524.56" x2="716.15" y2="103.82"/>
<line x1="799.61" y1="472.08" x2="129.35" y2="472.08"/>
<line x1="129.35" y1="419.59" x2="799.61" y2="419.59"/>
<line x1="799.61" y1="366.82" x2="129.35" y2="366.82"/>
<line x1="129.35" y1="314.34" x2="799.61" y2="314.34"/>
<line x1="799.61" y1="261.56" x2="129.35" y2="261.56"/>
<line x1="129.35" y1="208.79" x2="799.61" y2="208.79"/>
<line x1="799.61" y1="156.31" x2="129.35" y2="156.31"/>
</g>
<g fill="none" stroke="#ff0000" stroke-width="1.000">
<polyline points="
 201.04, 314.19 204.58, 318.57 208.11, 323.06 211.65, 327.64 215.19, 332.31
 218.72, 337.07 222.26, 341.90 225.79, 346.81 229.33, 351.77 232.87, 356.79
 236.40, 361.85 239.94, 366.95 243.47, 372.08 247.01, 377.22 250.55, 382.38
 254.08, 387.53 257.62, 392.67 261.16, 397.78 264.69, 402.87 268.23, 407.91
 271.76, 412.89 275.30, 417.81 278.84, 422.65 282.37, 427.41 285.91, 432.06
 289.44, 436.60 292.98, 441.02 296.52, 445.30 300.05, 449.43 303.59, 453.40
 307.12, 457.21 310.66, 460.83 314.20, 464.25 317.73, 467.47 321.27, 470.47
 324.80, 473.23 328.34, 475.76 331.88, 478.04 335.41, 480.05 338.95, 481.79
 342.48, 483.24 346.02, 484.40 349.56, 485.26 353.09, 485.80 356.63, 486.01
 360.16, 485.90 363.70, 485.45 367.24, 484.65 370.77, 483.49 374.31, 481.97
 377.84, 480.09 381.38, 477.83 384.92, 475.19 388.45, 472.16 391.99, 468.75
 395.52, 464.95 399.06, 460.76 402.60, 456.17 406.13, 451.18 409.67, 445.80
 413.21, 440.02 416.74, 433.85 420.28, 427.28 423.81, 420.32 427.35, 412.98
 430.89, 405.25 434.42, 397.15 437.96, 388.68 441.49, 379.84 445.03, 370.65
 448.57, 361.11 452.10, 351.24 455.64, 341.04 459.17, 330.52 462.71, 319.71
 466.25, 308.68 469.78, 297.86 473.32, 287.35 476.85, 277.15 480.39, 267.27
 483.93, 257.74 487.46, 248.54 491.00, 239.71 494.53, 231.23 498.07, 223.13
 501.61, 215.41 505.14, 208.06 508.68, 201.11 512.21, 194.54 515.75, 188.37
 519.29, 182.59 522.82, 177.20 526.36, 172.22 529.89, 167.63 533.43, 163.43
 536.97, 159.63 540.50, 156.22 544.04, 153.20 547.57, 150.56 551.11, 148.30"/>
<polyline points="
 551.11, 148.30 554.65, 146.41 558.18, 144.90 561.72, 143.74 565.26, 142.94
 568.79, 142.48 572.33, 142.37 575.86, 142.59 579.40, 143.13 582.94, 143.99
 586.47, 145.14 590.01, 146.60 593.54, 148.34 597.08, 150.35 600.62, 152.62
 604.15, 155.15 607.69, 157.92 611.22, 160.92 614.76, 164.14 618.30, 167.56
 621.83, 171.18 625.37, 174.98 628.90, 178.96 632.44, 183.09 635.98, 187.37
 639.51, 191.79 643.05, 196.33 646.58, 200.98 650.12, 205.73 653.66, 210.57
 657.19, 215.49 660.73, 220.48 664.26, 225.52 667.80, 230.60 671.34, 235.72
 674.87, 240.86 678.41, 246.01 681.94, 251.16 685.48, 256.31 689.02, 261.43
 692.55, 266.53 696.09, 271.60 699.62, 276.61 703.16, 281.58 706.70, 286.48
 710.23, 291.32 713.77, 296.07 717.31, 300.75 720.84, 305.33 724.38, 309.81
 727.91, 314.19"/>
</g>
<g font-family="Times" font-weight="normal" font-style="normal"
font-size="15" stroke="none" fill="#000000">
<text x="548.37" y="139.96">P</text>
<text x="557.76" y="139.96">e</text>
<text x="565.43" y="139.96">a</text>
<text x="573.11" y="139.96">k</text>
</g>
<g font-family="Times" font-weight="normal" font-style="normal"
font-size="15" stroke="none" fill="#000000">
<text x="201.05" y="324.37">L</text>
<text x="211.29" y="324.37">e</text>
<text x="218.97" y="324.37">f</text>
<text x="225.04" y="324.37">t</text>
</g>
<g font-family="Times" font-weight="normal" font-style="normal"
font-size="15" stroke="none" fill="#000000">
<text x="727.91" y="324.37">R</text>
<text x="739.01" y="324.37">i</text>
<text x="744.22" y="324.37">g</text>
<text x="752.75" y="324.37">h</text>
<text x="761.28" y="324.37">t</text>
</g>
<g font-family="Times" font-weight="normal" font-style="normal"
font-size="17" stroke="none" fill="#000000">
<text x="343.88" y="74.28">D</text>
<text x="357.17" y="74.28">a</text>
<text x="365.69" y="74.28">m</text>
<text x="379.81" y="74.28">p</text>
<text x="389.29" y="74.28">e</text>
<text x="397.82" y="74.28">d</text>
<text x="407.30" y="74.28"> </text>
<text x="412.61" y="74.28">S</text>
<text x="423.05" y="74.28">i</text>
<text x="428.83" y="74.28">n</text>
<text x="438.31" y="74.28">e</text>
<text x="446.84" y="74.28"> </text>
<text x="452.15" y="74.28">w</text>
<text x="465.44" y="74.28">i</text>
<text x="471.23" y="74.28">t</text>
<text x="477.02" y="74.28">h</text>
<text x="486.50" y="74.28"> </text>
<text x="491.81" y="74.28">A</text>
<text x="505.10" y="74.28">n</text>
<text x="514.58" y="74.28">n</text>
<text x="524.06" y="74.28">o</text>
<text x="533.54" y="74.28">t</text>
<text x="539.33" y="74.28">a</text>
<text x="547.86" y="74.28">t</text>
<text x="553.65" y="74.28">i</text>
<text x="559.44" y="74.28">o</text>
<text x="568.92" y="74.28">n</text>
<text x="578.40" y="74.28">s</text>
</g>
</svg>
