<?xml version="1.0" encoding="ISO-8859-1" standalone="no"?>
<!DOCTYPE svg PUBLIC "-//W3C//DTD SVG 20010904//EN"
  "http://www.w3.org/TR/2001/REC-SVG-20010904/DTD/svg10.dtd">
<!-- Created by DISLIN (http://www.dislin.de)
Version: 11.5
Date   : 26.06.2026 22:55:08
-->
<svg width="853" height="603"
  xmlns="http://www.w3.org/2000/svg"
  xmlns:xlink="http://www.w3.org/1999/xlink">

<g fill="none" stroke="#000000" stroke-width="1.000">
<rect x="157.74" y="63.38" width="694.78" height="382.16"
 fill="#f7f7f7" stroke="none"/>
</g>
<g fill="none" stroke="#000000" stroke-width="1.000">
<line x1="157.74" y1="444.55" x2="851.52" y2="444.55"/>
<line x1="157.74" y1="451.43" x2="157.74" y2="444.55"/>
<line x1="201.05" y1="444.55" x2="201.05" y2="449.13"/>
<line x1="244.36" y1="451.43" x2="244.36" y2="444.55"/>
<line x1="287.95" y1="444.55" x2="287.95" y2="449.13"/>
<line x1="331.26" y1="451.43" x2="331.26" y2="444.55"/>
<line x1="374.57" y1="444.55" x2="374.57" y2="449.13"/>
<line x1="417.87" y1="451.43" x2="417.87" y2="444.55"/>
<line x1="461.18" y1="444.55" x2="461.18" y2="449.13"/>
<line x1="504.77" y1="451.43" x2="504.77" y2="444.55"/>
<line x1="548.08" y1="444.55" x2="548.08" y2="449.13"/>
<line x1="591.39" y1="451.43" x2="591.39" y2="444.55"/>
<line x1="634.70" y1="444.55" x2="634.70" y2="449.13"/>
<line x1="678.00" y1="451.43" x2="678.00" y2="444.55"/>
<line x1="721.31" y1="444.55" x2="721.31" y2="449.13"/>
<line x1="764.90" y1="451.43" x2="764.90" y2="444.55"/>
<line x1="808.21" y1="444.55" x2="808.21" y2="449.13"/>
</g>
<g font-family="Times" font-weight="normal" font-style="normal"
font-size="15" stroke="none" fill="#000000">
<text x="147.42" y="468.35">0</text>
<text x="155.95" y="468.35">.</text>
<text x="160.73" y="468.35">0</text>
<text x="234.03" y="468.35">1</text>
<text x="242.56" y="468.35">.</text>
<text x="247.34" y="468.35">0</text>
<text x="320.65" y="468.35">2</text>
<text x="329.18" y="468.35">.</text>
<text x="333.96" y="468.35">0</text>
<text x="407.55" y="468.35">3</text>
<text x="416.08" y="468.35">.</text>
<text x="420.86" y="468.35">0</text>
<text x="494.16" y="468.35">4</text>
<text x="502.69" y="468.35">.</text>
<text x="507.48" y="468.35">0</text>
<text x="580.78" y="468.35">5</text>
<text x="589.31" y="468.35">.</text>
<text x="594.09" y="468.35">0</text>
<text x="667.68" y="468.35">6</text>
<text x="676.21" y="468.35">.</text>
<text x="680.99" y="468.35">0</text>
<text x="754.29" y="468.35">7</text>
<text x="762.82" y="468.35">.</text>
<text x="767.61" y="468.35">0</text>
<text x="841.19" y="468.35">8</text>
<text x="849.73" y="468.35">.</text>
<text x="854.51" y="468.35">0</text>
</g>
<g font-family="Times" font-weight="normal" font-style="normal"
font-size="15" stroke="none" fill="#000000">
<text x="482.69" y="487.28">M</text>
<text x="497.11" y="487.28">o</text>
<text x="505.64" y="487.28">n</text>
<text x="514.18" y="487.28">t</text>
<text x="519.39" y="487.28">h</text>
</g>
<g fill="none" stroke="#000000" stroke-width="1.000">
<line x1="851.52" y1="451.43" x2="851.52" y2="444.55"/>
<line x1="157.74" y1="444.55" x2="157.74" y2="63.38"/>
<line x1="157.74" y1="444.55" x2="150.86" y2="444.55"/>
<line x1="153.15" y1="420.74" x2="157.74" y2="420.74"/>
<line x1="157.74" y1="396.94" x2="150.86" y2="396.94"/>
<line x1="153.15" y1="373.13" x2="157.74" y2="373.13"/>
<line x1="157.74" y1="349.33" x2="150.86" y2="349.33"/>
<line x1="153.15" y1="325.52" x2="157.74" y2="325.52"/>
<line x1="157.74" y1="301.72" x2="150.86" y2="301.72"/>
<line x1="153.15" y1="277.91" x2="157.74" y2="277.91"/>
<line x1="157.74" y1="254.11" x2="150.86" y2="254.11"/>
<line x1="153.15" y1="230.02" x2="157.74" y2="230.02"/>
<line x1="157.74" y1="206.21" x2="150.86" y2="206.21"/>
<line x1="153.15" y1="182.41" x2="157.74" y2="182.41"/>
<line x1="157.74" y1="158.60" x2="150.86" y2="158.60"/>
<line x1="153.15" y1="134.80" x2="157.74" y2="134.80"/>
<line x1="157.74" y1="110.99" x2="150.86" y2="110.99"/>
<line x1="153.15" y1="87.19" x2="157.74" y2="87.19"/>
</g>
<g font-family="Times" font-weight="normal" font-style="normal"
font-size="15" stroke="none" fill="#000000">
<text x="117.02" y="449.13">-</text>
<text x="123.08" y="449.13">1</text>
<text x="131.61" y="449.13">.</text>
<text x="136.40" y="449.13">0</text>
<text x="123.04" y="401.52">0</text>
<text x="131.57" y="401.52">.</text>
<text x="136.35" y="401.52">0</text>
<text x="123.04" y="353.92">1</text>
<text x="131.57" y="353.92">.</text>
<text x="136.35" y="353.92">0</text>
<text x="123.04" y="306.31">2</text>
<text x="131.57" y="306.31">.</text>
<text x="136.35" y="306.31">0</text>
<text x="123.04" y="258.70">3</text>
<text x="131.57" y="258.70">.</text>
<text x="136.35" y="258.70">0</text>
<text x="123.04" y="210.80">4</text>
<text x="131.57" y="210.80">.</text>
<text x="136.35" y="210.80">0</text>
<text x="123.04" y="163.19">5</text>
<text x="131.57" y="163.19">.</text>
<text x="136.35" y="163.19">0</text>
<text x="123.04" y="115.58">6</text>
<text x="131.57" y="115.58">.</text>
<text x="136.35" y="115.58">0</text>
<text x="123.04" y="67.97">7</text>
<text x="131.57" y="67.97">.</text>
<text x="136.35" y="67.97">0</text>
</g>
<g font-family="Times" font-weight="normal" font-style="normal"
font-size="15" stroke="none" fill="#000000">
<text x="108.12" y="295.98" rotate="-90">R</text>
<text x="108.12" y="284.88" rotate="-90">e</text>
<text x="108.12" y="277.20" rotate="-90">v</text>
<text x="108.12" y="268.67" rotate="-90">e</text>
<text x="108.12" y="261.00" rotate="-90">n</text>
<text x="108.12" y="252.47" rotate="-90">u</text>
<text x="108.12" y="243.94" rotate="-90">e</text>
<text x="108.12" y="236.26" rotate="-90"> </text>
<text x="108.12" y="231.48" rotate="-90">(</text>
<text x="108.12" y="225.41" rotate="-90">k</text>
<text x="108.12" y="216.88" rotate="-90">)</text>
</g>
<g fill="none" stroke="#000000" stroke-width="1.000">
<line x1="157.74" y1="63.38" x2="150.86" y2="63.38"/>
<line x1="157.74" y1="63.38" x2="851.52" y2="63.38"/>
<line x1="157.74" y1="56.50" x2="157.74" y2="63.38"/>
<line x1="201.05" y1="63.38" x2="201.05" y2="58.79"/>
<line x1="244.36" y1="56.50" x2="244.36" y2="63.38"/>
<line x1="287.95" y1="63.38" x2="287.95" y2="58.79"/>
<line x1="331.26" y1="56.50" x2="331.26" y2="63.38"/>
<line x1="374.57" y1="63.38" x2="374.57" y2="58.79"/>
<line x1="417.87" y1="56.50" x2="417.87" y2="63.38"/>
<line x1="461.18" y1="63.38" x2="461.18" y2="58.79"/>
<line x1="504.77" y1="56.50" x2="504.77" y2="63.38"/>
<line x1="548.08" y1="63.38" x2="548.08" y2="58.79"/>
<line x1="591.39" y1="56.50" x2="591.39" y2="63.38"/>
<line x1="634.70" y1="63.38" x2="634.70" y2="58.79"/>
<line x1="678.00" y1="56.50" x2="678.00" y2="63.38"/>
<line x1="721.31" y1="63.38" x2="721.31" y2="58.79"/>
<line x1="764.90" y1="56.50" x2="764.90" y2="63.38"/>
<line x1="808.21" y1="63.38" x2="808.21" y2="58.79"/>
<line x1="851.52" y1="56.50" x2="851.52" y2="63.38"/>
<line x1="851.52" y1="444.55" x2="851.52" y2="63.38"/>
<line x1="851.52" y1="444.55" x2="851.52" y2="444.55"/>
<line x1="851.52" y1="420.74" x2="851.52" y2="420.74"/>
<line x1="851.52" y1="396.94" x2="851.52" y2="396.94"/>
<line x1="851.52" y1="373.13" x2="851.52" y2="373.13"/>
<line x1="851.52" y1="349.33" x2="851.52" y2="349.33"/>
<line x1="851.52" y1="325.52" x2="851.52" y2="325.52"/>
<line x1="851.52" y1="301.72" x2="851.52" y2="301.72"/>
<line x1="851.52" y1="277.91" x2="851.52" y2="277.91"/>
<line x1="851.52" y1="254.11" x2="851.52" y2="254.11"/>
<line x1="851.52" y1="230.02" x2="851.52" y2="230.02"/>
<line x1="851.52" y1="206.21" x2="851.52" y2="206.21"/>
<line x1="851.52" y1="182.41" x2="851.52" y2="182.41"/>
<line x1="851.52" y1="158.60" x2="851.52" y2="158.60"/>
<line x1="851.52" y1="134.80" x2="851.52" y2="134.80"/>
<line x1="851.52" y1="110.99" x2="851.52" y2="110.99"/>
<line x1="851.52" y1="87.19" x2="851.52" y2="87.19"/>
<line x1="851.52" y1="63.38" x2="851.52" y2="63.38"/>
<polyline points="
 157.74, 63.38 851.52, 63.38 851.52, 444.55 157.74, 444.55 157.74, 63.38"/>
</g>
<g fill="none" stroke="#bfbfbf" stroke-width="1.000">
<line x1="244.36" y1="444.26" x2="244.36" y2="63.67"/>
<line x1="331.26" y1="63.67" x2="331.26" y2="444.26"/>
<line x1="417.87" y1="444.26" x2="417.87" y2="63.67"/>
<line x1="504.77" y1="63.67" x2="504.77" y2="444.26"/>
<line x1="591.39" y1="444.26" x2="591.39" y2="63.67"/>
<line x1="678.00" y1="63.67" x2="678.00" y2="444.26"/>
<line x1="764.90" y1="444.26" x2="764.90" y2="63.67"/>
<line x1="851.23" y1="396.94" x2="158.03" y2="396.94"/>
<line x1="158.03" y1="349.33" x2="851.23" y2="349.33"/>
<line x1="851.23" y1="301.72" x2="158.03" y2="301.72"/>
<line x1="158.03" y1="254.11" x2="851.23" y2="254.11"/>
<line x1="851.23" y1="206.21" x2="158.03" y2="206.21"/>
<line x1="158.03" y1="158.60" x2="851.23" y2="158.60"/>
<line x1="851.23" y1="110.99" x2="158.03" y2="110.99"/>
</g>
<g fill="none" stroke="#4582b5" stroke-width="1.000">
<polyline points="
 211.95, 396.94 277.05, 396.94 277.05, 244.36 211.95, 244.36 211.95, 396.94"/>
<polyline points="
 298.56, 396.94 363.67, 396.94 363.67, 154.01 298.56, 154.01 298.56, 396.94"/>
<polyline points="
 385.46, 396.94 450.57, 396.94 450.57, 268.16 385.46, 268.16 385.46, 396.94"/>
<polyline points="
 472.08, 396.94 537.18, 396.94 537.18, 168.07 472.08, 168.07 472.08, 396.94"/>
<polyline points="
 558.69, 396.94 623.80, 396.94 623.80, 230.02 558.69, 230.02 558.69, 396.94"/>
<polyline points="
 645.59, 396.94 710.70, 396.94 710.70, 106.40 645.59, 106.40 645.59, 396.94"/>
<polyline points="
 732.21, 396.94 797.31, 396.94 797.31, 192.16 732.21, 192.16 732.21, 396.94"/>
</g>
<g fill="none" stroke="#000000" stroke-width="1.000">
<polyline points="
 679.72, 68.55 846.07, 68.55 846.07, 94.07 679.72, 94.07 679.72, 68.55"/>
</g>
<g fill="none" stroke="#4582b5" stroke-width="1.000">
<polyline points="
 687.75, 76.58 729.05, 76.58 729.05, 86.61 687.75, 86.61 687.75, 76.58"/>
</g>
<g font-family="Times" font-weight="normal" font-style="normal"
font-size="15" stroke="none" fill="#000000">
<text x="739.38" y="86.61">M</text>
<text x="753.80" y="86.61">o</text>
<text x="762.33" y="86.61">n</text>
<text x="770.87" y="86.61">t</text>
<text x="776.08" y="86.61">h</text>
<text x="784.61" y="86.61">l</text>
<text x="789.82" y="86.61">y</text>
<text x="798.35" y="86.61"> </text>
<text x="803.13" y="86.61">S</text>
<text x="812.52" y="86.61">a</text>
<text x="820.19" y="86.61">l</text>
<text x="825.40" y="86.61">e</text>
<text x="833.08" y="86.61">s</text>
</g>
<g font-family="Times" font-weight="normal" font-style="normal"
font-size="17" stroke="none" fill="#000000">
<text x="436.80" y="34.13">M</text>
<text x="452.83" y="34.13">o</text>
<text x="462.31" y="34.13">n</text>
<text x="471.79" y="34.13">t</text>
<text x="477.58" y="34.13">h</text>
<text x="487.06" y="34.13">l</text>
<text x="492.84" y="34.13">y</text>
<text x="502.32" y="34.13"> </text>
<text x="507.64" y="34.13">R</text>
<text x="519.97" y="34.13">e</text>
<text x="528.50" y="34.13">v</text>
<text x="537.98" y="34.13">e</text>
<text x="546.51" y="34.13">n</text>
<text x="555.99" y="34.13">u</text>
<text x="565.47" y="34.13">e</text>
</g>
</svg>
