<?xml version="1.0" encoding="ISO-8859-1" standalone="no"?>
<!DOCTYPE svg PUBLIC "-//W3C//DTD SVG 20010904//EN"
  "http://www.w3.org/TR/2001/REC-SVG-20010904/DTD/svg10.dtd">
<!-- Created by DISLIN (http://www.dislin.de)
Version: 11.5
Date   : 27.06.2026 18:20:59
-->
<svg width="853" height="603"
  xmlns="http://www.w3.org/2000/svg"
  xmlns:xlink="http://www.w3.org/1999/xlink">

<g fill="none" stroke="#000000" stroke-width="1.000">
<rect x="129.06" y="103.54" width="671.83" height="422.31"
 fill="#f7f7f7" stroke="none"/>
</g>
<g fill="none" stroke="#000000" stroke-width="1.000">
<line x1="129.06" y1="524.85" x2="799.89" y2="524.85"/>
<line x1="129.06" y1="531.73" x2="129.06" y2="524.85"/>
<line x1="170.93" y1="524.85" x2="170.93" y2="529.44"/>
<line x1="212.81" y1="531.73" x2="212.81" y2="524.85"/>
<line x1="254.97" y1="524.85" x2="254.97" y2="529.44"/>
<line x1="296.84" y1="531.73" x2="296.84" y2="524.85"/>
<line x1="338.71" y1="524.85" x2="338.71" y2="529.44"/>
<line x1="380.59" y1="531.73" x2="380.59" y2="524.85"/>
<line x1="422.46" y1="524.85" x2="422.46" y2="529.44"/>
<line x1="464.62" y1="531.73" x2="464.62" y2="524.85"/>
<line x1="506.49" y1="524.85" x2="506.49" y2="529.44"/>
<line x1="548.37" y1="531.73" x2="548.37" y2="524.85"/>
<line x1="590.24" y1="524.85" x2="590.24" y2="529.44"/>
<line x1="632.11" y1="531.73" x2="632.11" y2="524.85"/>
<line x1="673.99" y1="524.85" x2="673.99" y2="529.44"/>
<line x1="716.15" y1="531.73" x2="716.15" y2="524.85"/>
<line x1="758.02" y1="524.85" x2="758.02" y2="529.44"/>
</g>
<g font-family="Times" font-weight="normal" font-style="normal"
font-size="15" stroke="none" fill="#000000">
<text x="118.74" y="548.65">0</text>
<text x="127.27" y="548.65">.</text>
<text x="132.05" y="548.65">0</text>
<text x="202.48" y="548.65">1</text>
<text x="211.01" y="548.65">.</text>
<text x="215.80" y="548.65">0</text>
<text x="286.23" y="548.65">2</text>
<text x="294.76" y="548.65">.</text>
<text x="299.54" y="548.65">0</text>
<text x="370.26" y="548.65">3</text>
<text x="378.79" y="548.65">.</text>
<text x="383.58" y="548.65">0</text>
<text x="454.01" y="548.65">4</text>
<text x="462.54" y="548.65">.</text>
<text x="467.32" y="548.65">0</text>
<text x="537.76" y="548.65">5</text>
<text x="546.29" y="548.65">.</text>
<text x="551.07" y="548.65">0</text>
<text x="621.79" y="548.65">6</text>
<text x="630.32" y="548.65">.</text>
<text x="635.10" y="548.65">0</text>
<text x="705.54" y="548.65">7</text>
<text x="714.07" y="548.65">.</text>
<text x="718.85" y="548.65">0</text>
<text x="789.57" y="548.65">8</text>
<text x="798.10" y="548.65">.</text>
<text x="802.88" y="548.65">0</text>
</g>
<g font-family="Times" font-weight="normal" font-style="normal"
font-size="15" stroke="none" fill="#000000">
<text x="442.54" y="567.58">M</text>
<text x="456.96" y="567.58">o</text>
<text x="465.49" y="567.58">n</text>
<text x="474.02" y="567.58">t</text>
<text x="479.23" y="567.58">h</text>
</g>
<g fill="none" stroke="#000000" stroke-width="1.000">
<line x1="799.89" y1="531.73" x2="799.89" y2="524.85"/>
<line x1="129.06" y1="524.85" x2="129.06" y2="103.54"/>
<line x1="129.06" y1="524.85" x2="122.18" y2="524.85"/>
<line x1="124.47" y1="498.46" x2="129.06" y2="498.46"/>
<line x1="129.06" y1="472.08" x2="122.18" y2="472.08"/>
<line x1="124.47" y1="445.98" x2="129.06" y2="445.98"/>
<line x1="129.06" y1="419.59" x2="122.18" y2="419.59"/>
<line x1="124.47" y1="393.21" x2="129.06" y2="393.21"/>
<line x1="129.06" y1="366.82" x2="122.18" y2="366.82"/>
<line x1="124.47" y1="340.44" x2="129.06" y2="340.44"/>
<line x1="129.06" y1="314.34" x2="122.18" y2="314.34"/>
<line x1="124.47" y1="287.95" x2="129.06" y2="287.95"/>
<line x1="129.06" y1="261.56" x2="122.18" y2="261.56"/>
<line x1="124.47" y1="235.18" x2="129.06" y2="235.18"/>
<line x1="129.06" y1="208.79" x2="122.18" y2="208.79"/>
<line x1="124.47" y1="182.41" x2="129.06" y2="182.41"/>
<line x1="129.06" y1="156.31" x2="122.18" y2="156.31"/>
<line x1="124.47" y1="129.92" x2="129.06" y2="129.92"/>
</g>
<g font-family="Times" font-weight="normal" font-style="normal"
font-size="15" stroke="none" fill="#000000">
<text x="88.34" y="529.44">-</text>
<text x="94.40" y="529.44">1</text>
<text x="102.93" y="529.44">.</text>
<text x="107.72" y="529.44">0</text>
<text x="94.36" y="476.67">0</text>
<text x="102.89" y="476.67">.</text>
<text x="107.67" y="476.67">0</text>
<text x="94.36" y="424.18">1</text>
<text x="102.89" y="424.18">.</text>
<text x="107.67" y="424.18">0</text>
<text x="94.36" y="371.41">2</text>
<text x="102.89" y="371.41">.</text>
<text x="107.67" y="371.41">0</text>
<text x="94.36" y="318.93">3</text>
<text x="102.89" y="318.93">.</text>
<text x="107.67" y="318.93">0</text>
<text x="94.36" y="266.15">4</text>
<text x="102.89" y="266.15">.</text>
<text x="107.67" y="266.15">0</text>
<text x="94.36" y="213.38">5</text>
<text x="102.89" y="213.38">.</text>
<text x="107.67" y="213.38">0</text>
<text x="94.36" y="160.90">6</text>
<text x="102.89" y="160.90">.</text>
<text x="107.67" y="160.90">0</text>
<text x="94.36" y="108.12">7</text>
<text x="102.89" y="108.12">.</text>
<text x="107.67" y="108.12">0</text>
</g>
<g font-family="Times" font-weight="normal" font-style="normal"
font-size="15" stroke="none" fill="#000000">
<text x="79.44" y="356.21" rotate="-90">R</text>
<text x="79.44" y="345.11" rotate="-90">e</text>
<text x="79.44" y="337.43" rotate="-90">v</text>
<text x="79.44" y="328.90" rotate="-90">e</text>
<text x="79.44" y="321.23" rotate="-90">n</text>
<text x="79.44" y="312.70" rotate="-90">u</text>
<text x="79.44" y="304.16" rotate="-90">e</text>
<text x="79.44" y="296.49" rotate="-90"> </text>
<text x="79.44" y="291.71" rotate="-90">(</text>
<text x="79.44" y="285.64" rotate="-90">k</text>
<text x="79.44" y="277.11" rotate="-90">)</text>
</g>
<g fill="none" stroke="#000000" stroke-width="1.000">
<line x1="129.06" y1="103.54" x2="122.18" y2="103.54"/>
<line x1="129.06" y1="103.54" x2="799.89" y2="103.54"/>
<line x1="129.06" y1="96.65" x2="129.06" y2="103.54"/>
<line x1="170.93" y1="103.54" x2="170.93" y2="98.95"/>
<line x1="212.81" y1="96.65" x2="212.81" y2="103.54"/>
<line x1="254.97" y1="103.54" x2="254.97" y2="98.95"/>
<line x1="296.84" y1="96.65" x2="296.84" y2="103.54"/>
<line x1="338.71" y1="103.54" x2="338.71" y2="98.95"/>
<line x1="380.59" y1="96.65" x2="380.59" y2="103.54"/>
<line x1="422.46" y1="103.54" x2="422.46" y2="98.95"/>
<line x1="464.62" y1="96.65" x2="464.62" y2="103.54"/>
<line x1="506.49" y1="103.54" x2="506.49" y2="98.95"/>
<line x1="548.37" y1="96.65" x2="548.37" y2="103.54"/>
<line x1="590.24" y1="103.54" x2="590.24" y2="98.95"/>
<line x1="632.11" y1="96.65" x2="632.11" y2="103.54"/>
<line x1="673.99" y1="103.54" x2="673.99" y2="98.95"/>
<line x1="716.15" y1="96.65" x2="716.15" y2="103.54"/>
<line x1="758.02" y1="103.54" x2="758.02" y2="98.95"/>
<line x1="799.89" y1="96.65" x2="799.89" y2="103.54"/>
<line x1="799.89" y1="524.85" x2="799.89" y2="103.54"/>
<line x1="799.89" y1="524.85" x2="806.78" y2="524.85"/>
<line x1="804.48" y1="498.46" x2="799.89" y2="498.46"/>
<line x1="799.89" y1="472.08" x2="806.78" y2="472.08"/>
<line x1="804.48" y1="445.98" x2="799.89" y2="445.98"/>
<line x1="799.89" y1="419.59" x2="806.78" y2="419.59"/>
<line x1="804.48" y1="393.21" x2="799.89" y2="393.21"/>
<line x1="799.89" y1="366.82" x2="806.78" y2="366.82"/>
<line x1="804.48" y1="340.44" x2="799.89" y2="340.44"/>
<line x1="799.89" y1="314.34" x2="806.78" y2="314.34"/>
<line x1="804.48" y1="287.95" x2="799.89" y2="287.95"/>
<line x1="799.89" y1="261.56" x2="806.78" y2="261.56"/>
<line x1="804.48" y1="235.18" x2="799.89" y2="235.18"/>
<line x1="799.89" y1="208.79" x2="806.78" y2="208.79"/>
<line x1="804.48" y1="182.41" x2="799.89" y2="182.41"/>
<line x1="799.89" y1="156.31" x2="806.78" y2="156.31"/>
<line x1="804.48" y1="129.92" x2="799.89" y2="129.92"/>
<line x1="799.89" y1="103.54" x2="806.78" y2="103.54"/>
<polyline points="
 129.06, 103.54 799.89, 103.54 799.89, 524.85 129.06, 524.85 129.06, 103.54"/>
</g>
<g fill="none" stroke="#bfbfbf" stroke-width="1.000">
<line x1="212.81" y1="524.56" x2="212.81" y2="103.82"/>
<line x1="296.84" y1="103.82" x2="296.84" y2="524.56"/>
<line x1="380.59" y1="524.56" x2="380.59" y2="103.82"/>
<line x1="464.62" y1="103.82" x2="464.62" y2="524.56"/>
<line x1="548.37" y1="524.56" x2="548.37" y2="103.82"/>
<line x1="632.11" y1="103.82" x2="632.11" y2="524.56"/>
<line x1="716.15" y1="524.56" x2="716.15" y2="103.82"/>
<line x1="799.61" y1="472.08" x2="129.35" y2="472.08"/>
<line x1="129.35" y1="419.59" x2="799.61" y2="419.59"/>
<line x1="799.61" y1="366.82" x2="129.35" y2="366.82"/>
<line x1="129.35" y1="314.34" x2="799.61" y2="314.34"/>
<line x1="799.61" y1="261.56" x2="129.35" y2="261.56"/>
<line x1="129.35" y1="208.79" x2="799.61" y2="208.79"/>
<line x1="799.61" y1="156.31" x2="129.35" y2="156.31"/>
</g>
<g fill="none" stroke="#4582b5" stroke-width="1.000">
<polyline points="
 181.55, 472.08 244.36, 472.08 244.36, 303.72 181.55, 303.72 181.55, 472.08"/>
<polyline points="
 265.29, 472.08 328.10, 472.08 328.10, 203.63 265.29, 203.63 265.29, 472.08"/>
<polyline points="
 349.04, 472.08 411.85, 472.08 411.85, 330.11 349.04, 330.11 349.04, 472.08"/>
<polyline points="
 433.07, 472.08 495.88, 472.08 495.88, 219.40 433.07, 219.40 433.07, 472.08"/>
<polyline points="
 516.82, 472.08 579.63, 472.08 579.63, 287.95 516.82, 287.95 516.82, 472.08"/>
<polyline points="
 600.85, 472.08 663.66, 472.08 663.66, 150.86 600.85, 150.86 600.85, 472.08"/>
<polyline points="
 684.60, 472.08 747.41, 472.08 747.41, 245.79 684.60, 245.79 684.60, 472.08"/>
</g>
<g fill="none" stroke="#000000" stroke-width="1.000">
<polyline points="
 628.10, 108.70 794.44, 108.70 794.44, 134.22 628.10, 134.22 628.10, 108.70"/>
</g>
<g fill="none" stroke="#4582b5" stroke-width="1.000">
<polyline points="
 636.13, 116.73 677.43, 116.73 677.43, 126.77 636.13, 126.77 636.13, 116.73"/>
</g>
<g font-family="Times" font-weight="normal" font-style="normal"
font-size="15" stroke="none" fill="#000000">
<text x="687.75" y="126.77">M</text>
<text x="702.18" y="126.77">o</text>
<text x="710.71" y="126.77">n</text>
<text x="719.24" y="126.77">t</text>
<text x="724.45" y="126.77">h</text>
<text x="732.98" y="126.77">l</text>
<text x="738.19" y="126.77">y</text>
<text x="746.72" y="126.77"> </text>
<text x="751.51" y="126.77">S</text>
<text x="760.90" y="126.77">a</text>
<text x="768.57" y="126.77">l</text>
<text x="773.78" y="126.77">e</text>
<text x="781.45" y="126.77">s</text>
</g>
<g font-family="Times" font-weight="normal" font-style="normal"
font-size="17" stroke="none" fill="#000000">
<text x="396.65" y="74.28">M</text>
<text x="412.68" y="74.28">o</text>
<text x="422.15" y="74.28">n</text>
<text x="431.63" y="74.28">t</text>
<text x="437.42" y="74.28">h</text>
<text x="446.90" y="74.28">l</text>
<text x="452.69" y="74.28">y</text>
<text x="462.17" y="74.28"> </text>
<text x="467.48" y="74.28">R</text>
<text x="479.82" y="74.28">e</text>
<text x="488.35" y="74.28">v</text>
<text x="497.83" y="74.28">e</text>
<text x="506.35" y="74.28">n</text>
<text x="515.83" y="74.28">u</text>
<text x="525.31" y="74.28">e</text>
</g>
</svg>
