<?xml version="1.0" encoding="ISO-8859-1" standalone="no"?>
<!DOCTYPE svg PUBLIC "-//W3C//DTD SVG 20010904//EN"
  "http://www.w3.org/TR/2001/REC-SVG-20010904/DTD/svg10.dtd">
<!-- Created by DISLIN (http://www.dislin.de)
Version: 11.5
Date   : 28.06.2026 05:35:13
-->
<svg width="853" height="603"
  xmlns="http://www.w3.org/2000/svg"
  xmlns:xlink="http://www.w3.org/1999/xlink">

<g fill="none" stroke="#000000" stroke-width="1.000">
<rect x="129.06" y="103.54" width="671.83" height="422.31"
 fill="#f7f7f7" stroke="none"/>
</g>
<g fill="none" stroke="#000000" stroke-width="1.000">
<line x1="129.06" y1="524.85" x2="799.89" y2="524.85"/>
<line x1="129.06" y1="531.73" x2="129.06" y2="524.85"/>
<line x1="170.93" y1="524.85" x2="170.93" y2="529.44"/>
<line x1="212.81" y1="531.73" x2="212.81" y2="524.85"/>
<line x1="254.97" y1="524.85" x2="254.97" y2="529.44"/>
<line x1="296.84" y1="531.73" x2="296.84" y2="524.85"/>
<line x1="338.71" y1="524.85" x2="338.71" y2="529.44"/>
<line x1="380.59" y1="531.73" x2="380.59" y2="524.85"/>
<line x1="422.46" y1="524.85" x2="422.46" y2="529.44"/>
<line x1="464.62" y1="531.73" x2="464.62" y2="524.85"/>
<line x1="506.49" y1="524.85" x2="506.49" y2="529.44"/>
<line x1="548.37" y1="531.73" x2="548.37" y2="524.85"/>
<line x1="590.24" y1="524.85" x2="590.24" y2="529.44"/>
<line x1="632.11" y1="531.73" x2="632.11" y2="524.85"/>
<line x1="673.99" y1="524.85" x2="673.99" y2="529.44"/>
<line x1="716.15" y1="531.73" x2="716.15" y2="524.85"/>
<line x1="758.02" y1="524.85" x2="758.02" y2="529.44"/>
</g>
<g font-family="Times" font-weight="normal" font-style="normal"
font-size="15" stroke="none" fill="#000000">
<text x="118.74" y="548.65">0</text>
<text x="127.27" y="548.65">.</text>
<text x="132.05" y="548.65">0</text>
<text x="202.48" y="548.65">1</text>
<text x="211.01" y="548.65">.</text>
<text x="215.80" y="548.65">0</text>
<text x="286.23" y="548.65">2</text>
<text x="294.76" y="548.65">.</text>
<text x="299.54" y="548.65">0</text>
<text x="370.26" y="548.65">3</text>
<text x="378.79" y="548.65">.</text>
<text x="383.58" y="548.65">0</text>
<text x="454.01" y="548.65">4</text>
<text x="462.54" y="548.65">.</text>
<text x="467.32" y="548.65">0</text>
<text x="537.76" y="548.65">5</text>
<text x="546.29" y="548.65">.</text>
<text x="551.07" y="548.65">0</text>
<text x="621.79" y="548.65">6</text>
<text x="630.32" y="548.65">.</text>
<text x="635.10" y="548.65">0</text>
<text x="705.54" y="548.65">7</text>
<text x="714.07" y="548.65">.</text>
<text x="718.85" y="548.65">0</text>
<text x="789.57" y="548.65">8</text>
<text x="798.10" y="548.65">.</text>
<text x="802.88" y="548.65">0</text>
</g>
<g font-family="Times" font-weight="normal" font-style="normal"
font-size="15" stroke="none" fill="#000000">
<text x="442.54" y="567.58">M</text>
<text x="456.96" y="567.58">o</text>
<text x="465.49" y="567.58">n</text>
<text x="474.02" y="567.58">t</text>
<text x="479.23" y="567.58">h</text>
</g>
<g fill="none" stroke="#000000" stroke-width="1.000">
<line x1="799.89" y1="531.73" x2="799.89" y2="524.85"/>
<line x1="129.06" y1="524.85" x2="129.06" y2="103.54"/>
<line x1="129.06" y1="524.85" x2="122.18" y2="524.85"/>
<line x1="124.47" y1="494.74" x2="129.06" y2="494.74"/>
<line x1="129.06" y1="464.62" x2="122.18" y2="464.62"/>
<line x1="124.47" y1="434.51" x2="129.06" y2="434.51"/>
<line x1="129.06" y1="404.39" x2="122.18" y2="404.39"/>
<line x1="124.47" y1="374.28" x2="129.06" y2="374.28"/>
<line x1="129.06" y1="344.16" x2="122.18" y2="344.16"/>
<line x1="124.47" y1="314.34" x2="129.06" y2="314.34"/>
<line x1="129.06" y1="284.22" x2="122.18" y2="284.22"/>
<line x1="124.47" y1="254.11" x2="129.06" y2="254.11"/>
<line x1="129.06" y1="223.99" x2="122.18" y2="223.99"/>
<line x1="124.47" y1="193.88" x2="129.06" y2="193.88"/>
<line x1="129.06" y1="163.76" x2="122.18" y2="163.76"/>
<line x1="124.47" y1="133.65" x2="129.06" y2="133.65"/>
</g>
<g font-family="Times" font-weight="normal" font-style="normal"
font-size="15" stroke="none" fill="#000000">
<text x="94.36" y="529.44">0</text>
<text x="102.89" y="529.44">.</text>
<text x="107.67" y="529.44">0</text>
<text x="94.36" y="469.21">1</text>
<text x="102.89" y="469.21">.</text>
<text x="107.67" y="469.21">0</text>
<text x="94.36" y="408.98">2</text>
<text x="102.89" y="408.98">.</text>
<text x="107.67" y="408.98">0</text>
<text x="94.36" y="348.75">3</text>
<text x="102.89" y="348.75">.</text>
<text x="107.67" y="348.75">0</text>
<text x="94.36" y="288.81">4</text>
<text x="102.89" y="288.81">.</text>
<text x="107.67" y="288.81">0</text>
<text x="94.36" y="228.58">5</text>
<text x="102.89" y="228.58">.</text>
<text x="107.67" y="228.58">0</text>
<text x="94.36" y="168.35">6</text>
<text x="102.89" y="168.35">.</text>
<text x="107.67" y="168.35">0</text>
<text x="94.36" y="108.12">7</text>
<text x="102.89" y="108.12">.</text>
<text x="107.67" y="108.12">0</text>
</g>
<g font-family="Times" font-weight="normal" font-style="normal"
font-size="15" stroke="none" fill="#000000">
<text x="85.47" y="356.21" rotate="-90">R</text>
<text x="85.47" y="345.11" rotate="-90">e</text>
<text x="85.47" y="337.43" rotate="-90">v</text>
<text x="85.47" y="328.90" rotate="-90">e</text>
<text x="85.47" y="321.23" rotate="-90">n</text>
<text x="85.47" y="312.70" rotate="-90">u</text>
<text x="85.47" y="304.16" rotate="-90">e</text>
<text x="85.47" y="296.49" rotate="-90"> </text>
<text x="85.47" y="291.71" rotate="-90">(</text>
<text x="85.47" y="285.64" rotate="-90">k</text>
<text x="85.47" y="277.11" rotate="-90">)</text>
</g>
<g fill="none" stroke="#000000" stroke-width="1.000">
<line x1="129.06" y1="103.54" x2="122.18" y2="103.54"/>
<line x1="129.06" y1="103.54" x2="799.89" y2="103.54"/>
<line x1="129.06" y1="96.65" x2="129.06" y2="103.54"/>
<line x1="170.93" y1="103.54" x2="170.93" y2="98.95"/>
<line x1="212.81" y1="96.65" x2="212.81" y2="103.54"/>
<line x1="254.97" y1="103.54" x2="254.97" y2="98.95"/>
<line x1="296.84" y1="96.65" x2="296.84" y2="103.54"/>
<line x1="338.71" y1="103.54" x2="338.71" y2="98.95"/>
<line x1="380.59" y1="96.65" x2="380.59" y2="103.54"/>
<line x1="422.46" y1="103.54" x2="422.46" y2="98.95"/>
<line x1="464.62" y1="96.65" x2="464.62" y2="103.54"/>
<line x1="506.49" y1="103.54" x2="506.49" y2="98.95"/>
<line x1="548.37" y1="96.65" x2="548.37" y2="103.54"/>
<line x1="590.24" y1="103.54" x2="590.24" y2="98.95"/>
<line x1="632.11" y1="96.65" x2="632.11" y2="103.54"/>
<line x1="673.99" y1="103.54" x2="673.99" y2="98.95"/>
<line x1="716.15" y1="96.65" x2="716.15" y2="103.54"/>
<line x1="758.02" y1="103.54" x2="758.02" y2="98.95"/>
<line x1="799.89" y1="96.65" x2="799.89" y2="103.54"/>
<line x1="799.89" y1="524.85" x2="799.89" y2="103.54"/>
<line x1="799.89" y1="524.85" x2="806.78" y2="524.85"/>
<line x1="804.48" y1="494.74" x2="799.89" y2="494.74"/>
<line x1="799.89" y1="464.62" x2="806.78" y2="464.62"/>
<line x1="804.48" y1="434.51" x2="799.89" y2="434.51"/>
<line x1="799.89" y1="404.39" x2="806.78" y2="404.39"/>
<line x1="804.48" y1="374.28" x2="799.89" y2="374.28"/>
<line x1="799.89" y1="344.16" x2="806.78" y2="344.16"/>
<line x1="804.48" y1="314.34" x2="799.89" y2="314.34"/>
<line x1="799.89" y1="284.22" x2="806.78" y2="284.22"/>
<line x1="804.48" y1="254.11" x2="799.89" y2="254.11"/>
<line x1="799.89" y1="223.99" x2="806.78" y2="223.99"/>
<line x1="804.48" y1="193.88" x2="799.89" y2="193.88"/>
<line x1="799.89" y1="163.76" x2="806.78" y2="163.76"/>
<line x1="804.48" y1="133.65" x2="799.89" y2="133.65"/>
<line x1="799.89" y1="103.54" x2="806.78" y2="103.54"/>
</g>
<g fill="none" stroke="#bfbfbf" stroke-width="1.000">
<line x1="212.81" y1="524.56" x2="212.81" y2="103.82"/>
<line x1="296.84" y1="103.82" x2="296.84" y2="524.56"/>
<line x1="380.59" y1="524.56" x2="380.59" y2="103.82"/>
<line x1="464.62" y1="103.82" x2="464.62" y2="524.56"/>
<line x1="548.37" y1="524.56" x2="548.37" y2="103.82"/>
<line x1="632.11" y1="103.82" x2="632.11" y2="524.56"/>
<line x1="716.15" y1="524.56" x2="716.15" y2="103.82"/>
<line x1="799.61" y1="464.62" x2="129.35" y2="464.62"/>
<line x1="129.35" y1="404.39" x2="799.61" y2="404.39"/>
<line x1="799.61" y1="344.16" x2="129.35" y2="344.16"/>
<line x1="129.35" y1="284.22" x2="799.61" y2="284.22"/>
<line x1="799.61" y1="223.99" x2="129.35" y2="223.99"/>
<line x1="129.35" y1="163.76" x2="799.61" y2="163.76"/>
</g>
<g fill="none" stroke="#ff0000" stroke-width="1.000">
<polyline points="
 244.36, 524.56 244.36, 332.12 181.55, 332.12 181.55, 524.56"/>
<polyline points="
 328.10, 524.56 328.10, 217.97 265.29, 217.97 265.29, 524.56"/>
<polyline points="
 411.85, 524.56 411.85, 362.23 349.04, 362.23 349.04, 524.56"/>
<polyline points="
 495.88, 524.56 495.88, 236.04 433.07, 236.04 433.07, 524.56"/>
<polyline points="
 579.63, 524.56 579.63, 314.34 516.82, 314.34 516.82, 524.56"/>
<polyline points="
 663.66, 524.56 663.66, 157.74 600.85, 157.74 600.85, 524.56"/>
<polyline points="
 747.41, 524.56 747.41, 266.15 684.60, 266.15 684.60, 524.56"/>
</g>
<g fill="none" stroke="#ff0000" stroke-width="1.000">
<polyline points="
 636.42, 116.44 677.72, 116.44 677.72, 126.48 636.42, 126.48 636.42, 116.44"/>
</g>
<g font-family="Times" font-weight="normal" font-style="normal"
font-size="15" stroke="none" fill="#000000">
<text x="688.04" y="126.48">M</text>
<text x="702.46" y="126.48">o</text>
<text x="711.00" y="126.48">n</text>
<text x="719.53" y="126.48">t</text>
<text x="724.74" y="126.48">h</text>
<text x="733.27" y="126.48">l</text>
<text x="738.48" y="126.48">y</text>
<text x="747.01" y="126.48"> </text>
<text x="751.79" y="126.48">S</text>
<text x="761.18" y="126.48">a</text>
<text x="768.86" y="126.48">l</text>
<text x="774.07" y="126.48">e</text>
<text x="781.74" y="126.48">s</text>
</g>
<g font-family="Times" font-weight="normal" font-style="normal"
font-size="17" stroke="none" fill="#000000">
<text x="396.65" y="74.28">M</text>
<text x="412.68" y="74.28">o</text>
<text x="422.15" y="74.28">n</text>
<text x="431.63" y="74.28">t</text>
<text x="437.42" y="74.28">h</text>
<text x="446.90" y="74.28">l</text>
<text x="452.69" y="74.28">y</text>
<text x="462.17" y="74.28"> </text>
<text x="467.48" y="74.28">R</text>
<text x="479.82" y="74.28">e</text>
<text x="488.35" y="74.28">v</text>
<text x="497.83" y="74.28">e</text>
<text x="506.35" y="74.28">n</text>
<text x="515.83" y="74.28">u</text>
<text x="525.31" y="74.28">e</text>
</g>
</svg>
