<?xml version="1.0" encoding="ISO-8859-1" standalone="no"?>
<!DOCTYPE svg PUBLIC "-//W3C//DTD SVG 20010904//EN"
  "http://www.w3.org/TR/2001/REC-SVG-20010904/DTD/svg10.dtd">
<!-- Created by DISLIN (http://www.dislin.de)
Version: 11.5
Date   : 26.06.2026 22:55:08
-->
<svg width="853" height="603"
  xmlns="http://www.w3.org/2000/svg"
  xmlns:xlink="http://www.w3.org/1999/xlink">

<g fill="none" stroke="#000000" stroke-width="1.000">
<line x1="157.74" y1="444.55" x2="851.52" y2="444.55"/>
<line x1="157.74" y1="451.43" x2="157.74" y2="444.55"/>
<line x1="215.68" y1="444.55" x2="215.68" y2="449.13"/>
<line x1="273.32" y1="451.43" x2="273.32" y2="444.55"/>
<line x1="331.26" y1="444.55" x2="331.26" y2="449.13"/>
<line x1="388.91" y1="451.43" x2="388.91" y2="444.55"/>
<line x1="446.84" y1="444.55" x2="446.84" y2="449.13"/>
<line x1="504.77" y1="451.43" x2="504.77" y2="444.55"/>
<line x1="562.42" y1="444.55" x2="562.42" y2="449.13"/>
<line x1="620.36" y1="451.43" x2="620.36" y2="444.55"/>
<line x1="678.00" y1="444.55" x2="678.00" y2="449.13"/>
<line x1="735.94" y1="451.43" x2="735.94" y2="444.55"/>
<line x1="793.58" y1="444.55" x2="793.58" y2="449.13"/>
</g>
<g font-family="Times" font-weight="normal" font-style="normal"
font-size="15" stroke="none" fill="#000000">
<text x="147.42" y="468.35">0</text>
<text x="155.95" y="468.35">.</text>
<text x="160.73" y="468.35">0</text>
<text x="263.00" y="468.35">1</text>
<text x="271.53" y="468.35">.</text>
<text x="276.31" y="468.35">0</text>
<text x="378.58" y="468.35">2</text>
<text x="387.11" y="468.35">.</text>
<text x="391.89" y="468.35">0</text>
<text x="494.16" y="468.35">3</text>
<text x="502.69" y="468.35">.</text>
<text x="507.48" y="468.35">0</text>
<text x="609.74" y="468.35">4</text>
<text x="618.28" y="468.35">.</text>
<text x="623.06" y="468.35">0</text>
<text x="725.33" y="468.35">5</text>
<text x="733.86" y="468.35">.</text>
<text x="738.64" y="468.35">0</text>
<text x="841.19" y="468.35">6</text>
<text x="849.73" y="468.35">.</text>
<text x="854.51" y="468.35">0</text>
</g>
<g font-family="Times" font-weight="normal" font-style="normal"
font-size="15" stroke="none" fill="#000000">
<text x="478.67" y="487.28">Q</text>
<text x="490.63" y="487.28">u</text>
<text x="499.17" y="487.28">a</text>
<text x="506.84" y="487.28">r</text>
<text x="512.91" y="487.28">t</text>
<text x="518.12" y="487.28">e</text>
<text x="525.79" y="487.28">r</text>
</g>
<g fill="none" stroke="#000000" stroke-width="1.000">
<line x1="851.52" y1="451.43" x2="851.52" y2="444.55"/>
<line x1="157.74" y1="444.55" x2="157.74" y2="63.38"/>
<line x1="157.74" y1="444.55" x2="150.86" y2="444.55"/>
<line x1="153.15" y1="406.40" x2="157.74" y2="406.40"/>
<line x1="157.74" y1="368.26" x2="150.86" y2="368.26"/>
<line x1="153.15" y1="330.11" x2="157.74" y2="330.11"/>
<line x1="157.74" y1="291.97" x2="150.86" y2="291.97"/>
<line x1="153.15" y1="254.11" x2="157.74" y2="254.11"/>
<line x1="157.74" y1="215.96" x2="150.86" y2="215.96"/>
<line x1="153.15" y1="177.82" x2="157.74" y2="177.82"/>
<line x1="157.74" y1="139.67" x2="150.86" y2="139.67"/>
<line x1="153.15" y1="101.53" x2="157.74" y2="101.53"/>
</g>
<g font-family="Times" font-weight="normal" font-style="normal"
font-size="15" stroke="none" fill="#000000">
<text x="123.04" y="449.13">0</text>
<text x="131.57" y="449.13">.</text>
<text x="136.35" y="449.13">0</text>
<text x="123.04" y="372.84">1</text>
<text x="131.57" y="372.84">.</text>
<text x="136.35" y="372.84">0</text>
<text x="123.04" y="296.55">2</text>
<text x="131.57" y="296.55">.</text>
<text x="136.35" y="296.55">0</text>
<text x="123.04" y="220.55">3</text>
<text x="131.57" y="220.55">.</text>
<text x="136.35" y="220.55">0</text>
<text x="123.04" y="144.26">4</text>
<text x="131.57" y="144.26">.</text>
<text x="136.35" y="144.26">0</text>
<text x="123.04" y="67.97">5</text>
<text x="131.57" y="67.97">.</text>
<text x="136.35" y="67.97">0</text>
</g>
<g font-family="Times" font-weight="normal" font-style="normal"
font-size="15" stroke="none" fill="#000000">
<text x="114.15" y="273.90" rotate="-90">V</text>
<text x="114.15" y="261.94" rotate="-90">a</text>
<text x="114.15" y="254.26" rotate="-90">l</text>
<text x="114.15" y="249.05" rotate="-90">u</text>
<text x="114.15" y="240.52" rotate="-90">e</text>
</g>
<g fill="none" stroke="#000000" stroke-width="1.000">
<line x1="157.74" y1="63.38" x2="150.86" y2="63.38"/>
<line x1="157.74" y1="63.38" x2="851.52" y2="63.38"/>
<line x1="157.74" y1="56.50" x2="157.74" y2="63.38"/>
<line x1="215.68" y1="63.38" x2="215.68" y2="58.79"/>
<line x1="273.32" y1="56.50" x2="273.32" y2="63.38"/>
<line x1="331.26" y1="63.38" x2="331.26" y2="58.79"/>
<line x1="388.91" y1="56.50" x2="388.91" y2="63.38"/>
<line x1="446.84" y1="63.38" x2="446.84" y2="58.79"/>
<line x1="504.77" y1="56.50" x2="504.77" y2="63.38"/>
<line x1="562.42" y1="63.38" x2="562.42" y2="58.79"/>
<line x1="620.36" y1="56.50" x2="620.36" y2="63.38"/>
<line x1="678.00" y1="63.38" x2="678.00" y2="58.79"/>
<line x1="735.94" y1="56.50" x2="735.94" y2="63.38"/>
<line x1="793.58" y1="63.38" x2="793.58" y2="58.79"/>
<line x1="851.52" y1="56.50" x2="851.52" y2="63.38"/>
<line x1="851.52" y1="444.55" x2="851.52" y2="63.38"/>
<line x1="851.52" y1="444.55" x2="851.52" y2="444.55"/>
<line x1="851.52" y1="406.40" x2="851.52" y2="406.40"/>
<line x1="851.52" y1="368.26" x2="851.52" y2="368.26"/>
<line x1="851.52" y1="330.11" x2="851.52" y2="330.11"/>
<line x1="851.52" y1="291.97" x2="851.52" y2="291.97"/>
<line x1="851.52" y1="254.11" x2="851.52" y2="254.11"/>
<line x1="851.52" y1="215.96" x2="851.52" y2="215.96"/>
<line x1="851.52" y1="177.82" x2="851.52" y2="177.82"/>
<line x1="851.52" y1="139.67" x2="851.52" y2="139.67"/>
<line x1="851.52" y1="101.53" x2="851.52" y2="101.53"/>
<line x1="851.52" y1="63.38" x2="851.52" y2="63.38"/>
<polyline points="
 157.74, 63.38 851.52, 63.38 851.52, 444.55 157.74, 444.55 157.74, 63.38"/>
</g>
<g fill="none" stroke="#bfbfbf" stroke-width="1.000">
<line x1="273.32" y1="444.26" x2="273.32" y2="63.67"/>
<line x1="388.91" y1="63.67" x2="388.91" y2="444.26"/>
<line x1="504.77" y1="444.26" x2="504.77" y2="63.67"/>
<line x1="620.36" y1="63.67" x2="620.36" y2="444.26"/>
<line x1="735.94" y1="444.26" x2="735.94" y2="63.67"/>
<line x1="851.23" y1="368.26" x2="158.03" y2="368.26"/>
<line x1="158.03" y1="291.97" x2="851.23" y2="291.97"/>
<line x1="851.23" y1="215.96" x2="158.03" y2="215.96"/>
<line x1="158.03" y1="139.67" x2="851.23" y2="139.67"/>
</g>
<g fill="none" stroke="#ff0000" stroke-width="1.000">
<polyline points="
 256.40, 444.26 256.40, 368.26 230.02, 368.26 230.02, 444.26"/>
<polyline points="
 371.98, 444.26 371.98, 330.11 345.60, 330.11 345.60, 444.26"/>
<polyline points="
 487.57, 444.26 487.57, 254.11 461.18, 254.11 461.18, 444.26"/>
<polyline points="
 603.15, 444.26 603.15, 345.31 576.76, 345.31 576.76, 444.26"/>
<polyline points="
 719.02, 444.26 719.02, 291.97 692.63, 291.97 692.63, 444.26"/>
</g>
<g fill="none" stroke="#00ff00" stroke-width="1.000">
<polyline points="
 286.52, 444.26 286.52, 291.97 260.13, 291.97 260.13, 444.26"/>
<line x1="266.54" y1="291.97" x2="260.13" y2="298.38"/>
<line x1="277.50" y1="291.97" x2="260.13" y2="309.33"/>
<line x1="286.52" y1="293.90" x2="260.13" y2="320.28"/>
<line x1="286.52" y1="304.85" x2="260.13" y2="331.23"/>
<line x1="286.52" y1="315.80" x2="260.13" y2="342.18"/>
<line x1="286.52" y1="326.75" x2="260.13" y2="353.14"/>
<line x1="286.52" y1="337.70" x2="260.13" y2="364.09"/>
<line x1="286.52" y1="348.65" x2="260.13" y2="375.04"/>
<line x1="286.52" y1="359.60" x2="260.13" y2="385.99"/>
<line x1="286.52" y1="370.55" x2="260.13" y2="396.94"/>
<line x1="286.52" y1="381.51" x2="260.13" y2="407.89"/>
<line x1="286.52" y1="392.46" x2="260.13" y2="418.84"/>
<line x1="286.52" y1="403.41" x2="260.13" y2="429.79"/>
<line x1="286.52" y1="414.36" x2="260.13" y2="440.75"/>
<line x1="286.52" y1="425.31" x2="267.57" y2="444.26"/>
<line x1="286.52" y1="436.26" x2="278.52" y2="444.26"/>
<polyline points="
 402.38, 444.26 402.38, 238.62 376.00, 238.62 376.00, 444.26"/>
<line x1="385.60" y1="238.62" x2="376.00" y2="248.22"/>
<line x1="396.55" y1="238.62" x2="376.00" y2="259.17"/>
<line x1="402.38" y1="243.74" x2="376.00" y2="270.12"/>
<line x1="402.38" y1="254.69" x2="376.00" y2="281.07"/>
<line x1="402.38" y1="265.64" x2="376.00" y2="292.02"/>
<line x1="402.38" y1="276.59" x2="376.00" y2="302.97"/>
<line x1="402.38" y1="287.54" x2="376.00" y2="313.93"/>
<line x1="402.38" y1="298.49" x2="376.00" y2="324.88"/>
<line x1="402.38" y1="309.44" x2="376.00" y2="335.83"/>
<line x1="402.38" y1="320.39" x2="376.00" y2="346.78"/>
<line x1="402.38" y1="331.34" x2="376.00" y2="357.73"/>
<line x1="402.38" y1="342.30" x2="376.00" y2="368.68"/>
<line x1="402.38" y1="353.25" x2="376.00" y2="379.63"/>
<line x1="402.38" y1="364.20" x2="376.00" y2="390.58"/>
<line x1="402.38" y1="375.15" x2="376.00" y2="401.54"/>
<line x1="402.38" y1="386.10" x2="376.00" y2="412.49"/>
<line x1="402.38" y1="397.05" x2="376.00" y2="423.44"/>
<line x1="402.38" y1="408.00" x2="376.00" y2="434.39"/>
<line x1="402.38" y1="418.95" x2="377.08" y2="444.26"/>
<line x1="402.38" y1="429.91" x2="388.03" y2="444.26"/>
<line x1="402.38" y1="440.86" x2="398.98" y2="444.26"/>
<polyline points="
 517.97, 444.26 517.97, 177.82 491.58, 177.82 491.58, 444.26"/>
<line x1="501.16" y1="177.82" x2="491.58" y2="187.39"/>
<line x1="512.11" y1="177.82" x2="491.58" y2="198.34"/>
<line x1="517.97" y1="182.91" x2="491.58" y2="209.30"/>
<line x1="517.97" y1="193.86" x2="491.58" y2="220.25"/>
<line x1="517.97" y1="204.81" x2="491.58" y2="231.20"/>
<line x1="517.97" y1="215.76" x2="491.58" y2="242.15"/>
<line x1="517.97" y1="226.71" x2="491.58" y2="253.10"/>
<line x1="517.97" y1="237.67" x2="491.58" y2="264.05"/>
<line x1="517.97" y1="248.62" x2="491.58" y2="275.00"/>
<line x1="517.97" y1="259.57" x2="491.58" y2="285.95"/>
<line x1="517.97" y1="270.52" x2="491.58" y2="296.90"/>
<line x1="517.97" y1="281.47" x2="491.58" y2="307.86"/>
<line x1="517.97" y1="292.42" x2="491.58" y2="318.81"/>
<line x1="517.97" y1="303.37" x2="491.58" y2="329.76"/>
<line x1="517.97" y1="314.32" x2="491.58" y2="340.71"/>
<line x1="517.97" y1="325.27" x2="491.58" y2="351.66"/>
<line x1="517.97" y1="336.23" x2="491.58" y2="362.61"/>
<line x1="517.97" y1="347.18" x2="491.58" y2="373.56"/>
<line x1="517.97" y1="358.13" x2="491.58" y2="384.51"/>
<line x1="517.97" y1="369.08" x2="491.58" y2="395.47"/>
<line x1="517.97" y1="380.03" x2="491.58" y2="406.42"/>
<line x1="517.97" y1="390.98" x2="491.58" y2="417.37"/>
<line x1="517.97" y1="401.93" x2="491.58" y2="428.32"/>
<line x1="517.97" y1="412.88" x2="491.58" y2="439.27"/>
<line x1="517.97" y1="423.84" x2="497.54" y2="444.26"/>
<line x1="517.97" y1="434.79" x2="508.50" y2="444.26"/>
<polyline points="
 633.55, 444.26 633.55, 284.51 607.16, 284.51 607.16, 444.26"/>
<line x1="613.49" y1="284.51" x2="607.16" y2="290.83"/>
<line x1="624.44" y1="284.51" x2="607.16" y2="301.79"/>
<line x1="633.55" y1="286.35" x2="607.16" y2="312.74"/>
<line x1="633.55" y1="297.30" x2="607.16" y2="323.69"/>
<line x1="633.55" y1="308.25" x2="607.16" y2="334.64"/>
<line x1="633.55" y1="319.20" x2="607.16" y2="345.59"/>
<line x1="633.55" y1="330.16" x2="607.16" y2="356.54"/>
<line x1="633.55" y1="341.11" x2="607.16" y2="367.49"/>
<line x1="633.55" y1="352.06" x2="607.16" y2="378.44"/>
<line x1="633.55" y1="363.01" x2="607.16" y2="389.40"/>
<line x1="633.55" y1="373.96" x2="607.16" y2="400.35"/>
<line x1="633.55" y1="384.91" x2="607.16" y2="411.30"/>
<line x1="633.55" y1="395.86" x2="607.16" y2="422.25"/>
<line x1="633.55" y1="406.81" x2="607.16" y2="433.20"/>
<line x1="633.55" y1="417.77" x2="607.16" y2="444.15"/>
<line x1="633.55" y1="428.72" x2="618.01" y2="444.26"/>
<line x1="633.55" y1="439.67" x2="628.96" y2="444.26"/>
<polyline points="
 749.13, 444.26 749.13, 200.48 722.74, 200.48 722.74, 444.26"/>
<line x1="730.38" y1="200.48" x2="722.74" y2="208.11"/>
<line x1="741.33" y1="200.48" x2="722.74" y2="219.06"/>
<line x1="749.13" y1="203.62" x2="722.74" y2="230.01"/>
<line x1="749.13" y1="214.57" x2="722.74" y2="240.96"/>
<line x1="749.13" y1="225.53" x2="722.74" y2="251.91"/>
<line x1="749.13" y1="236.48" x2="722.74" y2="262.86"/>
<line x1="749.13" y1="247.43" x2="722.74" y2="273.81"/>
<line x1="749.13" y1="258.38" x2="722.74" y2="284.77"/>
<line x1="749.13" y1="269.33" x2="722.74" y2="295.72"/>
<line x1="749.13" y1="280.28" x2="722.74" y2="306.67"/>
<line x1="749.13" y1="291.23" x2="722.74" y2="317.62"/>
<line x1="749.13" y1="302.18" x2="722.74" y2="328.57"/>
<line x1="749.13" y1="313.14" x2="722.74" y2="339.52"/>
<line x1="749.13" y1="324.09" x2="722.74" y2="350.47"/>
<line x1="749.13" y1="335.04" x2="722.74" y2="361.42"/>
<line x1="749.13" y1="345.99" x2="722.74" y2="372.37"/>
<line x1="749.13" y1="356.94" x2="722.74" y2="383.33"/>
<line x1="749.13" y1="367.89" x2="722.74" y2="394.28"/>
<line x1="749.13" y1="378.84" x2="722.74" y2="405.23"/>
<line x1="749.13" y1="389.79" x2="722.74" y2="416.18"/>
<line x1="749.13" y1="400.74" x2="722.74" y2="427.13"/>
<line x1="749.13" y1="411.70" x2="722.74" y2="438.08"/>
<line x1="749.13" y1="422.65" x2="727.52" y2="444.26"/>
<line x1="749.13" y1="433.60" x2="738.47" y2="444.26"/>
</g>
<g fill="none" stroke="#0000ff" stroke-width="1.000">
<polyline points="
 316.92, 444.26 316.92, 139.67 290.53, 139.67 290.53, 444.26"/>
<line x1="290.53" y1="443.94" x2="291.09" y2="444.26"/>
<line x1="290.53" y1="443.60" x2="291.66" y2="444.26"/>
<line x1="290.53" y1="443.27" x2="292.24" y2="444.26"/>
<line x1="290.53" y1="442.94" x2="292.81" y2="444.26"/>
<line x1="290.53" y1="442.61" x2="293.38" y2="444.26"/>
<line x1="290.53" y1="432.68" x2="310.59" y2="444.26"/>
<line x1="290.53" y1="432.34" x2="311.17" y2="444.26"/>
<line x1="290.53" y1="432.01" x2="311.74" y2="444.26"/>
<line x1="290.53" y1="431.68" x2="312.31" y2="444.26"/>
<line x1="290.53" y1="431.35" x2="312.89" y2="444.26"/>
<line x1="290.53" y1="431.02" x2="313.46" y2="444.26"/>
<line x1="290.53" y1="430.69" x2="314.03" y2="444.26"/>
<line x1="290.53" y1="430.36" x2="314.61" y2="444.26"/>
<line x1="290.53" y1="420.42" x2="316.92" y2="435.66"/>
<line x1="290.53" y1="420.09" x2="316.92" y2="435.33"/>
<line x1="290.53" y1="419.76" x2="316.92" y2="434.99"/>
<line x1="290.53" y1="419.43" x2="316.92" y2="434.66"/>
<line x1="290.53" y1="419.10" x2="316.92" y2="434.33"/>
<line x1="290.53" y1="418.77" x2="316.92" y2="434.00"/>
<line x1="290.53" y1="418.44" x2="316.92" y2="433.67"/>
<line x1="290.53" y1="418.10" x2="316.92" y2="433.34"/>
<line x1="290.53" y1="408.17" x2="316.92" y2="423.40"/>
<line x1="290.53" y1="407.84" x2="316.92" y2="423.07"/>
<line x1="290.53" y1="407.51" x2="316.92" y2="422.74"/>
<line x1="290.53" y1="407.18" x2="316.92" y2="422.41"/>
<line x1="290.53" y1="406.84" x2="316.92" y2="422.08"/>
<line x1="290.53" y1="406.51" x2="316.92" y2="421.75"/>
<line x1="290.53" y1="406.18" x2="316.92" y2="421.42"/>
<line x1="290.53" y1="405.85" x2="316.92" y2="421.08"/>
<line x1="290.53" y1="395.92" x2="316.92" y2="411.15"/>
<line x1="290.53" y1="395.58" x2="316.92" y2="410.82"/>
<line x1="290.53" y1="395.25" x2="316.92" y2="410.49"/>
<line x1="290.53" y1="394.92" x2="316.92" y2="410.16"/>
<line x1="290.53" y1="394.59" x2="316.92" y2="409.83"/>
<line x1="290.53" y1="394.26" x2="316.92" y2="409.49"/>
<line x1="290.53" y1="393.93" x2="316.92" y2="409.16"/>
<line x1="290.53" y1="393.60" x2="316.92" y2="408.83"/>
<line x1="290.53" y1="383.66" x2="316.92" y2="398.90"/>
<line x1="290.53" y1="383.33" x2="316.92" y2="398.57"/>
<line x1="290.53" y1="383.00" x2="316.92" y2="398.23"/>
<line x1="290.53" y1="382.67" x2="316.92" y2="397.90"/>
<line x1="290.53" y1="382.34" x2="316.92" y2="397.57"/>
<line x1="290.53" y1="382.01" x2="316.92" y2="397.24"/>
<line x1="290.53" y1="381.68" x2="316.92" y2="396.91"/>
<line x1="290.53" y1="381.34" x2="316.92" y2="396.58"/>
<line x1="290.53" y1="371.41" x2="316.92" y2="386.64"/>
<line x1="290.53" y1="371.08" x2="316.92" y2="386.31"/>
<line x1="290.53" y1="370.75" x2="316.92" y2="385.98"/>
<line x1="290.53" y1="370.42" x2="316.92" y2="385.65"/>
<line x1="290.53" y1="370.08" x2="316.92" y2="385.32"/>
<line x1="290.53" y1="369.75" x2="316.92" y2="384.99"/>
<line x1="290.53" y1="369.42" x2="316.92" y2="384.66"/>
<line x1="290.53" y1="369.09" x2="316.92" y2="384.32"/>
<line x1="290.53" y1="359.16" x2="316.92" y2="374.39"/>
<line x1="290.53" y1="358.82" x2="316.92" y2="374.06"/>
<line x1="290.53" y1="358.49" x2="316.92" y2="373.73"/>
<line x1="290.53" y1="358.16" x2="316.92" y2="373.40"/>
<line x1="290.53" y1="357.83" x2="316.92" y2="373.07"/>
<line x1="290.53" y1="357.50" x2="316.92" y2="372.73"/>
<line x1="290.53" y1="357.17" x2="316.92" y2="372.40"/>
<line x1="290.53" y1="356.84" x2="316.92" y2="372.07"/>
<line x1="290.53" y1="346.90" x2="316.92" y2="362.14"/>
<line x1="290.53" y1="346.57" x2="316.92" y2="361.81"/>
<line x1="290.53" y1="346.24" x2="316.92" y2="361.47"/>
<line x1="290.53" y1="345.91" x2="316.92" y2="361.14"/>
<line x1="290.53" y1="345.58" x2="316.92" y2="360.81"/>
<line x1="290.53" y1="345.25" x2="316.92" y2="360.48"/>
<line x1="290.53" y1="344.92" x2="316.92" y2="360.15"/>
<line x1="290.53" y1="344.58" x2="316.92" y2="359.82"/>
<line x1="290.53" y1="334.65" x2="316.92" y2="349.88"/>
<line x1="290.53" y1="334.32" x2="316.92" y2="349.55"/>
<line x1="290.53" y1="333.99" x2="316.92" y2="349.22"/>
<line x1="290.53" y1="333.66" x2="316.92" y2="348.89"/>
<line x1="290.53" y1="333.32" x2="316.92" y2="348.56"/>
<line x1="290.53" y1="332.99" x2="316.92" y2="348.23"/>
<line x1="290.53" y1="332.66" x2="316.92" y2="347.90"/>
<line x1="290.53" y1="332.33" x2="316.92" y2="347.56"/>
<line x1="290.53" y1="322.40" x2="316.92" y2="337.63"/>
<line x1="290.53" y1="322.06" x2="316.92" y2="337.30"/>
<line x1="290.53" y1="321.73" x2="316.92" y2="336.97"/>
<line x1="290.53" y1="321.40" x2="316.92" y2="336.64"/>
<line x1="290.53" y1="321.07" x2="316.92" y2="336.30"/>
<line x1="290.53" y1="320.74" x2="316.92" y2="335.97"/>
<line x1="290.53" y1="320.41" x2="316.92" y2="335.64"/>
<line x1="290.53" y1="320.08" x2="316.92" y2="335.31"/>
<line x1="290.53" y1="310.14" x2="316.92" y2="325.38"/>
<line x1="290.53" y1="309.81" x2="316.92" y2="325.05"/>
<line x1="290.53" y1="309.48" x2="316.92" y2="324.71"/>
<line x1="290.53" y1="309.15" x2="316.92" y2="324.38"/>
<line x1="290.53" y1="308.82" x2="316.92" y2="324.05"/>
<line x1="290.53" y1="308.49" x2="316.92" y2="323.72"/>
<line x1="290.53" y1="308.16" x2="316.92" y2="323.39"/>
<line x1="290.53" y1="307.82" x2="316.92" y2="323.06"/>
<line x1="290.53" y1="297.89" x2="316.92" y2="313.12"/>
<line x1="290.53" y1="297.56" x2="316.92" y2="312.79"/>
<line x1="290.53" y1="297.23" x2="316.92" y2="312.46"/>
<line x1="290.53" y1="296.90" x2="316.92" y2="312.13"/>
<line x1="290.53" y1="296.56" x2="316.92" y2="311.80"/>
<line x1="290.53" y1="296.23" x2="316.92" y2="311.47"/>
<line x1="290.53" y1="295.90" x2="316.92" y2="311.14"/>
<line x1="290.53" y1="295.57" x2="316.92" y2="310.80"/>
<line x1="290.53" y1="285.64" x2="316.92" y2="300.87"/>
<line x1="290.53" y1="285.30" x2="316.92" y2="300.54"/>
<line x1="290.53" y1="284.97" x2="316.92" y2="300.21"/>
<line x1="290.53" y1="284.64" x2="316.92" y2="299.88"/>
<line x1="290.53" y1="284.31" x2="316.92" y2="299.54"/>
<line x1="290.53" y1="283.98" x2="316.92" y2="299.21"/>
<line x1="290.53" y1="283.65" x2="316.92" y2="298.88"/>
<line x1="290.53" y1="283.32" x2="316.92" y2="298.55"/>
<line x1="290.53" y1="273.38" x2="316.92" y2="288.62"/>
<line x1="290.53" y1="273.05" x2="316.92" y2="288.29"/>
<line x1="290.53" y1="272.72" x2="316.92" y2="287.95"/>
<line x1="290.53" y1="272.39" x2="316.92" y2="287.62"/>
<line x1="290.53" y1="272.06" x2="316.92" y2="287.29"/>
<line x1="290.53" y1="271.73" x2="316.92" y2="286.96"/>
<line x1="290.53" y1="271.40" x2="316.92" y2="286.63"/>
<line x1="290.53" y1="271.06" x2="316.92" y2="286.30"/>
<line x1="290.53" y1="261.13" x2="316.92" y2="276.36"/>
<line x1="290.53" y1="260.80" x2="316.92" y2="276.03"/>
<line x1="290.53" y1="260.47" x2="316.92" y2="275.70"/>
<line x1="290.53" y1="260.14" x2="316.92" y2="275.37"/>
<line x1="290.53" y1="259.80" x2="316.92" y2="275.04"/>
<line x1="290.53" y1="259.47" x2="316.92" y2="274.71"/>
<line x1="290.53" y1="259.14" x2="316.92" y2="274.38"/>
<line x1="290.53" y1="258.81" x2="316.92" y2="274.04"/>
<line x1="290.53" y1="248.88" x2="316.92" y2="264.11"/>
<line x1="290.53" y1="248.54" x2="316.92" y2="263.78"/>
<line x1="290.53" y1="248.21" x2="316.92" y2="263.45"/>
<line x1="290.53" y1="247.88" x2="316.92" y2="263.12"/>
<line x1="290.53" y1="247.55" x2="316.92" y2="262.78"/>
<line x1="290.53" y1="247.22" x2="316.92" y2="262.45"/>
<line x1="290.53" y1="246.89" x2="316.92" y2="262.12"/>
<line x1="290.53" y1="246.56" x2="316.92" y2="261.79"/>
<line x1="290.53" y1="236.62" x2="316.92" y2="251.86"/>
<line x1="290.53" y1="236.29" x2="316.92" y2="251.53"/>
<line x1="290.53" y1="235.96" x2="316.92" y2="251.19"/>
<line x1="290.53" y1="235.63" x2="316.92" y2="250.86"/>
<line x1="290.53" y1="235.30" x2="316.92" y2="250.53"/>
<line x1="290.53" y1="234.97" x2="316.92" y2="250.20"/>
<line x1="290.53" y1="234.64" x2="316.92" y2="249.87"/>
<line x1="290.53" y1="234.30" x2="316.92" y2="249.54"/>
<line x1="290.53" y1="224.37" x2="316.92" y2="239.60"/>
<line x1="290.53" y1="224.04" x2="316.92" y2="239.27"/>
<line x1="290.53" y1="223.71" x2="316.92" y2="238.94"/>
<line x1="290.53" y1="223.38" x2="316.92" y2="238.61"/>
<line x1="290.53" y1="223.04" x2="316.92" y2="238.28"/>
<line x1="290.53" y1="222.71" x2="316.92" y2="237.95"/>
<line x1="290.53" y1="222.38" x2="316.92" y2="237.62"/>
<line x1="290.53" y1="222.05" x2="316.92" y2="237.28"/>
<line x1="290.53" y1="212.12" x2="316.92" y2="227.35"/>
<line x1="290.53" y1="211.78" x2="316.92" y2="227.02"/>
<line x1="290.53" y1="211.45" x2="316.92" y2="226.69"/>
<line x1="290.53" y1="211.12" x2="316.92" y2="226.36"/>
<line x1="290.53" y1="210.79" x2="316.92" y2="226.02"/>
<line x1="290.53" y1="210.46" x2="316.92" y2="225.69"/>
<line x1="290.53" y1="210.13" x2="316.92" y2="225.36"/>
<line x1="290.53" y1="209.80" x2="316.92" y2="225.03"/>
<line x1="290.53" y1="199.86" x2="316.92" y2="215.10"/>
<line x1="290.53" y1="199.53" x2="316.92" y2="214.76"/>
<line x1="290.53" y1="199.20" x2="316.92" y2="214.43"/>
<line x1="290.53" y1="198.87" x2="316.92" y2="214.10"/>
<line x1="290.53" y1="198.54" x2="316.92" y2="213.77"/>
<line x1="290.53" y1="198.21" x2="316.92" y2="213.44"/>
<line x1="290.53" y1="197.88" x2="316.92" y2="213.11"/>
<line x1="290.53" y1="197.54" x2="316.92" y2="212.78"/>
<line x1="290.53" y1="187.61" x2="316.92" y2="202.84"/>
<line x1="290.53" y1="187.28" x2="316.92" y2="202.51"/>
<line x1="290.53" y1="186.95" x2="316.92" y2="202.18"/>
<line x1="290.53" y1="186.62" x2="316.92" y2="201.85"/>
<line x1="290.53" y1="186.28" x2="316.92" y2="201.52"/>
<line x1="290.53" y1="185.95" x2="316.92" y2="201.19"/>
<line x1="290.53" y1="185.62" x2="316.92" y2="200.86"/>
<line x1="290.53" y1="185.29" x2="316.92" y2="200.52"/>
<line x1="290.53" y1="175.36" x2="316.92" y2="190.59"/>
<line x1="290.53" y1="175.02" x2="316.92" y2="190.26"/>
<line x1="290.53" y1="174.69" x2="316.92" y2="189.93"/>
<line x1="290.53" y1="174.36" x2="316.92" y2="189.60"/>
<line x1="290.53" y1="174.03" x2="316.92" y2="189.26"/>
<line x1="290.53" y1="173.70" x2="316.92" y2="188.93"/>
<line x1="290.53" y1="173.37" x2="316.92" y2="188.60"/>
<line x1="290.53" y1="173.04" x2="316.92" y2="188.27"/>
<line x1="290.53" y1="163.10" x2="316.92" y2="178.34"/>
<line x1="290.53" y1="162.77" x2="316.92" y2="178.00"/>
<line x1="290.53" y1="162.44" x2="316.92" y2="177.67"/>
<line x1="290.53" y1="162.11" x2="316.92" y2="177.34"/>
<line x1="290.53" y1="161.78" x2="316.92" y2="177.01"/>
<line x1="290.53" y1="161.45" x2="316.92" y2="176.68"/>
<line x1="290.53" y1="161.12" x2="316.92" y2="176.35"/>
<line x1="290.53" y1="160.78" x2="316.92" y2="176.02"/>
<line x1="290.53" y1="150.85" x2="316.92" y2="166.08"/>
<line x1="290.53" y1="150.52" x2="316.92" y2="165.75"/>
<line x1="290.53" y1="150.19" x2="316.92" y2="165.42"/>
<line x1="290.53" y1="149.86" x2="316.92" y2="165.09"/>
<line x1="290.53" y1="149.52" x2="316.92" y2="164.76"/>
<line x1="290.53" y1="149.19" x2="316.92" y2="164.43"/>
<line x1="290.53" y1="148.86" x2="316.92" y2="164.10"/>
<line x1="290.53" y1="148.53" x2="316.92" y2="163.76"/>
<line x1="292.40" y1="139.67" x2="316.92" y2="153.83"/>
<line x1="292.97" y1="139.67" x2="316.92" y2="153.50"/>
<line x1="293.55" y1="139.67" x2="316.92" y2="153.17"/>
<line x1="294.12" y1="139.67" x2="316.92" y2="152.84"/>
<line x1="294.69" y1="139.67" x2="316.92" y2="152.50"/>
<line x1="295.27" y1="139.67" x2="316.92" y2="152.17"/>
<line x1="295.84" y1="139.67" x2="316.92" y2="151.84"/>
<line x1="296.41" y1="139.67" x2="316.92" y2="151.51"/>
<line x1="313.62" y1="139.67" x2="316.92" y2="141.58"/>
<line x1="314.20" y1="139.67" x2="316.92" y2="141.24"/>
<line x1="314.77" y1="139.67" x2="316.92" y2="140.91"/>
<line x1="315.34" y1="139.67" x2="316.92" y2="140.58"/>
<line x1="315.92" y1="139.67" x2="316.92" y2="140.25"/>
<line x1="316.49" y1="139.67" x2="316.92" y2="139.92"/>
<polyline points="
 432.50, 444.26 432.50, 177.82 406.11, 177.82 406.11, 444.26"/>
<line x1="406.11" y1="444.10" x2="406.38" y2="444.26"/>
<line x1="406.11" y1="443.77" x2="406.96" y2="444.26"/>
<line x1="406.11" y1="443.44" x2="407.53" y2="444.26"/>
<line x1="406.11" y1="443.11" x2="408.11" y2="444.26"/>
<line x1="406.11" y1="442.78" x2="408.68" y2="444.26"/>
<line x1="406.11" y1="442.45" x2="409.25" y2="444.26"/>
<line x1="406.11" y1="432.51" x2="426.46" y2="444.26"/>
<line x1="406.11" y1="432.18" x2="427.03" y2="444.26"/>
<line x1="406.11" y1="431.85" x2="427.61" y2="444.26"/>
<line x1="406.11" y1="431.52" x2="428.18" y2="444.26"/>
<line x1="406.11" y1="431.19" x2="428.76" y2="444.26"/>
<line x1="406.11" y1="430.85" x2="429.33" y2="444.26"/>
<line x1="406.11" y1="430.52" x2="429.90" y2="444.26"/>
<line x1="406.11" y1="430.19" x2="430.48" y2="444.26"/>
<line x1="406.11" y1="420.26" x2="432.50" y2="435.49"/>
<line x1="406.11" y1="419.93" x2="432.50" y2="435.16"/>
<line x1="406.11" y1="419.59" x2="432.50" y2="434.83"/>
<line x1="406.11" y1="419.26" x2="432.50" y2="434.50"/>
<line x1="406.11" y1="418.93" x2="432.50" y2="434.17"/>
<line x1="406.11" y1="418.60" x2="432.50" y2="433.84"/>
<line x1="406.11" y1="418.27" x2="432.50" y2="433.50"/>
<line x1="406.11" y1="417.94" x2="432.50" y2="433.17"/>
<line x1="406.11" y1="408.00" x2="432.50" y2="423.24"/>
<line x1="406.11" y1="407.67" x2="432.50" y2="422.91"/>
<line x1="406.11" y1="407.34" x2="432.50" y2="422.58"/>
<line x1="406.11" y1="407.01" x2="432.50" y2="422.24"/>
<line x1="406.11" y1="406.68" x2="432.50" y2="421.91"/>
<line x1="406.11" y1="406.35" x2="432.50" y2="421.58"/>
<line x1="406.11" y1="406.02" x2="432.50" y2="421.25"/>
<line x1="406.11" y1="405.69" x2="432.50" y2="420.92"/>
<line x1="406.11" y1="395.75" x2="432.50" y2="410.98"/>
<line x1="406.11" y1="395.42" x2="432.50" y2="410.65"/>
<line x1="406.11" y1="395.09" x2="432.50" y2="410.32"/>
<line x1="406.11" y1="394.76" x2="432.50" y2="409.99"/>
<line x1="406.11" y1="394.43" x2="432.50" y2="409.66"/>
<line x1="406.11" y1="394.09" x2="432.50" y2="409.33"/>
<line x1="406.11" y1="393.76" x2="432.50" y2="409.00"/>
<line x1="406.11" y1="393.43" x2="432.50" y2="408.67"/>
<line x1="406.11" y1="383.50" x2="432.50" y2="398.73"/>
<line x1="406.11" y1="383.17" x2="432.50" y2="398.40"/>
<line x1="406.11" y1="382.83" x2="432.50" y2="398.07"/>
<line x1="406.11" y1="382.50" x2="432.50" y2="397.74"/>
<line x1="406.11" y1="382.17" x2="432.50" y2="397.41"/>
<line x1="406.11" y1="381.84" x2="432.50" y2="397.08"/>
<line x1="406.11" y1="381.51" x2="432.50" y2="396.74"/>
<line x1="406.11" y1="381.18" x2="432.50" y2="396.41"/>
<line x1="406.11" y1="371.24" x2="432.50" y2="386.48"/>
<line x1="406.11" y1="370.91" x2="432.50" y2="386.15"/>
<line x1="406.11" y1="370.58" x2="432.50" y2="385.82"/>
<line x1="406.11" y1="370.25" x2="432.50" y2="385.48"/>
<line x1="406.11" y1="369.92" x2="432.50" y2="385.15"/>
<line x1="406.11" y1="369.59" x2="432.50" y2="384.82"/>
<line x1="406.11" y1="369.26" x2="432.50" y2="384.49"/>
<line x1="406.11" y1="368.93" x2="432.50" y2="384.16"/>
<line x1="406.11" y1="358.99" x2="432.50" y2="374.22"/>
<line x1="406.11" y1="358.66" x2="432.50" y2="373.89"/>
<line x1="406.11" y1="358.33" x2="432.50" y2="373.56"/>
<line x1="406.11" y1="358.00" x2="432.50" y2="373.23"/>
<line x1="406.11" y1="357.67" x2="432.50" y2="372.90"/>
<line x1="406.11" y1="357.33" x2="432.50" y2="372.57"/>
<line x1="406.11" y1="357.00" x2="432.50" y2="372.24"/>
<line x1="406.11" y1="356.67" x2="432.50" y2="371.91"/>
<line x1="406.11" y1="346.74" x2="432.50" y2="361.97"/>
<line x1="406.11" y1="346.41" x2="432.50" y2="361.64"/>
<line x1="406.11" y1="346.07" x2="432.50" y2="361.31"/>
<line x1="406.11" y1="345.74" x2="432.50" y2="360.98"/>
<line x1="406.11" y1="345.41" x2="432.50" y2="360.65"/>
<line x1="406.11" y1="345.08" x2="432.50" y2="360.31"/>
<line x1="406.11" y1="344.75" x2="432.50" y2="359.98"/>
<line x1="406.11" y1="344.42" x2="432.50" y2="359.65"/>
<line x1="406.11" y1="334.48" x2="432.50" y2="349.72"/>
<line x1="406.11" y1="334.15" x2="432.50" y2="349.39"/>
<line x1="406.11" y1="333.82" x2="432.50" y2="349.06"/>
<line x1="406.11" y1="333.49" x2="432.50" y2="348.72"/>
<line x1="406.11" y1="333.16" x2="432.50" y2="348.39"/>
<line x1="406.11" y1="332.83" x2="432.50" y2="348.06"/>
<line x1="406.11" y1="332.50" x2="432.50" y2="347.73"/>
<line x1="406.11" y1="332.17" x2="432.50" y2="347.40"/>
<line x1="406.11" y1="322.23" x2="432.50" y2="337.46"/>
<line x1="406.11" y1="321.90" x2="432.50" y2="337.13"/>
<line x1="406.11" y1="321.57" x2="432.50" y2="336.80"/>
<line x1="406.11" y1="321.24" x2="432.50" y2="336.47"/>
<line x1="406.11" y1="320.91" x2="432.50" y2="336.14"/>
<line x1="406.11" y1="320.57" x2="432.50" y2="335.81"/>
<line x1="406.11" y1="320.24" x2="432.50" y2="335.48"/>
<line x1="406.11" y1="319.91" x2="432.50" y2="335.15"/>
<line x1="406.11" y1="309.98" x2="432.50" y2="325.21"/>
<line x1="406.11" y1="309.65" x2="432.50" y2="324.88"/>
<line x1="406.11" y1="309.31" x2="432.50" y2="324.55"/>
<line x1="406.11" y1="308.98" x2="432.50" y2="324.22"/>
<line x1="406.11" y1="308.65" x2="432.50" y2="323.89"/>
<line x1="406.11" y1="308.32" x2="432.50" y2="323.55"/>
<line x1="406.11" y1="307.99" x2="432.50" y2="323.22"/>
<line x1="406.11" y1="307.66" x2="432.50" y2="322.89"/>
<line x1="406.11" y1="297.72" x2="432.50" y2="312.96"/>
<line x1="406.11" y1="297.39" x2="432.50" y2="312.63"/>
<line x1="406.11" y1="297.06" x2="432.50" y2="312.30"/>
<line x1="406.11" y1="296.73" x2="432.50" y2="311.96"/>
<line x1="406.11" y1="296.40" x2="432.50" y2="311.63"/>
<line x1="406.11" y1="296.07" x2="432.50" y2="311.30"/>
<line x1="406.11" y1="295.74" x2="432.50" y2="310.97"/>
<line x1="406.11" y1="295.41" x2="432.50" y2="310.64"/>
<line x1="406.11" y1="285.47" x2="432.50" y2="300.70"/>
<line x1="406.11" y1="285.14" x2="432.50" y2="300.37"/>
<line x1="406.11" y1="284.81" x2="432.50" y2="300.04"/>
<line x1="406.11" y1="284.48" x2="432.50" y2="299.71"/>
<line x1="406.11" y1="284.15" x2="432.50" y2="299.38"/>
<line x1="406.11" y1="283.81" x2="432.50" y2="299.05"/>
<line x1="406.11" y1="283.48" x2="432.50" y2="298.72"/>
<line x1="406.11" y1="283.15" x2="432.50" y2="298.39"/>
<line x1="406.11" y1="273.22" x2="432.50" y2="288.45"/>
<line x1="406.11" y1="272.89" x2="432.50" y2="288.12"/>
<line x1="406.11" y1="272.55" x2="432.50" y2="287.79"/>
<line x1="406.11" y1="272.22" x2="432.50" y2="287.46"/>
<line x1="406.11" y1="271.89" x2="432.50" y2="287.13"/>
<line x1="406.11" y1="271.56" x2="432.50" y2="286.79"/>
<line x1="406.11" y1="271.23" x2="432.50" y2="286.46"/>
<line x1="406.11" y1="270.90" x2="432.50" y2="286.13"/>
<line x1="406.11" y1="260.96" x2="432.50" y2="276.20"/>
<line x1="406.11" y1="260.63" x2="432.50" y2="275.87"/>
<line x1="406.11" y1="260.30" x2="432.50" y2="275.53"/>
<line x1="406.11" y1="259.97" x2="432.50" y2="275.20"/>
<line x1="406.11" y1="259.64" x2="432.50" y2="274.87"/>
<line x1="406.11" y1="259.31" x2="432.50" y2="274.54"/>
<line x1="406.11" y1="258.98" x2="432.50" y2="274.21"/>
<line x1="406.11" y1="258.65" x2="432.50" y2="273.88"/>
<line x1="406.11" y1="248.71" x2="432.50" y2="263.94"/>
<line x1="406.11" y1="248.38" x2="432.50" y2="263.61"/>
<line x1="406.11" y1="248.05" x2="432.50" y2="263.28"/>
<line x1="406.11" y1="247.72" x2="432.50" y2="262.95"/>
<line x1="406.11" y1="247.39" x2="432.50" y2="262.62"/>
<line x1="406.11" y1="247.05" x2="432.50" y2="262.29"/>
<line x1="406.11" y1="246.72" x2="432.50" y2="261.96"/>
<line x1="406.11" y1="246.39" x2="432.50" y2="261.63"/>
<line x1="406.11" y1="236.46" x2="432.50" y2="251.69"/>
<line x1="406.11" y1="236.13" x2="432.50" y2="251.36"/>
<line x1="406.11" y1="235.79" x2="432.50" y2="251.03"/>
<line x1="406.11" y1="235.46" x2="432.50" y2="250.70"/>
<line x1="406.11" y1="235.13" x2="432.50" y2="250.37"/>
<line x1="406.11" y1="234.80" x2="432.50" y2="250.03"/>
<line x1="406.11" y1="234.47" x2="432.50" y2="249.70"/>
<line x1="406.11" y1="234.14" x2="432.50" y2="249.37"/>
<line x1="406.11" y1="224.20" x2="432.50" y2="239.44"/>
<line x1="406.11" y1="223.87" x2="432.50" y2="239.11"/>
<line x1="406.11" y1="223.54" x2="432.50" y2="238.77"/>
<line x1="406.11" y1="223.21" x2="432.50" y2="238.44"/>
<line x1="406.11" y1="222.88" x2="432.50" y2="238.11"/>
<line x1="406.11" y1="222.55" x2="432.50" y2="237.78"/>
<line x1="406.11" y1="222.22" x2="432.50" y2="237.45"/>
<line x1="406.11" y1="221.89" x2="432.50" y2="237.12"/>
<line x1="406.11" y1="211.95" x2="432.50" y2="227.18"/>
<line x1="406.11" y1="211.62" x2="432.50" y2="226.85"/>
<line x1="406.11" y1="211.29" x2="432.50" y2="226.52"/>
<line x1="406.11" y1="210.96" x2="432.50" y2="226.19"/>
<line x1="406.11" y1="210.63" x2="432.50" y2="225.86"/>
<line x1="406.11" y1="210.29" x2="432.50" y2="225.53"/>
<line x1="406.11" y1="209.96" x2="432.50" y2="225.20"/>
<line x1="406.11" y1="209.63" x2="432.50" y2="224.87"/>
<line x1="406.11" y1="199.70" x2="432.50" y2="214.93"/>
<line x1="406.11" y1="199.37" x2="432.50" y2="214.60"/>
<line x1="406.11" y1="199.03" x2="432.50" y2="214.27"/>
<line x1="406.11" y1="198.70" x2="432.50" y2="213.94"/>
<line x1="406.11" y1="198.37" x2="432.50" y2="213.61"/>
<line x1="406.11" y1="198.04" x2="432.50" y2="213.27"/>
<line x1="406.11" y1="197.71" x2="432.50" y2="212.94"/>
<line x1="406.11" y1="197.38" x2="432.50" y2="212.61"/>
<line x1="406.11" y1="187.44" x2="432.50" y2="202.68"/>
<line x1="406.11" y1="187.11" x2="432.50" y2="202.35"/>
<line x1="406.11" y1="186.78" x2="432.50" y2="202.01"/>
<line x1="406.11" y1="186.45" x2="432.50" y2="201.68"/>
<line x1="406.11" y1="186.12" x2="432.50" y2="201.35"/>
<line x1="406.11" y1="185.79" x2="432.50" y2="201.02"/>
<line x1="406.11" y1="185.46" x2="432.50" y2="200.69"/>
<line x1="406.11" y1="185.13" x2="432.50" y2="200.36"/>
<line x1="410.67" y1="177.82" x2="432.50" y2="190.42"/>
<line x1="411.24" y1="177.82" x2="432.50" y2="190.09"/>
<line x1="411.81" y1="177.82" x2="432.50" y2="189.76"/>
<line x1="412.39" y1="177.82" x2="432.50" y2="189.43"/>
<line x1="412.96" y1="177.82" x2="432.50" y2="189.10"/>
<line x1="413.53" y1="177.82" x2="432.50" y2="188.77"/>
<line x1="414.11" y1="177.82" x2="432.50" y2="188.44"/>
<line x1="414.68" y1="177.82" x2="432.50" y2="188.11"/>
<line x1="431.89" y1="177.82" x2="432.50" y2="178.17"/>
<line x1="432.46" y1="177.82" x2="432.50" y2="177.84"/>
<polyline points="
 548.08, 444.26 548.08, 101.53 521.70, 101.53 521.70, 444.26"/>
<line x1="521.70" y1="443.94" x2="522.25" y2="444.26"/>
<line x1="521.70" y1="443.60" x2="522.83" y2="444.26"/>
<line x1="521.70" y1="443.27" x2="523.40" y2="444.26"/>
<line x1="521.70" y1="442.94" x2="523.97" y2="444.26"/>
<line x1="521.70" y1="442.61" x2="524.55" y2="444.26"/>
<line x1="521.70" y1="432.68" x2="541.76" y2="444.26"/>
<line x1="521.70" y1="432.34" x2="542.33" y2="444.26"/>
<line x1="521.70" y1="432.01" x2="542.90" y2="444.26"/>
<line x1="521.70" y1="431.68" x2="543.48" y2="444.26"/>
<line x1="521.70" y1="431.35" x2="544.05" y2="444.26"/>
<line x1="521.70" y1="431.02" x2="544.62" y2="444.26"/>
<line x1="521.70" y1="430.69" x2="545.20" y2="444.26"/>
<line x1="521.70" y1="430.36" x2="545.77" y2="444.26"/>
<line x1="521.70" y1="420.42" x2="548.08" y2="435.66"/>
<line x1="521.70" y1="420.09" x2="548.08" y2="435.33"/>
<line x1="521.70" y1="419.76" x2="548.08" y2="434.99"/>
<line x1="521.70" y1="419.43" x2="548.08" y2="434.66"/>
<line x1="521.70" y1="419.10" x2="548.08" y2="434.33"/>
<line x1="521.70" y1="418.77" x2="548.08" y2="434.00"/>
<line x1="521.70" y1="418.44" x2="548.08" y2="433.67"/>
<line x1="521.70" y1="418.10" x2="548.08" y2="433.34"/>
<line x1="521.70" y1="408.17" x2="548.08" y2="423.40"/>
<line x1="521.70" y1="407.84" x2="548.08" y2="423.07"/>
<line x1="521.70" y1="407.51" x2="548.08" y2="422.74"/>
<line x1="521.70" y1="407.18" x2="548.08" y2="422.41"/>
<line x1="521.70" y1="406.84" x2="548.08" y2="422.08"/>
<line x1="521.70" y1="406.51" x2="548.08" y2="421.75"/>
<line x1="521.70" y1="406.18" x2="548.08" y2="421.42"/>
<line x1="521.70" y1="405.85" x2="548.08" y2="421.08"/>
<line x1="521.70" y1="395.92" x2="548.08" y2="411.15"/>
<line x1="521.70" y1="395.58" x2="548.08" y2="410.82"/>
<line x1="521.70" y1="395.25" x2="548.08" y2="410.49"/>
<line x1="521.70" y1="394.92" x2="548.08" y2="410.16"/>
<line x1="521.70" y1="394.59" x2="548.08" y2="409.83"/>
<line x1="521.70" y1="394.26" x2="548.08" y2="409.49"/>
<line x1="521.70" y1="393.93" x2="548.08" y2="409.16"/>
<line x1="521.70" y1="393.60" x2="548.08" y2="408.83"/>
<line x1="521.70" y1="383.66" x2="548.08" y2="398.90"/>
<line x1="521.70" y1="383.33" x2="548.08" y2="398.57"/>
<line x1="521.70" y1="383.00" x2="548.08" y2="398.23"/>
<line x1="521.70" y1="382.67" x2="548.08" y2="397.90"/>
<line x1="521.70" y1="382.34" x2="548.08" y2="397.57"/>
<line x1="521.70" y1="382.01" x2="548.08" y2="397.24"/>
<line x1="521.70" y1="381.68" x2="548.08" y2="396.91"/>
<line x1="521.70" y1="381.34" x2="548.08" y2="396.58"/>
<line x1="521.70" y1="371.41" x2="548.08" y2="386.64"/>
<line x1="521.70" y1="371.08" x2="548.08" y2="386.31"/>
<line x1="521.70" y1="370.75" x2="548.08" y2="385.98"/>
<line x1="521.70" y1="370.42" x2="548.08" y2="385.65"/>
<line x1="521.70" y1="370.08" x2="548.08" y2="385.32"/>
<line x1="521.70" y1="369.75" x2="548.08" y2="384.99"/>
<line x1="521.70" y1="369.42" x2="548.08" y2="384.66"/>
<line x1="521.70" y1="369.09" x2="548.08" y2="384.32"/>
<line x1="521.70" y1="359.16" x2="548.08" y2="374.39"/>
<line x1="521.70" y1="358.82" x2="548.08" y2="374.06"/>
<line x1="521.70" y1="358.49" x2="548.08" y2="373.73"/>
<line x1="521.70" y1="358.16" x2="548.08" y2="373.40"/>
<line x1="521.70" y1="357.83" x2="548.08" y2="373.07"/>
<line x1="521.70" y1="357.50" x2="548.08" y2="372.73"/>
<line x1="521.70" y1="357.17" x2="548.08" y2="372.40"/>
<line x1="521.70" y1="356.84" x2="548.08" y2="372.07"/>
<line x1="521.70" y1="346.90" x2="548.08" y2="362.14"/>
<line x1="521.70" y1="346.57" x2="548.08" y2="361.81"/>
<line x1="521.70" y1="346.24" x2="548.08" y2="361.47"/>
<line x1="521.70" y1="345.91" x2="548.08" y2="361.14"/>
<line x1="521.70" y1="345.58" x2="548.08" y2="360.81"/>
<line x1="521.70" y1="345.25" x2="548.08" y2="360.48"/>
<line x1="521.70" y1="344.92" x2="548.08" y2="360.15"/>
<line x1="521.70" y1="344.58" x2="548.08" y2="359.82"/>
<line x1="521.70" y1="334.65" x2="548.08" y2="349.88"/>
<line x1="521.70" y1="334.32" x2="548.08" y2="349.55"/>
<line x1="521.70" y1="333.99" x2="548.08" y2="349.22"/>
<line x1="521.70" y1="333.66" x2="548.08" y2="348.89"/>
<line x1="521.70" y1="333.32" x2="548.08" y2="348.56"/>
<line x1="521.70" y1="332.99" x2="548.08" y2="348.23"/>
<line x1="521.70" y1="332.66" x2="548.08" y2="347.90"/>
<line x1="521.70" y1="332.33" x2="548.08" y2="347.56"/>
<line x1="521.70" y1="322.40" x2="548.08" y2="337.63"/>
<line x1="521.70" y1="322.06" x2="548.08" y2="337.30"/>
<line x1="521.70" y1="321.73" x2="548.08" y2="336.97"/>
<line x1="521.70" y1="321.40" x2="548.08" y2="336.64"/>
<line x1="521.70" y1="321.07" x2="548.08" y2="336.30"/>
<line x1="521.70" y1="320.74" x2="548.08" y2="335.97"/>
<line x1="521.70" y1="320.41" x2="548.08" y2="335.64"/>
<line x1="521.70" y1="320.08" x2="548.08" y2="335.31"/>
<line x1="521.70" y1="310.14" x2="548.08" y2="325.38"/>
<line x1="521.70" y1="309.81" x2="548.08" y2="325.05"/>
<line x1="521.70" y1="309.48" x2="548.08" y2="324.71"/>
<line x1="521.70" y1="309.15" x2="548.08" y2="324.38"/>
<line x1="521.70" y1="308.82" x2="548.08" y2="324.05"/>
<line x1="521.70" y1="308.49" x2="548.08" y2="323.72"/>
<line x1="521.70" y1="308.16" x2="548.08" y2="323.39"/>
<line x1="521.70" y1="307.82" x2="548.08" y2="323.06"/>
<line x1="521.70" y1="297.89" x2="548.08" y2="313.12"/>
<line x1="521.70" y1="297.56" x2="548.08" y2="312.79"/>
<line x1="521.70" y1="297.23" x2="548.08" y2="312.46"/>
<line x1="521.70" y1="296.90" x2="548.08" y2="312.13"/>
<line x1="521.70" y1="296.56" x2="548.08" y2="311.80"/>
<line x1="521.70" y1="296.23" x2="548.08" y2="311.47"/>
<line x1="521.70" y1="295.90" x2="548.08" y2="311.14"/>
<line x1="521.70" y1="295.57" x2="548.08" y2="310.80"/>
<line x1="521.70" y1="285.64" x2="548.08" y2="300.87"/>
<line x1="521.70" y1="285.30" x2="548.08" y2="300.54"/>
<line x1="521.70" y1="284.97" x2="548.08" y2="300.21"/>
<line x1="521.70" y1="284.64" x2="548.08" y2="299.88"/>
<line x1="521.70" y1="284.31" x2="548.08" y2="299.54"/>
<line x1="521.70" y1="283.98" x2="548.08" y2="299.21"/>
<line x1="521.70" y1="283.65" x2="548.08" y2="298.88"/>
<line x1="521.70" y1="283.32" x2="548.08" y2="298.55"/>
<line x1="521.70" y1="273.38" x2="548.08" y2="288.62"/>
<line x1="521.70" y1="273.05" x2="548.08" y2="288.29"/>
<line x1="521.70" y1="272.72" x2="548.08" y2="287.95"/>
<line x1="521.70" y1="272.39" x2="548.08" y2="287.62"/>
<line x1="521.70" y1="272.06" x2="548.08" y2="287.29"/>
<line x1="521.70" y1="271.73" x2="548.08" y2="286.96"/>
<line x1="521.70" y1="271.40" x2="548.08" y2="286.63"/>
<line x1="521.70" y1="271.06" x2="548.08" y2="286.30"/>
<line x1="521.70" y1="261.13" x2="548.08" y2="276.36"/>
<line x1="521.70" y1="260.80" x2="548.08" y2="276.03"/>
<line x1="521.70" y1="260.47" x2="548.08" y2="275.70"/>
<line x1="521.70" y1="260.14" x2="548.08" y2="275.37"/>
<line x1="521.70" y1="259.80" x2="548.08" y2="275.04"/>
<line x1="521.70" y1="259.47" x2="548.08" y2="274.71"/>
<line x1="521.70" y1="259.14" x2="548.08" y2="274.38"/>
<line x1="521.70" y1="258.81" x2="548.08" y2="274.04"/>
<line x1="521.70" y1="248.88" x2="548.08" y2="264.11"/>
<line x1="521.70" y1="248.54" x2="548.08" y2="263.78"/>
<line x1="521.70" y1="248.21" x2="548.08" y2="263.45"/>
<line x1="521.70" y1="247.88" x2="548.08" y2="263.12"/>
<line x1="521.70" y1="247.55" x2="548.08" y2="262.78"/>
<line x1="521.70" y1="247.22" x2="548.08" y2="262.45"/>
<line x1="521.70" y1="246.89" x2="548.08" y2="262.12"/>
<line x1="521.70" y1="246.56" x2="548.08" y2="261.79"/>
<line x1="521.70" y1="236.62" x2="548.08" y2="251.86"/>
<line x1="521.70" y1="236.29" x2="548.08" y2="251.52"/>
<line x1="521.70" y1="235.96" x2="548.08" y2="251.19"/>
<line x1="521.70" y1="235.63" x2="548.08" y2="250.86"/>
<line x1="521.70" y1="235.30" x2="548.08" y2="250.53"/>
<line x1="521.70" y1="234.97" x2="548.08" y2="250.20"/>
<line x1="521.70" y1="234.64" x2="548.08" y2="249.87"/>
<line x1="521.70" y1="234.30" x2="548.08" y2="249.54"/>
<line x1="521.70" y1="224.37" x2="548.08" y2="239.60"/>
<line x1="521.70" y1="224.04" x2="548.08" y2="239.27"/>
<line x1="521.70" y1="223.71" x2="548.08" y2="238.94"/>
<line x1="521.70" y1="223.38" x2="548.08" y2="238.61"/>
<line x1="521.70" y1="223.04" x2="548.08" y2="238.28"/>
<line x1="521.70" y1="222.71" x2="548.08" y2="237.95"/>
<line x1="521.70" y1="222.38" x2="548.08" y2="237.62"/>
<line x1="521.70" y1="222.05" x2="548.08" y2="237.28"/>
<line x1="521.70" y1="212.12" x2="548.08" y2="227.35"/>
<line x1="521.70" y1="211.78" x2="548.08" y2="227.02"/>
<line x1="521.70" y1="211.45" x2="548.08" y2="226.69"/>
<line x1="521.70" y1="211.12" x2="548.08" y2="226.36"/>
<line x1="521.70" y1="210.79" x2="548.08" y2="226.02"/>
<line x1="521.70" y1="210.46" x2="548.08" y2="225.69"/>
<line x1="521.70" y1="210.13" x2="548.08" y2="225.36"/>
<line x1="521.70" y1="209.80" x2="548.08" y2="225.03"/>
<line x1="521.70" y1="199.86" x2="548.08" y2="215.10"/>
<line x1="521.70" y1="199.53" x2="548.08" y2="214.76"/>
<line x1="521.70" y1="199.20" x2="548.08" y2="214.43"/>
<line x1="521.70" y1="198.87" x2="548.08" y2="214.10"/>
<line x1="521.70" y1="198.54" x2="548.08" y2="213.77"/>
<line x1="521.70" y1="198.21" x2="548.08" y2="213.44"/>
<line x1="521.70" y1="197.88" x2="548.08" y2="213.11"/>
<line x1="521.70" y1="197.54" x2="548.08" y2="212.78"/>
<line x1="521.70" y1="187.61" x2="548.08" y2="202.84"/>
<line x1="521.70" y1="187.28" x2="548.08" y2="202.51"/>
<line x1="521.70" y1="186.95" x2="548.08" y2="202.18"/>
<line x1="521.70" y1="186.62" x2="548.08" y2="201.85"/>
<line x1="521.70" y1="186.28" x2="548.08" y2="201.52"/>
<line x1="521.70" y1="185.95" x2="548.08" y2="201.19"/>
<line x1="521.70" y1="185.62" x2="548.08" y2="200.86"/>
<line x1="521.70" y1="185.29" x2="548.08" y2="200.52"/>
<line x1="521.70" y1="175.36" x2="548.08" y2="190.59"/>
<line x1="521.70" y1="175.02" x2="548.08" y2="190.26"/>
<line x1="521.70" y1="174.69" x2="548.08" y2="189.93"/>
<line x1="521.70" y1="174.36" x2="548.08" y2="189.60"/>
<line x1="521.70" y1="174.03" x2="548.08" y2="189.26"/>
<line x1="521.70" y1="173.70" x2="548.08" y2="188.93"/>
<line x1="521.70" y1="173.37" x2="548.08" y2="188.60"/>
<line x1="521.70" y1="173.04" x2="548.08" y2="188.27"/>
<line x1="521.70" y1="163.10" x2="548.08" y2="178.34"/>
<line x1="521.70" y1="162.77" x2="548.08" y2="178.00"/>
<line x1="521.70" y1="162.44" x2="548.08" y2="177.67"/>
<line x1="521.70" y1="162.11" x2="548.08" y2="177.34"/>
<line x1="521.70" y1="161.78" x2="548.08" y2="177.01"/>
<line x1="521.70" y1="161.45" x2="548.08" y2="176.68"/>
<line x1="521.70" y1="161.12" x2="548.08" y2="176.35"/>
<line x1="521.70" y1="160.78" x2="548.08" y2="176.02"/>
<line x1="521.70" y1="150.85" x2="548.08" y2="166.08"/>
<line x1="521.70" y1="150.52" x2="548.08" y2="165.75"/>
<line x1="521.70" y1="150.19" x2="548.08" y2="165.42"/>
<line x1="521.70" y1="149.86" x2="548.08" y2="165.09"/>
<line x1="521.70" y1="149.52" x2="548.08" y2="164.76"/>
<line x1="521.70" y1="149.19" x2="548.08" y2="164.43"/>
<line x1="521.70" y1="148.86" x2="548.08" y2="164.10"/>
<line x1="521.70" y1="148.53" x2="548.08" y2="163.76"/>
<line x1="521.70" y1="138.60" x2="548.08" y2="153.83"/>
<line x1="521.70" y1="138.26" x2="548.08" y2="153.50"/>
<line x1="521.70" y1="137.93" x2="548.08" y2="153.17"/>
<line x1="521.70" y1="137.60" x2="548.08" y2="152.84"/>
<line x1="521.70" y1="137.27" x2="548.08" y2="152.50"/>
<line x1="521.70" y1="136.94" x2="548.08" y2="152.17"/>
<line x1="521.70" y1="136.61" x2="548.08" y2="151.84"/>
<line x1="521.70" y1="136.28" x2="548.08" y2="151.51"/>
<line x1="521.70" y1="126.34" x2="548.08" y2="141.58"/>
<line x1="521.70" y1="126.01" x2="548.08" y2="141.24"/>
<line x1="521.70" y1="125.68" x2="548.08" y2="140.91"/>
<line x1="521.70" y1="125.35" x2="548.08" y2="140.58"/>
<line x1="521.70" y1="125.02" x2="548.08" y2="140.25"/>
<line x1="521.70" y1="124.69" x2="548.08" y2="139.92"/>
<line x1="521.70" y1="124.36" x2="548.08" y2="139.59"/>
<line x1="521.70" y1="124.02" x2="548.08" y2="139.26"/>
<line x1="521.70" y1="114.09" x2="548.08" y2="129.32"/>
<line x1="521.70" y1="113.76" x2="548.08" y2="128.99"/>
<line x1="521.70" y1="113.43" x2="548.08" y2="128.66"/>
<line x1="521.70" y1="113.10" x2="548.08" y2="128.33"/>
<line x1="521.70" y1="112.76" x2="548.08" y2="128.00"/>
<line x1="521.70" y1="112.43" x2="548.08" y2="127.67"/>
<line x1="521.70" y1="112.10" x2="548.08" y2="127.34"/>
<line x1="521.70" y1="111.77" x2="548.08" y2="127.00"/>
<line x1="521.70" y1="101.84" x2="548.08" y2="117.07"/>
<line x1="521.74" y1="101.53" x2="548.08" y2="116.74"/>
<line x1="522.31" y1="101.53" x2="548.08" y2="116.41"/>
<line x1="522.88" y1="101.53" x2="548.08" y2="116.08"/>
<line x1="523.46" y1="101.53" x2="548.08" y2="115.74"/>
<line x1="524.03" y1="101.53" x2="548.08" y2="115.41"/>
<line x1="524.61" y1="101.53" x2="548.08" y2="115.08"/>
<line x1="525.18" y1="101.53" x2="548.08" y2="114.75"/>
<line x1="542.39" y1="101.53" x2="548.08" y2="104.82"/>
<line x1="542.96" y1="101.53" x2="548.08" y2="104.48"/>
<line x1="543.53" y1="101.53" x2="548.08" y2="104.15"/>
<line x1="544.11" y1="101.53" x2="548.08" y2="103.82"/>
<line x1="544.68" y1="101.53" x2="548.08" y2="103.49"/>
<line x1="545.25" y1="101.53" x2="548.08" y2="103.16"/>
<line x1="545.83" y1="101.53" x2="548.08" y2="102.83"/>
<line x1="546.40" y1="101.53" x2="548.08" y2="102.50"/>
<polyline points="
 663.66, 444.26 663.66, 162.62 637.28, 162.62 637.28, 444.26"/>
<line x1="637.28" y1="444.10" x2="637.55" y2="444.26"/>
<line x1="637.28" y1="443.77" x2="638.12" y2="444.26"/>
<line x1="637.28" y1="443.44" x2="638.70" y2="444.26"/>
<line x1="637.28" y1="443.11" x2="639.27" y2="444.26"/>
<line x1="637.28" y1="442.78" x2="639.84" y2="444.26"/>
<line x1="637.28" y1="442.45" x2="640.42" y2="444.26"/>
<line x1="637.28" y1="432.51" x2="657.62" y2="444.26"/>
<line x1="637.28" y1="432.18" x2="658.20" y2="444.26"/>
<line x1="637.28" y1="431.85" x2="658.77" y2="444.26"/>
<line x1="637.28" y1="431.52" x2="659.35" y2="444.26"/>
<line x1="637.28" y1="431.19" x2="659.92" y2="444.26"/>
<line x1="637.28" y1="430.85" x2="660.49" y2="444.26"/>
<line x1="637.28" y1="430.52" x2="661.07" y2="444.26"/>
<line x1="637.28" y1="430.19" x2="661.64" y2="444.26"/>
<line x1="637.28" y1="420.26" x2="663.66" y2="435.49"/>
<line x1="637.28" y1="419.93" x2="663.66" y2="435.16"/>
<line x1="637.28" y1="419.59" x2="663.66" y2="434.83"/>
<line x1="637.28" y1="419.26" x2="663.66" y2="434.50"/>
<line x1="637.28" y1="418.93" x2="663.66" y2="434.17"/>
<line x1="637.28" y1="418.60" x2="663.66" y2="433.84"/>
<line x1="637.28" y1="418.27" x2="663.66" y2="433.50"/>
<line x1="637.28" y1="417.94" x2="663.66" y2="433.17"/>
<line x1="637.28" y1="408.00" x2="663.66" y2="423.24"/>
<line x1="637.28" y1="407.67" x2="663.66" y2="422.91"/>
<line x1="637.28" y1="407.34" x2="663.66" y2="422.58"/>
<line x1="637.28" y1="407.01" x2="663.66" y2="422.24"/>
<line x1="637.28" y1="406.68" x2="663.66" y2="421.91"/>
<line x1="637.28" y1="406.35" x2="663.66" y2="421.58"/>
<line x1="637.28" y1="406.02" x2="663.66" y2="421.25"/>
<line x1="637.28" y1="405.69" x2="663.66" y2="420.92"/>
<line x1="637.28" y1="395.75" x2="663.66" y2="410.98"/>
<line x1="637.28" y1="395.42" x2="663.66" y2="410.65"/>
<line x1="637.28" y1="395.09" x2="663.66" y2="410.32"/>
<line x1="637.28" y1="394.76" x2="663.66" y2="409.99"/>
<line x1="637.28" y1="394.43" x2="663.66" y2="409.66"/>
<line x1="637.28" y1="394.09" x2="663.66" y2="409.33"/>
<line x1="637.28" y1="393.76" x2="663.66" y2="409.00"/>
<line x1="637.28" y1="393.43" x2="663.66" y2="408.67"/>
<line x1="637.28" y1="383.50" x2="663.66" y2="398.73"/>
<line x1="637.28" y1="383.17" x2="663.66" y2="398.40"/>
<line x1="637.28" y1="382.83" x2="663.66" y2="398.07"/>
<line x1="637.28" y1="382.50" x2="663.66" y2="397.74"/>
<line x1="637.28" y1="382.17" x2="663.66" y2="397.41"/>
<line x1="637.28" y1="381.84" x2="663.66" y2="397.08"/>
<line x1="637.28" y1="381.51" x2="663.66" y2="396.74"/>
<line x1="637.28" y1="381.18" x2="663.66" y2="396.41"/>
<line x1="637.28" y1="371.24" x2="663.66" y2="386.48"/>
<line x1="637.28" y1="370.91" x2="663.66" y2="386.15"/>
<line x1="637.28" y1="370.58" x2="663.66" y2="385.82"/>
<line x1="637.28" y1="370.25" x2="663.66" y2="385.48"/>
<line x1="637.28" y1="369.92" x2="663.66" y2="385.15"/>
<line x1="637.28" y1="369.59" x2="663.66" y2="384.82"/>
<line x1="637.28" y1="369.26" x2="663.66" y2="384.49"/>
<line x1="637.28" y1="368.93" x2="663.66" y2="384.16"/>
<line x1="637.28" y1="358.99" x2="663.66" y2="374.22"/>
<line x1="637.28" y1="358.66" x2="663.66" y2="373.89"/>
<line x1="637.28" y1="358.33" x2="663.66" y2="373.56"/>
<line x1="637.28" y1="358.00" x2="663.66" y2="373.23"/>
<line x1="637.28" y1="357.67" x2="663.66" y2="372.90"/>
<line x1="637.28" y1="357.33" x2="663.66" y2="372.57"/>
<line x1="637.28" y1="357.00" x2="663.66" y2="372.24"/>
<line x1="637.28" y1="356.67" x2="663.66" y2="371.91"/>
<line x1="637.28" y1="346.74" x2="663.66" y2="361.97"/>
<line x1="637.28" y1="346.41" x2="663.66" y2="361.64"/>
<line x1="637.28" y1="346.07" x2="663.66" y2="361.31"/>
<line x1="637.28" y1="345.74" x2="663.66" y2="360.98"/>
<line x1="637.28" y1="345.41" x2="663.66" y2="360.65"/>
<line x1="637.28" y1="345.08" x2="663.66" y2="360.31"/>
<line x1="637.28" y1="344.75" x2="663.66" y2="359.98"/>
<line x1="637.28" y1="344.42" x2="663.66" y2="359.65"/>
<line x1="637.28" y1="334.48" x2="663.66" y2="349.72"/>
<line x1="637.28" y1="334.15" x2="663.66" y2="349.39"/>
<line x1="637.28" y1="333.82" x2="663.66" y2="349.06"/>
<line x1="637.28" y1="333.49" x2="663.66" y2="348.72"/>
<line x1="637.28" y1="333.16" x2="663.66" y2="348.39"/>
<line x1="637.28" y1="332.83" x2="663.66" y2="348.06"/>
<line x1="637.28" y1="332.50" x2="663.66" y2="347.73"/>
<line x1="637.28" y1="332.17" x2="663.66" y2="347.40"/>
<line x1="637.28" y1="322.23" x2="663.66" y2="337.46"/>
<line x1="637.28" y1="321.90" x2="663.66" y2="337.13"/>
<line x1="637.28" y1="321.57" x2="663.66" y2="336.80"/>
<line x1="637.28" y1="321.24" x2="663.66" y2="336.47"/>
<line x1="637.28" y1="320.91" x2="663.66" y2="336.14"/>
<line x1="637.28" y1="320.57" x2="663.66" y2="335.81"/>
<line x1="637.28" y1="320.24" x2="663.66" y2="335.48"/>
<line x1="637.28" y1="319.91" x2="663.66" y2="335.15"/>
<line x1="637.28" y1="309.98" x2="663.66" y2="325.21"/>
<line x1="637.28" y1="309.65" x2="663.66" y2="324.88"/>
<line x1="637.28" y1="309.31" x2="663.66" y2="324.55"/>
<line x1="637.28" y1="308.98" x2="663.66" y2="324.22"/>
<line x1="637.28" y1="308.65" x2="663.66" y2="323.89"/>
<line x1="637.28" y1="308.32" x2="663.66" y2="323.55"/>
<line x1="637.28" y1="307.99" x2="663.66" y2="323.22"/>
<line x1="637.28" y1="307.66" x2="663.66" y2="322.89"/>
<line x1="637.28" y1="297.72" x2="663.66" y2="312.96"/>
<line x1="637.28" y1="297.39" x2="663.66" y2="312.63"/>
<line x1="637.28" y1="297.06" x2="663.66" y2="312.30"/>
<line x1="637.28" y1="296.73" x2="663.66" y2="311.96"/>
<line x1="637.28" y1="296.40" x2="663.66" y2="311.63"/>
<line x1="637.28" y1="296.07" x2="663.66" y2="311.30"/>
<line x1="637.28" y1="295.74" x2="663.66" y2="310.97"/>
<line x1="637.28" y1="295.41" x2="663.66" y2="310.64"/>
<line x1="637.28" y1="285.47" x2="663.66" y2="300.70"/>
<line x1="637.28" y1="285.14" x2="663.66" y2="300.37"/>
<line x1="637.28" y1="284.81" x2="663.66" y2="300.04"/>
<line x1="637.28" y1="284.48" x2="663.66" y2="299.71"/>
<line x1="637.28" y1="284.15" x2="663.66" y2="299.38"/>
<line x1="637.28" y1="283.81" x2="663.66" y2="299.05"/>
<line x1="637.28" y1="283.48" x2="663.66" y2="298.72"/>
<line x1="637.28" y1="283.15" x2="663.66" y2="298.39"/>
<line x1="637.28" y1="273.22" x2="663.66" y2="288.45"/>
<line x1="637.28" y1="272.89" x2="663.66" y2="288.12"/>
<line x1="637.28" y1="272.55" x2="663.66" y2="287.79"/>
<line x1="637.28" y1="272.22" x2="663.66" y2="287.46"/>
<line x1="637.28" y1="271.89" x2="663.66" y2="287.13"/>
<line x1="637.28" y1="271.56" x2="663.66" y2="286.79"/>
<line x1="637.28" y1="271.23" x2="663.66" y2="286.46"/>
<line x1="637.28" y1="270.90" x2="663.66" y2="286.13"/>
<line x1="637.28" y1="260.96" x2="663.66" y2="276.20"/>
<line x1="637.28" y1="260.63" x2="663.66" y2="275.87"/>
<line x1="637.28" y1="260.30" x2="663.66" y2="275.53"/>
<line x1="637.28" y1="259.97" x2="663.66" y2="275.20"/>
<line x1="637.28" y1="259.64" x2="663.66" y2="274.87"/>
<line x1="637.28" y1="259.31" x2="663.66" y2="274.54"/>
<line x1="637.28" y1="258.98" x2="663.66" y2="274.21"/>
<line x1="637.28" y1="258.65" x2="663.66" y2="273.88"/>
<line x1="637.28" y1="248.71" x2="663.66" y2="263.94"/>
<line x1="637.28" y1="248.38" x2="663.66" y2="263.61"/>
<line x1="637.28" y1="248.05" x2="663.66" y2="263.28"/>
<line x1="637.28" y1="247.72" x2="663.66" y2="262.95"/>
<line x1="637.28" y1="247.39" x2="663.66" y2="262.62"/>
<line x1="637.28" y1="247.05" x2="663.66" y2="262.29"/>
<line x1="637.28" y1="246.72" x2="663.66" y2="261.96"/>
<line x1="637.28" y1="246.39" x2="663.66" y2="261.63"/>
<line x1="637.28" y1="236.46" x2="663.66" y2="251.69"/>
<line x1="637.28" y1="236.13" x2="663.66" y2="251.36"/>
<line x1="637.28" y1="235.79" x2="663.66" y2="251.03"/>
<line x1="637.28" y1="235.46" x2="663.66" y2="250.70"/>
<line x1="637.28" y1="235.13" x2="663.66" y2="250.37"/>
<line x1="637.28" y1="234.80" x2="663.66" y2="250.03"/>
<line x1="637.28" y1="234.47" x2="663.66" y2="249.70"/>
<line x1="637.28" y1="234.14" x2="663.66" y2="249.37"/>
<line x1="637.28" y1="224.20" x2="663.66" y2="239.44"/>
<line x1="637.28" y1="223.87" x2="663.66" y2="239.11"/>
<line x1="637.28" y1="223.54" x2="663.66" y2="238.77"/>
<line x1="637.28" y1="223.21" x2="663.66" y2="238.44"/>
<line x1="637.28" y1="222.88" x2="663.66" y2="238.11"/>
<line x1="637.28" y1="222.55" x2="663.66" y2="237.78"/>
<line x1="637.28" y1="222.22" x2="663.66" y2="237.45"/>
<line x1="637.28" y1="221.89" x2="663.66" y2="237.12"/>
<line x1="637.28" y1="211.95" x2="663.66" y2="227.18"/>
<line x1="637.28" y1="211.62" x2="663.66" y2="226.85"/>
<line x1="637.28" y1="211.29" x2="663.66" y2="226.52"/>
<line x1="637.28" y1="210.96" x2="663.66" y2="226.19"/>
<line x1="637.28" y1="210.63" x2="663.66" y2="225.86"/>
<line x1="637.28" y1="210.29" x2="663.66" y2="225.53"/>
<line x1="637.28" y1="209.96" x2="663.66" y2="225.20"/>
<line x1="637.28" y1="209.63" x2="663.66" y2="224.87"/>
<line x1="637.28" y1="199.70" x2="663.66" y2="214.93"/>
<line x1="637.28" y1="199.37" x2="663.66" y2="214.60"/>
<line x1="637.28" y1="199.03" x2="663.66" y2="214.27"/>
<line x1="637.28" y1="198.70" x2="663.66" y2="213.94"/>
<line x1="637.28" y1="198.37" x2="663.66" y2="213.61"/>
<line x1="637.28" y1="198.04" x2="663.66" y2="213.27"/>
<line x1="637.28" y1="197.71" x2="663.66" y2="212.94"/>
<line x1="637.28" y1="197.38" x2="663.66" y2="212.61"/>
<line x1="637.28" y1="187.44" x2="663.66" y2="202.68"/>
<line x1="637.28" y1="187.11" x2="663.66" y2="202.35"/>
<line x1="637.28" y1="186.78" x2="663.66" y2="202.01"/>
<line x1="637.28" y1="186.45" x2="663.66" y2="201.68"/>
<line x1="637.28" y1="186.12" x2="663.66" y2="201.35"/>
<line x1="637.28" y1="185.79" x2="663.66" y2="201.02"/>
<line x1="637.28" y1="185.46" x2="663.66" y2="200.69"/>
<line x1="637.28" y1="185.13" x2="663.66" y2="200.36"/>
<line x1="637.28" y1="175.19" x2="663.66" y2="190.42"/>
<line x1="637.28" y1="174.86" x2="663.66" y2="190.09"/>
<line x1="637.28" y1="174.53" x2="663.66" y2="189.76"/>
<line x1="637.28" y1="174.20" x2="663.66" y2="189.43"/>
<line x1="637.28" y1="173.87" x2="663.66" y2="189.10"/>
<line x1="637.28" y1="173.53" x2="663.66" y2="188.77"/>
<line x1="637.28" y1="173.20" x2="663.66" y2="188.44"/>
<line x1="637.28" y1="172.87" x2="663.66" y2="188.11"/>
<line x1="637.28" y1="162.94" x2="663.66" y2="178.17"/>
<line x1="637.30" y1="162.62" x2="663.66" y2="177.84"/>
<line x1="637.87" y1="162.62" x2="663.66" y2="177.51"/>
<line x1="638.44" y1="162.62" x2="663.66" y2="177.18"/>
<line x1="639.02" y1="162.62" x2="663.66" y2="176.85"/>
<line x1="639.59" y1="162.62" x2="663.66" y2="176.51"/>
<line x1="640.17" y1="162.62" x2="663.66" y2="176.18"/>
<line x1="640.74" y1="162.62" x2="663.66" y2="175.85"/>
<line x1="657.95" y1="162.62" x2="663.66" y2="165.92"/>
<line x1="658.52" y1="162.62" x2="663.66" y2="165.59"/>
<line x1="659.09" y1="162.62" x2="663.66" y2="165.25"/>
<line x1="659.67" y1="162.62" x2="663.66" y2="164.92"/>
<line x1="660.24" y1="162.62" x2="663.66" y2="164.59"/>
<line x1="660.82" y1="162.62" x2="663.66" y2="164.26"/>
<line x1="661.39" y1="162.62" x2="663.66" y2="163.93"/>
<line x1="661.96" y1="162.62" x2="663.66" y2="163.60"/>
<polyline points="
 779.24, 444.26 779.24, 139.67 752.86, 139.67 752.86, 444.26"/>
<line x1="752.86" y1="443.94" x2="753.42" y2="444.26"/>
<line x1="752.86" y1="443.60" x2="753.99" y2="444.26"/>
<line x1="752.86" y1="443.27" x2="754.56" y2="444.26"/>
<line x1="752.86" y1="442.94" x2="755.14" y2="444.26"/>
<line x1="752.86" y1="442.61" x2="755.71" y2="444.26"/>
<line x1="752.86" y1="432.68" x2="772.92" y2="444.26"/>
<line x1="752.86" y1="432.34" x2="773.49" y2="444.26"/>
<line x1="752.86" y1="432.01" x2="774.07" y2="444.26"/>
<line x1="752.86" y1="431.68" x2="774.64" y2="444.26"/>
<line x1="752.86" y1="431.35" x2="775.21" y2="444.26"/>
<line x1="752.86" y1="431.02" x2="775.79" y2="444.26"/>
<line x1="752.86" y1="430.69" x2="776.36" y2="444.26"/>
<line x1="752.86" y1="430.36" x2="776.93" y2="444.26"/>
<line x1="752.86" y1="420.42" x2="779.24" y2="435.66"/>
<line x1="752.86" y1="420.09" x2="779.24" y2="435.33"/>
<line x1="752.86" y1="419.76" x2="779.24" y2="434.99"/>
<line x1="752.86" y1="419.43" x2="779.24" y2="434.66"/>
<line x1="752.86" y1="419.10" x2="779.24" y2="434.33"/>
<line x1="752.86" y1="418.77" x2="779.24" y2="434.00"/>
<line x1="752.86" y1="418.44" x2="779.24" y2="433.67"/>
<line x1="752.86" y1="418.10" x2="779.24" y2="433.34"/>
<line x1="752.86" y1="408.17" x2="779.24" y2="423.40"/>
<line x1="752.86" y1="407.84" x2="779.24" y2="423.07"/>
<line x1="752.86" y1="407.51" x2="779.24" y2="422.74"/>
<line x1="752.86" y1="407.18" x2="779.24" y2="422.41"/>
<line x1="752.86" y1="406.84" x2="779.24" y2="422.08"/>
<line x1="752.86" y1="406.51" x2="779.24" y2="421.75"/>
<line x1="752.86" y1="406.18" x2="779.24" y2="421.42"/>
<line x1="752.86" y1="405.85" x2="779.24" y2="421.08"/>
<line x1="752.86" y1="395.92" x2="779.24" y2="411.15"/>
<line x1="752.86" y1="395.58" x2="779.24" y2="410.82"/>
<line x1="752.86" y1="395.25" x2="779.24" y2="410.49"/>
<line x1="752.86" y1="394.92" x2="779.24" y2="410.16"/>
<line x1="752.86" y1="394.59" x2="779.24" y2="409.83"/>
<line x1="752.86" y1="394.26" x2="779.24" y2="409.49"/>
<line x1="752.86" y1="393.93" x2="779.24" y2="409.16"/>
<line x1="752.86" y1="393.60" x2="779.24" y2="408.83"/>
<line x1="752.86" y1="383.66" x2="779.24" y2="398.90"/>
<line x1="752.86" y1="383.33" x2="779.24" y2="398.57"/>
<line x1="752.86" y1="383.00" x2="779.24" y2="398.23"/>
<line x1="752.86" y1="382.67" x2="779.24" y2="397.90"/>
<line x1="752.86" y1="382.34" x2="779.24" y2="397.57"/>
<line x1="752.86" y1="382.01" x2="779.24" y2="397.24"/>
<line x1="752.86" y1="381.68" x2="779.24" y2="396.91"/>
<line x1="752.86" y1="381.34" x2="779.24" y2="396.58"/>
<line x1="752.86" y1="371.41" x2="779.24" y2="386.64"/>
<line x1="752.86" y1="371.08" x2="779.24" y2="386.31"/>
<line x1="752.86" y1="370.75" x2="779.24" y2="385.98"/>
<line x1="752.86" y1="370.42" x2="779.24" y2="385.65"/>
<line x1="752.86" y1="370.08" x2="779.24" y2="385.32"/>
<line x1="752.86" y1="369.75" x2="779.24" y2="384.99"/>
<line x1="752.86" y1="369.42" x2="779.24" y2="384.66"/>
<line x1="752.86" y1="369.09" x2="779.24" y2="384.32"/>
<line x1="752.86" y1="359.16" x2="779.24" y2="374.39"/>
<line x1="752.86" y1="358.82" x2="779.24" y2="374.06"/>
<line x1="752.86" y1="358.49" x2="779.24" y2="373.73"/>
<line x1="752.86" y1="358.16" x2="779.24" y2="373.40"/>
<line x1="752.86" y1="357.83" x2="779.24" y2="373.07"/>
<line x1="752.86" y1="357.50" x2="779.24" y2="372.73"/>
<line x1="752.86" y1="357.17" x2="779.24" y2="372.40"/>
<line x1="752.86" y1="356.84" x2="779.24" y2="372.07"/>
<line x1="752.86" y1="346.90" x2="779.24" y2="362.14"/>
<line x1="752.86" y1="346.57" x2="779.24" y2="361.81"/>
<line x1="752.86" y1="346.24" x2="779.24" y2="361.47"/>
<line x1="752.86" y1="345.91" x2="779.24" y2="361.14"/>
<line x1="752.86" y1="345.58" x2="779.24" y2="360.81"/>
<line x1="752.86" y1="345.25" x2="779.24" y2="360.48"/>
<line x1="752.86" y1="344.92" x2="779.24" y2="360.15"/>
<line x1="752.86" y1="344.58" x2="779.24" y2="359.82"/>
<line x1="752.86" y1="334.65" x2="779.24" y2="349.88"/>
<line x1="752.86" y1="334.32" x2="779.24" y2="349.55"/>
<line x1="752.86" y1="333.99" x2="779.24" y2="349.22"/>
<line x1="752.86" y1="333.66" x2="779.24" y2="348.89"/>
<line x1="752.86" y1="333.32" x2="779.24" y2="348.56"/>
<line x1="752.86" y1="332.99" x2="779.24" y2="348.23"/>
<line x1="752.86" y1="332.66" x2="779.24" y2="347.90"/>
<line x1="752.86" y1="332.33" x2="779.24" y2="347.56"/>
<line x1="752.86" y1="322.40" x2="779.24" y2="337.63"/>
<line x1="752.86" y1="322.06" x2="779.24" y2="337.30"/>
<line x1="752.86" y1="321.73" x2="779.24" y2="336.97"/>
<line x1="752.86" y1="321.40" x2="779.24" y2="336.64"/>
<line x1="752.86" y1="321.07" x2="779.24" y2="336.30"/>
<line x1="752.86" y1="320.74" x2="779.24" y2="335.97"/>
<line x1="752.86" y1="320.41" x2="779.24" y2="335.64"/>
<line x1="752.86" y1="320.08" x2="779.24" y2="335.31"/>
<line x1="752.86" y1="310.14" x2="779.24" y2="325.38"/>
<line x1="752.86" y1="309.81" x2="779.24" y2="325.05"/>
<line x1="752.86" y1="309.48" x2="779.24" y2="324.71"/>
<line x1="752.86" y1="309.15" x2="779.24" y2="324.38"/>
<line x1="752.86" y1="308.82" x2="779.24" y2="324.05"/>
<line x1="752.86" y1="308.49" x2="779.24" y2="323.72"/>
<line x1="752.86" y1="308.16" x2="779.24" y2="323.39"/>
<line x1="752.86" y1="307.82" x2="779.24" y2="323.06"/>
<line x1="752.86" y1="297.89" x2="779.24" y2="313.12"/>
<line x1="752.86" y1="297.56" x2="779.24" y2="312.79"/>
<line x1="752.86" y1="297.23" x2="779.24" y2="312.46"/>
<line x1="752.86" y1="296.90" x2="779.24" y2="312.13"/>
<line x1="752.86" y1="296.56" x2="779.24" y2="311.80"/>
<line x1="752.86" y1="296.23" x2="779.24" y2="311.47"/>
<line x1="752.86" y1="295.90" x2="779.24" y2="311.14"/>
<line x1="752.86" y1="295.57" x2="779.24" y2="310.80"/>
<line x1="752.86" y1="285.64" x2="779.24" y2="300.87"/>
<line x1="752.86" y1="285.30" x2="779.24" y2="300.54"/>
<line x1="752.86" y1="284.97" x2="779.24" y2="300.21"/>
<line x1="752.86" y1="284.64" x2="779.24" y2="299.88"/>
<line x1="752.86" y1="284.31" x2="779.24" y2="299.54"/>
<line x1="752.86" y1="283.98" x2="779.24" y2="299.21"/>
<line x1="752.86" y1="283.65" x2="779.24" y2="298.88"/>
<line x1="752.86" y1="283.32" x2="779.24" y2="298.55"/>
<line x1="752.86" y1="273.38" x2="779.24" y2="288.62"/>
<line x1="752.86" y1="273.05" x2="779.24" y2="288.29"/>
<line x1="752.86" y1="272.72" x2="779.24" y2="287.95"/>
<line x1="752.86" y1="272.39" x2="779.24" y2="287.62"/>
<line x1="752.86" y1="272.06" x2="779.24" y2="287.29"/>
<line x1="752.86" y1="271.73" x2="779.24" y2="286.96"/>
<line x1="752.86" y1="271.40" x2="779.24" y2="286.63"/>
<line x1="752.86" y1="271.06" x2="779.24" y2="286.30"/>
<line x1="752.86" y1="261.13" x2="779.24" y2="276.36"/>
<line x1="752.86" y1="260.80" x2="779.24" y2="276.03"/>
<line x1="752.86" y1="260.47" x2="779.24" y2="275.70"/>
<line x1="752.86" y1="260.14" x2="779.24" y2="275.37"/>
<line x1="752.86" y1="259.80" x2="779.24" y2="275.04"/>
<line x1="752.86" y1="259.47" x2="779.24" y2="274.71"/>
<line x1="752.86" y1="259.14" x2="779.24" y2="274.38"/>
<line x1="752.86" y1="258.81" x2="779.24" y2="274.04"/>
<line x1="752.86" y1="248.88" x2="779.24" y2="264.11"/>
<line x1="752.86" y1="248.54" x2="779.24" y2="263.78"/>
<line x1="752.86" y1="248.21" x2="779.24" y2="263.45"/>
<line x1="752.86" y1="247.88" x2="779.24" y2="263.12"/>
<line x1="752.86" y1="247.55" x2="779.24" y2="262.78"/>
<line x1="752.86" y1="247.22" x2="779.24" y2="262.45"/>
<line x1="752.86" y1="246.89" x2="779.24" y2="262.12"/>
<line x1="752.86" y1="246.56" x2="779.24" y2="261.79"/>
<line x1="752.86" y1="236.62" x2="779.24" y2="251.86"/>
<line x1="752.86" y1="236.29" x2="779.24" y2="251.52"/>
<line x1="752.86" y1="235.96" x2="779.24" y2="251.19"/>
<line x1="752.86" y1="235.63" x2="779.24" y2="250.86"/>
<line x1="752.86" y1="235.30" x2="779.24" y2="250.53"/>
<line x1="752.86" y1="234.97" x2="779.24" y2="250.20"/>
<line x1="752.86" y1="234.64" x2="779.24" y2="249.87"/>
<line x1="752.86" y1="234.30" x2="779.24" y2="249.54"/>
<line x1="752.86" y1="224.37" x2="779.24" y2="239.60"/>
<line x1="752.86" y1="224.04" x2="779.24" y2="239.27"/>
<line x1="752.86" y1="223.71" x2="779.24" y2="238.94"/>
<line x1="752.86" y1="223.38" x2="779.24" y2="238.61"/>
<line x1="752.86" y1="223.04" x2="779.24" y2="238.28"/>
<line x1="752.86" y1="222.71" x2="779.24" y2="237.95"/>
<line x1="752.86" y1="222.38" x2="779.24" y2="237.62"/>
<line x1="752.86" y1="222.05" x2="779.24" y2="237.28"/>
<line x1="752.86" y1="212.12" x2="779.24" y2="227.35"/>
<line x1="752.86" y1="211.78" x2="779.24" y2="227.02"/>
<line x1="752.86" y1="211.45" x2="779.24" y2="226.69"/>
<line x1="752.86" y1="211.12" x2="779.24" y2="226.36"/>
<line x1="752.86" y1="210.79" x2="779.24" y2="226.02"/>
<line x1="752.86" y1="210.46" x2="779.24" y2="225.69"/>
<line x1="752.86" y1="210.13" x2="779.24" y2="225.36"/>
<line x1="752.86" y1="209.80" x2="779.24" y2="225.03"/>
<line x1="752.86" y1="199.86" x2="779.24" y2="215.10"/>
<line x1="752.86" y1="199.53" x2="779.24" y2="214.76"/>
<line x1="752.86" y1="199.20" x2="779.24" y2="214.43"/>
<line x1="752.86" y1="198.87" x2="779.24" y2="214.10"/>
<line x1="752.86" y1="198.54" x2="779.24" y2="213.77"/>
<line x1="752.86" y1="198.21" x2="779.24" y2="213.44"/>
<line x1="752.86" y1="197.88" x2="779.24" y2="213.11"/>
<line x1="752.86" y1="197.54" x2="779.24" y2="212.78"/>
<line x1="752.86" y1="187.61" x2="779.24" y2="202.84"/>
<line x1="752.86" y1="187.28" x2="779.24" y2="202.51"/>
<line x1="752.86" y1="186.95" x2="779.24" y2="202.18"/>
<line x1="752.86" y1="186.62" x2="779.24" y2="201.85"/>
<line x1="752.86" y1="186.28" x2="779.24" y2="201.52"/>
<line x1="752.86" y1="185.95" x2="779.24" y2="201.19"/>
<line x1="752.86" y1="185.62" x2="779.24" y2="200.86"/>
<line x1="752.86" y1="185.29" x2="779.24" y2="200.52"/>
<line x1="752.86" y1="175.36" x2="779.24" y2="190.59"/>
<line x1="752.86" y1="175.02" x2="779.24" y2="190.26"/>
<line x1="752.86" y1="174.69" x2="779.24" y2="189.93"/>
<line x1="752.86" y1="174.36" x2="779.24" y2="189.60"/>
<line x1="752.86" y1="174.03" x2="779.24" y2="189.26"/>
<line x1="752.86" y1="173.70" x2="779.24" y2="188.93"/>
<line x1="752.86" y1="173.37" x2="779.24" y2="188.60"/>
<line x1="752.86" y1="173.04" x2="779.24" y2="188.27"/>
<line x1="752.86" y1="163.10" x2="779.24" y2="178.34"/>
<line x1="752.86" y1="162.77" x2="779.24" y2="178.00"/>
<line x1="752.86" y1="162.44" x2="779.24" y2="177.67"/>
<line x1="752.86" y1="162.11" x2="779.24" y2="177.34"/>
<line x1="752.86" y1="161.78" x2="779.24" y2="177.01"/>
<line x1="752.86" y1="161.45" x2="779.24" y2="176.68"/>
<line x1="752.86" y1="161.12" x2="779.24" y2="176.35"/>
<line x1="752.86" y1="160.78" x2="779.24" y2="176.02"/>
<line x1="752.86" y1="150.85" x2="779.24" y2="166.08"/>
<line x1="752.86" y1="150.52" x2="779.24" y2="165.75"/>
<line x1="752.86" y1="150.19" x2="779.24" y2="165.42"/>
<line x1="752.86" y1="149.86" x2="779.24" y2="165.09"/>
<line x1="752.86" y1="149.52" x2="779.24" y2="164.76"/>
<line x1="752.86" y1="149.19" x2="779.24" y2="164.43"/>
<line x1="752.86" y1="148.86" x2="779.24" y2="164.10"/>
<line x1="752.86" y1="148.53" x2="779.24" y2="163.76"/>
<line x1="754.73" y1="139.67" x2="779.24" y2="153.83"/>
<line x1="755.30" y1="139.67" x2="779.24" y2="153.50"/>
<line x1="755.87" y1="139.67" x2="779.24" y2="153.17"/>
<line x1="756.45" y1="139.67" x2="779.24" y2="152.84"/>
<line x1="757.02" y1="139.67" x2="779.24" y2="152.50"/>
<line x1="757.59" y1="139.67" x2="779.24" y2="152.17"/>
<line x1="758.17" y1="139.67" x2="779.24" y2="151.84"/>
<line x1="758.74" y1="139.67" x2="779.24" y2="151.51"/>
<line x1="775.95" y1="139.67" x2="779.24" y2="141.58"/>
<line x1="776.52" y1="139.67" x2="779.24" y2="141.24"/>
<line x1="777.10" y1="139.67" x2="779.24" y2="140.91"/>
<line x1="777.67" y1="139.67" x2="779.24" y2="140.58"/>
<line x1="778.24" y1="139.67" x2="779.24" y2="140.25"/>
<line x1="778.82" y1="139.67" x2="779.24" y2="139.92"/>
</g>
<g fill="none" stroke="#000000" stroke-width="1.000">
<polyline points="
 727.62, 68.55 846.07, 68.55 846.07, 125.05 727.62, 125.05 727.62, 68.55"/>
</g>
<g fill="none" stroke="#ff0000" stroke-width="1.000">
<polyline points="
 735.65, 76.58 776.95, 76.58 776.95, 86.61 735.65, 86.61 735.65, 76.58"/>
</g>
<g fill="none" stroke="#00ff00" stroke-width="1.000">
<polyline points="
 735.65, 92.06 776.95, 92.06 776.95, 102.10 735.65, 102.10 735.65, 92.06"/>
<line x1="740.23" y1="92.06" x2="735.65" y2="96.64"/>
<line x1="751.18" y1="92.06" x2="741.14" y2="102.10"/>
<line x1="762.13" y1="92.06" x2="752.09" y2="102.10"/>
<line x1="773.08" y1="92.06" x2="763.04" y2="102.10"/>
<line x1="776.95" y1="99.15" x2="773.99" y2="102.10"/>
</g>
<g fill="none" stroke="#0000ff" stroke-width="1.000">
<polyline points="
 735.65, 107.55 776.95, 107.55 776.95, 117.59 735.65, 117.59 735.65, 107.55"/>
<line x1="735.65" y1="117.40" x2="735.98" y2="117.59"/>
<line x1="735.65" y1="117.07" x2="736.55" y2="117.59"/>
<line x1="735.65" y1="116.74" x2="737.12" y2="117.59"/>
<line x1="735.65" y1="116.41" x2="737.70" y2="117.59"/>
<line x1="735.65" y1="116.08" x2="738.27" y2="117.59"/>
<line x1="738.09" y1="107.55" x2="755.48" y2="117.59"/>
<line x1="738.67" y1="107.55" x2="756.05" y2="117.59"/>
<line x1="739.24" y1="107.55" x2="756.63" y2="117.59"/>
<line x1="739.81" y1="107.55" x2="757.20" y2="117.59"/>
<line x1="740.39" y1="107.55" x2="757.77" y2="117.59"/>
<line x1="740.96" y1="107.55" x2="758.35" y2="117.59"/>
<line x1="741.54" y1="107.55" x2="758.92" y2="117.59"/>
<line x1="742.11" y1="107.55" x2="759.50" y2="117.59"/>
<line x1="759.32" y1="107.55" x2="776.70" y2="117.59"/>
<line x1="759.89" y1="107.55" x2="776.95" y2="117.40"/>
<line x1="760.46" y1="107.55" x2="776.95" y2="117.07"/>
<line x1="761.04" y1="107.55" x2="776.95" y2="116.74"/>
<line x1="761.61" y1="107.55" x2="776.95" y2="116.41"/>
<line x1="762.19" y1="107.55" x2="776.95" y2="116.08"/>
<line x1="762.76" y1="107.55" x2="776.95" y2="115.74"/>
<line x1="763.33" y1="107.55" x2="776.95" y2="115.41"/>
</g>
<g font-family="Times" font-weight="normal" font-style="normal"
font-size="15" stroke="none" fill="#000000">
<text x="787.27" y="86.61">A</text>
<text x="799.23" y="86.61">l</text>
<text x="804.44" y="86.61">p</text>
<text x="812.98" y="86.61">h</text>
<text x="821.51" y="86.61">a</text>
<text x="787.27" y="102.10">B</text>
<text x="798.38" y="102.10">e</text>
<text x="806.05" y="102.10">t</text>
<text x="811.26" y="102.10">a</text>
<text x="787.27" y="117.59">G</text>
<text x="799.23" y="117.59">a</text>
<text x="806.91" y="117.59">m</text>
<text x="819.62" y="117.59">m</text>
<text x="832.33" y="117.59">a</text>
</g>
<g font-family="Times" font-weight="normal" font-style="normal"
font-size="17" stroke="none" fill="#000000">
<text x="431.35" y="34.13">G</text>
<text x="444.64" y="34.13">r</text>
<text x="451.38" y="34.13">o</text>
<text x="460.86" y="34.13">u</text>
<text x="470.34" y="34.13">p</text>
<text x="479.82" y="34.13">e</text>
<text x="488.35" y="34.13">d</text>
<text x="497.83" y="34.13"> </text>
<text x="503.14" y="34.13">B</text>
<text x="515.48" y="34.13">a</text>
<text x="524.00" y="34.13">r</text>
<text x="530.75" y="34.13"> </text>
<text x="536.06" y="34.13">C</text>
<text x="548.39" y="34.13">h</text>
<text x="557.87" y="34.13">a</text>
<text x="566.40" y="34.13">r</text>
<text x="573.14" y="34.13">t</text>
</g>
</svg>
