<?xml version="1.0" encoding="ISO-8859-1" standalone="no"?>
<!DOCTYPE svg PUBLIC "-//W3C//DTD SVG 20010904//EN"
  "http://www.w3.org/TR/2001/REC-SVG-20010904/DTD/svg10.dtd">
<!-- Created by DISLIN (http://www.dislin.de)
Version: 11.5
Date   : 28.06.2026 05:35:13
-->
<svg width="853" height="603"
  xmlns="http://www.w3.org/2000/svg"
  xmlns:xlink="http://www.w3.org/1999/xlink">

<g fill="none" stroke="#000000" stroke-width="1.000">
<line x1="129.06" y1="524.85" x2="799.89" y2="524.85"/>
<line x1="129.06" y1="524.85" x2="129.06" y2="531.73"/>
<line x1="184.99" y1="529.44" x2="184.99" y2="524.85"/>
<line x1="240.91" y1="524.85" x2="240.91" y2="531.73"/>
<line x1="296.84" y1="529.44" x2="296.84" y2="524.85"/>
<line x1="352.77" y1="524.85" x2="352.77" y2="531.73"/>
<line x1="408.69" y1="529.44" x2="408.69" y2="524.85"/>
<line x1="464.62" y1="524.85" x2="464.62" y2="531.73"/>
<line x1="520.26" y1="529.44" x2="520.26" y2="524.85"/>
<line x1="576.19" y1="524.85" x2="576.19" y2="531.73"/>
<line x1="632.11" y1="529.44" x2="632.11" y2="524.85"/>
<line x1="688.04" y1="524.85" x2="688.04" y2="531.73"/>
<line x1="743.97" y1="529.44" x2="743.97" y2="524.85"/>
</g>
<g font-family="Times" font-weight="normal" font-style="normal"
font-size="15" stroke="none" fill="#000000">
<text x="118.74" y="548.65">0</text>
<text x="127.27" y="548.65">.</text>
<text x="132.05" y="548.65">0</text>
<text x="230.30" y="548.65">1</text>
<text x="238.83" y="548.65">.</text>
<text x="243.62" y="548.65">0</text>
<text x="342.16" y="548.65">2</text>
<text x="350.69" y="548.65">.</text>
<text x="355.47" y="548.65">0</text>
<text x="454.01" y="548.65">3</text>
<text x="462.54" y="548.65">.</text>
<text x="467.32" y="548.65">0</text>
<text x="565.86" y="548.65">4</text>
<text x="574.39" y="548.65">.</text>
<text x="579.18" y="548.65">0</text>
<text x="677.72" y="548.65">5</text>
<text x="686.25" y="548.65">.</text>
<text x="691.03" y="548.65">0</text>
<text x="789.57" y="548.65">6</text>
<text x="798.10" y="548.65">.</text>
<text x="802.88" y="548.65">0</text>
</g>
<g font-family="Times" font-weight="normal" font-style="normal"
font-size="15" stroke="none" fill="#000000">
<text x="438.52" y="567.58">Q</text>
<text x="450.48" y="567.58">u</text>
<text x="459.01" y="567.58">a</text>
<text x="466.69" y="567.58">r</text>
<text x="472.76" y="567.58">t</text>
<text x="477.97" y="567.58">e</text>
<text x="485.64" y="567.58">r</text>
</g>
<g fill="none" stroke="#000000" stroke-width="1.000">
<line x1="799.89" y1="524.85" x2="799.89" y2="531.73"/>
<line x1="129.06" y1="524.85" x2="129.06" y2="103.54"/>
<line x1="122.18" y1="524.85" x2="129.06" y2="524.85"/>
<line x1="129.06" y1="482.69" x2="124.47" y2="482.69"/>
<line x1="122.18" y1="440.53" x2="129.06" y2="440.53"/>
<line x1="129.06" y1="398.37" x2="124.47" y2="398.37"/>
<line x1="122.18" y1="356.21" x2="129.06" y2="356.21"/>
<line x1="129.06" y1="314.34" x2="124.47" y2="314.34"/>
<line x1="122.18" y1="272.18" x2="129.06" y2="272.18"/>
<line x1="129.06" y1="230.02" x2="124.47" y2="230.02"/>
<line x1="122.18" y1="187.86" x2="129.06" y2="187.86"/>
<line x1="129.06" y1="145.70" x2="124.47" y2="145.70"/>
</g>
<g font-family="Times" font-weight="normal" font-style="normal"
font-size="15" stroke="none" fill="#000000">
<text x="94.36" y="529.44">0</text>
<text x="102.89" y="529.44">.</text>
<text x="107.67" y="529.44">0</text>
<text x="94.36" y="445.12">1</text>
<text x="102.89" y="445.12">.</text>
<text x="107.67" y="445.12">0</text>
<text x="94.36" y="360.80">2</text>
<text x="102.89" y="360.80">.</text>
<text x="107.67" y="360.80">0</text>
<text x="94.36" y="276.77">3</text>
<text x="102.89" y="276.77">.</text>
<text x="107.67" y="276.77">0</text>
<text x="94.36" y="192.44">4</text>
<text x="102.89" y="192.44">.</text>
<text x="107.67" y="192.44">0</text>
<text x="94.36" y="108.12">5</text>
<text x="102.89" y="108.12">.</text>
<text x="107.67" y="108.12">0</text>
</g>
<g font-family="Times" font-weight="normal" font-style="normal"
font-size="15" stroke="none" fill="#000000">
<text x="85.47" y="334.13" rotate="-90">V</text>
<text x="85.47" y="322.17" rotate="-90">a</text>
<text x="85.47" y="314.49" rotate="-90">l</text>
<text x="85.47" y="309.28" rotate="-90">u</text>
<text x="85.47" y="300.75" rotate="-90">e</text>
</g>
<g fill="none" stroke="#000000" stroke-width="1.000">
<line x1="122.18" y1="103.54" x2="129.06" y2="103.54"/>
<line x1="129.06" y1="103.54" x2="799.89" y2="103.54"/>
<line x1="129.06" y1="103.54" x2="129.06" y2="96.65"/>
<line x1="184.99" y1="98.95" x2="184.99" y2="103.54"/>
<line x1="240.91" y1="103.54" x2="240.91" y2="96.65"/>
<line x1="296.84" y1="98.95" x2="296.84" y2="103.54"/>
<line x1="352.77" y1="103.54" x2="352.77" y2="96.65"/>
<line x1="408.69" y1="98.95" x2="408.69" y2="103.54"/>
<line x1="464.62" y1="103.54" x2="464.62" y2="96.65"/>
<line x1="520.26" y1="98.95" x2="520.26" y2="103.54"/>
<line x1="576.19" y1="103.54" x2="576.19" y2="96.65"/>
<line x1="632.11" y1="98.95" x2="632.11" y2="103.54"/>
<line x1="688.04" y1="103.54" x2="688.04" y2="96.65"/>
<line x1="743.97" y1="98.95" x2="743.97" y2="103.54"/>
<line x1="799.89" y1="103.54" x2="799.89" y2="96.65"/>
<line x1="799.89" y1="524.85" x2="799.89" y2="103.54"/>
<line x1="806.78" y1="524.85" x2="799.89" y2="524.85"/>
<line x1="799.89" y1="482.69" x2="804.48" y2="482.69"/>
<line x1="806.78" y1="440.53" x2="799.89" y2="440.53"/>
<line x1="799.89" y1="398.37" x2="804.48" y2="398.37"/>
<line x1="806.78" y1="356.21" x2="799.89" y2="356.21"/>
<line x1="799.89" y1="314.34" x2="804.48" y2="314.34"/>
<line x1="806.78" y1="272.18" x2="799.89" y2="272.18"/>
<line x1="799.89" y1="230.02" x2="804.48" y2="230.02"/>
<line x1="806.78" y1="187.86" x2="799.89" y2="187.86"/>
<line x1="799.89" y1="145.70" x2="804.48" y2="145.70"/>
<line x1="806.78" y1="103.54" x2="799.89" y2="103.54"/>
</g>
<g fill="none" stroke="#bfbfbf" stroke-width="1.000">
<line x1="240.91" y1="103.82" x2="240.91" y2="524.56"/>
<line x1="352.77" y1="524.56" x2="352.77" y2="103.82"/>
<line x1="464.62" y1="103.82" x2="464.62" y2="524.56"/>
<line x1="576.19" y1="524.56" x2="576.19" y2="103.82"/>
<line x1="688.04" y1="103.82" x2="688.04" y2="524.56"/>
<line x1="129.35" y1="440.53" x2="799.61" y2="440.53"/>
<line x1="799.61" y1="356.21" x2="129.35" y2="356.21"/>
<line x1="129.35" y1="272.18" x2="799.61" y2="272.18"/>
<line x1="799.61" y1="187.86" x2="129.35" y2="187.86"/>
</g>
<g fill="none" stroke="#ff0000" stroke-width="1.000">
<polyline points="
 224.57, 524.56 224.57, 440.53 199.04, 440.53 199.04, 524.56"/>
<polyline points="
 336.13, 524.56 336.13, 398.37 310.61, 398.37 310.61, 524.56"/>
<polyline points="
 447.99, 524.56 447.99, 314.34 422.46, 314.34 422.46, 524.56"/>
<polyline points="
 559.84, 524.56 559.84, 415.29 534.31, 415.29 534.31, 524.56"/>
<polyline points="
 671.69, 524.56 671.69, 356.21 646.17, 356.21 646.17, 524.56"/>
</g>
<g fill="none" stroke="#00ff00" stroke-width="1.000">
<polyline points="
 253.82, 524.56 253.82, 356.21 228.30, 356.21 228.30, 524.56"/>
<line x1="235.15" y1="356.21" x2="228.30" y2="363.07"/>
<line x1="246.11" y1="356.21" x2="228.30" y2="374.02"/>
<line x1="253.82" y1="359.45" x2="228.30" y2="384.97"/>
<line x1="253.82" y1="370.40" x2="228.30" y2="395.92"/>
<line x1="253.82" y1="381.35" x2="228.30" y2="406.87"/>
<line x1="253.82" y1="392.30" x2="228.30" y2="417.82"/>
<line x1="253.82" y1="403.25" x2="228.30" y2="428.78"/>
<line x1="253.82" y1="414.20" x2="228.30" y2="439.73"/>
<line x1="253.82" y1="425.15" x2="228.30" y2="450.68"/>
<line x1="253.82" y1="436.10" x2="228.30" y2="461.63"/>
<line x1="253.82" y1="447.06" x2="228.30" y2="472.58"/>
<line x1="253.82" y1="458.01" x2="228.30" y2="483.53"/>
<line x1="253.82" y1="468.96" x2="228.30" y2="494.48"/>
<line x1="253.82" y1="479.91" x2="228.30" y2="505.43"/>
<line x1="253.82" y1="490.86" x2="228.30" y2="516.39"/>
<line x1="253.82" y1="501.81" x2="231.07" y2="524.56"/>
<line x1="253.82" y1="512.76" x2="242.02" y2="524.56"/>
<line x1="253.82" y1="523.71" x2="252.97" y2="524.56"/>
<polyline points="
 365.39, 524.56 365.39, 297.41 339.86, 297.41 339.86, 524.56"/>
<line x1="348.71" y1="297.41" x2="339.86" y2="306.26"/>
<line x1="359.66" y1="297.41" x2="339.86" y2="317.21"/>
<line x1="365.39" y1="302.64" x2="339.86" y2="328.16"/>
<line x1="365.39" y1="313.59" x2="339.86" y2="339.11"/>
<line x1="365.39" y1="324.54" x2="339.86" y2="350.06"/>
<line x1="365.39" y1="335.49" x2="339.86" y2="361.01"/>
<line x1="365.39" y1="346.44" x2="339.86" y2="371.97"/>
<line x1="365.39" y1="357.39" x2="339.86" y2="382.92"/>
<line x1="365.39" y1="368.34" x2="339.86" y2="393.87"/>
<line x1="365.39" y1="379.29" x2="339.86" y2="404.82"/>
<line x1="365.39" y1="390.24" x2="339.86" y2="415.77"/>
<line x1="365.39" y1="401.20" x2="339.86" y2="426.72"/>
<line x1="365.39" y1="412.15" x2="339.86" y2="437.67"/>
<line x1="365.39" y1="423.10" x2="339.86" y2="448.62"/>
<line x1="365.39" y1="434.05" x2="339.86" y2="459.57"/>
<line x1="365.39" y1="445.00" x2="339.86" y2="470.53"/>
<line x1="365.39" y1="455.95" x2="339.86" y2="481.48"/>
<line x1="365.39" y1="466.90" x2="339.86" y2="492.43"/>
<line x1="365.39" y1="477.85" x2="339.86" y2="503.38"/>
<line x1="365.39" y1="488.81" x2="339.86" y2="514.33"/>
<line x1="365.39" y1="499.76" x2="340.58" y2="524.56"/>
<line x1="365.39" y1="510.71" x2="351.53" y2="524.56"/>
<line x1="365.39" y1="521.66" x2="362.48" y2="524.56"/>
<polyline points="
 477.24, 524.56 477.24, 230.02 451.72, 230.02 451.72, 524.56"/>
<line x1="459.91" y1="230.02" x2="451.72" y2="238.21"/>
<line x1="470.86" y1="230.02" x2="451.72" y2="249.16"/>
<line x1="477.24" y1="234.59" x2="451.72" y2="260.11"/>
<line x1="477.24" y1="245.54" x2="451.72" y2="271.06"/>
<line x1="477.24" y1="256.49" x2="451.72" y2="282.01"/>
<line x1="477.24" y1="267.44" x2="451.72" y2="292.97"/>
<line x1="477.24" y1="278.39" x2="451.72" y2="303.92"/>
<line x1="477.24" y1="289.34" x2="451.72" y2="314.87"/>
<line x1="477.24" y1="300.29" x2="451.72" y2="325.82"/>
<line x1="477.24" y1="311.24" x2="451.72" y2="336.77"/>
<line x1="477.24" y1="322.20" x2="451.72" y2="347.72"/>
<line x1="477.24" y1="333.15" x2="451.72" y2="358.67"/>
<line x1="477.24" y1="344.10" x2="451.72" y2="369.62"/>
<line x1="477.24" y1="355.05" x2="451.72" y2="380.58"/>
<line x1="477.24" y1="366.00" x2="451.72" y2="391.53"/>
<line x1="477.24" y1="376.95" x2="451.72" y2="402.48"/>
<line x1="477.24" y1="387.90" x2="451.72" y2="413.43"/>
<line x1="477.24" y1="398.85" x2="451.72" y2="424.38"/>
<line x1="477.24" y1="409.81" x2="451.72" y2="435.33"/>
<line x1="477.24" y1="420.76" x2="451.72" y2="446.28"/>
<line x1="477.24" y1="431.71" x2="451.72" y2="457.23"/>
<line x1="477.24" y1="442.66" x2="451.72" y2="468.18"/>
<line x1="477.24" y1="453.61" x2="451.72" y2="479.14"/>
<line x1="477.24" y1="464.56" x2="451.72" y2="490.09"/>
<line x1="477.24" y1="475.51" x2="451.72" y2="501.04"/>
<line x1="477.24" y1="486.46" x2="451.72" y2="511.99"/>
<line x1="477.24" y1="497.42" x2="451.72" y2="522.94"/>
<line x1="477.24" y1="508.37" x2="461.04" y2="524.56"/>
<line x1="477.24" y1="519.32" x2="471.99" y2="524.56"/>
<polyline points="
 589.09, 524.56 589.09, 347.89 563.57, 347.89 563.57, 524.56"/>
<line x1="572.01" y1="347.89" x2="563.57" y2="356.33"/>
<line x1="582.96" y1="347.89" x2="563.57" y2="367.28"/>
<line x1="589.09" y1="352.71" x2="563.57" y2="378.23"/>
<line x1="589.09" y1="363.66" x2="563.57" y2="389.18"/>
<line x1="589.09" y1="374.61" x2="563.57" y2="400.14"/>
<line x1="589.09" y1="385.56" x2="563.57" y2="411.09"/>
<line x1="589.09" y1="396.51" x2="563.57" y2="422.04"/>
<line x1="589.09" y1="407.46" x2="563.57" y2="432.99"/>
<line x1="589.09" y1="418.42" x2="563.57" y2="443.94"/>
<line x1="589.09" y1="429.37" x2="563.57" y2="454.89"/>
<line x1="589.09" y1="440.32" x2="563.57" y2="465.84"/>
<line x1="589.09" y1="451.27" x2="563.57" y2="476.79"/>
<line x1="589.09" y1="462.22" x2="563.57" y2="487.75"/>
<line x1="589.09" y1="473.17" x2="563.57" y2="498.70"/>
<line x1="589.09" y1="484.12" x2="563.57" y2="509.65"/>
<line x1="589.09" y1="495.07" x2="563.57" y2="520.60"/>
<line x1="589.09" y1="506.02" x2="570.56" y2="524.56"/>
<line x1="589.09" y1="516.98" x2="581.51" y2="524.56"/>
<polyline points="
 700.95, 524.56 700.95, 255.25 675.42, 255.25 675.42, 524.56"/>
<line x1="675.60" y1="255.25" x2="675.42" y2="255.43"/>
<line x1="686.55" y1="255.25" x2="675.42" y2="266.38"/>
<line x1="697.50" y1="255.25" x2="675.42" y2="277.33"/>
<line x1="700.95" y1="262.76" x2="675.42" y2="288.28"/>
<line x1="700.95" y1="273.71" x2="675.42" y2="299.23"/>
<line x1="700.95" y1="284.66" x2="675.42" y2="310.19"/>
<line x1="700.95" y1="295.61" x2="675.42" y2="321.14"/>
<line x1="700.95" y1="306.56" x2="675.42" y2="332.09"/>
<line x1="700.95" y1="317.51" x2="675.42" y2="343.04"/>
<line x1="700.95" y1="328.46" x2="675.42" y2="353.99"/>
<line x1="700.95" y1="339.42" x2="675.42" y2="364.94"/>
<line x1="700.95" y1="350.37" x2="675.42" y2="375.89"/>
<line x1="700.95" y1="361.32" x2="675.42" y2="386.84"/>
<line x1="700.95" y1="372.27" x2="675.42" y2="397.79"/>
<line x1="700.95" y1="383.22" x2="675.42" y2="408.75"/>
<line x1="700.95" y1="394.17" x2="675.42" y2="419.70"/>
<line x1="700.95" y1="405.12" x2="675.42" y2="430.65"/>
<line x1="700.95" y1="416.07" x2="675.42" y2="441.60"/>
<line x1="700.95" y1="427.03" x2="675.42" y2="452.55"/>
<line x1="700.95" y1="437.98" x2="675.42" y2="463.50"/>
<line x1="700.95" y1="448.93" x2="675.42" y2="474.45"/>
<line x1="700.95" y1="459.88" x2="675.42" y2="485.40"/>
<line x1="700.95" y1="470.83" x2="675.42" y2="496.36"/>
<line x1="700.95" y1="481.78" x2="675.42" y2="507.31"/>
<line x1="700.95" y1="492.73" x2="675.42" y2="518.26"/>
<line x1="700.95" y1="503.68" x2="680.07" y2="524.56"/>
<line x1="700.95" y1="514.63" x2="691.02" y2="524.56"/>
</g>
<g fill="none" stroke="#0000ff" stroke-width="1.000">
<polyline points="
 282.79, 524.56 282.79, 187.86 257.26, 187.86 257.26, 524.56"/>
<line x1="257.26" y1="524.41" x2="257.53" y2="524.56"/>
<line x1="257.26" y1="524.08" x2="258.10" y2="524.56"/>
<line x1="257.26" y1="523.75" x2="258.67" y2="524.56"/>
<line x1="257.26" y1="523.42" x2="259.25" y2="524.56"/>
<line x1="257.26" y1="523.09" x2="259.82" y2="524.56"/>
<line x1="257.26" y1="522.75" x2="260.39" y2="524.56"/>
<line x1="257.26" y1="512.82" x2="277.60" y2="524.56"/>
<line x1="257.26" y1="512.49" x2="278.18" y2="524.56"/>
<line x1="257.26" y1="512.16" x2="278.75" y2="524.56"/>
<line x1="257.26" y1="511.83" x2="279.32" y2="524.56"/>
<line x1="257.26" y1="511.49" x2="279.90" y2="524.56"/>
<line x1="257.26" y1="511.16" x2="280.47" y2="524.56"/>
<line x1="257.26" y1="510.83" x2="281.04" y2="524.56"/>
<line x1="257.26" y1="510.50" x2="281.62" y2="524.56"/>
<line x1="257.26" y1="500.57" x2="282.79" y2="515.30"/>
<line x1="257.26" y1="500.24" x2="282.79" y2="514.97"/>
<line x1="257.26" y1="499.90" x2="282.79" y2="514.64"/>
<line x1="257.26" y1="499.57" x2="282.79" y2="514.31"/>
<line x1="257.26" y1="499.24" x2="282.79" y2="513.98"/>
<line x1="257.26" y1="498.91" x2="282.79" y2="513.65"/>
<line x1="257.26" y1="498.58" x2="282.79" y2="513.32"/>
<line x1="257.26" y1="498.25" x2="282.79" y2="512.99"/>
<line x1="257.26" y1="488.31" x2="282.79" y2="503.05"/>
<line x1="257.26" y1="487.98" x2="282.79" y2="502.72"/>
<line x1="257.26" y1="487.65" x2="282.79" y2="502.39"/>
<line x1="257.26" y1="487.32" x2="282.79" y2="502.06"/>
<line x1="257.26" y1="486.99" x2="282.79" y2="501.73"/>
<line x1="257.26" y1="486.66" x2="282.79" y2="501.39"/>
<line x1="257.26" y1="486.33" x2="282.79" y2="501.06"/>
<line x1="257.26" y1="485.99" x2="282.79" y2="500.73"/>
<line x1="257.26" y1="476.06" x2="282.79" y2="490.80"/>
<line x1="257.26" y1="475.73" x2="282.79" y2="490.47"/>
<line x1="257.26" y1="475.40" x2="282.79" y2="490.13"/>
<line x1="257.26" y1="475.07" x2="282.79" y2="489.80"/>
<line x1="257.26" y1="474.73" x2="282.79" y2="489.47"/>
<line x1="257.26" y1="474.40" x2="282.79" y2="489.14"/>
<line x1="257.26" y1="474.07" x2="282.79" y2="488.81"/>
<line x1="257.26" y1="473.74" x2="282.79" y2="488.48"/>
<line x1="257.26" y1="463.81" x2="282.79" y2="478.54"/>
<line x1="257.26" y1="463.47" x2="282.79" y2="478.21"/>
<line x1="257.26" y1="463.14" x2="282.79" y2="477.88"/>
<line x1="257.26" y1="462.81" x2="282.79" y2="477.55"/>
<line x1="257.26" y1="462.48" x2="282.79" y2="477.22"/>
<line x1="257.26" y1="462.15" x2="282.79" y2="476.89"/>
<line x1="257.26" y1="461.82" x2="282.79" y2="476.56"/>
<line x1="257.26" y1="461.49" x2="282.79" y2="476.23"/>
<line x1="257.26" y1="451.55" x2="282.79" y2="466.29"/>
<line x1="257.26" y1="451.22" x2="282.79" y2="465.96"/>
<line x1="257.26" y1="450.89" x2="282.79" y2="465.63"/>
<line x1="257.26" y1="450.56" x2="282.79" y2="465.30"/>
<line x1="257.26" y1="450.23" x2="282.79" y2="464.97"/>
<line x1="257.26" y1="449.90" x2="282.79" y2="464.63"/>
<line x1="257.26" y1="449.57" x2="282.79" y2="464.30"/>
<line x1="257.26" y1="449.23" x2="282.79" y2="463.97"/>
<line x1="257.26" y1="439.30" x2="282.79" y2="454.04"/>
<line x1="257.26" y1="438.97" x2="282.79" y2="453.71"/>
<line x1="257.26" y1="438.64" x2="282.79" y2="453.37"/>
<line x1="257.26" y1="438.31" x2="282.79" y2="453.04"/>
<line x1="257.26" y1="437.97" x2="282.79" y2="452.71"/>
<line x1="257.26" y1="437.64" x2="282.79" y2="452.38"/>
<line x1="257.26" y1="437.31" x2="282.79" y2="452.05"/>
<line x1="257.26" y1="436.98" x2="282.79" y2="451.72"/>
<line x1="257.26" y1="427.05" x2="282.79" y2="441.78"/>
<line x1="257.26" y1="426.71" x2="282.79" y2="441.45"/>
<line x1="257.26" y1="426.38" x2="282.79" y2="441.12"/>
<line x1="257.26" y1="426.05" x2="282.79" y2="440.79"/>
<line x1="257.26" y1="425.72" x2="282.79" y2="440.46"/>
<line x1="257.26" y1="425.39" x2="282.79" y2="440.13"/>
<line x1="257.26" y1="425.06" x2="282.79" y2="439.80"/>
<line x1="257.26" y1="424.73" x2="282.79" y2="439.47"/>
<line x1="257.26" y1="414.79" x2="282.79" y2="429.53"/>
<line x1="257.26" y1="414.46" x2="282.79" y2="429.20"/>
<line x1="257.26" y1="414.13" x2="282.79" y2="428.87"/>
<line x1="257.26" y1="413.80" x2="282.79" y2="428.54"/>
<line x1="257.26" y1="413.47" x2="282.79" y2="428.21"/>
<line x1="257.26" y1="413.14" x2="282.79" y2="427.87"/>
<line x1="257.26" y1="412.81" x2="282.79" y2="427.54"/>
<line x1="257.26" y1="412.47" x2="282.79" y2="427.21"/>
<line x1="257.26" y1="402.54" x2="282.79" y2="417.28"/>
<line x1="257.26" y1="402.21" x2="282.79" y2="416.95"/>
<line x1="257.26" y1="401.88" x2="282.79" y2="416.61"/>
<line x1="257.26" y1="401.55" x2="282.79" y2="416.28"/>
<line x1="257.26" y1="401.21" x2="282.79" y2="415.95"/>
<line x1="257.26" y1="400.88" x2="282.79" y2="415.62"/>
<line x1="257.26" y1="400.55" x2="282.79" y2="415.29"/>
<line x1="257.26" y1="400.22" x2="282.79" y2="414.96"/>
<line x1="257.26" y1="390.29" x2="282.79" y2="405.02"/>
<line x1="257.26" y1="389.95" x2="282.79" y2="404.69"/>
<line x1="257.26" y1="389.62" x2="282.79" y2="404.36"/>
<line x1="257.26" y1="389.29" x2="282.79" y2="404.03"/>
<line x1="257.26" y1="388.96" x2="282.79" y2="403.70"/>
<line x1="257.26" y1="388.63" x2="282.79" y2="403.37"/>
<line x1="257.26" y1="388.30" x2="282.79" y2="403.04"/>
<line x1="257.26" y1="387.97" x2="282.79" y2="402.70"/>
<line x1="257.26" y1="378.03" x2="282.79" y2="392.77"/>
<line x1="257.26" y1="377.70" x2="282.79" y2="392.44"/>
<line x1="257.26" y1="377.37" x2="282.79" y2="392.11"/>
<line x1="257.26" y1="377.04" x2="282.79" y2="391.78"/>
<line x1="257.26" y1="376.71" x2="282.79" y2="391.45"/>
<line x1="257.26" y1="376.38" x2="282.79" y2="391.11"/>
<line x1="257.26" y1="376.05" x2="282.79" y2="390.78"/>
<line x1="257.26" y1="375.71" x2="282.79" y2="390.45"/>
<line x1="257.26" y1="365.78" x2="282.79" y2="380.52"/>
<line x1="257.26" y1="365.45" x2="282.79" y2="380.19"/>
<line x1="257.26" y1="365.12" x2="282.79" y2="379.85"/>
<line x1="257.26" y1="364.79" x2="282.79" y2="379.52"/>
<line x1="257.26" y1="364.45" x2="282.79" y2="379.19"/>
<line x1="257.26" y1="364.12" x2="282.79" y2="378.86"/>
<line x1="257.26" y1="363.79" x2="282.79" y2="378.53"/>
<line x1="257.26" y1="363.46" x2="282.79" y2="378.20"/>
<line x1="257.26" y1="353.53" x2="282.79" y2="368.26"/>
<line x1="257.26" y1="353.19" x2="282.79" y2="367.93"/>
<line x1="257.26" y1="352.86" x2="282.79" y2="367.60"/>
<line x1="257.26" y1="352.53" x2="282.79" y2="367.27"/>
<line x1="257.26" y1="352.20" x2="282.79" y2="366.94"/>
<line x1="257.26" y1="351.87" x2="282.79" y2="366.61"/>
<line x1="257.26" y1="351.54" x2="282.79" y2="366.28"/>
<line x1="257.26" y1="351.21" x2="282.79" y2="365.94"/>
<line x1="257.26" y1="341.27" x2="282.79" y2="356.01"/>
<line x1="257.26" y1="340.94" x2="282.79" y2="355.68"/>
<line x1="257.26" y1="340.61" x2="282.79" y2="355.35"/>
<line x1="257.26" y1="340.28" x2="282.79" y2="355.02"/>
<line x1="257.26" y1="339.95" x2="282.79" y2="354.69"/>
<line x1="257.26" y1="339.62" x2="282.79" y2="354.35"/>
<line x1="257.26" y1="339.29" x2="282.79" y2="354.02"/>
<line x1="257.26" y1="338.95" x2="282.79" y2="353.69"/>
<line x1="257.26" y1="329.02" x2="282.79" y2="343.76"/>
<line x1="257.26" y1="328.69" x2="282.79" y2="343.43"/>
<line x1="257.26" y1="328.36" x2="282.79" y2="343.09"/>
<line x1="257.26" y1="328.03" x2="282.79" y2="342.76"/>
<line x1="257.26" y1="327.69" x2="282.79" y2="342.43"/>
<line x1="257.26" y1="327.36" x2="282.79" y2="342.10"/>
<line x1="257.26" y1="327.03" x2="282.79" y2="341.77"/>
<line x1="257.26" y1="326.70" x2="282.79" y2="341.44"/>
<line x1="257.26" y1="316.77" x2="282.79" y2="331.50"/>
<line x1="257.26" y1="316.43" x2="282.79" y2="331.17"/>
<line x1="257.26" y1="316.10" x2="282.79" y2="330.84"/>
<line x1="257.26" y1="315.77" x2="282.79" y2="330.51"/>
<line x1="257.26" y1="315.44" x2="282.79" y2="330.18"/>
<line x1="257.26" y1="315.11" x2="282.79" y2="329.85"/>
<line x1="257.26" y1="314.78" x2="282.79" y2="329.52"/>
<line x1="257.26" y1="314.45" x2="282.79" y2="329.18"/>
<line x1="257.26" y1="304.51" x2="282.79" y2="319.25"/>
<line x1="257.26" y1="304.18" x2="282.79" y2="318.92"/>
<line x1="257.26" y1="303.85" x2="282.79" y2="318.59"/>
<line x1="257.26" y1="303.52" x2="282.79" y2="318.26"/>
<line x1="257.26" y1="303.19" x2="282.79" y2="317.92"/>
<line x1="257.26" y1="302.86" x2="282.79" y2="317.59"/>
<line x1="257.26" y1="302.53" x2="282.79" y2="317.26"/>
<line x1="257.26" y1="302.19" x2="282.79" y2="316.93"/>
<line x1="257.26" y1="292.26" x2="282.79" y2="307.00"/>
<line x1="257.26" y1="291.93" x2="282.79" y2="306.67"/>
<line x1="257.26" y1="291.60" x2="282.79" y2="306.33"/>
<line x1="257.26" y1="291.27" x2="282.79" y2="306.00"/>
<line x1="257.26" y1="290.93" x2="282.79" y2="305.67"/>
<line x1="257.26" y1="290.60" x2="282.79" y2="305.34"/>
<line x1="257.26" y1="290.27" x2="282.79" y2="305.01"/>
<line x1="257.26" y1="289.94" x2="282.79" y2="304.68"/>
<line x1="257.26" y1="280.01" x2="282.79" y2="294.74"/>
<line x1="257.26" y1="279.67" x2="282.79" y2="294.41"/>
<line x1="257.26" y1="279.34" x2="282.79" y2="294.08"/>
<line x1="257.26" y1="279.01" x2="282.79" y2="293.75"/>
<line x1="257.26" y1="278.68" x2="282.79" y2="293.42"/>
<line x1="257.26" y1="278.35" x2="282.79" y2="293.09"/>
<line x1="257.26" y1="278.02" x2="282.79" y2="292.76"/>
<line x1="257.26" y1="277.69" x2="282.79" y2="292.42"/>
<line x1="257.26" y1="267.75" x2="282.79" y2="282.49"/>
<line x1="257.26" y1="267.42" x2="282.79" y2="282.16"/>
<line x1="257.26" y1="267.09" x2="282.79" y2="281.83"/>
<line x1="257.26" y1="266.76" x2="282.79" y2="281.50"/>
<line x1="257.26" y1="266.43" x2="282.79" y2="281.16"/>
<line x1="257.26" y1="266.10" x2="282.79" y2="280.83"/>
<line x1="257.26" y1="265.77" x2="282.79" y2="280.50"/>
<line x1="257.26" y1="265.43" x2="282.79" y2="280.17"/>
<line x1="257.26" y1="255.50" x2="282.79" y2="270.24"/>
<line x1="257.26" y1="255.17" x2="282.79" y2="269.91"/>
<line x1="257.26" y1="254.84" x2="282.79" y2="269.57"/>
<line x1="257.26" y1="254.51" x2="282.79" y2="269.24"/>
<line x1="257.26" y1="254.17" x2="282.79" y2="268.91"/>
<line x1="257.26" y1="253.84" x2="282.79" y2="268.58"/>
<line x1="257.26" y1="253.51" x2="282.79" y2="268.25"/>
<line x1="257.26" y1="253.18" x2="282.79" y2="267.92"/>
<line x1="257.26" y1="243.25" x2="282.79" y2="257.98"/>
<line x1="257.26" y1="242.91" x2="282.79" y2="257.65"/>
<line x1="257.26" y1="242.58" x2="282.79" y2="257.32"/>
<line x1="257.26" y1="242.25" x2="282.79" y2="256.99"/>
<line x1="257.26" y1="241.92" x2="282.79" y2="256.66"/>
<line x1="257.26" y1="241.59" x2="282.79" y2="256.33"/>
<line x1="257.26" y1="241.26" x2="282.79" y2="256.00"/>
<line x1="257.26" y1="240.93" x2="282.79" y2="255.66"/>
<line x1="257.26" y1="230.99" x2="282.79" y2="245.73"/>
<line x1="257.26" y1="230.66" x2="282.79" y2="245.40"/>
<line x1="257.26" y1="230.33" x2="282.79" y2="245.07"/>
<line x1="257.26" y1="230.00" x2="282.79" y2="244.74"/>
<line x1="257.26" y1="229.67" x2="282.79" y2="244.40"/>
<line x1="257.26" y1="229.34" x2="282.79" y2="244.07"/>
<line x1="257.26" y1="229.01" x2="282.79" y2="243.74"/>
<line x1="257.26" y1="228.67" x2="282.79" y2="243.41"/>
<line x1="257.26" y1="218.74" x2="282.79" y2="233.48"/>
<line x1="257.26" y1="218.41" x2="282.79" y2="233.14"/>
<line x1="257.26" y1="218.08" x2="282.79" y2="232.81"/>
<line x1="257.26" y1="217.75" x2="282.79" y2="232.48"/>
<line x1="257.26" y1="217.41" x2="282.79" y2="232.15"/>
<line x1="257.26" y1="217.08" x2="282.79" y2="231.82"/>
<line x1="257.26" y1="216.75" x2="282.79" y2="231.49"/>
<line x1="257.26" y1="216.42" x2="282.79" y2="231.16"/>
<line x1="257.26" y1="206.49" x2="282.79" y2="221.22"/>
<line x1="257.26" y1="206.15" x2="282.79" y2="220.89"/>
<line x1="257.26" y1="205.82" x2="282.79" y2="220.56"/>
<line x1="257.26" y1="205.49" x2="282.79" y2="220.23"/>
<line x1="257.26" y1="205.16" x2="282.79" y2="219.90"/>
<line x1="257.26" y1="204.83" x2="282.79" y2="219.57"/>
<line x1="257.26" y1="204.50" x2="282.79" y2="219.24"/>
<line x1="257.26" y1="204.17" x2="282.79" y2="218.90"/>
<line x1="257.26" y1="194.23" x2="282.79" y2="208.97"/>
<line x1="257.26" y1="193.90" x2="282.79" y2="208.64"/>
<line x1="257.26" y1="193.57" x2="282.79" y2="208.31"/>
<line x1="257.26" y1="193.24" x2="282.79" y2="207.98"/>
<line x1="257.26" y1="192.91" x2="282.79" y2="207.64"/>
<line x1="257.26" y1="192.58" x2="282.79" y2="207.31"/>
<line x1="257.26" y1="192.25" x2="282.79" y2="206.98"/>
<line x1="257.26" y1="191.91" x2="282.79" y2="206.65"/>
<line x1="267.44" y1="187.86" x2="282.79" y2="196.72"/>
<line x1="268.02" y1="187.86" x2="282.79" y2="196.38"/>
<line x1="268.59" y1="187.86" x2="282.79" y2="196.05"/>
<line x1="269.16" y1="187.86" x2="282.79" y2="195.72"/>
<line x1="269.74" y1="187.86" x2="282.79" y2="195.39"/>
<line x1="270.31" y1="187.86" x2="282.79" y2="195.06"/>
<line x1="270.88" y1="187.86" x2="282.79" y2="194.73"/>
<line x1="271.46" y1="187.86" x2="282.79" y2="194.40"/>
<polyline points="
 394.64, 524.56 394.64, 230.02 369.12, 230.02 369.12, 524.56"/>
<line x1="369.12" y1="524.41" x2="369.38" y2="524.56"/>
<line x1="369.12" y1="524.08" x2="369.95" y2="524.56"/>
<line x1="369.12" y1="523.75" x2="370.53" y2="524.56"/>
<line x1="369.12" y1="523.42" x2="371.10" y2="524.56"/>
<line x1="369.12" y1="523.09" x2="371.67" y2="524.56"/>
<line x1="369.12" y1="522.75" x2="372.25" y2="524.56"/>
<line x1="369.12" y1="512.82" x2="389.46" y2="524.56"/>
<line x1="369.12" y1="512.49" x2="390.03" y2="524.56"/>
<line x1="369.12" y1="512.16" x2="390.60" y2="524.56"/>
<line x1="369.12" y1="511.83" x2="391.18" y2="524.56"/>
<line x1="369.12" y1="511.49" x2="391.75" y2="524.56"/>
<line x1="369.12" y1="511.16" x2="392.32" y2="524.56"/>
<line x1="369.12" y1="510.83" x2="392.90" y2="524.56"/>
<line x1="369.12" y1="510.50" x2="393.47" y2="524.56"/>
<line x1="369.12" y1="500.57" x2="394.64" y2="515.30"/>
<line x1="369.12" y1="500.24" x2="394.64" y2="514.97"/>
<line x1="369.12" y1="499.90" x2="394.64" y2="514.64"/>
<line x1="369.12" y1="499.57" x2="394.64" y2="514.31"/>
<line x1="369.12" y1="499.24" x2="394.64" y2="513.98"/>
<line x1="369.12" y1="498.91" x2="394.64" y2="513.65"/>
<line x1="369.12" y1="498.58" x2="394.64" y2="513.32"/>
<line x1="369.12" y1="498.25" x2="394.64" y2="512.99"/>
<line x1="369.12" y1="488.31" x2="394.64" y2="503.05"/>
<line x1="369.12" y1="487.98" x2="394.64" y2="502.72"/>
<line x1="369.12" y1="487.65" x2="394.64" y2="502.39"/>
<line x1="369.12" y1="487.32" x2="394.64" y2="502.06"/>
<line x1="369.12" y1="486.99" x2="394.64" y2="501.73"/>
<line x1="369.12" y1="486.66" x2="394.64" y2="501.39"/>
<line x1="369.12" y1="486.33" x2="394.64" y2="501.06"/>
<line x1="369.12" y1="485.99" x2="394.64" y2="500.73"/>
<line x1="369.12" y1="476.06" x2="394.64" y2="490.80"/>
<line x1="369.12" y1="475.73" x2="394.64" y2="490.47"/>
<line x1="369.12" y1="475.40" x2="394.64" y2="490.13"/>
<line x1="369.12" y1="475.07" x2="394.64" y2="489.80"/>
<line x1="369.12" y1="474.73" x2="394.64" y2="489.47"/>
<line x1="369.12" y1="474.40" x2="394.64" y2="489.14"/>
<line x1="369.12" y1="474.07" x2="394.64" y2="488.81"/>
<line x1="369.12" y1="473.74" x2="394.64" y2="488.48"/>
<line x1="369.12" y1="463.81" x2="394.64" y2="478.54"/>
<line x1="369.12" y1="463.47" x2="394.64" y2="478.21"/>
<line x1="369.12" y1="463.14" x2="394.64" y2="477.88"/>
<line x1="369.12" y1="462.81" x2="394.64" y2="477.55"/>
<line x1="369.12" y1="462.48" x2="394.64" y2="477.22"/>
<line x1="369.12" y1="462.15" x2="394.64" y2="476.89"/>
<line x1="369.12" y1="461.82" x2="394.64" y2="476.56"/>
<line x1="369.12" y1="461.49" x2="394.64" y2="476.23"/>
<line x1="369.12" y1="451.55" x2="394.64" y2="466.29"/>
<line x1="369.12" y1="451.22" x2="394.64" y2="465.96"/>
<line x1="369.12" y1="450.89" x2="394.64" y2="465.63"/>
<line x1="369.12" y1="450.56" x2="394.64" y2="465.30"/>
<line x1="369.12" y1="450.23" x2="394.64" y2="464.97"/>
<line x1="369.12" y1="449.90" x2="394.64" y2="464.63"/>
<line x1="369.12" y1="449.57" x2="394.64" y2="464.30"/>
<line x1="369.12" y1="449.23" x2="394.64" y2="463.97"/>
<line x1="369.12" y1="439.30" x2="394.64" y2="454.04"/>
<line x1="369.12" y1="438.97" x2="394.64" y2="453.71"/>
<line x1="369.12" y1="438.64" x2="394.64" y2="453.37"/>
<line x1="369.12" y1="438.31" x2="394.64" y2="453.04"/>
<line x1="369.12" y1="437.97" x2="394.64" y2="452.71"/>
<line x1="369.12" y1="437.64" x2="394.64" y2="452.38"/>
<line x1="369.12" y1="437.31" x2="394.64" y2="452.05"/>
<line x1="369.12" y1="436.98" x2="394.64" y2="451.72"/>
<line x1="369.12" y1="427.05" x2="394.64" y2="441.78"/>
<line x1="369.12" y1="426.71" x2="394.64" y2="441.45"/>
<line x1="369.12" y1="426.38" x2="394.64" y2="441.12"/>
<line x1="369.12" y1="426.05" x2="394.64" y2="440.79"/>
<line x1="369.12" y1="425.72" x2="394.64" y2="440.46"/>
<line x1="369.12" y1="425.39" x2="394.64" y2="440.13"/>
<line x1="369.12" y1="425.06" x2="394.64" y2="439.80"/>
<line x1="369.12" y1="424.73" x2="394.64" y2="439.47"/>
<line x1="369.12" y1="414.79" x2="394.64" y2="429.53"/>
<line x1="369.12" y1="414.46" x2="394.64" y2="429.20"/>
<line x1="369.12" y1="414.13" x2="394.64" y2="428.87"/>
<line x1="369.12" y1="413.80" x2="394.64" y2="428.54"/>
<line x1="369.12" y1="413.47" x2="394.64" y2="428.21"/>
<line x1="369.12" y1="413.14" x2="394.64" y2="427.87"/>
<line x1="369.12" y1="412.81" x2="394.64" y2="427.54"/>
<line x1="369.12" y1="412.47" x2="394.64" y2="427.21"/>
<line x1="369.12" y1="402.54" x2="394.64" y2="417.28"/>
<line x1="369.12" y1="402.21" x2="394.64" y2="416.95"/>
<line x1="369.12" y1="401.88" x2="394.64" y2="416.61"/>
<line x1="369.12" y1="401.55" x2="394.64" y2="416.28"/>
<line x1="369.12" y1="401.21" x2="394.64" y2="415.95"/>
<line x1="369.12" y1="400.88" x2="394.64" y2="415.62"/>
<line x1="369.12" y1="400.55" x2="394.64" y2="415.29"/>
<line x1="369.12" y1="400.22" x2="394.64" y2="414.96"/>
<line x1="369.12" y1="390.29" x2="394.64" y2="405.02"/>
<line x1="369.12" y1="389.95" x2="394.64" y2="404.69"/>
<line x1="369.12" y1="389.62" x2="394.64" y2="404.36"/>
<line x1="369.12" y1="389.29" x2="394.64" y2="404.03"/>
<line x1="369.12" y1="388.96" x2="394.64" y2="403.70"/>
<line x1="369.12" y1="388.63" x2="394.64" y2="403.37"/>
<line x1="369.12" y1="388.30" x2="394.64" y2="403.04"/>
<line x1="369.12" y1="387.97" x2="394.64" y2="402.70"/>
<line x1="369.12" y1="378.03" x2="394.64" y2="392.77"/>
<line x1="369.12" y1="377.70" x2="394.64" y2="392.44"/>
<line x1="369.12" y1="377.37" x2="394.64" y2="392.11"/>
<line x1="369.12" y1="377.04" x2="394.64" y2="391.78"/>
<line x1="369.12" y1="376.71" x2="394.64" y2="391.45"/>
<line x1="369.12" y1="376.38" x2="394.64" y2="391.11"/>
<line x1="369.12" y1="376.05" x2="394.64" y2="390.78"/>
<line x1="369.12" y1="375.71" x2="394.64" y2="390.45"/>
<line x1="369.12" y1="365.78" x2="394.64" y2="380.52"/>
<line x1="369.12" y1="365.45" x2="394.64" y2="380.19"/>
<line x1="369.12" y1="365.12" x2="394.64" y2="379.85"/>
<line x1="369.12" y1="364.79" x2="394.64" y2="379.52"/>
<line x1="369.12" y1="364.45" x2="394.64" y2="379.19"/>
<line x1="369.12" y1="364.12" x2="394.64" y2="378.86"/>
<line x1="369.12" y1="363.79" x2="394.64" y2="378.53"/>
<line x1="369.12" y1="363.46" x2="394.64" y2="378.20"/>
<line x1="369.12" y1="353.53" x2="394.64" y2="368.26"/>
<line x1="369.12" y1="353.19" x2="394.64" y2="367.93"/>
<line x1="369.12" y1="352.86" x2="394.64" y2="367.60"/>
<line x1="369.12" y1="352.53" x2="394.64" y2="367.27"/>
<line x1="369.12" y1="352.20" x2="394.64" y2="366.94"/>
<line x1="369.12" y1="351.87" x2="394.64" y2="366.61"/>
<line x1="369.12" y1="351.54" x2="394.64" y2="366.28"/>
<line x1="369.12" y1="351.21" x2="394.64" y2="365.94"/>
<line x1="369.12" y1="341.27" x2="394.64" y2="356.01"/>
<line x1="369.12" y1="340.94" x2="394.64" y2="355.68"/>
<line x1="369.12" y1="340.61" x2="394.64" y2="355.35"/>
<line x1="369.12" y1="340.28" x2="394.64" y2="355.02"/>
<line x1="369.12" y1="339.95" x2="394.64" y2="354.69"/>
<line x1="369.12" y1="339.62" x2="394.64" y2="354.35"/>
<line x1="369.12" y1="339.29" x2="394.64" y2="354.02"/>
<line x1="369.12" y1="338.95" x2="394.64" y2="353.69"/>
<line x1="369.12" y1="329.02" x2="394.64" y2="343.76"/>
<line x1="369.12" y1="328.69" x2="394.64" y2="343.43"/>
<line x1="369.12" y1="328.36" x2="394.64" y2="343.09"/>
<line x1="369.12" y1="328.03" x2="394.64" y2="342.76"/>
<line x1="369.12" y1="327.69" x2="394.64" y2="342.43"/>
<line x1="369.12" y1="327.36" x2="394.64" y2="342.10"/>
<line x1="369.12" y1="327.03" x2="394.64" y2="341.77"/>
<line x1="369.12" y1="326.70" x2="394.64" y2="341.44"/>
<line x1="369.12" y1="316.77" x2="394.64" y2="331.50"/>
<line x1="369.12" y1="316.43" x2="394.64" y2="331.17"/>
<line x1="369.12" y1="316.10" x2="394.64" y2="330.84"/>
<line x1="369.12" y1="315.77" x2="394.64" y2="330.51"/>
<line x1="369.12" y1="315.44" x2="394.64" y2="330.18"/>
<line x1="369.12" y1="315.11" x2="394.64" y2="329.85"/>
<line x1="369.12" y1="314.78" x2="394.64" y2="329.52"/>
<line x1="369.12" y1="314.45" x2="394.64" y2="329.18"/>
<line x1="369.12" y1="304.51" x2="394.64" y2="319.25"/>
<line x1="369.12" y1="304.18" x2="394.64" y2="318.92"/>
<line x1="369.12" y1="303.85" x2="394.64" y2="318.59"/>
<line x1="369.12" y1="303.52" x2="394.64" y2="318.26"/>
<line x1="369.12" y1="303.19" x2="394.64" y2="317.92"/>
<line x1="369.12" y1="302.86" x2="394.64" y2="317.59"/>
<line x1="369.12" y1="302.53" x2="394.64" y2="317.26"/>
<line x1="369.12" y1="302.19" x2="394.64" y2="316.93"/>
<line x1="369.12" y1="292.26" x2="394.64" y2="307.00"/>
<line x1="369.12" y1="291.93" x2="394.64" y2="306.67"/>
<line x1="369.12" y1="291.60" x2="394.64" y2="306.33"/>
<line x1="369.12" y1="291.27" x2="394.64" y2="306.00"/>
<line x1="369.12" y1="290.93" x2="394.64" y2="305.67"/>
<line x1="369.12" y1="290.60" x2="394.64" y2="305.34"/>
<line x1="369.12" y1="290.27" x2="394.64" y2="305.01"/>
<line x1="369.12" y1="289.94" x2="394.64" y2="304.68"/>
<line x1="369.12" y1="280.01" x2="394.64" y2="294.74"/>
<line x1="369.12" y1="279.67" x2="394.64" y2="294.41"/>
<line x1="369.12" y1="279.34" x2="394.64" y2="294.08"/>
<line x1="369.12" y1="279.01" x2="394.64" y2="293.75"/>
<line x1="369.12" y1="278.68" x2="394.64" y2="293.42"/>
<line x1="369.12" y1="278.35" x2="394.64" y2="293.09"/>
<line x1="369.12" y1="278.02" x2="394.64" y2="292.76"/>
<line x1="369.12" y1="277.69" x2="394.64" y2="292.42"/>
<line x1="369.12" y1="267.75" x2="394.64" y2="282.49"/>
<line x1="369.12" y1="267.42" x2="394.64" y2="282.16"/>
<line x1="369.12" y1="267.09" x2="394.64" y2="281.83"/>
<line x1="369.12" y1="266.76" x2="394.64" y2="281.50"/>
<line x1="369.12" y1="266.43" x2="394.64" y2="281.16"/>
<line x1="369.12" y1="266.10" x2="394.64" y2="280.83"/>
<line x1="369.12" y1="265.77" x2="394.64" y2="280.50"/>
<line x1="369.12" y1="265.43" x2="394.64" y2="280.17"/>
<line x1="369.12" y1="255.50" x2="394.64" y2="270.24"/>
<line x1="369.12" y1="255.17" x2="394.64" y2="269.91"/>
<line x1="369.12" y1="254.84" x2="394.64" y2="269.57"/>
<line x1="369.12" y1="254.51" x2="394.64" y2="269.24"/>
<line x1="369.12" y1="254.17" x2="394.64" y2="268.91"/>
<line x1="369.12" y1="253.84" x2="394.64" y2="268.58"/>
<line x1="369.12" y1="253.51" x2="394.64" y2="268.25"/>
<line x1="369.12" y1="253.18" x2="394.64" y2="267.92"/>
<line x1="369.12" y1="243.25" x2="394.64" y2="257.98"/>
<line x1="369.12" y1="242.91" x2="394.64" y2="257.65"/>
<line x1="369.12" y1="242.58" x2="394.64" y2="257.32"/>
<line x1="369.12" y1="242.25" x2="394.64" y2="256.99"/>
<line x1="369.12" y1="241.92" x2="394.64" y2="256.66"/>
<line x1="369.12" y1="241.59" x2="394.64" y2="256.33"/>
<line x1="369.12" y1="241.26" x2="394.64" y2="256.00"/>
<line x1="369.12" y1="240.93" x2="394.64" y2="255.66"/>
<line x1="369.12" y1="230.99" x2="394.64" y2="245.73"/>
<line x1="369.12" y1="230.66" x2="394.64" y2="245.40"/>
<line x1="369.12" y1="230.33" x2="394.64" y2="245.07"/>
<line x1="369.15" y1="230.02" x2="394.64" y2="244.74"/>
<line x1="369.72" y1="230.02" x2="394.64" y2="244.40"/>
<line x1="370.29" y1="230.02" x2="394.64" y2="244.07"/>
<line x1="370.87" y1="230.02" x2="394.64" y2="243.74"/>
<line x1="371.44" y1="230.02" x2="394.64" y2="243.41"/>
<line x1="388.65" y1="230.02" x2="394.64" y2="233.48"/>
<line x1="389.22" y1="230.02" x2="394.64" y2="233.14"/>
<line x1="389.80" y1="230.02" x2="394.64" y2="232.81"/>
<line x1="390.37" y1="230.02" x2="394.64" y2="232.48"/>
<line x1="390.94" y1="230.02" x2="394.64" y2="232.15"/>
<line x1="391.52" y1="230.02" x2="394.64" y2="231.82"/>
<line x1="392.09" y1="230.02" x2="394.64" y2="231.49"/>
<line x1="392.66" y1="230.02" x2="394.64" y2="231.16"/>
<polyline points="
 506.49, 524.56 506.49, 145.70 480.97, 145.70 480.97, 524.56"/>
<line x1="480.97" y1="524.41" x2="481.23" y2="524.56"/>
<line x1="480.97" y1="524.08" x2="481.81" y2="524.56"/>
<line x1="480.97" y1="523.75" x2="482.38" y2="524.56"/>
<line x1="480.97" y1="523.42" x2="482.95" y2="524.56"/>
<line x1="480.97" y1="523.09" x2="483.53" y2="524.56"/>
<line x1="480.97" y1="522.75" x2="484.10" y2="524.56"/>
<line x1="480.97" y1="512.82" x2="501.31" y2="524.56"/>
<line x1="480.97" y1="512.49" x2="501.88" y2="524.56"/>
<line x1="480.97" y1="512.16" x2="502.46" y2="524.56"/>
<line x1="480.97" y1="511.83" x2="503.03" y2="524.56"/>
<line x1="480.97" y1="511.49" x2="503.60" y2="524.56"/>
<line x1="480.97" y1="511.16" x2="504.18" y2="524.56"/>
<line x1="480.97" y1="510.83" x2="504.75" y2="524.56"/>
<line x1="480.97" y1="510.50" x2="505.32" y2="524.56"/>
<line x1="480.97" y1="500.57" x2="506.49" y2="515.30"/>
<line x1="480.97" y1="500.24" x2="506.49" y2="514.97"/>
<line x1="480.97" y1="499.90" x2="506.49" y2="514.64"/>
<line x1="480.97" y1="499.57" x2="506.49" y2="514.31"/>
<line x1="480.97" y1="499.24" x2="506.49" y2="513.98"/>
<line x1="480.97" y1="498.91" x2="506.49" y2="513.65"/>
<line x1="480.97" y1="498.58" x2="506.49" y2="513.32"/>
<line x1="480.97" y1="498.25" x2="506.49" y2="512.99"/>
<line x1="480.97" y1="488.31" x2="506.49" y2="503.05"/>
<line x1="480.97" y1="487.98" x2="506.49" y2="502.72"/>
<line x1="480.97" y1="487.65" x2="506.49" y2="502.39"/>
<line x1="480.97" y1="487.32" x2="506.49" y2="502.06"/>
<line x1="480.97" y1="486.99" x2="506.49" y2="501.73"/>
<line x1="480.97" y1="486.66" x2="506.49" y2="501.39"/>
<line x1="480.97" y1="486.33" x2="506.49" y2="501.06"/>
<line x1="480.97" y1="485.99" x2="506.49" y2="500.73"/>
<line x1="480.97" y1="476.06" x2="506.49" y2="490.80"/>
<line x1="480.97" y1="475.73" x2="506.49" y2="490.47"/>
<line x1="480.97" y1="475.40" x2="506.49" y2="490.13"/>
<line x1="480.97" y1="475.07" x2="506.49" y2="489.80"/>
<line x1="480.97" y1="474.73" x2="506.49" y2="489.47"/>
<line x1="480.97" y1="474.40" x2="506.49" y2="489.14"/>
<line x1="480.97" y1="474.07" x2="506.49" y2="488.81"/>
<line x1="480.97" y1="473.74" x2="506.49" y2="488.48"/>
<line x1="480.97" y1="463.81" x2="506.49" y2="478.54"/>
<line x1="480.97" y1="463.47" x2="506.49" y2="478.21"/>
<line x1="480.97" y1="463.14" x2="506.49" y2="477.88"/>
<line x1="480.97" y1="462.81" x2="506.49" y2="477.55"/>
<line x1="480.97" y1="462.48" x2="506.49" y2="477.22"/>
<line x1="480.97" y1="462.15" x2="506.49" y2="476.89"/>
<line x1="480.97" y1="461.82" x2="506.49" y2="476.56"/>
<line x1="480.97" y1="461.49" x2="506.49" y2="476.23"/>
<line x1="480.97" y1="451.55" x2="506.49" y2="466.29"/>
<line x1="480.97" y1="451.22" x2="506.49" y2="465.96"/>
<line x1="480.97" y1="450.89" x2="506.49" y2="465.63"/>
<line x1="480.97" y1="450.56" x2="506.49" y2="465.30"/>
<line x1="480.97" y1="450.23" x2="506.49" y2="464.97"/>
<line x1="480.97" y1="449.90" x2="506.49" y2="464.63"/>
<line x1="480.97" y1="449.57" x2="506.49" y2="464.30"/>
<line x1="480.97" y1="449.23" x2="506.49" y2="463.97"/>
<line x1="480.97" y1="439.30" x2="506.49" y2="454.04"/>
<line x1="480.97" y1="438.97" x2="506.49" y2="453.71"/>
<line x1="480.97" y1="438.64" x2="506.49" y2="453.37"/>
<line x1="480.97" y1="438.31" x2="506.49" y2="453.04"/>
<line x1="480.97" y1="437.97" x2="506.49" y2="452.71"/>
<line x1="480.97" y1="437.64" x2="506.49" y2="452.38"/>
<line x1="480.97" y1="437.31" x2="506.49" y2="452.05"/>
<line x1="480.97" y1="436.98" x2="506.49" y2="451.72"/>
<line x1="480.97" y1="427.05" x2="506.49" y2="441.78"/>
<line x1="480.97" y1="426.71" x2="506.49" y2="441.45"/>
<line x1="480.97" y1="426.38" x2="506.49" y2="441.12"/>
<line x1="480.97" y1="426.05" x2="506.49" y2="440.79"/>
<line x1="480.97" y1="425.72" x2="506.49" y2="440.46"/>
<line x1="480.97" y1="425.39" x2="506.49" y2="440.13"/>
<line x1="480.97" y1="425.06" x2="506.49" y2="439.80"/>
<line x1="480.97" y1="424.73" x2="506.49" y2="439.47"/>
<line x1="480.97" y1="414.79" x2="506.49" y2="429.53"/>
<line x1="480.97" y1="414.46" x2="506.49" y2="429.20"/>
<line x1="480.97" y1="414.13" x2="506.49" y2="428.87"/>
<line x1="480.97" y1="413.80" x2="506.49" y2="428.54"/>
<line x1="480.97" y1="413.47" x2="506.49" y2="428.21"/>
<line x1="480.97" y1="413.14" x2="506.49" y2="427.87"/>
<line x1="480.97" y1="412.81" x2="506.49" y2="427.54"/>
<line x1="480.97" y1="412.47" x2="506.49" y2="427.21"/>
<line x1="480.97" y1="402.54" x2="506.49" y2="417.28"/>
<line x1="480.97" y1="402.21" x2="506.49" y2="416.95"/>
<line x1="480.97" y1="401.88" x2="506.49" y2="416.61"/>
<line x1="480.97" y1="401.55" x2="506.49" y2="416.28"/>
<line x1="480.97" y1="401.21" x2="506.49" y2="415.95"/>
<line x1="480.97" y1="400.88" x2="506.49" y2="415.62"/>
<line x1="480.97" y1="400.55" x2="506.49" y2="415.29"/>
<line x1="480.97" y1="400.22" x2="506.49" y2="414.96"/>
<line x1="480.97" y1="390.29" x2="506.49" y2="405.02"/>
<line x1="480.97" y1="389.95" x2="506.49" y2="404.69"/>
<line x1="480.97" y1="389.62" x2="506.49" y2="404.36"/>
<line x1="480.97" y1="389.29" x2="506.49" y2="404.03"/>
<line x1="480.97" y1="388.96" x2="506.49" y2="403.70"/>
<line x1="480.97" y1="388.63" x2="506.49" y2="403.37"/>
<line x1="480.97" y1="388.30" x2="506.49" y2="403.04"/>
<line x1="480.97" y1="387.97" x2="506.49" y2="402.70"/>
<line x1="480.97" y1="378.03" x2="506.49" y2="392.77"/>
<line x1="480.97" y1="377.70" x2="506.49" y2="392.44"/>
<line x1="480.97" y1="377.37" x2="506.49" y2="392.11"/>
<line x1="480.97" y1="377.04" x2="506.49" y2="391.78"/>
<line x1="480.97" y1="376.71" x2="506.49" y2="391.45"/>
<line x1="480.97" y1="376.38" x2="506.49" y2="391.11"/>
<line x1="480.97" y1="376.05" x2="506.49" y2="390.78"/>
<line x1="480.97" y1="375.71" x2="506.49" y2="390.45"/>
<line x1="480.97" y1="365.78" x2="506.49" y2="380.52"/>
<line x1="480.97" y1="365.45" x2="506.49" y2="380.19"/>
<line x1="480.97" y1="365.12" x2="506.49" y2="379.85"/>
<line x1="480.97" y1="364.79" x2="506.49" y2="379.52"/>
<line x1="480.97" y1="364.45" x2="506.49" y2="379.19"/>
<line x1="480.97" y1="364.12" x2="506.49" y2="378.86"/>
<line x1="480.97" y1="363.79" x2="506.49" y2="378.53"/>
<line x1="480.97" y1="363.46" x2="506.49" y2="378.20"/>
<line x1="480.97" y1="353.53" x2="506.49" y2="368.26"/>
<line x1="480.97" y1="353.19" x2="506.49" y2="367.93"/>
<line x1="480.97" y1="352.86" x2="506.49" y2="367.60"/>
<line x1="480.97" y1="352.53" x2="506.49" y2="367.27"/>
<line x1="480.97" y1="352.20" x2="506.49" y2="366.94"/>
<line x1="480.97" y1="351.87" x2="506.49" y2="366.61"/>
<line x1="480.97" y1="351.54" x2="506.49" y2="366.28"/>
<line x1="480.97" y1="351.21" x2="506.49" y2="365.94"/>
<line x1="480.97" y1="341.27" x2="506.49" y2="356.01"/>
<line x1="480.97" y1="340.94" x2="506.49" y2="355.68"/>
<line x1="480.97" y1="340.61" x2="506.49" y2="355.35"/>
<line x1="480.97" y1="340.28" x2="506.49" y2="355.02"/>
<line x1="480.97" y1="339.95" x2="506.49" y2="354.69"/>
<line x1="480.97" y1="339.62" x2="506.49" y2="354.35"/>
<line x1="480.97" y1="339.29" x2="506.49" y2="354.02"/>
<line x1="480.97" y1="338.95" x2="506.49" y2="353.69"/>
<line x1="480.97" y1="329.02" x2="506.49" y2="343.76"/>
<line x1="480.97" y1="328.69" x2="506.49" y2="343.43"/>
<line x1="480.97" y1="328.36" x2="506.49" y2="343.09"/>
<line x1="480.97" y1="328.03" x2="506.49" y2="342.76"/>
<line x1="480.97" y1="327.69" x2="506.49" y2="342.43"/>
<line x1="480.97" y1="327.36" x2="506.49" y2="342.10"/>
<line x1="480.97" y1="327.03" x2="506.49" y2="341.77"/>
<line x1="480.97" y1="326.70" x2="506.49" y2="341.44"/>
<line x1="480.97" y1="316.77" x2="506.49" y2="331.50"/>
<line x1="480.97" y1="316.43" x2="506.49" y2="331.17"/>
<line x1="480.97" y1="316.10" x2="506.49" y2="330.84"/>
<line x1="480.97" y1="315.77" x2="506.49" y2="330.51"/>
<line x1="480.97" y1="315.44" x2="506.49" y2="330.18"/>
<line x1="480.97" y1="315.11" x2="506.49" y2="329.85"/>
<line x1="480.97" y1="314.78" x2="506.49" y2="329.52"/>
<line x1="480.97" y1="314.45" x2="506.49" y2="329.18"/>
<line x1="480.97" y1="304.51" x2="506.49" y2="319.25"/>
<line x1="480.97" y1="304.18" x2="506.49" y2="318.92"/>
<line x1="480.97" y1="303.85" x2="506.49" y2="318.59"/>
<line x1="480.97" y1="303.52" x2="506.49" y2="318.26"/>
<line x1="480.97" y1="303.19" x2="506.49" y2="317.92"/>
<line x1="480.97" y1="302.86" x2="506.49" y2="317.59"/>
<line x1="480.97" y1="302.53" x2="506.49" y2="317.26"/>
<line x1="480.97" y1="302.19" x2="506.49" y2="316.93"/>
<line x1="480.97" y1="292.26" x2="506.49" y2="307.00"/>
<line x1="480.97" y1="291.93" x2="506.49" y2="306.67"/>
<line x1="480.97" y1="291.60" x2="506.49" y2="306.33"/>
<line x1="480.97" y1="291.27" x2="506.49" y2="306.00"/>
<line x1="480.97" y1="290.93" x2="506.49" y2="305.67"/>
<line x1="480.97" y1="290.60" x2="506.49" y2="305.34"/>
<line x1="480.97" y1="290.27" x2="506.49" y2="305.01"/>
<line x1="480.97" y1="289.94" x2="506.49" y2="304.68"/>
<line x1="480.97" y1="280.01" x2="506.49" y2="294.74"/>
<line x1="480.97" y1="279.67" x2="506.49" y2="294.41"/>
<line x1="480.97" y1="279.34" x2="506.49" y2="294.08"/>
<line x1="480.97" y1="279.01" x2="506.49" y2="293.75"/>
<line x1="480.97" y1="278.68" x2="506.49" y2="293.42"/>
<line x1="480.97" y1="278.35" x2="506.49" y2="293.09"/>
<line x1="480.97" y1="278.02" x2="506.49" y2="292.76"/>
<line x1="480.97" y1="277.69" x2="506.49" y2="292.42"/>
<line x1="480.97" y1="267.75" x2="506.49" y2="282.49"/>
<line x1="480.97" y1="267.42" x2="506.49" y2="282.16"/>
<line x1="480.97" y1="267.09" x2="506.49" y2="281.83"/>
<line x1="480.97" y1="266.76" x2="506.49" y2="281.50"/>
<line x1="480.97" y1="266.43" x2="506.49" y2="281.16"/>
<line x1="480.97" y1="266.10" x2="506.49" y2="280.83"/>
<line x1="480.97" y1="265.77" x2="506.49" y2="280.50"/>
<line x1="480.97" y1="265.43" x2="506.49" y2="280.17"/>
<line x1="480.97" y1="255.50" x2="506.49" y2="270.24"/>
<line x1="480.97" y1="255.17" x2="506.49" y2="269.91"/>
<line x1="480.97" y1="254.84" x2="506.49" y2="269.57"/>
<line x1="480.97" y1="254.51" x2="506.49" y2="269.24"/>
<line x1="480.97" y1="254.17" x2="506.49" y2="268.91"/>
<line x1="480.97" y1="253.84" x2="506.49" y2="268.58"/>
<line x1="480.97" y1="253.51" x2="506.49" y2="268.25"/>
<line x1="480.97" y1="253.18" x2="506.49" y2="267.92"/>
<line x1="480.97" y1="243.25" x2="506.49" y2="257.98"/>
<line x1="480.97" y1="242.91" x2="506.49" y2="257.65"/>
<line x1="480.97" y1="242.58" x2="506.49" y2="257.32"/>
<line x1="480.97" y1="242.25" x2="506.49" y2="256.99"/>
<line x1="480.97" y1="241.92" x2="506.49" y2="256.66"/>
<line x1="480.97" y1="241.59" x2="506.49" y2="256.33"/>
<line x1="480.97" y1="241.26" x2="506.49" y2="256.00"/>
<line x1="480.97" y1="240.93" x2="506.49" y2="255.66"/>
<line x1="480.97" y1="230.99" x2="506.49" y2="245.73"/>
<line x1="480.97" y1="230.66" x2="506.49" y2="245.40"/>
<line x1="480.97" y1="230.33" x2="506.49" y2="245.07"/>
<line x1="480.97" y1="230.00" x2="506.49" y2="244.74"/>
<line x1="480.97" y1="229.67" x2="506.49" y2="244.40"/>
<line x1="480.97" y1="229.34" x2="506.49" y2="244.07"/>
<line x1="480.97" y1="229.01" x2="506.49" y2="243.74"/>
<line x1="480.97" y1="228.67" x2="506.49" y2="243.41"/>
<line x1="480.97" y1="218.74" x2="506.49" y2="233.48"/>
<line x1="480.97" y1="218.41" x2="506.49" y2="233.14"/>
<line x1="480.97" y1="218.08" x2="506.49" y2="232.81"/>
<line x1="480.97" y1="217.75" x2="506.49" y2="232.48"/>
<line x1="480.97" y1="217.41" x2="506.49" y2="232.15"/>
<line x1="480.97" y1="217.08" x2="506.49" y2="231.82"/>
<line x1="480.97" y1="216.75" x2="506.49" y2="231.49"/>
<line x1="480.97" y1="216.42" x2="506.49" y2="231.16"/>
<line x1="480.97" y1="206.49" x2="506.49" y2="221.22"/>
<line x1="480.97" y1="206.15" x2="506.49" y2="220.89"/>
<line x1="480.97" y1="205.82" x2="506.49" y2="220.56"/>
<line x1="480.97" y1="205.49" x2="506.49" y2="220.23"/>
<line x1="480.97" y1="205.16" x2="506.49" y2="219.90"/>
<line x1="480.97" y1="204.83" x2="506.49" y2="219.57"/>
<line x1="480.97" y1="204.50" x2="506.49" y2="219.24"/>
<line x1="480.97" y1="204.17" x2="506.49" y2="218.90"/>
<line x1="480.97" y1="194.23" x2="506.49" y2="208.97"/>
<line x1="480.97" y1="193.90" x2="506.49" y2="208.64"/>
<line x1="480.97" y1="193.57" x2="506.49" y2="208.31"/>
<line x1="480.97" y1="193.24" x2="506.49" y2="207.98"/>
<line x1="480.97" y1="192.91" x2="506.49" y2="207.64"/>
<line x1="480.97" y1="192.58" x2="506.49" y2="207.31"/>
<line x1="480.97" y1="192.25" x2="506.49" y2="206.98"/>
<line x1="480.97" y1="191.91" x2="506.49" y2="206.65"/>
<line x1="480.97" y1="181.98" x2="506.49" y2="196.72"/>
<line x1="480.97" y1="181.65" x2="506.49" y2="196.38"/>
<line x1="480.97" y1="181.32" x2="506.49" y2="196.05"/>
<line x1="480.97" y1="180.99" x2="506.49" y2="195.72"/>
<line x1="480.97" y1="180.65" x2="506.49" y2="195.39"/>
<line x1="480.97" y1="180.32" x2="506.49" y2="195.06"/>
<line x1="480.97" y1="179.99" x2="506.49" y2="194.73"/>
<line x1="480.97" y1="179.66" x2="506.49" y2="194.40"/>
<line x1="480.97" y1="169.73" x2="506.49" y2="184.46"/>
<line x1="480.97" y1="169.39" x2="506.49" y2="184.13"/>
<line x1="480.97" y1="169.06" x2="506.49" y2="183.80"/>
<line x1="480.97" y1="168.73" x2="506.49" y2="183.47"/>
<line x1="480.97" y1="168.40" x2="506.49" y2="183.14"/>
<line x1="480.97" y1="168.07" x2="506.49" y2="182.81"/>
<line x1="480.97" y1="167.74" x2="506.49" y2="182.48"/>
<line x1="480.97" y1="167.41" x2="506.49" y2="182.14"/>
<line x1="480.97" y1="157.47" x2="506.49" y2="172.21"/>
<line x1="480.97" y1="157.14" x2="506.49" y2="171.88"/>
<line x1="480.97" y1="156.81" x2="506.49" y2="171.55"/>
<line x1="480.97" y1="156.48" x2="506.49" y2="171.22"/>
<line x1="480.97" y1="156.15" x2="506.49" y2="170.88"/>
<line x1="480.97" y1="155.82" x2="506.49" y2="170.55"/>
<line x1="480.97" y1="155.49" x2="506.49" y2="170.22"/>
<line x1="480.97" y1="155.15" x2="506.49" y2="169.89"/>
<line x1="481.80" y1="145.70" x2="506.49" y2="159.96"/>
<line x1="482.37" y1="145.70" x2="506.49" y2="159.62"/>
<line x1="482.94" y1="145.70" x2="506.49" y2="159.29"/>
<line x1="483.52" y1="145.70" x2="506.49" y2="158.96"/>
<line x1="484.09" y1="145.70" x2="506.49" y2="158.63"/>
<line x1="484.66" y1="145.70" x2="506.49" y2="158.30"/>
<line x1="485.24" y1="145.70" x2="506.49" y2="157.97"/>
<line x1="485.81" y1="145.70" x2="506.49" y2="157.64"/>
<line x1="503.02" y1="145.70" x2="506.49" y2="147.70"/>
<line x1="503.59" y1="145.70" x2="506.49" y2="147.37"/>
<line x1="504.17" y1="145.70" x2="506.49" y2="147.04"/>
<line x1="504.74" y1="145.70" x2="506.49" y2="146.71"/>
<line x1="505.31" y1="145.70" x2="506.49" y2="146.38"/>
<line x1="505.89" y1="145.70" x2="506.49" y2="146.05"/>
<line x1="506.46" y1="145.70" x2="506.49" y2="145.72"/>
<polyline points="
 618.35, 524.56 618.35, 213.09 592.82, 213.09 592.82, 524.56"/>
<line x1="592.82" y1="524.41" x2="593.09" y2="524.56"/>
<line x1="592.82" y1="524.08" x2="593.66" y2="524.56"/>
<line x1="592.82" y1="523.75" x2="594.23" y2="524.56"/>
<line x1="592.82" y1="523.42" x2="594.81" y2="524.56"/>
<line x1="592.82" y1="523.09" x2="595.38" y2="524.56"/>
<line x1="592.82" y1="522.75" x2="595.95" y2="524.56"/>
<line x1="592.82" y1="512.82" x2="613.16" y2="524.56"/>
<line x1="592.82" y1="512.49" x2="613.74" y2="524.56"/>
<line x1="592.82" y1="512.16" x2="614.31" y2="524.56"/>
<line x1="592.82" y1="511.83" x2="614.88" y2="524.56"/>
<line x1="592.82" y1="511.49" x2="615.46" y2="524.56"/>
<line x1="592.82" y1="511.16" x2="616.03" y2="524.56"/>
<line x1="592.82" y1="510.83" x2="616.60" y2="524.56"/>
<line x1="592.82" y1="510.50" x2="617.18" y2="524.56"/>
<line x1="592.82" y1="500.57" x2="618.35" y2="515.30"/>
<line x1="592.82" y1="500.24" x2="618.35" y2="514.97"/>
<line x1="592.82" y1="499.90" x2="618.35" y2="514.64"/>
<line x1="592.82" y1="499.57" x2="618.35" y2="514.31"/>
<line x1="592.82" y1="499.24" x2="618.35" y2="513.98"/>
<line x1="592.82" y1="498.91" x2="618.35" y2="513.65"/>
<line x1="592.82" y1="498.58" x2="618.35" y2="513.32"/>
<line x1="592.82" y1="498.25" x2="618.35" y2="512.99"/>
<line x1="592.82" y1="488.31" x2="618.35" y2="503.05"/>
<line x1="592.82" y1="487.98" x2="618.35" y2="502.72"/>
<line x1="592.82" y1="487.65" x2="618.35" y2="502.39"/>
<line x1="592.82" y1="487.32" x2="618.35" y2="502.06"/>
<line x1="592.82" y1="486.99" x2="618.35" y2="501.73"/>
<line x1="592.82" y1="486.66" x2="618.35" y2="501.39"/>
<line x1="592.82" y1="486.33" x2="618.35" y2="501.06"/>
<line x1="592.82" y1="485.99" x2="618.35" y2="500.73"/>
<line x1="592.82" y1="476.06" x2="618.35" y2="490.80"/>
<line x1="592.82" y1="475.73" x2="618.35" y2="490.47"/>
<line x1="592.82" y1="475.40" x2="618.35" y2="490.13"/>
<line x1="592.82" y1="475.07" x2="618.35" y2="489.80"/>
<line x1="592.82" y1="474.73" x2="618.35" y2="489.47"/>
<line x1="592.82" y1="474.40" x2="618.35" y2="489.14"/>
<line x1="592.82" y1="474.07" x2="618.35" y2="488.81"/>
<line x1="592.82" y1="473.74" x2="618.35" y2="488.48"/>
<line x1="592.82" y1="463.81" x2="618.35" y2="478.54"/>
<line x1="592.82" y1="463.47" x2="618.35" y2="478.21"/>
<line x1="592.82" y1="463.14" x2="618.35" y2="477.88"/>
<line x1="592.82" y1="462.81" x2="618.35" y2="477.55"/>
<line x1="592.82" y1="462.48" x2="618.35" y2="477.22"/>
<line x1="592.82" y1="462.15" x2="618.35" y2="476.89"/>
<line x1="592.82" y1="461.82" x2="618.35" y2="476.56"/>
<line x1="592.82" y1="461.49" x2="618.35" y2="476.23"/>
<line x1="592.82" y1="451.55" x2="618.35" y2="466.29"/>
<line x1="592.82" y1="451.22" x2="618.35" y2="465.96"/>
<line x1="592.82" y1="450.89" x2="618.35" y2="465.63"/>
<line x1="592.82" y1="450.56" x2="618.35" y2="465.30"/>
<line x1="592.82" y1="450.23" x2="618.35" y2="464.97"/>
<line x1="592.82" y1="449.90" x2="618.35" y2="464.63"/>
<line x1="592.82" y1="449.57" x2="618.35" y2="464.30"/>
<line x1="592.82" y1="449.23" x2="618.35" y2="463.97"/>
<line x1="592.82" y1="439.30" x2="618.35" y2="454.04"/>
<line x1="592.82" y1="438.97" x2="618.35" y2="453.71"/>
<line x1="592.82" y1="438.64" x2="618.35" y2="453.37"/>
<line x1="592.82" y1="438.31" x2="618.35" y2="453.04"/>
<line x1="592.82" y1="437.97" x2="618.35" y2="452.71"/>
<line x1="592.82" y1="437.64" x2="618.35" y2="452.38"/>
<line x1="592.82" y1="437.31" x2="618.35" y2="452.05"/>
<line x1="592.82" y1="436.98" x2="618.35" y2="451.72"/>
<line x1="592.82" y1="427.05" x2="618.35" y2="441.78"/>
<line x1="592.82" y1="426.71" x2="618.35" y2="441.45"/>
<line x1="592.82" y1="426.38" x2="618.35" y2="441.12"/>
<line x1="592.82" y1="426.05" x2="618.35" y2="440.79"/>
<line x1="592.82" y1="425.72" x2="618.35" y2="440.46"/>
<line x1="592.82" y1="425.39" x2="618.35" y2="440.13"/>
<line x1="592.82" y1="425.06" x2="618.35" y2="439.80"/>
<line x1="592.82" y1="424.73" x2="618.35" y2="439.47"/>
<line x1="592.82" y1="414.79" x2="618.35" y2="429.53"/>
<line x1="592.82" y1="414.46" x2="618.35" y2="429.20"/>
<line x1="592.82" y1="414.13" x2="618.35" y2="428.87"/>
<line x1="592.82" y1="413.80" x2="618.35" y2="428.54"/>
<line x1="592.82" y1="413.47" x2="618.35" y2="428.21"/>
<line x1="592.82" y1="413.14" x2="618.35" y2="427.87"/>
<line x1="592.82" y1="412.81" x2="618.35" y2="427.54"/>
<line x1="592.82" y1="412.47" x2="618.35" y2="427.21"/>
<line x1="592.82" y1="402.54" x2="618.35" y2="417.28"/>
<line x1="592.82" y1="402.21" x2="618.35" y2="416.95"/>
<line x1="592.82" y1="401.88" x2="618.35" y2="416.61"/>
<line x1="592.82" y1="401.55" x2="618.35" y2="416.28"/>
<line x1="592.82" y1="401.21" x2="618.35" y2="415.95"/>
<line x1="592.82" y1="400.88" x2="618.35" y2="415.62"/>
<line x1="592.82" y1="400.55" x2="618.35" y2="415.29"/>
<line x1="592.82" y1="400.22" x2="618.35" y2="414.96"/>
<line x1="592.82" y1="390.29" x2="618.35" y2="405.02"/>
<line x1="592.82" y1="389.95" x2="618.35" y2="404.69"/>
<line x1="592.82" y1="389.62" x2="618.35" y2="404.36"/>
<line x1="592.82" y1="389.29" x2="618.35" y2="404.03"/>
<line x1="592.82" y1="388.96" x2="618.35" y2="403.70"/>
<line x1="592.82" y1="388.63" x2="618.35" y2="403.37"/>
<line x1="592.82" y1="388.30" x2="618.35" y2="403.04"/>
<line x1="592.82" y1="387.97" x2="618.35" y2="402.70"/>
<line x1="592.82" y1="378.03" x2="618.35" y2="392.77"/>
<line x1="592.82" y1="377.70" x2="618.35" y2="392.44"/>
<line x1="592.82" y1="377.37" x2="618.35" y2="392.11"/>
<line x1="592.82" y1="377.04" x2="618.35" y2="391.78"/>
<line x1="592.82" y1="376.71" x2="618.35" y2="391.45"/>
<line x1="592.82" y1="376.38" x2="618.35" y2="391.11"/>
<line x1="592.82" y1="376.05" x2="618.35" y2="390.78"/>
<line x1="592.82" y1="375.71" x2="618.35" y2="390.45"/>
<line x1="592.82" y1="365.78" x2="618.35" y2="380.52"/>
<line x1="592.82" y1="365.45" x2="618.35" y2="380.19"/>
<line x1="592.82" y1="365.12" x2="618.35" y2="379.85"/>
<line x1="592.82" y1="364.79" x2="618.35" y2="379.52"/>
<line x1="592.82" y1="364.45" x2="618.35" y2="379.19"/>
<line x1="592.82" y1="364.12" x2="618.35" y2="378.86"/>
<line x1="592.82" y1="363.79" x2="618.35" y2="378.53"/>
<line x1="592.82" y1="363.46" x2="618.35" y2="378.20"/>
<line x1="592.82" y1="353.53" x2="618.35" y2="368.26"/>
<line x1="592.82" y1="353.19" x2="618.35" y2="367.93"/>
<line x1="592.82" y1="352.86" x2="618.35" y2="367.60"/>
<line x1="592.82" y1="352.53" x2="618.35" y2="367.27"/>
<line x1="592.82" y1="352.20" x2="618.35" y2="366.94"/>
<line x1="592.82" y1="351.87" x2="618.35" y2="366.61"/>
<line x1="592.82" y1="351.54" x2="618.35" y2="366.28"/>
<line x1="592.82" y1="351.21" x2="618.35" y2="365.94"/>
<line x1="592.82" y1="341.27" x2="618.35" y2="356.01"/>
<line x1="592.82" y1="340.94" x2="618.35" y2="355.68"/>
<line x1="592.82" y1="340.61" x2="618.35" y2="355.35"/>
<line x1="592.82" y1="340.28" x2="618.35" y2="355.02"/>
<line x1="592.82" y1="339.95" x2="618.35" y2="354.69"/>
<line x1="592.82" y1="339.62" x2="618.35" y2="354.35"/>
<line x1="592.82" y1="339.29" x2="618.35" y2="354.02"/>
<line x1="592.82" y1="338.95" x2="618.35" y2="353.69"/>
<line x1="592.82" y1="329.02" x2="618.35" y2="343.76"/>
<line x1="592.82" y1="328.69" x2="618.35" y2="343.43"/>
<line x1="592.82" y1="328.36" x2="618.35" y2="343.09"/>
<line x1="592.82" y1="328.03" x2="618.35" y2="342.76"/>
<line x1="592.82" y1="327.69" x2="618.35" y2="342.43"/>
<line x1="592.82" y1="327.36" x2="618.35" y2="342.10"/>
<line x1="592.82" y1="327.03" x2="618.35" y2="341.77"/>
<line x1="592.82" y1="326.70" x2="618.35" y2="341.44"/>
<line x1="592.82" y1="316.77" x2="618.35" y2="331.50"/>
<line x1="592.82" y1="316.43" x2="618.35" y2="331.17"/>
<line x1="592.82" y1="316.10" x2="618.35" y2="330.84"/>
<line x1="592.82" y1="315.77" x2="618.35" y2="330.51"/>
<line x1="592.82" y1="315.44" x2="618.35" y2="330.18"/>
<line x1="592.82" y1="315.11" x2="618.35" y2="329.85"/>
<line x1="592.82" y1="314.78" x2="618.35" y2="329.52"/>
<line x1="592.82" y1="314.45" x2="618.35" y2="329.18"/>
<line x1="592.82" y1="304.51" x2="618.35" y2="319.25"/>
<line x1="592.82" y1="304.18" x2="618.35" y2="318.92"/>
<line x1="592.82" y1="303.85" x2="618.35" y2="318.59"/>
<line x1="592.82" y1="303.52" x2="618.35" y2="318.26"/>
<line x1="592.82" y1="303.19" x2="618.35" y2="317.92"/>
<line x1="592.82" y1="302.86" x2="618.35" y2="317.59"/>
<line x1="592.82" y1="302.53" x2="618.35" y2="317.26"/>
<line x1="592.82" y1="302.19" x2="618.35" y2="316.93"/>
<line x1="592.82" y1="292.26" x2="618.35" y2="307.00"/>
<line x1="592.82" y1="291.93" x2="618.35" y2="306.67"/>
<line x1="592.82" y1="291.60" x2="618.35" y2="306.33"/>
<line x1="592.82" y1="291.27" x2="618.35" y2="306.00"/>
<line x1="592.82" y1="290.93" x2="618.35" y2="305.67"/>
<line x1="592.82" y1="290.60" x2="618.35" y2="305.34"/>
<line x1="592.82" y1="290.27" x2="618.35" y2="305.01"/>
<line x1="592.82" y1="289.94" x2="618.35" y2="304.68"/>
<line x1="592.82" y1="280.01" x2="618.35" y2="294.74"/>
<line x1="592.82" y1="279.67" x2="618.35" y2="294.41"/>
<line x1="592.82" y1="279.34" x2="618.35" y2="294.08"/>
<line x1="592.82" y1="279.01" x2="618.35" y2="293.75"/>
<line x1="592.82" y1="278.68" x2="618.35" y2="293.42"/>
<line x1="592.82" y1="278.35" x2="618.35" y2="293.09"/>
<line x1="592.82" y1="278.02" x2="618.35" y2="292.76"/>
<line x1="592.82" y1="277.69" x2="618.35" y2="292.42"/>
<line x1="592.82" y1="267.75" x2="618.35" y2="282.49"/>
<line x1="592.82" y1="267.42" x2="618.35" y2="282.16"/>
<line x1="592.82" y1="267.09" x2="618.35" y2="281.83"/>
<line x1="592.82" y1="266.76" x2="618.35" y2="281.50"/>
<line x1="592.82" y1="266.43" x2="618.35" y2="281.16"/>
<line x1="592.82" y1="266.10" x2="618.35" y2="280.83"/>
<line x1="592.82" y1="265.77" x2="618.35" y2="280.50"/>
<line x1="592.82" y1="265.43" x2="618.35" y2="280.17"/>
<line x1="592.82" y1="255.50" x2="618.35" y2="270.24"/>
<line x1="592.82" y1="255.17" x2="618.35" y2="269.91"/>
<line x1="592.82" y1="254.84" x2="618.35" y2="269.57"/>
<line x1="592.82" y1="254.51" x2="618.35" y2="269.24"/>
<line x1="592.82" y1="254.17" x2="618.35" y2="268.91"/>
<line x1="592.82" y1="253.84" x2="618.35" y2="268.58"/>
<line x1="592.82" y1="253.51" x2="618.35" y2="268.25"/>
<line x1="592.82" y1="253.18" x2="618.35" y2="267.92"/>
<line x1="592.82" y1="243.25" x2="618.35" y2="257.98"/>
<line x1="592.82" y1="242.91" x2="618.35" y2="257.65"/>
<line x1="592.82" y1="242.58" x2="618.35" y2="257.32"/>
<line x1="592.82" y1="242.25" x2="618.35" y2="256.99"/>
<line x1="592.82" y1="241.92" x2="618.35" y2="256.66"/>
<line x1="592.82" y1="241.59" x2="618.35" y2="256.33"/>
<line x1="592.82" y1="241.26" x2="618.35" y2="256.00"/>
<line x1="592.82" y1="240.93" x2="618.35" y2="255.66"/>
<line x1="592.82" y1="230.99" x2="618.35" y2="245.73"/>
<line x1="592.82" y1="230.66" x2="618.35" y2="245.40"/>
<line x1="592.82" y1="230.33" x2="618.35" y2="245.07"/>
<line x1="592.82" y1="230.00" x2="618.35" y2="244.74"/>
<line x1="592.82" y1="229.67" x2="618.35" y2="244.40"/>
<line x1="592.82" y1="229.34" x2="618.35" y2="244.07"/>
<line x1="592.82" y1="229.01" x2="618.35" y2="243.74"/>
<line x1="592.82" y1="228.67" x2="618.35" y2="243.41"/>
<line x1="592.82" y1="218.74" x2="618.35" y2="233.48"/>
<line x1="592.82" y1="218.41" x2="618.35" y2="233.14"/>
<line x1="592.82" y1="218.08" x2="618.35" y2="232.81"/>
<line x1="592.82" y1="217.75" x2="618.35" y2="232.48"/>
<line x1="592.82" y1="217.41" x2="618.35" y2="232.15"/>
<line x1="592.82" y1="217.08" x2="618.35" y2="231.82"/>
<line x1="592.82" y1="216.75" x2="618.35" y2="231.49"/>
<line x1="592.82" y1="216.42" x2="618.35" y2="231.16"/>
<line x1="604.27" y1="213.09" x2="618.35" y2="221.22"/>
<line x1="604.84" y1="213.09" x2="618.35" y2="220.89"/>
<line x1="605.42" y1="213.09" x2="618.35" y2="220.56"/>
<line x1="605.99" y1="213.09" x2="618.35" y2="220.23"/>
<line x1="606.56" y1="213.09" x2="618.35" y2="219.90"/>
<line x1="607.14" y1="213.09" x2="618.35" y2="219.57"/>
<line x1="607.71" y1="213.09" x2="618.35" y2="219.24"/>
<line x1="608.28" y1="213.09" x2="618.35" y2="218.90"/>
<polyline points="
 730.20, 524.56 730.20, 187.86 704.68, 187.86 704.68, 524.56"/>
<line x1="704.68" y1="524.41" x2="704.94" y2="524.56"/>
<line x1="704.68" y1="524.08" x2="705.51" y2="524.56"/>
<line x1="704.68" y1="523.75" x2="706.09" y2="524.56"/>
<line x1="704.68" y1="523.42" x2="706.66" y2="524.56"/>
<line x1="704.68" y1="523.09" x2="707.23" y2="524.56"/>
<line x1="704.68" y1="522.75" x2="707.81" y2="524.56"/>
<line x1="704.68" y1="512.82" x2="725.02" y2="524.56"/>
<line x1="704.68" y1="512.49" x2="725.59" y2="524.56"/>
<line x1="704.68" y1="512.16" x2="726.16" y2="524.56"/>
<line x1="704.68" y1="511.83" x2="726.74" y2="524.56"/>
<line x1="704.68" y1="511.49" x2="727.31" y2="524.56"/>
<line x1="704.68" y1="511.16" x2="727.88" y2="524.56"/>
<line x1="704.68" y1="510.83" x2="728.46" y2="524.56"/>
<line x1="704.68" y1="510.50" x2="729.03" y2="524.56"/>
<line x1="704.68" y1="500.57" x2="730.20" y2="515.30"/>
<line x1="704.68" y1="500.24" x2="730.20" y2="514.97"/>
<line x1="704.68" y1="499.90" x2="730.20" y2="514.64"/>
<line x1="704.68" y1="499.57" x2="730.20" y2="514.31"/>
<line x1="704.68" y1="499.24" x2="730.20" y2="513.98"/>
<line x1="704.68" y1="498.91" x2="730.20" y2="513.65"/>
<line x1="704.68" y1="498.58" x2="730.20" y2="513.32"/>
<line x1="704.68" y1="498.25" x2="730.20" y2="512.99"/>
<line x1="704.68" y1="488.31" x2="730.20" y2="503.05"/>
<line x1="704.68" y1="487.98" x2="730.20" y2="502.72"/>
<line x1="704.68" y1="487.65" x2="730.20" y2="502.39"/>
<line x1="704.68" y1="487.32" x2="730.20" y2="502.06"/>
<line x1="704.68" y1="486.99" x2="730.20" y2="501.73"/>
<line x1="704.68" y1="486.66" x2="730.20" y2="501.39"/>
<line x1="704.68" y1="486.33" x2="730.20" y2="501.06"/>
<line x1="704.68" y1="485.99" x2="730.20" y2="500.73"/>
<line x1="704.68" y1="476.06" x2="730.20" y2="490.80"/>
<line x1="704.68" y1="475.73" x2="730.20" y2="490.47"/>
<line x1="704.68" y1="475.40" x2="730.20" y2="490.13"/>
<line x1="704.68" y1="475.07" x2="730.20" y2="489.80"/>
<line x1="704.68" y1="474.73" x2="730.20" y2="489.47"/>
<line x1="704.68" y1="474.40" x2="730.20" y2="489.14"/>
<line x1="704.68" y1="474.07" x2="730.20" y2="488.81"/>
<line x1="704.68" y1="473.74" x2="730.20" y2="488.48"/>
<line x1="704.68" y1="463.81" x2="730.20" y2="478.54"/>
<line x1="704.68" y1="463.47" x2="730.20" y2="478.21"/>
<line x1="704.68" y1="463.14" x2="730.20" y2="477.88"/>
<line x1="704.68" y1="462.81" x2="730.20" y2="477.55"/>
<line x1="704.68" y1="462.48" x2="730.20" y2="477.22"/>
<line x1="704.68" y1="462.15" x2="730.20" y2="476.89"/>
<line x1="704.68" y1="461.82" x2="730.20" y2="476.56"/>
<line x1="704.68" y1="461.49" x2="730.20" y2="476.23"/>
<line x1="704.68" y1="451.55" x2="730.20" y2="466.29"/>
<line x1="704.68" y1="451.22" x2="730.20" y2="465.96"/>
<line x1="704.68" y1="450.89" x2="730.20" y2="465.63"/>
<line x1="704.68" y1="450.56" x2="730.20" y2="465.30"/>
<line x1="704.68" y1="450.23" x2="730.20" y2="464.97"/>
<line x1="704.68" y1="449.90" x2="730.20" y2="464.63"/>
<line x1="704.68" y1="449.57" x2="730.20" y2="464.30"/>
<line x1="704.68" y1="449.23" x2="730.20" y2="463.97"/>
<line x1="704.68" y1="439.30" x2="730.20" y2="454.04"/>
<line x1="704.68" y1="438.97" x2="730.20" y2="453.71"/>
<line x1="704.68" y1="438.64" x2="730.20" y2="453.37"/>
<line x1="704.68" y1="438.31" x2="730.20" y2="453.04"/>
<line x1="704.68" y1="437.97" x2="730.20" y2="452.71"/>
<line x1="704.68" y1="437.64" x2="730.20" y2="452.38"/>
<line x1="704.68" y1="437.31" x2="730.20" y2="452.05"/>
<line x1="704.68" y1="436.98" x2="730.20" y2="451.72"/>
<line x1="704.68" y1="427.05" x2="730.20" y2="441.78"/>
<line x1="704.68" y1="426.71" x2="730.20" y2="441.45"/>
<line x1="704.68" y1="426.38" x2="730.20" y2="441.12"/>
<line x1="704.68" y1="426.05" x2="730.20" y2="440.79"/>
<line x1="704.68" y1="425.72" x2="730.20" y2="440.46"/>
<line x1="704.68" y1="425.39" x2="730.20" y2="440.13"/>
<line x1="704.68" y1="425.06" x2="730.20" y2="439.80"/>
<line x1="704.68" y1="424.73" x2="730.20" y2="439.47"/>
<line x1="704.68" y1="414.79" x2="730.20" y2="429.53"/>
<line x1="704.68" y1="414.46" x2="730.20" y2="429.20"/>
<line x1="704.68" y1="414.13" x2="730.20" y2="428.87"/>
<line x1="704.68" y1="413.80" x2="730.20" y2="428.54"/>
<line x1="704.68" y1="413.47" x2="730.20" y2="428.21"/>
<line x1="704.68" y1="413.14" x2="730.20" y2="427.87"/>
<line x1="704.68" y1="412.81" x2="730.20" y2="427.54"/>
<line x1="704.68" y1="412.47" x2="730.20" y2="427.21"/>
<line x1="704.68" y1="402.54" x2="730.20" y2="417.28"/>
<line x1="704.68" y1="402.21" x2="730.20" y2="416.95"/>
<line x1="704.68" y1="401.88" x2="730.20" y2="416.61"/>
<line x1="704.68" y1="401.55" x2="730.20" y2="416.28"/>
<line x1="704.68" y1="401.21" x2="730.20" y2="415.95"/>
<line x1="704.68" y1="400.88" x2="730.20" y2="415.62"/>
<line x1="704.68" y1="400.55" x2="730.20" y2="415.29"/>
<line x1="704.68" y1="400.22" x2="730.20" y2="414.96"/>
<line x1="704.68" y1="390.29" x2="730.20" y2="405.02"/>
<line x1="704.68" y1="389.95" x2="730.20" y2="404.69"/>
<line x1="704.68" y1="389.62" x2="730.20" y2="404.36"/>
<line x1="704.68" y1="389.29" x2="730.20" y2="404.03"/>
<line x1="704.68" y1="388.96" x2="730.20" y2="403.70"/>
<line x1="704.68" y1="388.63" x2="730.20" y2="403.37"/>
<line x1="704.68" y1="388.30" x2="730.20" y2="403.04"/>
<line x1="704.68" y1="387.97" x2="730.20" y2="402.70"/>
<line x1="704.68" y1="378.03" x2="730.20" y2="392.77"/>
<line x1="704.68" y1="377.70" x2="730.20" y2="392.44"/>
<line x1="704.68" y1="377.37" x2="730.20" y2="392.11"/>
<line x1="704.68" y1="377.04" x2="730.20" y2="391.78"/>
<line x1="704.68" y1="376.71" x2="730.20" y2="391.45"/>
<line x1="704.68" y1="376.38" x2="730.20" y2="391.11"/>
<line x1="704.68" y1="376.05" x2="730.20" y2="390.78"/>
<line x1="704.68" y1="375.71" x2="730.20" y2="390.45"/>
<line x1="704.68" y1="365.78" x2="730.20" y2="380.52"/>
<line x1="704.68" y1="365.45" x2="730.20" y2="380.19"/>
<line x1="704.68" y1="365.12" x2="730.20" y2="379.85"/>
<line x1="704.68" y1="364.79" x2="730.20" y2="379.52"/>
<line x1="704.68" y1="364.45" x2="730.20" y2="379.19"/>
<line x1="704.68" y1="364.12" x2="730.20" y2="378.86"/>
<line x1="704.68" y1="363.79" x2="730.20" y2="378.53"/>
<line x1="704.68" y1="363.46" x2="730.20" y2="378.20"/>
<line x1="704.68" y1="353.53" x2="730.20" y2="368.26"/>
<line x1="704.68" y1="353.19" x2="730.20" y2="367.93"/>
<line x1="704.68" y1="352.86" x2="730.20" y2="367.60"/>
<line x1="704.68" y1="352.53" x2="730.20" y2="367.27"/>
<line x1="704.68" y1="352.20" x2="730.20" y2="366.94"/>
<line x1="704.68" y1="351.87" x2="730.20" y2="366.61"/>
<line x1="704.68" y1="351.54" x2="730.20" y2="366.28"/>
<line x1="704.68" y1="351.21" x2="730.20" y2="365.94"/>
<line x1="704.68" y1="341.27" x2="730.20" y2="356.01"/>
<line x1="704.68" y1="340.94" x2="730.20" y2="355.68"/>
<line x1="704.68" y1="340.61" x2="730.20" y2="355.35"/>
<line x1="704.68" y1="340.28" x2="730.20" y2="355.02"/>
<line x1="704.68" y1="339.95" x2="730.20" y2="354.69"/>
<line x1="704.68" y1="339.62" x2="730.20" y2="354.35"/>
<line x1="704.68" y1="339.29" x2="730.20" y2="354.02"/>
<line x1="704.68" y1="338.95" x2="730.20" y2="353.69"/>
<line x1="704.68" y1="329.02" x2="730.20" y2="343.76"/>
<line x1="704.68" y1="328.69" x2="730.20" y2="343.43"/>
<line x1="704.68" y1="328.36" x2="730.20" y2="343.09"/>
<line x1="704.68" y1="328.03" x2="730.20" y2="342.76"/>
<line x1="704.68" y1="327.69" x2="730.20" y2="342.43"/>
<line x1="704.68" y1="327.36" x2="730.20" y2="342.10"/>
<line x1="704.68" y1="327.03" x2="730.20" y2="341.77"/>
<line x1="704.68" y1="326.70" x2="730.20" y2="341.44"/>
<line x1="704.68" y1="316.77" x2="730.20" y2="331.50"/>
<line x1="704.68" y1="316.43" x2="730.20" y2="331.17"/>
<line x1="704.68" y1="316.10" x2="730.20" y2="330.84"/>
<line x1="704.68" y1="315.77" x2="730.20" y2="330.51"/>
<line x1="704.68" y1="315.44" x2="730.20" y2="330.18"/>
<line x1="704.68" y1="315.11" x2="730.20" y2="329.85"/>
<line x1="704.68" y1="314.78" x2="730.20" y2="329.52"/>
<line x1="704.68" y1="314.45" x2="730.20" y2="329.18"/>
<line x1="704.68" y1="304.51" x2="730.20" y2="319.25"/>
<line x1="704.68" y1="304.18" x2="730.20" y2="318.92"/>
<line x1="704.68" y1="303.85" x2="730.20" y2="318.59"/>
<line x1="704.68" y1="303.52" x2="730.20" y2="318.26"/>
<line x1="704.68" y1="303.19" x2="730.20" y2="317.92"/>
<line x1="704.68" y1="302.86" x2="730.20" y2="317.59"/>
<line x1="704.68" y1="302.53" x2="730.20" y2="317.26"/>
<line x1="704.68" y1="302.19" x2="730.20" y2="316.93"/>
<line x1="704.68" y1="292.26" x2="730.20" y2="307.00"/>
<line x1="704.68" y1="291.93" x2="730.20" y2="306.67"/>
<line x1="704.68" y1="291.60" x2="730.20" y2="306.33"/>
<line x1="704.68" y1="291.27" x2="730.20" y2="306.00"/>
<line x1="704.68" y1="290.93" x2="730.20" y2="305.67"/>
<line x1="704.68" y1="290.60" x2="730.20" y2="305.34"/>
<line x1="704.68" y1="290.27" x2="730.20" y2="305.01"/>
<line x1="704.68" y1="289.94" x2="730.20" y2="304.68"/>
<line x1="704.68" y1="280.01" x2="730.20" y2="294.74"/>
<line x1="704.68" y1="279.67" x2="730.20" y2="294.41"/>
<line x1="704.68" y1="279.34" x2="730.20" y2="294.08"/>
<line x1="704.68" y1="279.01" x2="730.20" y2="293.75"/>
<line x1="704.68" y1="278.68" x2="730.20" y2="293.42"/>
<line x1="704.68" y1="278.35" x2="730.20" y2="293.09"/>
<line x1="704.68" y1="278.02" x2="730.20" y2="292.76"/>
<line x1="704.68" y1="277.69" x2="730.20" y2="292.42"/>
<line x1="704.68" y1="267.75" x2="730.20" y2="282.49"/>
<line x1="704.68" y1="267.42" x2="730.20" y2="282.16"/>
<line x1="704.68" y1="267.09" x2="730.20" y2="281.83"/>
<line x1="704.68" y1="266.76" x2="730.20" y2="281.50"/>
<line x1="704.68" y1="266.43" x2="730.20" y2="281.16"/>
<line x1="704.68" y1="266.10" x2="730.20" y2="280.83"/>
<line x1="704.68" y1="265.77" x2="730.20" y2="280.50"/>
<line x1="704.68" y1="265.43" x2="730.20" y2="280.17"/>
<line x1="704.68" y1="255.50" x2="730.20" y2="270.24"/>
<line x1="704.68" y1="255.17" x2="730.20" y2="269.91"/>
<line x1="704.68" y1="254.84" x2="730.20" y2="269.57"/>
<line x1="704.68" y1="254.51" x2="730.20" y2="269.24"/>
<line x1="704.68" y1="254.17" x2="730.20" y2="268.91"/>
<line x1="704.68" y1="253.84" x2="730.20" y2="268.58"/>
<line x1="704.68" y1="253.51" x2="730.20" y2="268.25"/>
<line x1="704.68" y1="253.18" x2="730.20" y2="267.92"/>
<line x1="704.68" y1="243.25" x2="730.20" y2="257.98"/>
<line x1="704.68" y1="242.91" x2="730.20" y2="257.65"/>
<line x1="704.68" y1="242.58" x2="730.20" y2="257.32"/>
<line x1="704.68" y1="242.25" x2="730.20" y2="256.99"/>
<line x1="704.68" y1="241.92" x2="730.20" y2="256.66"/>
<line x1="704.68" y1="241.59" x2="730.20" y2="256.33"/>
<line x1="704.68" y1="241.26" x2="730.20" y2="256.00"/>
<line x1="704.68" y1="240.93" x2="730.20" y2="255.66"/>
<line x1="704.68" y1="230.99" x2="730.20" y2="245.73"/>
<line x1="704.68" y1="230.66" x2="730.20" y2="245.40"/>
<line x1="704.68" y1="230.33" x2="730.20" y2="245.07"/>
<line x1="704.68" y1="230.00" x2="730.20" y2="244.74"/>
<line x1="704.68" y1="229.67" x2="730.20" y2="244.40"/>
<line x1="704.68" y1="229.34" x2="730.20" y2="244.07"/>
<line x1="704.68" y1="229.01" x2="730.20" y2="243.74"/>
<line x1="704.68" y1="228.67" x2="730.20" y2="243.41"/>
<line x1="704.68" y1="218.74" x2="730.20" y2="233.48"/>
<line x1="704.68" y1="218.41" x2="730.20" y2="233.14"/>
<line x1="704.68" y1="218.08" x2="730.20" y2="232.81"/>
<line x1="704.68" y1="217.75" x2="730.20" y2="232.48"/>
<line x1="704.68" y1="217.41" x2="730.20" y2="232.15"/>
<line x1="704.68" y1="217.08" x2="730.20" y2="231.82"/>
<line x1="704.68" y1="216.75" x2="730.20" y2="231.49"/>
<line x1="704.68" y1="216.42" x2="730.20" y2="231.16"/>
<line x1="704.68" y1="206.49" x2="730.20" y2="221.22"/>
<line x1="704.68" y1="206.15" x2="730.20" y2="220.89"/>
<line x1="704.68" y1="205.82" x2="730.20" y2="220.56"/>
<line x1="704.68" y1="205.49" x2="730.20" y2="220.23"/>
<line x1="704.68" y1="205.16" x2="730.20" y2="219.90"/>
<line x1="704.68" y1="204.83" x2="730.20" y2="219.57"/>
<line x1="704.68" y1="204.50" x2="730.20" y2="219.24"/>
<line x1="704.68" y1="204.17" x2="730.20" y2="218.90"/>
<line x1="704.68" y1="194.23" x2="730.20" y2="208.97"/>
<line x1="704.68" y1="193.90" x2="730.20" y2="208.64"/>
<line x1="704.68" y1="193.57" x2="730.20" y2="208.31"/>
<line x1="704.68" y1="193.24" x2="730.20" y2="207.98"/>
<line x1="704.68" y1="192.91" x2="730.20" y2="207.64"/>
<line x1="704.68" y1="192.58" x2="730.20" y2="207.31"/>
<line x1="704.68" y1="192.25" x2="730.20" y2="206.98"/>
<line x1="704.68" y1="191.91" x2="730.20" y2="206.65"/>
<line x1="714.86" y1="187.86" x2="730.20" y2="196.72"/>
<line x1="715.43" y1="187.86" x2="730.20" y2="196.38"/>
<line x1="716.00" y1="187.86" x2="730.20" y2="196.05"/>
<line x1="716.58" y1="187.86" x2="730.20" y2="195.72"/>
<line x1="717.15" y1="187.86" x2="730.20" y2="195.39"/>
<line x1="717.72" y1="187.86" x2="730.20" y2="195.06"/>
<line x1="718.30" y1="187.86" x2="730.20" y2="194.73"/>
<line x1="718.87" y1="187.86" x2="730.20" y2="194.40"/>
</g>
<g fill="none" stroke="#ff0000" stroke-width="1.000">
<polyline points="
 684.31, 116.44 725.61, 116.44 725.61, 126.48 684.31, 126.48 684.31, 116.44"/>
</g>
<g fill="none" stroke="#00ff00" stroke-width="1.000">
<polyline points="
 684.31, 131.93 725.61, 131.93 725.61, 141.97 684.31, 141.97 684.31, 131.93"/>
<line x1="689.41" y1="131.93" x2="684.31" y2="137.03"/>
<line x1="700.36" y1="131.93" x2="690.32" y2="141.97"/>
<line x1="711.31" y1="131.93" x2="701.27" y2="141.97"/>
<line x1="722.26" y1="131.93" x2="712.23" y2="141.97"/>
<line x1="725.61" y1="139.53" x2="723.18" y2="141.97"/>
</g>
<g fill="none" stroke="#0000ff" stroke-width="1.000">
<polyline points="
 684.31, 147.42 725.61, 147.42 725.61, 157.45 684.31, 157.45 684.31, 147.42"/>
<line x1="684.31" y1="157.31" x2="684.57" y2="157.45"/>
<line x1="684.31" y1="156.98" x2="685.14" y2="157.45"/>
<line x1="684.31" y1="156.64" x2="685.72" y2="157.45"/>
<line x1="684.31" y1="156.31" x2="686.29" y2="157.45"/>
<line x1="684.31" y1="155.98" x2="686.86" y2="157.45"/>
<line x1="684.31" y1="155.65" x2="687.44" y2="157.45"/>
<line x1="687.26" y1="147.42" x2="704.65" y2="157.45"/>
<line x1="687.83" y1="147.42" x2="705.22" y2="157.45"/>
<line x1="688.41" y1="147.42" x2="705.79" y2="157.45"/>
<line x1="688.98" y1="147.42" x2="706.37" y2="157.45"/>
<line x1="689.55" y1="147.42" x2="706.94" y2="157.45"/>
<line x1="690.13" y1="147.42" x2="707.51" y2="157.45"/>
<line x1="690.70" y1="147.42" x2="708.09" y2="157.45"/>
<line x1="691.27" y1="147.42" x2="708.66" y2="157.45"/>
<line x1="708.48" y1="147.42" x2="725.61" y2="157.31"/>
<line x1="709.06" y1="147.42" x2="725.61" y2="156.98"/>
<line x1="709.63" y1="147.42" x2="725.61" y2="156.64"/>
<line x1="710.20" y1="147.42" x2="725.61" y2="156.31"/>
<line x1="710.78" y1="147.42" x2="725.61" y2="155.98"/>
<line x1="711.35" y1="147.42" x2="725.61" y2="155.65"/>
<line x1="711.92" y1="147.42" x2="725.61" y2="155.32"/>
<line x1="712.50" y1="147.42" x2="725.61" y2="154.99"/>
</g>
<g font-family="Times" font-weight="normal" font-style="normal"
font-size="15" stroke="none" fill="#000000">
<text x="735.94" y="126.48">A</text>
<text x="747.90" y="126.48">l</text>
<text x="753.11" y="126.48">p</text>
<text x="761.64" y="126.48">h</text>
<text x="770.17" y="126.48">a</text>
<text x="735.94" y="141.97">B</text>
<text x="747.04" y="141.97">e</text>
<text x="754.71" y="141.97">t</text>
<text x="759.92" y="141.97">a</text>
<text x="735.94" y="157.45">G</text>
<text x="747.90" y="157.45">a</text>
<text x="755.57" y="157.45">m</text>
<text x="768.28" y="157.45">m</text>
<text x="780.99" y="157.45">a</text>
</g>
<g font-family="Times" font-weight="normal" font-style="normal"
font-size="17" stroke="none" fill="#000000">
<text x="391.20" y="74.28">G</text>
<text x="404.49" y="74.28">r</text>
<text x="411.23" y="74.28">o</text>
<text x="420.71" y="74.28">u</text>
<text x="430.19" y="74.28">p</text>
<text x="439.67" y="74.28">e</text>
<text x="448.20" y="74.28">d</text>
<text x="457.67" y="74.28"> </text>
<text x="462.99" y="74.28">B</text>
<text x="475.32" y="74.28">a</text>
<text x="483.85" y="74.28">r</text>
<text x="490.59" y="74.28"> </text>
<text x="495.91" y="74.28">C</text>
<text x="508.24" y="74.28">h</text>
<text x="517.72" y="74.28">a</text>
<text x="526.25" y="74.28">r</text>
<text x="532.99" y="74.28">t</text>
</g>
</svg>
