<?xml version="1.0" encoding="ISO-8859-1" standalone="no"?>
<!DOCTYPE svg PUBLIC "-//W3C//DTD SVG 20010904//EN"
  "http://www.w3.org/TR/2001/REC-SVG-20010904/DTD/svg10.dtd">
<!-- Created by DISLIN (http://www.dislin.de)
Version: 11.5
Date   : 29.06.2026 09:48:44
-->
<svg width="853" height="603"
  xmlns="http://www.w3.org/2000/svg"
  xmlns:xlink="http://www.w3.org/1999/xlink">

<g fill="none" stroke="#000000" stroke-width="1.000">
<rect x="129.06" y="103.54" width="671.83" height="422.31"
 fill="#f7f7f7" stroke="none"/>
</g>
<g fill="none" stroke="#000000" stroke-width="1.000">
<line x1="129.06" y1="524.85" x2="799.89" y2="524.85"/>
<line x1="129.06" y1="531.73" x2="129.06" y2="524.85"/>
<line x1="184.99" y1="524.85" x2="184.99" y2="529.44"/>
<line x1="240.91" y1="531.73" x2="240.91" y2="524.85"/>
<line x1="296.84" y1="524.85" x2="296.84" y2="529.44"/>
<line x1="352.77" y1="531.73" x2="352.77" y2="524.85"/>
<line x1="408.69" y1="524.85" x2="408.69" y2="529.44"/>
<line x1="464.62" y1="531.73" x2="464.62" y2="524.85"/>
<line x1="520.26" y1="524.85" x2="520.26" y2="529.44"/>
<line x1="576.19" y1="531.73" x2="576.19" y2="524.85"/>
<line x1="632.11" y1="524.85" x2="632.11" y2="529.44"/>
<line x1="688.04" y1="531.73" x2="688.04" y2="524.85"/>
<line x1="743.97" y1="524.85" x2="743.97" y2="529.44"/>
</g>
<g font-family="Times" font-weight="normal" font-style="normal"
font-size="15" stroke="none" fill="#000000">
<text x="115.58" y="548.65">-</text>
<text x="121.65" y="548.65">2</text>
<text x="130.18" y="548.65">.</text>
<text x="134.96" y="548.65">0</text>
<text x="230.30" y="548.65">0</text>
<text x="238.83" y="548.65">.</text>
<text x="243.62" y="548.65">0</text>
<text x="342.16" y="548.65">2</text>
<text x="350.69" y="548.65">.</text>
<text x="355.47" y="548.65">0</text>
<text x="454.01" y="548.65">4</text>
<text x="462.54" y="548.65">.</text>
<text x="467.32" y="548.65">0</text>
<text x="565.86" y="548.65">6</text>
<text x="574.39" y="548.65">.</text>
<text x="579.18" y="548.65">0</text>
<text x="677.72" y="548.65">8</text>
<text x="686.25" y="548.65">.</text>
<text x="691.03" y="548.65">0</text>
<text x="785.27" y="548.65">1</text>
<text x="793.80" y="548.65">0</text>
<text x="802.33" y="548.65">.</text>
<text x="807.11" y="548.65">0</text>
</g>
<g font-family="Times" font-weight="normal" font-style="normal"
font-size="15" stroke="none" fill="#000000">
<text x="444.55" y="567.58">V</text>
<text x="456.50" y="567.58">a</text>
<text x="464.18" y="567.58">l</text>
<text x="469.39" y="567.58">u</text>
<text x="477.92" y="567.58">e</text>
</g>
<g fill="none" stroke="#000000" stroke-width="1.000">
<line x1="799.89" y1="531.73" x2="799.89" y2="524.85"/>
<line x1="129.06" y1="524.85" x2="129.06" y2="103.54"/>
<line x1="129.06" y1="524.85" x2="122.18" y2="524.85"/>
<line x1="124.47" y1="498.46" x2="129.06" y2="498.46"/>
<line x1="129.06" y1="472.08" x2="122.18" y2="472.08"/>
<line x1="124.47" y1="445.98" x2="129.06" y2="445.98"/>
<line x1="129.06" y1="419.59" x2="122.18" y2="419.59"/>
<line x1="124.47" y1="393.21" x2="129.06" y2="393.21"/>
<line x1="129.06" y1="366.82" x2="122.18" y2="366.82"/>
<line x1="124.47" y1="340.44" x2="129.06" y2="340.44"/>
<line x1="129.06" y1="314.34" x2="122.18" y2="314.34"/>
<line x1="124.47" y1="287.95" x2="129.06" y2="287.95"/>
<line x1="129.06" y1="261.56" x2="122.18" y2="261.56"/>
<line x1="124.47" y1="235.18" x2="129.06" y2="235.18"/>
<line x1="129.06" y1="208.79" x2="122.18" y2="208.79"/>
<line x1="124.47" y1="182.41" x2="129.06" y2="182.41"/>
<line x1="129.06" y1="156.31" x2="122.18" y2="156.31"/>
<line x1="124.47" y1="129.92" x2="129.06" y2="129.92"/>
</g>
<g font-family="Times" font-weight="normal" font-style="normal"
font-size="15" stroke="none" fill="#000000">
<text x="88.34" y="529.44">-</text>
<text x="94.40" y="529.44">5</text>
<text x="102.93" y="529.44">.</text>
<text x="107.72" y="529.44">0</text>
<text x="94.36" y="476.67">0</text>
<text x="102.89" y="476.67">.</text>
<text x="107.67" y="476.67">0</text>
<text x="94.36" y="424.18">5</text>
<text x="102.89" y="424.18">.</text>
<text x="107.67" y="424.18">0</text>
<text x="86.04" y="371.41">1</text>
<text x="94.57" y="371.41">0</text>
<text x="103.10" y="371.41">.</text>
<text x="107.89" y="371.41">0</text>
<text x="86.04" y="318.93">1</text>
<text x="94.57" y="318.93">5</text>
<text x="103.10" y="318.93">.</text>
<text x="107.89" y="318.93">0</text>
<text x="86.04" y="266.15">2</text>
<text x="94.57" y="266.15">0</text>
<text x="103.10" y="266.15">.</text>
<text x="107.89" y="266.15">0</text>
<text x="86.04" y="213.38">2</text>
<text x="94.57" y="213.38">5</text>
<text x="103.10" y="213.38">.</text>
<text x="107.89" y="213.38">0</text>
<text x="86.04" y="160.90">3</text>
<text x="94.57" y="160.90">0</text>
<text x="103.10" y="160.90">.</text>
<text x="107.89" y="160.90">0</text>
<text x="86.04" y="108.12">3</text>
<text x="94.57" y="108.12">5</text>
<text x="103.10" y="108.12">.</text>
<text x="107.89" y="108.12">0</text>
</g>
<g font-family="Times" font-weight="normal" font-style="normal"
font-size="15" stroke="none" fill="#000000">
<text x="77.15" y="334.70" rotate="-90">C</text>
<text x="77.15" y="323.60" rotate="-90">o</text>
<text x="77.15" y="315.07" rotate="-90">u</text>
<text x="77.15" y="306.53" rotate="-90">n</text>
<text x="77.15" y="298.00" rotate="-90">t</text>
</g>
<g fill="none" stroke="#000000" stroke-width="1.000">
<line x1="129.06" y1="103.54" x2="122.18" y2="103.54"/>
<line x1="129.06" y1="103.54" x2="799.89" y2="103.54"/>
<line x1="129.06" y1="96.65" x2="129.06" y2="103.54"/>
<line x1="184.99" y1="103.54" x2="184.99" y2="98.95"/>
<line x1="240.91" y1="96.65" x2="240.91" y2="103.54"/>
<line x1="296.84" y1="103.54" x2="296.84" y2="98.95"/>
<line x1="352.77" y1="96.65" x2="352.77" y2="103.54"/>
<line x1="408.69" y1="103.54" x2="408.69" y2="98.95"/>
<line x1="464.62" y1="96.65" x2="464.62" y2="103.54"/>
<line x1="520.26" y1="103.54" x2="520.26" y2="98.95"/>
<line x1="576.19" y1="96.65" x2="576.19" y2="103.54"/>
<line x1="632.11" y1="103.54" x2="632.11" y2="98.95"/>
<line x1="688.04" y1="96.65" x2="688.04" y2="103.54"/>
<line x1="743.97" y1="103.54" x2="743.97" y2="98.95"/>
<line x1="799.89" y1="96.65" x2="799.89" y2="103.54"/>
<line x1="799.89" y1="524.85" x2="799.89" y2="103.54"/>
<line x1="799.89" y1="524.85" x2="806.78" y2="524.85"/>
<line x1="804.48" y1="498.46" x2="799.89" y2="498.46"/>
<line x1="799.89" y1="472.08" x2="806.78" y2="472.08"/>
<line x1="804.48" y1="445.98" x2="799.89" y2="445.98"/>
<line x1="799.89" y1="419.59" x2="806.78" y2="419.59"/>
<line x1="804.48" y1="393.21" x2="799.89" y2="393.21"/>
<line x1="799.89" y1="366.82" x2="806.78" y2="366.82"/>
<line x1="804.48" y1="340.44" x2="799.89" y2="340.44"/>
<line x1="799.89" y1="314.34" x2="806.78" y2="314.34"/>
<line x1="804.48" y1="287.95" x2="799.89" y2="287.95"/>
<line x1="799.89" y1="261.56" x2="806.78" y2="261.56"/>
<line x1="804.48" y1="235.18" x2="799.89" y2="235.18"/>
<line x1="799.89" y1="208.79" x2="806.78" y2="208.79"/>
<line x1="804.48" y1="182.41" x2="799.89" y2="182.41"/>
<line x1="799.89" y1="156.31" x2="806.78" y2="156.31"/>
<line x1="804.48" y1="129.92" x2="799.89" y2="129.92"/>
<line x1="799.89" y1="103.54" x2="806.78" y2="103.54"/>
</g>
<g fill="none" stroke="#bfbfbf" stroke-width="1.000">
<line x1="240.91" y1="524.56" x2="240.91" y2="103.82"/>
<line x1="352.77" y1="103.82" x2="352.77" y2="524.56"/>
<line x1="464.62" y1="524.56" x2="464.62" y2="103.82"/>
<line x1="576.19" y1="103.82" x2="576.19" y2="524.56"/>
<line x1="688.04" y1="524.56" x2="688.04" y2="103.82"/>
<line x1="799.61" y1="472.08" x2="129.35" y2="472.08"/>
<line x1="129.35" y1="419.59" x2="799.61" y2="419.59"/>
<line x1="799.61" y1="366.82" x2="129.35" y2="366.82"/>
<line x1="129.35" y1="314.34" x2="799.61" y2="314.34"/>
<line x1="799.61" y1="261.56" x2="129.35" y2="261.56"/>
<line x1="129.35" y1="208.79" x2="799.61" y2="208.79"/>
<line x1="799.61" y1="156.31" x2="129.35" y2="156.31"/>
</g>
<g fill="none" stroke="#4582b5" stroke-width="1.000">
<polyline points="
 222.27, 472.08 226.29, 472.08 226.29, 461.75 222.27, 461.75 222.27, 472.08"/>
<polyline points="
 227.43, 472.08 231.45, 472.08 231.45, 472.08 227.43, 472.08 227.43, 472.08"/>
<polyline points="
 232.88, 472.08 236.90, 472.08 236.90, 472.08 232.88, 472.08 232.88, 472.08"/>
<polyline points="
 238.33, 472.08 242.35, 472.08 242.35, 472.08 238.33, 472.08 238.33, 472.08"/>
<polyline points="
 243.78, 472.08 247.80, 472.08 247.80, 472.08 243.78, 472.08 243.78, 472.08"/>
<polyline points="
 248.95, 472.08 252.96, 472.08 252.96, 472.08 248.95, 472.08 248.95, 472.08"/>
<polyline points="
 254.39, 472.08 258.41, 472.08 258.41, 472.08 254.39, 472.08 254.39, 472.08"/>
<polyline points="
 259.84, 472.08 263.86, 472.08 263.86, 472.08 259.84, 472.08 259.84, 472.08"/>
<polyline points="
 265.01, 472.08 269.02, 472.08 269.02, 472.08 265.01, 472.08 265.01, 472.08"/>
<polyline points="
 270.46, 472.08 274.47, 472.08 274.47, 472.08 270.46, 472.08 270.46, 472.08"/>
<polyline points="
 275.90, 472.08 279.92, 472.08 279.92, 472.08 275.90, 472.08 275.90, 472.08"/>
<polyline points="
 281.35, 472.08 285.37, 472.08 285.37, 472.08 281.35, 472.08 281.35, 472.08"/>
<polyline points="
 286.52, 472.08 290.53, 472.08 290.53, 451.14 286.52, 451.14 286.52, 472.08"/>
<polyline points="
 291.97, 472.08 295.98, 472.08 295.98, 451.14 291.97, 451.14 291.97, 472.08"/>
<polyline points="
 297.41, 472.08 301.43, 472.08 301.43, 472.08 297.41, 472.08 297.41, 472.08"/>
<polyline points="
 302.86, 472.08 306.88, 472.08 306.88, 472.08 302.86, 472.08 302.86, 472.08"/>
<polyline points="
 308.03, 472.08 312.04, 472.08 312.04, 461.75 308.03, 461.75 308.03, 472.08"/>
<polyline points="
 313.48, 472.08 317.49, 472.08 317.49, 461.75 313.48, 461.75 313.48, 472.08"/>
<polyline points="
 318.93, 472.08 322.94, 472.08 322.94, 451.14 318.93, 451.14 318.93, 472.08"/>
<polyline points="
 324.09, 472.08 328.10, 472.08 328.10, 461.75 324.09, 461.75 324.09, 472.08"/>
<polyline points="
 329.54, 472.08 333.55, 472.08 333.55, 472.08 329.54, 472.08 329.54, 472.08"/>
<polyline points="
 334.99, 472.08 339.00, 472.08 339.00, 429.92 334.99, 429.92 334.99, 472.08"/>
<polyline points="
 340.44, 472.08 344.45, 472.08 344.45, 440.53 340.44, 440.53 340.44, 472.08"/>
<polyline points="
 345.60, 472.08 349.61, 472.08 349.61, 451.14 345.60, 451.14 345.60, 472.08"/>
<polyline points="
 351.05, 472.08 355.06, 472.08 355.06, 429.92 351.05, 429.92 351.05, 472.08"/>
<polyline points="
 356.50, 472.08 360.51, 472.08 360.51, 429.92 356.50, 429.92 356.50, 472.08"/>
<polyline points="
 361.95, 472.08 365.96, 472.08 365.96, 429.92 361.95, 429.92 361.95, 472.08"/>
<polyline points="
 367.11, 472.08 371.12, 472.08 371.12, 429.92 367.11, 429.92 367.11, 472.08"/>
<polyline points="
 372.56, 472.08 376.57, 472.08 376.57, 429.92 372.56, 429.92 372.56, 472.08"/>
<polyline points="
 378.01, 472.08 382.02, 472.08 382.02, 429.92 378.01, 429.92 378.01, 472.08"/>
<polyline points="
 383.17, 472.08 387.18, 472.08 387.18, 377.43 383.17, 377.43 383.17, 472.08"/>
<polyline points="
 388.62, 472.08 392.63, 472.08 392.63, 388.04 388.62, 388.04 388.62, 472.08"/>
<polyline points="
 394.07, 472.08 398.08, 472.08 398.08, 388.04 394.07, 388.04 394.07, 472.08"/>
<polyline points="
 399.52, 472.08 403.53, 472.08 403.53, 429.92 399.52, 429.92 399.52, 472.08"/>
<polyline points="
 404.68, 472.08 408.69, 472.08 408.69, 366.82 404.68, 366.82 404.68, 472.08"/>
<polyline points="
 410.13, 472.08 414.14, 472.08 414.14, 377.43 410.13, 377.43 410.13, 472.08"/>
<polyline points="
 415.58, 472.08 419.59, 472.08 419.59, 324.66 415.58, 324.66 415.58, 472.08"/>
<polyline points="
 421.03, 472.08 425.04, 472.08 425.04, 303.72 421.03, 303.72 421.03, 472.08"/>
<polyline points="
 426.19, 472.08 430.20, 472.08 430.20, 324.66 426.19, 324.66 426.19, 472.08"/>
<polyline points="
 431.64, 472.08 435.65, 472.08 435.65, 324.66 431.64, 324.66 431.64, 472.08"/>
<polyline points="
 437.09, 472.08 441.10, 472.08 441.10, 293.11 437.09, 293.11 437.09, 472.08"/>
<polyline points="
 442.25, 472.08 446.27, 472.08 446.27, 261.56 442.25, 261.56 442.25, 472.08"/>
<polyline points="
 447.70, 472.08 451.72, 472.08 451.72, 250.95 447.70, 250.95 447.70, 472.08"/>
<polyline points="
 453.15, 472.08 457.16, 472.08 457.16, 293.11 453.15, 293.11 453.15, 472.08"/>
<polyline points="
 458.60, 472.08 462.61, 472.08 462.61, 219.40 458.60, 219.40 458.60, 472.08"/>
<polyline points="
 463.76, 472.08 467.78, 472.08 467.78, 272.18 463.76, 272.18 463.76, 472.08"/>
<polyline points="
 469.21, 472.08 473.23, 472.08 473.23, 314.34 469.21, 314.34 469.21, 472.08"/>
<polyline points="
 474.66, 472.08 478.67, 472.08 478.67, 198.47 474.66, 198.47 474.66, 472.08"/>
<polyline points="
 480.11, 472.08 484.12, 472.08 484.12, 198.47 480.11, 198.47 480.11, 472.08"/>
<polyline points="
 485.27, 472.08 489.29, 472.08 489.29, 282.50 485.27, 282.50 485.27, 472.08"/>
<polyline points="
 490.72, 472.08 494.74, 472.08 494.74, 145.70 490.72, 145.70 490.72, 472.08"/>
<polyline points="
 496.17, 472.08 500.18, 472.08 500.18, 240.34 496.17, 240.34 496.17, 472.08"/>
<polyline points="
 501.33, 472.08 505.35, 472.08 505.35, 219.40 501.33, 219.40 501.33, 472.08"/>
<polyline points="
 506.78, 472.08 510.80, 472.08 510.80, 166.63 506.78, 166.63 506.78, 472.08"/>
<polyline points="
 512.23, 472.08 516.25, 472.08 516.25, 219.40 512.23, 219.40 512.23, 472.08"/>
<polyline points="
 517.68, 472.08 521.70, 472.08 521.70, 187.86 517.68, 187.86 517.68, 472.08"/>
<polyline points="
 522.84, 472.08 526.86, 472.08 526.86, 240.34 522.84, 240.34 522.84, 472.08"/>
<polyline points="
 528.29, 472.08 532.31, 472.08 532.31, 219.40 528.29, 219.40 528.29, 472.08"/>
<polyline points="
 533.74, 472.08 537.76, 472.08 537.76, 282.50 533.74, 282.50 533.74, 472.08"/>
<polyline points="
 539.19, 472.08 543.21, 472.08 543.21, 230.02 539.19, 230.02 539.19, 472.08"/>
<polyline points="
 544.35, 472.08 548.37, 472.08 548.37, 250.95 544.35, 250.95 544.35, 472.08"/>
<polyline points="
 549.80, 472.08 553.82, 472.08 553.82, 135.08 549.80, 135.08 549.80, 472.08"/>
<polyline points="
 555.25, 472.08 559.27, 472.08 559.27, 230.02 555.25, 230.02 555.25, 472.08"/>
<polyline points="
 560.41, 472.08 564.43, 472.08 564.43, 230.02 560.41, 230.02 560.41, 472.08"/>
<polyline points="
 565.86, 472.08 569.88, 472.08 569.88, 250.95 565.86, 250.95 565.86, 472.08"/>
<polyline points="
 571.31, 472.08 575.33, 472.08 575.33, 177.24 571.31, 177.24 571.31, 472.08"/>
<polyline points="
 576.76, 472.08 580.78, 472.08 580.78, 261.56 576.76, 261.56 576.76, 472.08"/>
<polyline points="
 581.92, 472.08 585.94, 472.08 585.94, 282.50 581.92, 282.50 581.92, 472.08"/>
<polyline points="
 587.37, 472.08 591.39, 472.08 591.39, 282.50 587.37, 282.50 587.37, 472.08"/>
<polyline points="
 592.82, 472.08 596.84, 472.08 596.84, 324.66 592.82, 324.66 592.82, 472.08"/>
<polyline points="
 598.27, 472.08 602.29, 472.08 602.29, 303.72 598.27, 303.72 598.27, 472.08"/>
<polyline points="
 603.43, 472.08 607.45, 472.08 607.45, 345.88 603.43, 345.88 603.43, 472.08"/>
<polyline points="
 608.88, 472.08 612.90, 472.08 612.90, 293.11 608.88, 293.11 608.88, 472.08"/>
<polyline points="
 614.33, 472.08 618.35, 472.08 618.35, 314.34 614.33, 314.34 614.33, 472.08"/>
<polyline points="
 619.49, 472.08 623.51, 472.08 623.51, 293.11 619.49, 293.11 619.49, 472.08"/>
<polyline points="
 624.94, 472.08 628.96, 472.08 628.96, 345.88 624.94, 345.88 624.94, 472.08"/>
<polyline points="
 630.39, 472.08 634.41, 472.08 634.41, 388.04 630.39, 388.04 630.39, 472.08"/>
<polyline points="
 635.84, 472.08 639.86, 472.08 639.86, 388.04 635.84, 388.04 635.84, 472.08"/>
<polyline points="
 641.01, 472.08 645.02, 472.08 645.02, 398.37 641.01, 398.37 641.01, 472.08"/>
<polyline points="
 646.45, 472.08 650.47, 472.08 650.47, 398.37 646.45, 398.37 646.45, 472.08"/>
<polyline points="
 651.90, 472.08 655.92, 472.08 655.92, 366.82 651.90, 366.82 651.90, 472.08"/>
<polyline points="
 657.07, 472.08 661.08, 472.08 661.08, 345.88 657.07, 345.88 657.07, 472.08"/>
<polyline points="
 662.52, 472.08 666.53, 472.08 666.53, 440.53 662.52, 440.53 662.52, 472.08"/>
<polyline points="
 667.96, 472.08 671.98, 472.08 671.98, 440.53 667.96, 440.53 667.96, 472.08"/>
<polyline points="
 673.41, 472.08 677.43, 472.08 677.43, 429.92 673.41, 429.92 673.41, 472.08"/>
<polyline points="
 678.58, 472.08 682.59, 472.08 682.59, 440.53 678.58, 440.53 678.58, 472.08"/>
<polyline points="
 684.03, 472.08 688.04, 472.08 688.04, 419.59 684.03, 419.59 684.03, 472.08"/>
<polyline points="
 689.47, 472.08 693.49, 472.08 693.49, 398.37 689.47, 398.37 689.47, 472.08"/>
<polyline points="
 694.92, 472.08 698.94, 472.08 698.94, 440.53 694.92, 440.53 694.92, 472.08"/>
<polyline points="
 700.09, 472.08 704.10, 472.08 704.10, 429.92 700.09, 429.92 700.09, 472.08"/>
<polyline points="
 705.54, 472.08 709.55, 472.08 709.55, 451.14 705.54, 451.14 705.54, 472.08"/>
<polyline points="
 710.99, 472.08 715.00, 472.08 715.00, 461.75 710.99, 461.75 710.99, 472.08"/>
<polyline points="
 716.15, 472.08 720.16, 472.08 720.16, 451.14 716.15, 451.14 716.15, 472.08"/>
<polyline points="
 721.60, 472.08 725.61, 472.08 725.61, 440.53 721.60, 440.53 721.60, 472.08"/>
<polyline points="
 727.05, 472.08 731.06, 472.08 731.06, 472.08 727.05, 472.08 727.05, 472.08"/>
<polyline points="
 732.50, 472.08 736.51, 472.08 736.51, 440.53 732.50, 440.53 732.50, 472.08"/>
<polyline points="
 737.66, 472.08 741.67, 472.08 741.67, 472.08 737.66, 472.08 737.66, 472.08"/>
<polyline points="
 743.11, 472.08 747.12, 472.08 747.12, 472.08 743.11, 472.08 743.11, 472.08"/>
<polyline points="
 748.56, 472.08 752.57, 472.08 752.57, 461.75 748.56, 461.75 748.56, 472.08"/>
<polyline points="
 754.01, 472.08 758.02, 472.08 758.02, 461.75 754.01, 461.75 754.01, 472.08"/>
</g>
<g fill="none" stroke="#4582b5" stroke-width="1.000">
<polyline points="
 678.86, 116.44 720.16, 116.44 720.16, 126.48 678.86, 126.48 678.86, 116.44"/>
</g>
<g font-family="Times" font-weight="normal" font-style="normal"
font-size="15" stroke="none" fill="#000000">
<text x="730.49" y="126.48">S</text>
<text x="739.88" y="126.48">a</text>
<text x="747.55" y="126.48">m</text>
<text x="760.26" y="126.48">p</text>
<text x="768.79" y="126.48">l</text>
<text x="774.00" y="126.48">e</text>
<text x="781.68" y="126.48">s</text>
</g>
<g font-family="Times" font-weight="normal" font-style="normal"
font-size="17" stroke="none" fill="#000000">
<text x="336.99" y="74.28">H</text>
<text x="350.28" y="74.28">i</text>
<text x="356.07" y="74.28">s</text>
<text x="363.77" y="74.28">t</text>
<text x="369.56" y="74.28">o</text>
<text x="379.03" y="74.28">g</text>
<text x="388.51" y="74.28">r</text>
<text x="395.26" y="74.28">a</text>
<text x="403.78" y="74.28">m</text>
<text x="417.90" y="74.28"> </text>
<text x="423.22" y="74.28">-</text>
<text x="429.96" y="74.28"> </text>
<text x="435.27" y="74.28">N</text>
<text x="448.56" y="74.28">o</text>
<text x="458.04" y="74.28">r</text>
<text x="464.78" y="74.28">m</text>
<text x="478.90" y="74.28">a</text>
<text x="487.43" y="74.28">l</text>
<text x="493.22" y="74.28"> </text>
<text x="498.53" y="74.28">D</text>
<text x="511.82" y="74.28">i</text>
<text x="517.61" y="74.28">s</text>
<text x="525.31" y="74.28">t</text>
<text x="531.10" y="74.28">r</text>
<text x="537.84" y="74.28">i</text>
<text x="543.63" y="74.28">b</text>
<text x="553.11" y="74.28">u</text>
<text x="562.59" y="74.28">t</text>
<text x="568.37" y="74.28">i</text>
<text x="574.16" y="74.28">o</text>
<text x="583.64" y="74.28">n</text>
</g>
</svg>
