<?xml version="1.0" encoding="ISO-8859-1" standalone="no"?>
<!DOCTYPE svg PUBLIC "-//W3C//DTD SVG 20010904//EN"
  "http://www.w3.org/TR/2001/REC-SVG-20010904/DTD/svg10.dtd">
<!-- Created by DISLIN (http://www.dislin.de)
Version: 11.5
Date   : 27.06.2026 18:20:59
-->
<svg width="853" height="603"
  xmlns="http://www.w3.org/2000/svg"
  xmlns:xlink="http://www.w3.org/1999/xlink">

<g fill="none" stroke="#000000" stroke-width="1.000">
<rect x="129.06" y="103.54" width="671.83" height="422.31"
 fill="#f7f7f7" stroke="none"/>
</g>
<g fill="none" stroke="#000000" stroke-width="1.000">
<line x1="129.06" y1="524.85" x2="799.89" y2="524.85"/>
<line x1="129.06" y1="524.85" x2="129.06" y2="531.73"/>
<line x1="196.17" y1="529.44" x2="196.17" y2="524.85"/>
<line x1="263.29" y1="524.85" x2="263.29" y2="531.73"/>
<line x1="330.40" y1="529.44" x2="330.40" y2="524.85"/>
<line x1="397.51" y1="524.85" x2="397.51" y2="531.73"/>
<line x1="464.62" y1="529.44" x2="464.62" y2="524.85"/>
<line x1="531.45" y1="524.85" x2="531.45" y2="531.73"/>
<line x1="598.56" y1="529.44" x2="598.56" y2="524.85"/>
<line x1="665.67" y1="524.85" x2="665.67" y2="531.73"/>
<line x1="732.78" y1="529.44" x2="732.78" y2="524.85"/>
</g>
<g font-family="Times" font-weight="normal" font-style="normal"
font-size="15" stroke="none" fill="#000000">
<text x="118.74" y="548.65">0</text>
<text x="127.27" y="548.65">.</text>
<text x="132.05" y="548.65">0</text>
<text x="252.67" y="548.65">2</text>
<text x="261.21" y="548.65">.</text>
<text x="265.99" y="548.65">0</text>
<text x="386.90" y="548.65">4</text>
<text x="395.43" y="548.65">.</text>
<text x="400.21" y="548.65">0</text>
<text x="521.12" y="548.65">6</text>
<text x="529.65" y="548.65">.</text>
<text x="534.43" y="548.65">0</text>
<text x="655.35" y="548.65">8</text>
<text x="663.88" y="548.65">.</text>
<text x="668.66" y="548.65">0</text>
<text x="785.27" y="548.65">1</text>
<text x="793.80" y="548.65">0</text>
<text x="802.33" y="548.65">.</text>
<text x="807.11" y="548.65">0</text>
</g>
<g font-family="Times" font-weight="normal" font-style="normal"
font-size="15" stroke="none" fill="#000000">
<text x="444.55" y="567.58">V</text>
<text x="456.50" y="567.58">a</text>
<text x="464.18" y="567.58">l</text>
<text x="469.39" y="567.58">u</text>
<text x="477.92" y="567.58">e</text>
</g>
<g fill="none" stroke="#000000" stroke-width="1.000">
<line x1="799.89" y1="524.85" x2="799.89" y2="531.73"/>
<line x1="129.06" y1="524.85" x2="129.06" y2="103.54"/>
<line x1="122.18" y1="524.85" x2="129.06" y2="524.85"/>
<line x1="129.06" y1="494.74" x2="124.47" y2="494.74"/>
<line x1="122.18" y1="464.62" x2="129.06" y2="464.62"/>
<line x1="129.06" y1="434.51" x2="124.47" y2="434.51"/>
<line x1="122.18" y1="404.39" x2="129.06" y2="404.39"/>
<line x1="129.06" y1="374.28" x2="124.47" y2="374.28"/>
<line x1="122.18" y1="344.16" x2="129.06" y2="344.16"/>
<line x1="129.06" y1="314.34" x2="124.47" y2="314.34"/>
<line x1="122.18" y1="284.22" x2="129.06" y2="284.22"/>
<line x1="129.06" y1="254.11" x2="124.47" y2="254.11"/>
<line x1="122.18" y1="223.99" x2="129.06" y2="223.99"/>
<line x1="129.06" y1="193.88" x2="124.47" y2="193.88"/>
<line x1="122.18" y1="163.76" x2="129.06" y2="163.76"/>
<line x1="129.06" y1="133.65" x2="124.47" y2="133.65"/>
</g>
<g font-family="Times" font-weight="normal" font-style="normal"
font-size="15" stroke="none" fill="#000000">
<text x="80.02" y="529.44">-</text>
<text x="86.09" y="529.44">1</text>
<text x="94.62" y="529.44">0</text>
<text x="103.15" y="529.44">.</text>
<text x="107.93" y="529.44">0</text>
<text x="94.36" y="469.21">0</text>
<text x="102.89" y="469.21">.</text>
<text x="107.67" y="469.21">0</text>
<text x="86.04" y="408.98">1</text>
<text x="94.57" y="408.98">0</text>
<text x="103.10" y="408.98">.</text>
<text x="107.89" y="408.98">0</text>
<text x="86.04" y="348.75">2</text>
<text x="94.57" y="348.75">0</text>
<text x="103.10" y="348.75">.</text>
<text x="107.89" y="348.75">0</text>
<text x="86.04" y="288.81">3</text>
<text x="94.57" y="288.81">0</text>
<text x="103.10" y="288.81">.</text>
<text x="107.89" y="288.81">0</text>
<text x="86.04" y="228.58">4</text>
<text x="94.57" y="228.58">0</text>
<text x="103.10" y="228.58">.</text>
<text x="107.89" y="228.58">0</text>
<text x="86.04" y="168.35">5</text>
<text x="94.57" y="168.35">0</text>
<text x="103.10" y="168.35">.</text>
<text x="107.89" y="168.35">0</text>
<text x="86.04" y="108.12">6</text>
<text x="94.57" y="108.12">0</text>
<text x="103.10" y="108.12">.</text>
<text x="107.89" y="108.12">0</text>
</g>
<g font-family="Times" font-weight="normal" font-style="normal"
font-size="15" stroke="none" fill="#000000">
<text x="71.13" y="334.70" rotate="-90">C</text>
<text x="71.13" y="323.60" rotate="-90">o</text>
<text x="71.13" y="315.07" rotate="-90">u</text>
<text x="71.13" y="306.53" rotate="-90">n</text>
<text x="71.13" y="298.00" rotate="-90">t</text>
</g>
<g fill="none" stroke="#000000" stroke-width="1.000">
<line x1="122.18" y1="103.54" x2="129.06" y2="103.54"/>
<line x1="129.06" y1="103.54" x2="799.89" y2="103.54"/>
<line x1="129.06" y1="103.54" x2="129.06" y2="96.65"/>
<line x1="196.17" y1="98.95" x2="196.17" y2="103.54"/>
<line x1="263.29" y1="103.54" x2="263.29" y2="96.65"/>
<line x1="330.40" y1="98.95" x2="330.40" y2="103.54"/>
<line x1="397.51" y1="103.54" x2="397.51" y2="96.65"/>
<line x1="464.62" y1="98.95" x2="464.62" y2="103.54"/>
<line x1="531.45" y1="103.54" x2="531.45" y2="96.65"/>
<line x1="598.56" y1="98.95" x2="598.56" y2="103.54"/>
<line x1="665.67" y1="103.54" x2="665.67" y2="96.65"/>
<line x1="732.78" y1="98.95" x2="732.78" y2="103.54"/>
<line x1="799.89" y1="103.54" x2="799.89" y2="96.65"/>
<line x1="799.89" y1="524.85" x2="799.89" y2="103.54"/>
<line x1="806.78" y1="524.85" x2="799.89" y2="524.85"/>
<line x1="799.89" y1="494.74" x2="804.48" y2="494.74"/>
<line x1="806.78" y1="464.62" x2="799.89" y2="464.62"/>
<line x1="799.89" y1="434.51" x2="804.48" y2="434.51"/>
<line x1="806.78" y1="404.39" x2="799.89" y2="404.39"/>
<line x1="799.89" y1="374.28" x2="804.48" y2="374.28"/>
<line x1="806.78" y1="344.16" x2="799.89" y2="344.16"/>
<line x1="799.89" y1="314.34" x2="804.48" y2="314.34"/>
<line x1="806.78" y1="284.22" x2="799.89" y2="284.22"/>
<line x1="799.89" y1="254.11" x2="804.48" y2="254.11"/>
<line x1="806.78" y1="223.99" x2="799.89" y2="223.99"/>
<line x1="799.89" y1="193.88" x2="804.48" y2="193.88"/>
<line x1="806.78" y1="163.76" x2="799.89" y2="163.76"/>
<line x1="799.89" y1="133.65" x2="804.48" y2="133.65"/>
<line x1="806.78" y1="103.54" x2="799.89" y2="103.54"/>
<polyline points="
 129.06, 103.54 799.89, 103.54 799.89, 524.85 129.06, 524.85 129.06, 103.54"/>
</g>
<g fill="none" stroke="#bfbfbf" stroke-width="1.000">
<line x1="263.29" y1="103.82" x2="263.29" y2="524.56"/>
<line x1="397.51" y1="524.56" x2="397.51" y2="103.82"/>
<line x1="531.45" y1="103.82" x2="531.45" y2="524.56"/>
<line x1="665.67" y1="524.56" x2="665.67" y2="103.82"/>
<line x1="799.61" y1="464.62" x2="129.35" y2="464.62"/>
<line x1="129.35" y1="404.39" x2="799.61" y2="404.39"/>
<line x1="799.61" y1="344.16" x2="129.35" y2="344.16"/>
<line x1="129.35" y1="284.22" x2="799.61" y2="284.22"/>
<line x1="799.61" y1="223.99" x2="129.35" y2="223.99"/>
<line x1="129.35" y1="163.76" x2="799.61" y2="163.76"/>
</g>
<g fill="none" stroke="#4582b5" stroke-width="1.000">
<polyline points="
 188.43, 464.62 208.51, 464.62 208.51, 458.60 188.43, 458.60 188.43, 464.62"/>
<polyline points="
 215.39, 464.62 235.47, 464.62 235.47, 458.60 215.39, 458.60 215.39, 464.62"/>
<polyline points="
 242.35, 464.62 262.42, 464.62 262.42, 428.48 242.35, 428.48 242.35, 464.62"/>
<polyline points="
 269.02, 464.62 289.10, 464.62 289.10, 440.53 269.02, 440.53 269.02, 464.62"/>
<polyline points="
 295.98, 464.62 316.06, 464.62 316.06, 368.26 295.98, 368.26 295.98, 464.62"/>
<polyline points="
 322.94, 464.62 343.02, 464.62 343.02, 332.12 322.94, 332.12 322.94, 464.62"/>
<polyline points="
 349.90, 464.62 369.98, 464.62 369.98, 272.18 349.90, 272.18 349.90, 464.62"/>
<polyline points="
 376.86, 464.62 396.94, 464.62 396.94, 187.86 376.86, 187.86 376.86, 464.62"/>
<polyline points="
 403.82, 464.62 423.90, 464.62 423.90, 205.92 403.82, 205.92 403.82, 464.62"/>
<polyline points="
 430.78, 464.62 450.85, 464.62 450.85, 121.60 430.78, 121.60 430.78, 464.62"/>
<polyline points="
 457.45, 464.62 477.53, 464.62 477.53, 121.60 457.45, 121.60 457.45, 464.62"/>
<polyline points="
 484.41, 464.62 504.49, 464.62 504.49, 127.63 484.41, 127.63 484.41, 464.62"/>
<polyline points="
 511.37, 464.62 531.45, 464.62 531.45, 187.86 511.37, 187.86 511.37, 464.62"/>
<polyline points="
 538.33, 464.62 558.41, 464.62 558.41, 254.11 538.33, 254.11 538.33, 464.62"/>
<polyline points="
 565.29, 464.62 585.37, 464.62 585.37, 284.22 565.29, 284.22 565.29, 464.62"/>
<polyline points="
 592.25, 464.62 612.32, 464.62 612.32, 350.19 592.25, 350.19 592.25, 464.62"/>
<polyline points="
 618.92, 464.62 639.00, 464.62 639.00, 410.42 618.92, 410.42 618.92, 464.62"/>
<polyline points="
 645.88, 464.62 665.96, 464.62 665.96, 422.46 645.88, 422.46 645.88, 464.62"/>
<polyline points="
 672.84, 464.62 692.92, 464.62 692.92, 410.42 672.84, 410.42 672.84, 464.62"/>
<polyline points="
 699.80, 464.62 719.88, 464.62 719.88, 440.53 699.80, 440.53 699.80, 464.62"/>
</g>
<g fill="none" stroke="#000000" stroke-width="1.000">
<polyline points="
 670.55, 108.70 794.44, 108.70 794.44, 134.22 670.55, 134.22 670.55, 108.70"/>
</g>
<g fill="none" stroke="#4582b5" stroke-width="1.000">
<polyline points="
 678.58, 116.73 719.88, 116.73 719.88, 126.77 678.58, 126.77 678.58, 116.73"/>
</g>
<g font-family="Times" font-weight="normal" font-style="normal"
font-size="15" stroke="none" fill="#000000">
<text x="730.20" y="126.77">S</text>
<text x="739.59" y="126.77">a</text>
<text x="747.26" y="126.77">m</text>
<text x="759.97" y="126.77">p</text>
<text x="768.50" y="126.77">l</text>
<text x="773.72" y="126.77">e</text>
<text x="781.39" y="126.77">s</text>
</g>
<g font-family="Times" font-weight="normal" font-style="normal"
font-size="17" stroke="none" fill="#000000">
<text x="336.99" y="74.28">H</text>
<text x="350.28" y="74.28">i</text>
<text x="356.07" y="74.28">s</text>
<text x="363.77" y="74.28">t</text>
<text x="369.56" y="74.28">o</text>
<text x="379.03" y="74.28">g</text>
<text x="388.51" y="74.28">r</text>
<text x="395.26" y="74.28">a</text>
<text x="403.78" y="74.28">m</text>
<text x="417.90" y="74.28"> </text>
<text x="423.22" y="74.28">-</text>
<text x="429.96" y="74.28"> </text>
<text x="435.27" y="74.28">N</text>
<text x="448.56" y="74.28">o</text>
<text x="458.04" y="74.28">r</text>
<text x="464.78" y="74.28">m</text>
<text x="478.90" y="74.28">a</text>
<text x="487.43" y="74.28">l</text>
<text x="493.22" y="74.28"> </text>
<text x="498.53" y="74.28">D</text>
<text x="511.82" y="74.28">i</text>
<text x="517.61" y="74.28">s</text>
<text x="525.31" y="74.28">t</text>
<text x="531.10" y="74.28">r</text>
<text x="537.84" y="74.28">i</text>
<text x="543.63" y="74.28">b</text>
<text x="553.11" y="74.28">u</text>
<text x="562.59" y="74.28">t</text>
<text x="568.37" y="74.28">i</text>
<text x="574.16" y="74.28">o</text>
<text x="583.64" y="74.28">n</text>
</g>
</svg>
