<?xml version="1.0" encoding="ISO-8859-1" standalone="no"?>
<!DOCTYPE svg PUBLIC "-//W3C//DTD SVG 20010904//EN"
  "http://www.w3.org/TR/2001/REC-SVG-20010904/DTD/svg10.dtd">
<!-- Created by DISLIN (http://www.dislin.de)
Version: 11.5
Date   : 26.06.2026 22:55:08
-->
<svg width="853" height="603"
  xmlns="http://www.w3.org/2000/svg"
  xmlns:xlink="http://www.w3.org/1999/xlink">

<g fill="none" stroke="#000000" stroke-width="1.000">
<rect x="157.74" y="63.38" width="694.78" height="382.16"
 fill="#f7f7f7" stroke="none"/>
</g>
<g fill="none" stroke="#000000" stroke-width="1.000">
<line x1="157.74" y1="444.55" x2="851.52" y2="444.55"/>
<line x1="157.74" y1="444.55" x2="157.74" y2="451.43"/>
<line x1="227.15" y1="449.13" x2="227.15" y2="444.55"/>
<line x1="296.55" y1="444.55" x2="296.55" y2="451.43"/>
<line x1="365.96" y1="449.13" x2="365.96" y2="444.55"/>
<line x1="435.37" y1="444.55" x2="435.37" y2="451.43"/>
<line x1="504.77" y1="449.13" x2="504.77" y2="444.55"/>
<line x1="573.89" y1="444.55" x2="573.89" y2="451.43"/>
<line x1="643.30" y1="449.13" x2="643.30" y2="444.55"/>
<line x1="712.71" y1="444.55" x2="712.71" y2="451.43"/>
<line x1="782.11" y1="449.13" x2="782.11" y2="444.55"/>
</g>
<g font-family="Times" font-weight="normal" font-style="normal"
font-size="15" stroke="none" fill="#000000">
<text x="147.42" y="468.35">0</text>
<text x="155.95" y="468.35">.</text>
<text x="160.73" y="468.35">0</text>
<text x="285.94" y="468.35">2</text>
<text x="294.47" y="468.35">.</text>
<text x="299.26" y="468.35">0</text>
<text x="424.76" y="468.35">4</text>
<text x="433.29" y="468.35">.</text>
<text x="438.07" y="468.35">0</text>
<text x="563.57" y="468.35">6</text>
<text x="572.10" y="468.35">.</text>
<text x="576.88" y="468.35">0</text>
<text x="702.38" y="468.35">8</text>
<text x="710.91" y="468.35">.</text>
<text x="715.69" y="468.35">0</text>
<text x="836.89" y="468.35">1</text>
<text x="845.42" y="468.35">0</text>
<text x="853.95" y="468.35">.</text>
<text x="858.74" y="468.35">0</text>
</g>
<g font-family="Times" font-weight="normal" font-style="normal"
font-size="15" stroke="none" fill="#000000">
<text x="484.70" y="487.28">V</text>
<text x="496.66" y="487.28">a</text>
<text x="504.33" y="487.28">l</text>
<text x="509.54" y="487.28">u</text>
<text x="518.07" y="487.28">e</text>
</g>
<g fill="none" stroke="#000000" stroke-width="1.000">
<line x1="851.52" y1="444.55" x2="851.52" y2="451.43"/>
<line x1="157.74" y1="444.55" x2="157.74" y2="63.38"/>
<line x1="150.86" y1="444.55" x2="157.74" y2="444.55"/>
<line x1="157.74" y1="417.30" x2="153.15" y2="417.30"/>
<line x1="150.86" y1="390.05" x2="157.74" y2="390.05"/>
<line x1="157.74" y1="362.81" x2="153.15" y2="362.81"/>
<line x1="150.86" y1="335.56" x2="157.74" y2="335.56"/>
<line x1="157.74" y1="308.31" x2="153.15" y2="308.31"/>
<line x1="150.86" y1="281.07" x2="157.74" y2="281.07"/>
<line x1="157.74" y1="254.11" x2="153.15" y2="254.11"/>
<line x1="150.86" y1="226.86" x2="157.74" y2="226.86"/>
<line x1="157.74" y1="199.62" x2="153.15" y2="199.62"/>
<line x1="150.86" y1="172.37" x2="157.74" y2="172.37"/>
<line x1="157.74" y1="145.12" x2="153.15" y2="145.12"/>
<line x1="150.86" y1="117.88" x2="157.74" y2="117.88"/>
<line x1="157.74" y1="90.63" x2="153.15" y2="90.63"/>
</g>
<g font-family="Times" font-weight="normal" font-style="normal"
font-size="15" stroke="none" fill="#000000">
<text x="108.70" y="449.13">-</text>
<text x="114.77" y="449.13">1</text>
<text x="123.30" y="449.13">0</text>
<text x="131.83" y="449.13">.</text>
<text x="136.61" y="449.13">0</text>
<text x="123.04" y="394.64">0</text>
<text x="131.57" y="394.64">.</text>
<text x="136.35" y="394.64">0</text>
<text x="114.72" y="340.15">1</text>
<text x="123.25" y="340.15">0</text>
<text x="131.78" y="340.15">.</text>
<text x="136.57" y="340.15">0</text>
<text x="114.72" y="285.66">2</text>
<text x="123.25" y="285.66">0</text>
<text x="131.78" y="285.66">.</text>
<text x="136.57" y="285.66">0</text>
<text x="114.72" y="231.45">3</text>
<text x="123.25" y="231.45">0</text>
<text x="131.78" y="231.45">.</text>
<text x="136.57" y="231.45">0</text>
<text x="114.72" y="176.96">4</text>
<text x="123.25" y="176.96">0</text>
<text x="131.78" y="176.96">.</text>
<text x="136.57" y="176.96">0</text>
<text x="114.72" y="122.46">5</text>
<text x="123.25" y="122.46">0</text>
<text x="131.78" y="122.46">.</text>
<text x="136.57" y="122.46">0</text>
<text x="114.72" y="67.97">6</text>
<text x="123.25" y="67.97">0</text>
<text x="131.78" y="67.97">.</text>
<text x="136.57" y="67.97">0</text>
</g>
<g font-family="Times" font-weight="normal" font-style="normal"
font-size="15" stroke="none" fill="#000000">
<text x="99.81" y="274.47" rotate="-90">C</text>
<text x="99.81" y="263.37" rotate="-90">o</text>
<text x="99.81" y="254.84" rotate="-90">u</text>
<text x="99.81" y="246.31" rotate="-90">n</text>
<text x="99.81" y="237.77" rotate="-90">t</text>
</g>
<g fill="none" stroke="#000000" stroke-width="1.000">
<line x1="150.86" y1="63.38" x2="157.74" y2="63.38"/>
<line x1="157.74" y1="63.38" x2="851.52" y2="63.38"/>
<line x1="157.74" y1="63.38" x2="157.74" y2="56.50"/>
<line x1="227.15" y1="58.79" x2="227.15" y2="63.38"/>
<line x1="296.55" y1="63.38" x2="296.55" y2="56.50"/>
<line x1="365.96" y1="58.79" x2="365.96" y2="63.38"/>
<line x1="435.37" y1="63.38" x2="435.37" y2="56.50"/>
<line x1="504.77" y1="58.79" x2="504.77" y2="63.38"/>
<line x1="573.89" y1="63.38" x2="573.89" y2="56.50"/>
<line x1="643.30" y1="58.79" x2="643.30" y2="63.38"/>
<line x1="712.71" y1="63.38" x2="712.71" y2="56.50"/>
<line x1="782.11" y1="58.79" x2="782.11" y2="63.38"/>
<line x1="851.52" y1="63.38" x2="851.52" y2="56.50"/>
<line x1="851.52" y1="444.55" x2="851.52" y2="63.38"/>
<line x1="851.52" y1="444.55" x2="851.52" y2="444.55"/>
<line x1="851.52" y1="417.30" x2="851.52" y2="417.30"/>
<line x1="851.52" y1="390.05" x2="851.52" y2="390.05"/>
<line x1="851.52" y1="362.81" x2="851.52" y2="362.81"/>
<line x1="851.52" y1="335.56" x2="851.52" y2="335.56"/>
<line x1="851.52" y1="308.31" x2="851.52" y2="308.31"/>
<line x1="851.52" y1="281.07" x2="851.52" y2="281.07"/>
<line x1="851.52" y1="254.11" x2="851.52" y2="254.11"/>
<line x1="851.52" y1="226.86" x2="851.52" y2="226.86"/>
<line x1="851.52" y1="199.62" x2="851.52" y2="199.62"/>
<line x1="851.52" y1="172.37" x2="851.52" y2="172.37"/>
<line x1="851.52" y1="145.12" x2="851.52" y2="145.12"/>
<line x1="851.52" y1="117.88" x2="851.52" y2="117.88"/>
<line x1="851.52" y1="90.63" x2="851.52" y2="90.63"/>
<line x1="851.52" y1="63.38" x2="851.52" y2="63.38"/>
<polyline points="
 157.74, 63.38 851.52, 63.38 851.52, 444.55 157.74, 444.55 157.74, 63.38"/>
</g>
<g fill="none" stroke="#bfbfbf" stroke-width="1.000">
<line x1="296.55" y1="63.67" x2="296.55" y2="444.26"/>
<line x1="435.37" y1="444.26" x2="435.37" y2="63.67"/>
<line x1="573.89" y1="63.67" x2="573.89" y2="444.26"/>
<line x1="712.71" y1="444.26" x2="712.71" y2="63.67"/>
<line x1="851.23" y1="390.05" x2="158.03" y2="390.05"/>
<line x1="158.03" y1="335.56" x2="851.23" y2="335.56"/>
<line x1="851.23" y1="281.07" x2="158.03" y2="281.07"/>
<line x1="158.03" y1="226.86" x2="851.23" y2="226.86"/>
<line x1="851.23" y1="172.37" x2="158.03" y2="172.37"/>
<line x1="158.03" y1="117.88" x2="851.23" y2="117.88"/>
</g>
<g fill="none" stroke="#4582b5" stroke-width="1.000">
<polyline points="
 219.12, 390.05 240.05, 390.05 240.05, 384.60 219.12, 384.60 219.12, 390.05"/>
<polyline points="
 246.94, 390.05 267.87, 390.05 267.87, 384.60 246.94, 384.60 246.94, 390.05"/>
<polyline points="
 274.76, 390.05 295.69, 390.05 295.69, 357.36 274.76, 357.36 274.76, 390.05"/>
<polyline points="
 302.58, 390.05 323.51, 390.05 323.51, 368.26 302.58, 368.26 302.58, 390.05"/>
<polyline points="
 330.40, 390.05 351.33, 390.05 351.33, 302.86 330.40, 302.86 330.40, 390.05"/>
<polyline points="
 358.22, 390.05 379.15, 390.05 379.15, 270.17 358.22, 270.17 358.22, 390.05"/>
<polyline points="
 386.04, 390.05 406.97, 390.05 406.97, 215.96 386.04, 215.96 386.04, 390.05"/>
<polyline points="
 413.86, 390.05 434.79, 390.05 434.79, 139.67 413.86, 139.67 413.86, 390.05"/>
<polyline points="
 441.68, 390.05 462.61, 390.05 462.61, 156.02 441.68, 156.02 441.68, 390.05"/>
<polyline points="
 469.78, 390.05 490.72, 390.05 490.72, 79.73 469.78, 79.73 469.78, 390.05"/>
<polyline points="
 497.60, 390.05 518.54, 390.05 518.54, 79.73 497.60, 79.73 497.60, 390.05"/>
<polyline points="
 525.42, 390.05 546.36, 390.05 546.36, 85.18 525.42, 85.18 525.42, 390.05"/>
<polyline points="
 553.24, 390.05 574.18, 390.05 574.18, 139.67 553.24, 139.67 553.24, 390.05"/>
<polyline points="
 581.06, 390.05 602.00, 390.05 602.00, 199.62 581.06, 199.62 581.06, 390.05"/>
<polyline points="
 608.88, 390.05 629.82, 390.05 629.82, 226.86 608.88, 226.86 608.88, 390.05"/>
<polyline points="
 636.70, 390.05 657.64, 390.05 657.64, 286.52 636.70, 286.52 636.70, 390.05"/>
<polyline points="
 664.52, 390.05 685.46, 390.05 685.46, 341.01 664.52, 341.01 664.52, 390.05"/>
<polyline points="
 692.34, 390.05 713.28, 390.05 713.28, 351.91 692.34, 351.91 692.34, 390.05"/>
<polyline points="
 720.16, 390.05 741.10, 390.05 741.10, 341.01 720.16, 341.01 720.16, 390.05"/>
<polyline points="
 747.98, 390.05 768.92, 390.05 768.92, 368.26 747.98, 368.26 747.98, 390.05"/>
</g>
<g fill="none" stroke="#000000" stroke-width="1.000">
<polyline points="
 722.17, 68.55 846.07, 68.55 846.07, 94.07 722.17, 94.07 722.17, 68.55"/>
</g>
<g fill="none" stroke="#4582b5" stroke-width="1.000">
<polyline points="
 730.20, 76.58 771.50, 76.58 771.50, 86.61 730.20, 86.61 730.20, 76.58"/>
</g>
<g font-family="Times" font-weight="normal" font-style="normal"
font-size="15" stroke="none" fill="#000000">
<text x="781.83" y="86.61">S</text>
<text x="791.21" y="86.61">a</text>
<text x="798.89" y="86.61">m</text>
<text x="811.60" y="86.61">p</text>
<text x="820.13" y="86.61">l</text>
<text x="825.34" y="86.61">e</text>
<text x="833.01" y="86.61">s</text>
</g>
<g font-family="Times" font-weight="normal" font-style="normal"
font-size="17" stroke="none" fill="#000000">
<text x="377.15" y="34.13">H</text>
<text x="390.43" y="34.13">i</text>
<text x="396.22" y="34.13">s</text>
<text x="403.92" y="34.13">t</text>
<text x="409.71" y="34.13">o</text>
<text x="419.19" y="34.13">g</text>
<text x="428.67" y="34.13">r</text>
<text x="435.41" y="34.13">a</text>
<text x="443.94" y="34.13">m</text>
<text x="458.06" y="34.13"> </text>
<text x="463.37" y="34.13">-</text>
<text x="470.11" y="34.13"> </text>
<text x="475.43" y="34.13">N</text>
<text x="488.71" y="34.13">o</text>
<text x="498.19" y="34.13">r</text>
<text x="504.93" y="34.13">m</text>
<text x="519.06" y="34.13">a</text>
<text x="527.58" y="34.13">l</text>
<text x="533.37" y="34.13"> </text>
<text x="538.69" y="34.13">D</text>
<text x="551.97" y="34.13">i</text>
<text x="557.76" y="34.13">s</text>
<text x="565.46" y="34.13">t</text>
<text x="571.25" y="34.13">r</text>
<text x="577.99" y="34.13">i</text>
<text x="583.78" y="34.13">b</text>
<text x="593.26" y="34.13">u</text>
<text x="602.74" y="34.13">t</text>
<text x="608.53" y="34.13">i</text>
<text x="614.32" y="34.13">o</text>
<text x="623.80" y="34.13">n</text>
</g>
</svg>
