<?xml version="1.0" encoding="ISO-8859-1" standalone="no"?>
<!DOCTYPE svg PUBLIC "-//W3C//DTD SVG 20010904//EN"
  "http://www.w3.org/TR/2001/REC-SVG-20010904/DTD/svg10.dtd">
<!-- Created by DISLIN (http://www.dislin.de)
Version: 11.5
Date   : 27.06.2026 03:45:10
-->
<svg width="853" height="603"
  xmlns="http://www.w3.org/2000/svg"
  xmlns:xlink="http://www.w3.org/1999/xlink">

<g fill="none" stroke="#000000" stroke-width="1.000">
<rect x="129.06" y="103.54" width="671.83" height="422.31"
 fill="#f7f7f7" stroke="none"/>
</g>
<g fill="none" stroke="#000000" stroke-width="1.000">
<line x1="129.06" y1="524.85" x2="799.89" y2="524.85"/>
<line x1="129.06" y1="524.85" x2="129.06" y2="531.73"/>
<line x1="170.93" y1="529.44" x2="170.93" y2="524.85"/>
<line x1="212.81" y1="524.85" x2="212.81" y2="531.73"/>
<line x1="254.97" y1="529.44" x2="254.97" y2="524.85"/>
<line x1="296.84" y1="524.85" x2="296.84" y2="531.73"/>
<line x1="338.71" y1="529.44" x2="338.71" y2="524.85"/>
<line x1="380.59" y1="524.85" x2="380.59" y2="531.73"/>
<line x1="422.46" y1="529.44" x2="422.46" y2="524.85"/>
<line x1="464.62" y1="524.85" x2="464.62" y2="531.73"/>
<line x1="506.49" y1="529.44" x2="506.49" y2="524.85"/>
<line x1="548.37" y1="524.85" x2="548.37" y2="531.73"/>
<line x1="590.24" y1="529.44" x2="590.24" y2="524.85"/>
<line x1="632.11" y1="524.85" x2="632.11" y2="531.73"/>
<line x1="673.99" y1="529.44" x2="673.99" y2="524.85"/>
<line x1="716.15" y1="524.85" x2="716.15" y2="531.73"/>
<line x1="758.02" y1="529.44" x2="758.02" y2="524.85"/>
</g>
<g font-family="Times" font-weight="normal" font-style="normal"
font-size="15" stroke="none" fill="#000000">
<text x="115.58" y="548.65">-</text>
<text x="121.65" y="548.65">1</text>
<text x="130.18" y="548.65">.</text>
<text x="134.96" y="548.65">0</text>
<text x="202.48" y="548.65">0</text>
<text x="211.01" y="548.65">.</text>
<text x="215.80" y="548.65">0</text>
<text x="286.23" y="548.65">1</text>
<text x="294.76" y="548.65">.</text>
<text x="299.54" y="548.65">0</text>
<text x="370.26" y="548.65">2</text>
<text x="378.79" y="548.65">.</text>
<text x="383.58" y="548.65">0</text>
<text x="454.01" y="548.65">3</text>
<text x="462.54" y="548.65">.</text>
<text x="467.32" y="548.65">0</text>
<text x="537.76" y="548.65">4</text>
<text x="546.29" y="548.65">.</text>
<text x="551.07" y="548.65">0</text>
<text x="621.79" y="548.65">5</text>
<text x="630.32" y="548.65">.</text>
<text x="635.10" y="548.65">0</text>
<text x="705.54" y="548.65">6</text>
<text x="714.07" y="548.65">.</text>
<text x="718.85" y="548.65">0</text>
<text x="789.57" y="548.65">7</text>
<text x="798.10" y="548.65">.</text>
<text x="802.88" y="548.65">0</text>
</g>
<g font-family="Times" font-weight="normal" font-style="normal"
font-size="15" stroke="none" fill="#000000">
<text x="427.05" y="567.58">x</text>
<text x="435.58" y="567.58"> </text>
<text x="440.36" y="567.58">(</text>
<text x="446.43" y="567.58">r</text>
<text x="452.50" y="567.58">a</text>
<text x="460.17" y="567.58">d</text>
<text x="468.70" y="567.58">i</text>
<text x="473.91" y="567.58">a</text>
<text x="481.59" y="567.58">n</text>
<text x="490.12" y="567.58">s</text>
<text x="497.05" y="567.58">)</text>
</g>
<g fill="none" stroke="#000000" stroke-width="1.000">
<line x1="799.89" y1="524.85" x2="799.89" y2="531.73"/>
<line x1="129.06" y1="524.85" x2="129.06" y2="103.54"/>
<line x1="122.18" y1="524.85" x2="129.06" y2="524.85"/>
<line x1="129.06" y1="482.69" x2="124.47" y2="482.69"/>
<line x1="122.18" y1="440.53" x2="129.06" y2="440.53"/>
<line x1="129.06" y1="398.37" x2="124.47" y2="398.37"/>
<line x1="122.18" y1="356.21" x2="129.06" y2="356.21"/>
<line x1="129.06" y1="314.34" x2="124.47" y2="314.34"/>
<line x1="122.18" y1="272.18" x2="129.06" y2="272.18"/>
<line x1="129.06" y1="230.02" x2="124.47" y2="230.02"/>
<line x1="122.18" y1="187.86" x2="129.06" y2="187.86"/>
<line x1="129.06" y1="145.70" x2="124.47" y2="145.70"/>
</g>
<g font-family="Times" font-weight="normal" font-style="normal"
font-size="15" stroke="none" fill="#000000">
<text x="88.34" y="529.44">-</text>
<text x="94.40" y="529.44">1</text>
<text x="102.93" y="529.44">.</text>
<text x="107.72" y="529.44">0</text>
<text x="88.34" y="445.12">-</text>
<text x="94.40" y="445.12">0</text>
<text x="102.93" y="445.12">.</text>
<text x="107.72" y="445.12">5</text>
<text x="94.36" y="360.80">0</text>
<text x="102.89" y="360.80">.</text>
<text x="107.67" y="360.80">0</text>
<text x="94.36" y="276.77">0</text>
<text x="102.89" y="276.77">.</text>
<text x="107.67" y="276.77">5</text>
<text x="94.36" y="192.44">1</text>
<text x="102.89" y="192.44">.</text>
<text x="107.67" y="192.44">0</text>
<text x="94.36" y="108.12">1</text>
<text x="102.89" y="108.12">.</text>
<text x="107.67" y="108.12">5</text>
</g>
<g font-family="Times" font-weight="normal" font-style="normal"
font-size="15" stroke="none" fill="#000000">
<text x="79.44" y="350.47" rotate="-90">A</text>
<text x="79.44" y="338.51" rotate="-90">m</text>
<text x="79.44" y="325.80" rotate="-90">p</text>
<text x="79.44" y="317.27" rotate="-90">l</text>
<text x="79.44" y="312.06" rotate="-90">i</text>
<text x="79.44" y="306.85" rotate="-90">t</text>
<text x="79.44" y="301.64" rotate="-90">u</text>
<text x="79.44" y="293.11" rotate="-90">d</text>
<text x="79.44" y="284.58" rotate="-90">e</text>
</g>
<g fill="none" stroke="#000000" stroke-width="1.000">
<line x1="122.18" y1="103.54" x2="129.06" y2="103.54"/>
<line x1="129.06" y1="103.54" x2="799.89" y2="103.54"/>
<line x1="129.06" y1="103.54" x2="129.06" y2="96.65"/>
<line x1="170.93" y1="98.95" x2="170.93" y2="103.54"/>
<line x1="212.81" y1="103.54" x2="212.81" y2="96.65"/>
<line x1="254.97" y1="98.95" x2="254.97" y2="103.54"/>
<line x1="296.84" y1="103.54" x2="296.84" y2="96.65"/>
<line x1="338.71" y1="98.95" x2="338.71" y2="103.54"/>
<line x1="380.59" y1="103.54" x2="380.59" y2="96.65"/>
<line x1="422.46" y1="98.95" x2="422.46" y2="103.54"/>
<line x1="464.62" y1="103.54" x2="464.62" y2="96.65"/>
<line x1="506.49" y1="98.95" x2="506.49" y2="103.54"/>
<line x1="548.37" y1="103.54" x2="548.37" y2="96.65"/>
<line x1="590.24" y1="98.95" x2="590.24" y2="103.54"/>
<line x1="632.11" y1="103.54" x2="632.11" y2="96.65"/>
<line x1="673.99" y1="98.95" x2="673.99" y2="103.54"/>
<line x1="716.15" y1="103.54" x2="716.15" y2="96.65"/>
<line x1="758.02" y1="98.95" x2="758.02" y2="103.54"/>
<line x1="799.89" y1="103.54" x2="799.89" y2="96.65"/>
<line x1="799.89" y1="524.85" x2="799.89" y2="103.54"/>
<line x1="806.78" y1="524.85" x2="799.89" y2="524.85"/>
<line x1="799.89" y1="482.69" x2="804.48" y2="482.69"/>
<line x1="806.78" y1="440.53" x2="799.89" y2="440.53"/>
<line x1="799.89" y1="398.37" x2="804.48" y2="398.37"/>
<line x1="806.78" y1="356.21" x2="799.89" y2="356.21"/>
<line x1="799.89" y1="314.34" x2="804.48" y2="314.34"/>
<line x1="806.78" y1="272.18" x2="799.89" y2="272.18"/>
<line x1="799.89" y1="230.02" x2="804.48" y2="230.02"/>
<line x1="806.78" y1="187.86" x2="799.89" y2="187.86"/>
<line x1="799.89" y1="145.70" x2="804.48" y2="145.70"/>
<line x1="806.78" y1="103.54" x2="799.89" y2="103.54"/>
<polyline points="
 129.06, 103.54 799.89, 103.54 799.89, 524.85 129.06, 524.85 129.06, 103.54"/>
</g>
<g fill="none" stroke="#bfbfbf" stroke-width="1.000">
<line x1="212.81" y1="103.82" x2="212.81" y2="524.56"/>
<line x1="296.84" y1="524.56" x2="296.84" y2="103.82"/>
<line x1="380.59" y1="103.82" x2="380.59" y2="524.56"/>
<line x1="464.62" y1="524.56" x2="464.62" y2="103.82"/>
<line x1="548.37" y1="103.82" x2="548.37" y2="524.56"/>
<line x1="632.11" y1="524.56" x2="632.11" y2="103.82"/>
<line x1="716.15" y1="103.82" x2="716.15" y2="524.56"/>
<line x1="129.35" y1="440.53" x2="799.61" y2="440.53"/>
<line x1="799.61" y1="356.21" x2="129.35" y2="356.21"/>
<line x1="129.35" y1="272.18" x2="799.61" y2="272.18"/>
<line x1="799.61" y1="187.86" x2="129.35" y2="187.86"/>
</g>
<g fill="none" stroke="#ff0000" stroke-width="1.000">
<polyline points="
 212.92, 356.32 215.56, 351.00 218.21, 345.69 220.86, 340.39 223.51, 335.10
 226.15, 329.83 228.80, 324.59 231.45, 319.38 234.10, 314.21 236.74, 309.08
 239.39, 303.99 242.04, 298.96 244.69, 293.99 247.33, 289.08 249.98, 284.23
 252.63, 279.46 255.28, 274.76 257.92, 270.15 260.57, 265.62 263.22, 261.18
 265.87, 256.84 268.51, 252.59 271.16, 248.45 273.81, 244.42 276.46, 240.50
 279.11, 236.69 281.75, 233.00 284.40, 229.44 287.05, 226.00 289.70, 222.69
 292.34, 219.52 294.99, 216.48 297.64, 213.58 300.29, 210.82 302.93, 208.21
 305.58, 205.75 308.23, 203.43 310.88, 201.27 313.52, 199.26 316.17, 197.41
 318.82, 195.72 321.47, 194.19 324.11, 192.82 326.76, 191.61 329.41, 190.57
 332.06, 189.69 334.70, 188.98 337.35, 188.43 340.00, 188.06 342.65, 187.85
 345.30, 187.80 347.94, 187.93 350.59, 188.22 353.24, 188.69 355.89, 189.31
 358.53, 190.11 361.18, 191.07 363.83, 192.19 366.48, 193.48 369.12, 194.94
 371.77, 196.55 374.42, 198.32 377.07, 200.25 379.71, 202.33 382.36, 204.57
 385.01, 206.96 387.66, 209.50 390.30, 212.18 392.95, 215.01 395.60, 217.98
 398.25, 221.09 400.89, 224.33 403.54, 227.70 406.19, 231.20 408.84, 234.83
 411.48, 238.58 414.13, 242.44 416.78, 246.42 419.43, 250.51 422.08, 254.70
 424.72, 259.00 427.37, 263.39 430.02, 267.87 432.67, 272.45 435.31, 277.10
 437.96, 281.84 440.61, 286.65 443.26, 291.53 445.90, 296.47 448.55, 301.47
 451.20, 306.53 453.85, 311.64 456.49, 316.79 459.14, 321.98 461.79, 327.21
 464.44, 332.46 467.08, 337.74 469.73, 343.04 472.38, 348.35 475.03, 353.66"/>
<polyline points="
 475.03, 353.66 477.67, 358.98 480.32, 364.30 482.97, 369.61 485.62, 374.91
 488.27, 380.19 490.91, 385.44 493.56, 390.67 496.21, 395.86 498.86, 401.01
 501.50, 406.12 504.15, 411.18 506.80, 416.18 509.45, 421.12 512.09, 426.00
 514.74, 430.81 517.39, 435.55 520.04, 440.20 522.68, 444.78 525.33, 449.26
 527.98, 453.65 530.63, 457.95 533.27, 462.14 535.92, 466.23 538.57, 470.21
 541.22, 474.07 543.86, 477.82 546.51, 481.44 549.16, 484.95 551.81, 488.32
 554.45, 491.56 557.10, 494.67 559.75, 497.64 562.40, 500.47 565.05, 503.15
 567.69, 505.69 570.34, 508.08 572.99, 510.32 575.64, 512.40 578.28, 514.33
 580.93, 516.10 583.58, 517.71 586.23, 519.16 588.87, 520.45 591.52, 521.58
 594.17, 522.54 596.82, 523.33 599.46, 523.96 602.11, 524.42 603.36, 524.56"/>
<polyline points="
 612.91, 524.56 615.35, 524.22 618.00, 523.67 620.64, 522.96 623.29, 522.08
 625.94, 521.04 628.59, 519.83 631.24, 518.46 633.88, 516.93 636.53, 515.24
 639.18, 513.38 641.83, 511.38 644.47, 509.22 647.12, 506.90 649.77, 504.44
 652.42, 501.83 655.06, 499.07 657.71, 496.17 660.36, 493.13 663.01, 489.96
 665.65, 486.65 668.30, 483.21 670.95, 479.65 673.60, 475.96 676.24, 472.15
 678.89, 468.23 681.54, 464.20 684.19, 460.06 686.83, 455.81 689.48, 451.47
 692.13, 447.03 694.78, 442.50 697.42, 437.88 700.07, 433.19 702.72, 428.42
 705.37, 423.57 708.02, 418.66 710.66, 413.69 713.31, 408.65 715.96, 403.57
 718.61, 398.44 721.25, 393.27 723.90, 388.06 726.55, 382.82 729.20, 377.55
 731.84, 372.26 734.49, 366.96 737.14, 361.64"/>
<line x1="737.14" y1="361.64" x2="739.79" y2="356.32"/>
</g>
<g fill="none" stroke="#0000ff" stroke-width="1.000">
<polyline points="
 212.92, 187.80 215.56, 187.88 218.21, 188.13 220.86, 188.55 223.51, 189.14
 226.15, 189.89 228.80, 190.81 231.45, 191.90 234.10, 193.15 236.74, 194.56
 239.39, 196.13 242.04, 197.86 244.69, 199.75 247.33, 201.80 249.98, 204.00
 252.63, 206.35 255.28, 208.85 257.92, 211.50 260.57, 214.29 263.22, 217.22
 265.87, 220.30 268.51, 223.51 271.16, 226.85 273.81, 230.32 276.46, 233.91
 279.11, 237.63 281.75, 241.47 284.40, 245.42 287.05, 249.48 289.70, 253.64
 292.34, 257.91 294.99, 262.28 297.64, 266.74 300.29, 271.29 302.93, 275.93
 305.58, 280.65 308.23, 285.44 310.88, 290.30 313.52, 295.23 316.17, 300.22
 318.82, 305.26 321.47, 310.36 324.11, 315.50 326.76, 320.68 329.41, 325.90
 332.06, 331.14 334.70, 336.42 337.35, 341.71 340.00, 347.02 342.65, 352.33
 345.30, 357.65 347.94, 362.97 350.59, 368.29 353.24, 373.59 355.89, 378.87
 358.53, 384.13 361.18, 389.37 363.83, 394.57 366.48, 399.73 369.12, 404.85
 371.77, 409.92 374.42, 414.93 377.07, 419.89 379.71, 424.79 382.36, 429.62
 385.01, 434.37 387.66, 439.05 390.30, 443.64 392.95, 448.15 395.60, 452.56
 398.25, 456.88 400.89, 461.10 403.54, 465.22 406.19, 469.22 408.84, 473.12
 411.48, 476.89 414.13, 480.55 416.78, 484.08 419.43, 487.49 422.08, 490.76
 424.72, 493.90 427.37, 496.91 430.02, 499.77 432.67, 502.49 435.31, 505.07
 437.96, 507.49 440.61, 509.77 443.26, 511.89 445.90, 513.86 448.55, 515.67
 451.20, 517.33 453.85, 518.82 456.49, 520.15 459.14, 521.31 461.79, 522.32
 464.44, 523.15 467.08, 523.82 469.73, 524.33 471.61, 524.56"/>
<polyline points="
 481.09, 524.56 482.97, 524.33 485.62, 523.82 488.27, 523.15 490.91, 522.32
 493.56, 521.31 496.21, 520.15 498.86, 518.82 501.50, 517.33 504.15, 515.67
 506.80, 513.86 509.45, 511.89 512.09, 509.77 514.74, 507.49 517.39, 505.07
 520.04, 502.49 522.68, 499.77 525.33, 496.91 527.98, 493.90 530.63, 490.76
 533.27, 487.49 535.92, 484.08 538.57, 480.55 541.22, 476.89 543.86, 473.12
 546.51, 469.22 549.16, 465.22 551.81, 461.10 554.45, 456.88 557.10, 452.56
 559.75, 448.15 562.40, 443.64 565.05, 439.05 567.69, 434.37 570.34, 429.62
 572.99, 424.79 575.64, 419.89 578.28, 414.93 580.93, 409.92 583.58, 404.85
 586.23, 399.73 588.87, 394.57 591.52, 389.37 594.17, 384.13 596.82, 378.87
 599.46, 373.59 602.11, 368.29 604.76, 362.97 607.41, 357.65 610.05, 352.33
 612.70, 347.02 615.35, 341.71 618.00, 336.42 620.64, 331.14 623.29, 325.90
 625.94, 320.68 628.59, 315.50 631.24, 310.36 633.88, 305.26 636.53, 300.22
 639.18, 295.23 641.83, 290.30 644.47, 285.44 647.12, 280.65 649.77, 275.93
 652.42, 271.29 655.06, 266.74 657.71, 262.28 660.36, 257.91 663.01, 253.64
 665.65, 249.48 668.30, 245.42 670.95, 241.47 673.60, 237.63 676.24, 233.91
 678.89, 230.32 681.54, 226.85 684.19, 223.51 686.83, 220.30 689.48, 217.22
 692.13, 214.29 694.78, 211.50 697.42, 208.85 700.07, 206.35 702.72, 204.00
 705.37, 201.80 708.02, 199.75 710.66, 197.86 713.31, 196.13 715.96, 194.56
 718.61, 193.15 721.25, 191.90 723.90, 190.81 726.55, 189.89 729.20, 189.14
 731.84, 188.55 734.49, 188.13 737.14, 187.88"/>
<line x1="737.14" y1="187.88" x2="739.79" y2="187.80"/>
</g>
<g fill="none" stroke="#000000" stroke-width="1.000">
<polyline points="
 684.89, 108.70 794.44, 108.70 794.44, 149.71 684.89, 149.71 684.89, 108.70"/>
</g>
<g fill="none" stroke="#ff0000" stroke-width="1.000">
<line x1="692.92" y1="121.89" x2="734.22" y2="121.89"/>
</g>
<g fill="none" stroke="#0000ff" stroke-width="1.000">
<line x1="692.92" y1="137.38" x2="734.22" y2="137.38"/>
</g>
<g font-family="Times" font-weight="normal" font-style="normal"
font-size="15" stroke="none" fill="#000000">
<text x="744.54" y="126.77">s</text>
<text x="751.47" y="126.77">i</text>
<text x="756.68" y="126.77">n</text>
<text x="765.21" y="126.77">(</text>
<text x="771.28" y="126.77">x</text>
<text x="779.81" y="126.77">)</text>
<text x="744.54" y="142.25">c</text>
<text x="752.22" y="142.25">o</text>
<text x="760.75" y="142.25">s</text>
<text x="767.67" y="142.25">(</text>
<text x="773.74" y="142.25">x</text>
<text x="782.27" y="142.25">)</text>
</g>
<g font-family="Times" font-weight="normal" font-style="normal"
font-size="17" stroke="none" fill="#000000">
<text x="402.38" y="74.28">S</text>
<text x="412.82" y="74.28">i</text>
<text x="418.61" y="74.28">n</text>
<text x="428.09" y="74.28">e</text>
<text x="436.61" y="74.28"> </text>
<text x="441.93" y="74.28">a</text>
<text x="450.45" y="74.28">n</text>
<text x="459.93" y="74.28">d</text>
<text x="469.41" y="74.28"> </text>
<text x="474.73" y="74.28">C</text>
<text x="487.06" y="74.28">o</text>
<text x="496.54" y="74.28">s</text>
<text x="504.23" y="74.28">i</text>
<text x="510.02" y="74.28">n</text>
<text x="519.50" y="74.28">e</text>
</g>
</svg>
