<?xml version="1.0" encoding="ISO-8859-1" standalone="no"?>
<!DOCTYPE svg PUBLIC "-//W3C//DTD SVG 20010904//EN"
  "http://www.w3.org/TR/2001/REC-SVG-20010904/DTD/svg10.dtd">
<!-- Created by DISLIN (http://www.dislin.de)
Version: 11.5
Date   : 26.06.2026 22:55:08
-->
<svg width="853" height="603"
  xmlns="http://www.w3.org/2000/svg"
  xmlns:xlink="http://www.w3.org/1999/xlink">

<g fill="none" stroke="#000000" stroke-width="1.000">
<rect x="157.74" y="63.38" width="694.78" height="382.16"
 fill="#f7f7f7" stroke="none"/>
</g>
<g fill="none" stroke="#000000" stroke-width="1.000">
<line x1="157.74" y1="444.55" x2="851.52" y2="444.55"/>
<line x1="157.74" y1="444.55" x2="157.74" y2="451.43"/>
<line x1="201.05" y1="449.13" x2="201.05" y2="444.55"/>
<line x1="244.36" y1="444.55" x2="244.36" y2="451.43"/>
<line x1="287.95" y1="449.13" x2="287.95" y2="444.55"/>
<line x1="331.26" y1="444.55" x2="331.26" y2="451.43"/>
<line x1="374.57" y1="449.13" x2="374.57" y2="444.55"/>
<line x1="417.87" y1="444.55" x2="417.87" y2="451.43"/>
<line x1="461.18" y1="449.13" x2="461.18" y2="444.55"/>
<line x1="504.77" y1="444.55" x2="504.77" y2="451.43"/>
<line x1="548.08" y1="449.13" x2="548.08" y2="444.55"/>
<line x1="591.39" y1="444.55" x2="591.39" y2="451.43"/>
<line x1="634.70" y1="449.13" x2="634.70" y2="444.55"/>
<line x1="678.00" y1="444.55" x2="678.00" y2="451.43"/>
<line x1="721.31" y1="449.13" x2="721.31" y2="444.55"/>
<line x1="764.90" y1="444.55" x2="764.90" y2="451.43"/>
<line x1="808.21" y1="449.13" x2="808.21" y2="444.55"/>
</g>
<g font-family="Times" font-weight="normal" font-style="normal"
font-size="15" stroke="none" fill="#000000">
<text x="144.26" y="468.35">-</text>
<text x="150.33" y="468.35">1</text>
<text x="158.86" y="468.35">.</text>
<text x="163.64" y="468.35">0</text>
<text x="234.03" y="468.35">0</text>
<text x="242.56" y="468.35">.</text>
<text x="247.34" y="468.35">0</text>
<text x="320.65" y="468.35">1</text>
<text x="329.18" y="468.35">.</text>
<text x="333.96" y="468.35">0</text>
<text x="407.55" y="468.35">2</text>
<text x="416.08" y="468.35">.</text>
<text x="420.86" y="468.35">0</text>
<text x="494.16" y="468.35">3</text>
<text x="502.69" y="468.35">.</text>
<text x="507.48" y="468.35">0</text>
<text x="580.78" y="468.35">4</text>
<text x="589.31" y="468.35">.</text>
<text x="594.09" y="468.35">0</text>
<text x="667.68" y="468.35">5</text>
<text x="676.21" y="468.35">.</text>
<text x="680.99" y="468.35">0</text>
<text x="754.29" y="468.35">6</text>
<text x="762.82" y="468.35">.</text>
<text x="767.61" y="468.35">0</text>
<text x="841.19" y="468.35">7</text>
<text x="849.73" y="468.35">.</text>
<text x="854.51" y="468.35">0</text>
</g>
<g font-family="Times" font-weight="normal" font-style="normal"
font-size="15" stroke="none" fill="#000000">
<text x="467.20" y="487.28">x</text>
<text x="475.73" y="487.28"> </text>
<text x="480.52" y="487.28">(</text>
<text x="486.58" y="487.28">r</text>
<text x="492.65" y="487.28">a</text>
<text x="500.33" y="487.28">d</text>
<text x="508.86" y="487.28">i</text>
<text x="514.07" y="487.28">a</text>
<text x="521.74" y="487.28">n</text>
<text x="530.27" y="487.28">s</text>
<text x="537.20" y="487.28">)</text>
</g>
<g fill="none" stroke="#000000" stroke-width="1.000">
<line x1="851.52" y1="444.55" x2="851.52" y2="451.43"/>
<line x1="157.74" y1="444.55" x2="157.74" y2="63.38"/>
<line x1="150.86" y1="444.55" x2="157.74" y2="444.55"/>
<line x1="157.74" y1="406.40" x2="153.15" y2="406.40"/>
<line x1="150.86" y1="368.26" x2="157.74" y2="368.26"/>
<line x1="157.74" y1="330.11" x2="153.15" y2="330.11"/>
<line x1="150.86" y1="291.97" x2="157.74" y2="291.97"/>
<line x1="157.74" y1="254.11" x2="153.15" y2="254.11"/>
<line x1="150.86" y1="215.96" x2="157.74" y2="215.96"/>
<line x1="157.74" y1="177.82" x2="153.15" y2="177.82"/>
<line x1="150.86" y1="139.67" x2="157.74" y2="139.67"/>
<line x1="157.74" y1="101.53" x2="153.15" y2="101.53"/>
</g>
<g font-family="Times" font-weight="normal" font-style="normal"
font-size="15" stroke="none" fill="#000000">
<text x="117.02" y="449.13">-</text>
<text x="123.08" y="449.13">1</text>
<text x="131.61" y="449.13">.</text>
<text x="136.40" y="449.13">0</text>
<text x="117.02" y="372.84">-</text>
<text x="123.08" y="372.84">0</text>
<text x="131.61" y="372.84">.</text>
<text x="136.40" y="372.84">5</text>
<text x="123.04" y="296.55">0</text>
<text x="131.57" y="296.55">.</text>
<text x="136.35" y="296.55">0</text>
<text x="123.04" y="220.55">0</text>
<text x="131.57" y="220.55">.</text>
<text x="136.35" y="220.55">5</text>
<text x="123.04" y="144.26">1</text>
<text x="131.57" y="144.26">.</text>
<text x="136.35" y="144.26">0</text>
<text x="123.04" y="67.97">1</text>
<text x="131.57" y="67.97">.</text>
<text x="136.35" y="67.97">5</text>
</g>
<g font-family="Times" font-weight="normal" font-style="normal"
font-size="15" stroke="none" fill="#000000">
<text x="108.12" y="290.24" rotate="-90">A</text>
<text x="108.12" y="278.29" rotate="-90">m</text>
<text x="108.12" y="265.58" rotate="-90">p</text>
<text x="108.12" y="257.04" rotate="-90">l</text>
<text x="108.12" y="251.83" rotate="-90">i</text>
<text x="108.12" y="246.62" rotate="-90">t</text>
<text x="108.12" y="241.41" rotate="-90">u</text>
<text x="108.12" y="232.88" rotate="-90">d</text>
<text x="108.12" y="224.35" rotate="-90">e</text>
</g>
<g fill="none" stroke="#000000" stroke-width="1.000">
<line x1="150.86" y1="63.38" x2="157.74" y2="63.38"/>
<line x1="157.74" y1="63.38" x2="851.52" y2="63.38"/>
<line x1="157.74" y1="63.38" x2="157.74" y2="56.50"/>
<line x1="201.05" y1="58.79" x2="201.05" y2="63.38"/>
<line x1="244.36" y1="63.38" x2="244.36" y2="56.50"/>
<line x1="287.95" y1="58.79" x2="287.95" y2="63.38"/>
<line x1="331.26" y1="63.38" x2="331.26" y2="56.50"/>
<line x1="374.57" y1="58.79" x2="374.57" y2="63.38"/>
<line x1="417.87" y1="63.38" x2="417.87" y2="56.50"/>
<line x1="461.18" y1="58.79" x2="461.18" y2="63.38"/>
<line x1="504.77" y1="63.38" x2="504.77" y2="56.50"/>
<line x1="548.08" y1="58.79" x2="548.08" y2="63.38"/>
<line x1="591.39" y1="63.38" x2="591.39" y2="56.50"/>
<line x1="634.70" y1="58.79" x2="634.70" y2="63.38"/>
<line x1="678.00" y1="63.38" x2="678.00" y2="56.50"/>
<line x1="721.31" y1="58.79" x2="721.31" y2="63.38"/>
<line x1="764.90" y1="63.38" x2="764.90" y2="56.50"/>
<line x1="808.21" y1="58.79" x2="808.21" y2="63.38"/>
<line x1="851.52" y1="63.38" x2="851.52" y2="56.50"/>
<line x1="851.52" y1="444.55" x2="851.52" y2="63.38"/>
<line x1="851.52" y1="444.55" x2="851.52" y2="444.55"/>
<line x1="851.52" y1="406.40" x2="851.52" y2="406.40"/>
<line x1="851.52" y1="368.26" x2="851.52" y2="368.26"/>
<line x1="851.52" y1="330.11" x2="851.52" y2="330.11"/>
<line x1="851.52" y1="291.97" x2="851.52" y2="291.97"/>
<line x1="851.52" y1="254.11" x2="851.52" y2="254.11"/>
<line x1="851.52" y1="215.96" x2="851.52" y2="215.96"/>
<line x1="851.52" y1="177.82" x2="851.52" y2="177.82"/>
<line x1="851.52" y1="139.67" x2="851.52" y2="139.67"/>
<line x1="851.52" y1="101.53" x2="851.52" y2="101.53"/>
<line x1="851.52" y1="63.38" x2="851.52" y2="63.38"/>
<polyline points="
 157.74, 63.38 851.52, 63.38 851.52, 444.55 157.74, 444.55 157.74, 63.38"/>
</g>
<g fill="none" stroke="#bfbfbf" stroke-width="1.000">
<line x1="244.36" y1="63.67" x2="244.36" y2="444.26"/>
<line x1="331.26" y1="444.26" x2="331.26" y2="63.67"/>
<line x1="417.87" y1="63.67" x2="417.87" y2="444.26"/>
<line x1="504.77" y1="444.26" x2="504.77" y2="63.67"/>
<line x1="591.39" y1="63.67" x2="591.39" y2="444.26"/>
<line x1="678.00" y1="444.26" x2="678.00" y2="63.67"/>
<line x1="764.90" y1="63.67" x2="764.90" y2="444.26"/>
<line x1="158.03" y1="368.26" x2="851.23" y2="368.26"/>
<line x1="851.23" y1="291.97" x2="158.03" y2="291.97"/>
<line x1="158.03" y1="215.96" x2="851.23" y2="215.96"/>
<line x1="851.23" y1="139.67" x2="158.03" y2="139.67"/>
</g>
<g fill="none" stroke="#ff0000" stroke-width="1.000">
<polyline points="
 244.46, 292.08 247.20, 287.27 249.94, 282.46 252.68, 277.66 255.42, 272.88
 258.15, 268.11 260.89, 263.37 263.63, 258.66 266.37, 253.98 269.11, 249.34
 271.85, 244.74 274.58, 240.19 277.32, 235.69 280.06, 231.24 282.80, 226.86
 285.54, 222.54 288.27, 218.29 291.01, 214.12 293.75, 210.02 296.49, 206.00
 299.23, 202.07 301.96, 198.23 304.70, 194.49 307.44, 190.84 310.18, 187.29
 312.92, 183.85 315.66, 180.51 318.39, 177.29 321.13, 174.18 323.87, 171.18
 326.61, 168.31 329.35, 165.56 332.08, 162.94 334.82, 160.45 337.56, 158.08
 340.30, 155.85 343.04, 153.76 345.78, 151.80 348.51, 149.99 351.25, 148.31
 353.99, 146.78 356.73, 145.40 359.47, 144.16 362.20, 143.07 364.94, 142.12
 367.68, 141.33 370.42, 140.68 373.16, 140.19 375.89, 139.85 378.63, 139.66
 381.37, 139.62 384.11, 139.73 386.85, 140.00 389.59, 140.42 392.32, 140.99
 395.06, 141.71 397.80, 142.57 400.54, 143.59 403.28, 144.76 406.01, 146.07
 408.75, 147.53 411.49, 149.13 414.23, 150.88 416.97, 152.76 419.71, 154.79
 422.44, 156.95 425.18, 159.25 427.92, 161.68 430.66, 164.23 433.40, 166.92
 436.13, 169.73 438.87, 172.66 441.61, 175.72 444.35, 178.88 447.09, 182.17
 449.82, 185.56 452.56, 189.05 455.30, 192.65 458.04, 196.35 460.78, 200.14
 463.52, 204.03 466.25, 208.00 468.99, 212.06 471.73, 216.20 474.47, 220.41
 477.21, 224.69 479.94, 229.04 482.68, 233.46 485.42, 237.93 488.16, 242.46
 490.90, 247.03 493.64, 251.65 496.37, 256.31 499.11, 261.01 501.85, 265.74
 504.59, 270.49 507.33, 275.27 510.06, 280.06 512.80, 284.86 515.54, 289.67"/>
<polyline points="
 515.54, 289.67 518.28, 294.49 521.02, 299.30 523.75, 304.10 526.49, 308.89
 529.23, 313.67 531.97, 318.42 534.71, 323.15 537.45, 327.85 540.18, 332.51
 542.92, 337.13 545.66, 341.71 548.40, 346.23 551.14, 350.70 553.87, 355.12
 556.61, 359.47 559.35, 363.75 562.09, 367.97 564.83, 372.10 567.57, 376.16
 570.30, 380.13 573.04, 384.02 575.78, 387.81 578.52, 391.51 581.26, 395.11
 583.99, 398.61 586.73, 402.00 589.47, 405.28 592.21, 408.44 594.95, 411.50
 597.68, 414.43 600.42, 417.24 603.16, 419.93 605.90, 422.48 608.64, 424.91
 611.38, 427.21 614.11, 429.37 616.85, 431.40 619.59, 433.28 622.33, 435.03
 625.07, 436.63 627.80, 438.09 630.54, 439.40 633.28, 440.57 636.02, 441.59
 638.76, 442.46 641.50, 443.17 644.23, 443.74 646.97, 444.16 647.98, 444.26"/>
<polyline points="
 658.36, 444.26 660.66, 443.97 663.40, 443.48 666.14, 442.83 668.88, 442.04
 671.61, 441.10 674.35, 440.00 677.09, 438.76 679.83, 437.38 682.57, 435.85
 685.31, 434.17 688.04, 432.36 690.78, 430.40 693.52, 428.31 696.26, 426.08
 699.00, 423.72 701.73, 421.22 704.47, 418.60 707.21, 415.85 709.95, 412.98
 712.69, 409.98 715.43, 406.87 718.16, 403.65 720.90, 400.31 723.64, 396.87
 726.38, 393.32 729.12, 389.67 731.85, 385.93 734.59, 382.09 737.33, 378.16
 740.07, 374.14 742.81, 370.04 745.54, 365.87 748.28, 361.62 751.02, 357.30
 753.76, 352.92 756.50, 348.47 759.24, 343.97 761.97, 339.42 764.71, 334.82
 767.45, 330.18 770.19, 325.50 772.93, 320.79 775.66, 316.05 778.40, 311.28
 781.14, 306.50 783.88, 301.70 786.62, 296.89"/>
<line x1="786.62" y1="296.89" x2="789.36" y2="292.08"/>
</g>
<g fill="none" stroke="#0000ff" stroke-width="1.000">
<polyline points="
 244.46, 139.62 247.20, 139.69 249.94, 139.92 252.68, 140.30 255.42, 140.83
 258.15, 141.51 260.89, 142.34 263.63, 143.32 266.37, 144.45 269.11, 145.73
 271.85, 147.15 274.58, 148.72 277.32, 150.43 280.06, 152.28 282.80, 154.27
 285.54, 156.40 288.27, 158.66 291.01, 161.06 293.75, 163.58 296.49, 166.24
 299.23, 169.02 301.96, 171.92 304.70, 174.94 307.44, 178.08 310.18, 181.33
 312.92, 184.70 315.66, 188.17 318.39, 191.74 321.13, 195.42 323.87, 199.19
 326.61, 203.05 329.35, 207.00 332.08, 211.04 334.82, 215.15 337.56, 219.35
 340.30, 223.61 343.04, 227.95 345.78, 232.35 348.51, 236.81 351.25, 241.32
 353.99, 245.88 356.73, 250.49 359.47, 255.14 362.20, 259.83 364.94, 264.55
 367.68, 269.30 370.42, 274.07 373.16, 278.86 375.89, 283.66 378.63, 288.47
 381.37, 293.28 384.11, 298.10 386.85, 302.90 389.59, 307.70 392.32, 312.48
 395.06, 317.24 397.80, 321.97 400.54, 326.68 403.28, 331.35 406.01, 335.98
 408.75, 340.57 411.49, 345.10 414.23, 349.59 416.97, 354.02 419.71, 358.39
 422.44, 362.69 425.18, 366.92 427.92, 371.07 430.66, 375.15 433.40, 379.15
 436.13, 383.05 438.87, 386.87 441.61, 390.59 444.35, 394.22 447.09, 397.74
 449.82, 401.16 452.56, 404.47 455.30, 407.66 458.04, 410.74 460.78, 413.71
 463.52, 416.55 466.25, 419.27 468.99, 421.86 471.73, 424.32 474.47, 426.65
 477.21, 428.84 479.94, 430.90 482.68, 432.82 485.42, 434.60 488.16, 436.24
 490.90, 437.74 493.64, 439.09 496.37, 440.29 499.11, 441.35 501.85, 442.25
 504.59, 443.01 507.33, 443.62 510.06, 444.07 511.76, 444.26"/>
<polyline points="
 522.06, 444.26 523.75, 444.07 526.49, 443.62 529.23, 443.01 531.97, 442.25
 534.71, 441.35 537.45, 440.29 540.18, 439.09 542.92, 437.74 545.66, 436.24
 548.40, 434.60 551.14, 432.82 553.87, 430.90 556.61, 428.84 559.35, 426.65
 562.09, 424.32 564.83, 421.86 567.57, 419.27 570.30, 416.55 573.04, 413.71
 575.78, 410.74 578.52, 407.66 581.26, 404.47 583.99, 401.16 586.73, 397.74
 589.47, 394.22 592.21, 390.59 594.95, 386.87 597.68, 383.05 600.42, 379.15
 603.16, 375.15 605.90, 371.07 608.64, 366.92 611.38, 362.69 614.11, 358.39
 616.85, 354.02 619.59, 349.59 622.33, 345.10 625.07, 340.57 627.80, 335.98
 630.54, 331.35 633.28, 326.68 636.02, 321.97 638.76, 317.24 641.50, 312.48
 644.23, 307.70 646.97, 302.90 649.71, 298.10 652.45, 293.28 655.19, 288.47
 657.92, 283.66 660.66, 278.86 663.40, 274.07 666.14, 269.30 668.88, 264.55
 671.61, 259.83 674.35, 255.14 677.09, 250.49 679.83, 245.88 682.57, 241.32
 685.31, 236.81 688.04, 232.35 690.78, 227.95 693.52, 223.61 696.26, 219.35
 699.00, 215.15 701.73, 211.04 704.47, 207.00 707.21, 203.05 709.95, 199.19
 712.69, 195.42 715.43, 191.74 718.16, 188.17 720.90, 184.70 723.64, 181.33
 726.38, 178.08 729.12, 174.94 731.85, 171.92 734.59, 169.02 737.33, 166.24
 740.07, 163.58 742.81, 161.06 745.54, 158.66 748.28, 156.40 751.02, 154.27
 753.76, 152.28 756.50, 150.43 759.24, 148.72 761.97, 147.15 764.71, 145.73
 767.45, 144.45 770.19, 143.32 772.93, 142.34 775.66, 141.51 778.40, 140.83
 781.14, 140.30 783.88, 139.92 786.62, 139.69"/>
<line x1="786.62" y1="139.69" x2="789.36" y2="139.62"/>
</g>
<g fill="none" stroke="#000000" stroke-width="1.000">
<polyline points="
 736.51, 68.55 846.07, 68.55 846.07, 109.56 736.51, 109.56 736.51, 68.55"/>
</g>
<g fill="none" stroke="#ff0000" stroke-width="1.000">
<line x1="744.54" y1="81.74" x2="785.84" y2="81.74"/>
</g>
<g fill="none" stroke="#0000ff" stroke-width="1.000">
<line x1="744.54" y1="97.23" x2="785.84" y2="97.23"/>
</g>
<g font-family="Times" font-weight="normal" font-style="normal"
font-size="15" stroke="none" fill="#000000">
<text x="796.17" y="86.61">s</text>
<text x="803.09" y="86.61">i</text>
<text x="808.30" y="86.61">n</text>
<text x="816.83" y="86.61">(</text>
<text x="822.90" y="86.61">x</text>
<text x="831.43" y="86.61">)</text>
<text x="796.17" y="102.10">c</text>
<text x="803.84" y="102.10">o</text>
<text x="812.37" y="102.10">s</text>
<text x="819.30" y="102.10">(</text>
<text x="825.36" y="102.10">x</text>
<text x="833.90" y="102.10">)</text>
</g>
<g font-family="Times" font-weight="normal" font-style="normal"
font-size="17" stroke="none" fill="#000000">
<text x="442.54" y="34.13">S</text>
<text x="452.97" y="34.13">i</text>
<text x="458.76" y="34.13">n</text>
<text x="468.24" y="34.13">e</text>
<text x="476.77" y="34.13"> </text>
<text x="482.08" y="34.13">a</text>
<text x="490.61" y="34.13">n</text>
<text x="500.09" y="34.13">d</text>
<text x="509.56" y="34.13"> </text>
<text x="514.88" y="34.13">C</text>
<text x="527.21" y="34.13">o</text>
<text x="536.69" y="34.13">s</text>
<text x="544.39" y="34.13">i</text>
<text x="550.18" y="34.13">n</text>
<text x="559.66" y="34.13">e</text>
</g>
</svg>
