<?xml version="1.0" encoding="ISO-8859-1" standalone="no"?>
<!DOCTYPE svg PUBLIC "-//W3C//DTD SVG 20010904//EN"
  "http://www.w3.org/TR/2001/REC-SVG-20010904/DTD/svg10.dtd">
<!-- Created by DISLIN (http://www.dislin.de)
Version: 11.5
Date   : 28.06.2026 05:35:13
-->
<svg width="853" height="603"
  xmlns="http://www.w3.org/2000/svg"
  xmlns:xlink="http://www.w3.org/1999/xlink">

<g fill="none" stroke="#000000" stroke-width="1.000">
<rect x="129.06" y="103.54" width="671.83" height="422.31"
 fill="#f7f7f7" stroke="none"/>
</g>
<g fill="none" stroke="#000000" stroke-width="1.000">
<line x1="129.06" y1="524.85" x2="799.89" y2="524.85"/>
<line x1="129.06" y1="531.73" x2="129.06" y2="524.85"/>
<line x1="176.96" y1="524.85" x2="176.96" y2="529.44"/>
<line x1="224.85" y1="531.73" x2="224.85" y2="524.85"/>
<line x1="272.75" y1="524.85" x2="272.75" y2="529.44"/>
<line x1="320.65" y1="531.73" x2="320.65" y2="524.85"/>
<line x1="368.54" y1="524.85" x2="368.54" y2="529.44"/>
<line x1="416.44" y1="531.73" x2="416.44" y2="524.85"/>
<line x1="464.62" y1="524.85" x2="464.62" y2="529.44"/>
<line x1="512.52" y1="531.73" x2="512.52" y2="524.85"/>
<line x1="560.41" y1="524.85" x2="560.41" y2="529.44"/>
<line x1="608.31" y1="531.73" x2="608.31" y2="524.85"/>
<line x1="656.21" y1="524.85" x2="656.21" y2="529.44"/>
<line x1="704.10" y1="531.73" x2="704.10" y2="524.85"/>
<line x1="752.00" y1="524.85" x2="752.00" y2="529.44"/>
</g>
<g font-family="Times" font-weight="normal" font-style="normal"
font-size="15" stroke="none" fill="#000000">
<text x="115.58" y="548.65">-</text>
<text x="121.65" y="548.65">2</text>
<text x="130.18" y="548.65">.</text>
<text x="134.96" y="548.65">0</text>
<text x="214.53" y="548.65">0</text>
<text x="223.06" y="548.65">.</text>
<text x="227.84" y="548.65">0</text>
<text x="310.32" y="548.65">2</text>
<text x="318.85" y="548.65">.</text>
<text x="323.63" y="548.65">0</text>
<text x="406.11" y="548.65">4</text>
<text x="414.64" y="548.65">.</text>
<text x="419.43" y="548.65">0</text>
<text x="501.91" y="548.65">6</text>
<text x="510.44" y="548.65">.</text>
<text x="515.22" y="548.65">0</text>
<text x="597.70" y="548.65">8</text>
<text x="606.23" y="548.65">.</text>
<text x="611.01" y="548.65">0</text>
<text x="689.47" y="548.65">1</text>
<text x="698.01" y="548.65">0</text>
<text x="706.54" y="548.65">.</text>
<text x="711.32" y="548.65">0</text>
<text x="785.27" y="548.65">1</text>
<text x="793.80" y="548.65">2</text>
<text x="802.33" y="548.65">.</text>
<text x="807.11" y="548.65">0</text>
</g>
<g font-family="Times" font-weight="normal" font-style="normal"
font-size="15" stroke="none" fill="#000000">
<text x="447.13" y="567.58">T</text>
<text x="457.37" y="567.58">i</text>
<text x="462.58" y="567.58">m</text>
<text x="475.29" y="567.58">e</text>
</g>
<g fill="none" stroke="#000000" stroke-width="1.000">
<line x1="799.89" y1="531.73" x2="799.89" y2="524.85"/>
<line x1="129.06" y1="524.85" x2="129.06" y2="103.54"/>
<line x1="129.06" y1="524.85" x2="122.18" y2="524.85"/>
<line x1="124.47" y1="494.74" x2="129.06" y2="494.74"/>
<line x1="129.06" y1="464.62" x2="122.18" y2="464.62"/>
<line x1="124.47" y1="434.51" x2="129.06" y2="434.51"/>
<line x1="129.06" y1="404.39" x2="122.18" y2="404.39"/>
<line x1="124.47" y1="374.28" x2="129.06" y2="374.28"/>
<line x1="129.06" y1="344.16" x2="122.18" y2="344.16"/>
<line x1="124.47" y1="314.34" x2="129.06" y2="314.34"/>
<line x1="129.06" y1="284.22" x2="122.18" y2="284.22"/>
<line x1="124.47" y1="254.11" x2="129.06" y2="254.11"/>
<line x1="129.06" y1="223.99" x2="122.18" y2="223.99"/>
<line x1="124.47" y1="193.88" x2="129.06" y2="193.88"/>
<line x1="129.06" y1="163.76" x2="122.18" y2="163.76"/>
<line x1="124.47" y1="133.65" x2="129.06" y2="133.65"/>
</g>
<g font-family="Times" font-weight="normal" font-style="normal"
font-size="15" stroke="none" fill="#000000">
<text x="94.36" y="529.44">0</text>
<text x="102.89" y="529.44">.</text>
<text x="107.67" y="529.44">0</text>
<text x="94.36" y="469.21">1</text>
<text x="102.89" y="469.21">.</text>
<text x="107.67" y="469.21">0</text>
<text x="94.36" y="408.98">2</text>
<text x="102.89" y="408.98">.</text>
<text x="107.67" y="408.98">0</text>
<text x="94.36" y="348.75">3</text>
<text x="102.89" y="348.75">.</text>
<text x="107.67" y="348.75">0</text>
<text x="94.36" y="288.81">4</text>
<text x="102.89" y="288.81">.</text>
<text x="107.67" y="288.81">0</text>
<text x="94.36" y="228.58">5</text>
<text x="102.89" y="228.58">.</text>
<text x="107.67" y="228.58">0</text>
<text x="94.36" y="168.35">6</text>
<text x="102.89" y="168.35">.</text>
<text x="107.67" y="168.35">0</text>
<text x="94.36" y="108.12">7</text>
<text x="102.89" y="108.12">.</text>
<text x="107.67" y="108.12">0</text>
</g>
<g font-family="Times" font-weight="normal" font-style="normal"
font-size="15" stroke="none" fill="#000000">
<text x="85.47" y="335.85" rotate="-90">S</text>
<text x="85.47" y="326.46" rotate="-90">i</text>
<text x="85.47" y="321.25" rotate="-90">g</text>
<text x="85.47" y="312.72" rotate="-90">n</text>
<text x="85.47" y="304.18" rotate="-90">a</text>
<text x="85.47" y="296.51" rotate="-90">l</text>
</g>
<g fill="none" stroke="#000000" stroke-width="1.000">
<line x1="129.06" y1="103.54" x2="122.18" y2="103.54"/>
<line x1="129.06" y1="103.54" x2="799.89" y2="103.54"/>
<line x1="129.06" y1="96.65" x2="129.06" y2="103.54"/>
<line x1="176.96" y1="103.54" x2="176.96" y2="98.95"/>
<line x1="224.85" y1="96.65" x2="224.85" y2="103.54"/>
<line x1="272.75" y1="103.54" x2="272.75" y2="98.95"/>
<line x1="320.65" y1="96.65" x2="320.65" y2="103.54"/>
<line x1="368.54" y1="103.54" x2="368.54" y2="98.95"/>
<line x1="416.44" y1="96.65" x2="416.44" y2="103.54"/>
<line x1="464.62" y1="103.54" x2="464.62" y2="98.95"/>
<line x1="512.52" y1="96.65" x2="512.52" y2="103.54"/>
<line x1="560.41" y1="103.54" x2="560.41" y2="98.95"/>
<line x1="608.31" y1="96.65" x2="608.31" y2="103.54"/>
<line x1="656.21" y1="103.54" x2="656.21" y2="98.95"/>
<line x1="704.10" y1="96.65" x2="704.10" y2="103.54"/>
<line x1="752.00" y1="103.54" x2="752.00" y2="98.95"/>
<line x1="799.89" y1="96.65" x2="799.89" y2="103.54"/>
<line x1="799.89" y1="524.85" x2="799.89" y2="103.54"/>
<line x1="799.89" y1="524.85" x2="806.78" y2="524.85"/>
<line x1="804.48" y1="494.74" x2="799.89" y2="494.74"/>
<line x1="799.89" y1="464.62" x2="806.78" y2="464.62"/>
<line x1="804.48" y1="434.51" x2="799.89" y2="434.51"/>
<line x1="799.89" y1="404.39" x2="806.78" y2="404.39"/>
<line x1="804.48" y1="374.28" x2="799.89" y2="374.28"/>
<line x1="799.89" y1="344.16" x2="806.78" y2="344.16"/>
<line x1="804.48" y1="314.34" x2="799.89" y2="314.34"/>
<line x1="799.89" y1="284.22" x2="806.78" y2="284.22"/>
<line x1="804.48" y1="254.11" x2="799.89" y2="254.11"/>
<line x1="799.89" y1="223.99" x2="806.78" y2="223.99"/>
<line x1="804.48" y1="193.88" x2="799.89" y2="193.88"/>
<line x1="799.89" y1="163.76" x2="806.78" y2="163.76"/>
<line x1="804.48" y1="133.65" x2="799.89" y2="133.65"/>
<line x1="799.89" y1="103.54" x2="806.78" y2="103.54"/>
</g>
<g fill="none" stroke="#bfbfbf" stroke-width="1.000">
<line x1="224.85" y1="524.56" x2="224.85" y2="103.82"/>
<line x1="320.65" y1="103.82" x2="320.65" y2="524.56"/>
<line x1="416.44" y1="524.56" x2="416.44" y2="103.82"/>
<line x1="512.52" y1="103.82" x2="512.52" y2="524.56"/>
<line x1="608.31" y1="524.56" x2="608.31" y2="103.82"/>
<line x1="704.10" y1="103.82" x2="704.10" y2="524.56"/>
<line x1="129.35" y1="464.62" x2="799.61" y2="464.62"/>
<line x1="799.61" y1="404.39" x2="129.35" y2="404.39"/>
<line x1="129.35" y1="344.16" x2="799.61" y2="344.16"/>
<line x1="799.61" y1="284.22" x2="129.35" y2="284.22"/>
<line x1="129.35" y1="223.99" x2="799.61" y2="223.99"/>
<line x1="799.61" y1="163.76" x2="129.35" y2="163.76"/>
</g>
<g fill="none" stroke="#0000ff" stroke-width="1.000">
<polygon fill="#0000ff" points="
 231.18, 482.40 231.18, 481.24 230.27, 478.92 228.34, 476.98 226.02, 476.08
 223.69, 476.08 221.37, 476.98 219.43, 478.92 218.53, 481.24 218.53, 482.40
 218.53, 483.56 219.43, 485.89 221.37, 487.82 223.69, 488.73 226.02, 488.73
 228.34, 487.82 230.27, 485.89 231.18, 483.56 231.18, 481.24"/>
<polyline points="
 231.18, 482.40 231.18, 481.24 230.27, 478.92 228.34, 476.98 226.02, 476.08
 223.69, 476.08 221.37, 476.98 219.43, 478.92 218.53, 481.24 218.53, 482.40
 218.53, 483.56 219.43, 485.89 221.37, 487.82 223.69, 488.73 226.02, 488.73
 228.34, 487.82 230.27, 485.89 231.18, 483.56 231.18, 481.24"/>
<polygon fill="#0000ff" points="
 247.81, 446.84 247.81, 445.68 246.91, 443.35 244.97, 441.42 242.65, 440.52
 240.33, 440.52 238.00, 441.42 236.07, 443.35 235.16, 445.68 235.16, 446.84
 235.16, 448.00 236.07, 450.32 238.00, 452.26 240.33, 453.16 242.65, 453.16
 244.97, 452.26 246.91, 450.32 247.81, 448.00 247.81, 445.68"/>
<polyline points="
 247.81, 446.84 247.81, 445.68 246.91, 443.35 244.97, 441.42 242.65, 440.52
 240.33, 440.52 238.00, 441.42 236.07, 443.35 235.16, 445.68 235.16, 446.84
 235.16, 448.00 236.07, 450.32 238.00, 452.26 240.33, 453.16 242.65, 453.16
 244.97, 452.26 246.91, 450.32 247.81, 448.00 247.81, 445.68"/>
<polygon fill="#0000ff" points="
 264.16, 439.67 264.16, 438.51 263.26, 436.18 261.32, 434.25 259.00, 433.35
 256.67, 433.35 254.35, 434.25 252.42, 436.18 251.51, 438.51 251.51, 439.67
 251.51, 440.83 252.42, 443.15 254.35, 445.09 256.67, 445.99 259.00, 445.99
 261.32, 445.09 263.26, 443.15 264.16, 440.83 264.16, 438.51"/>
<polyline points="
 264.16, 439.67 264.16, 438.51 263.26, 436.18 261.32, 434.25 259.00, 433.35
 256.67, 433.35 254.35, 434.25 252.42, 436.18 251.51, 438.51 251.51, 439.67
 251.51, 440.83 252.42, 443.15 254.35, 445.09 256.67, 445.99 259.00, 445.99
 261.32, 445.09 263.26, 443.15 264.16, 440.83 264.16, 438.51"/>
<polygon fill="#0000ff" points="
 280.79, 423.61 280.79, 422.45 279.89, 420.12 277.96, 418.19 275.63, 417.28
 273.31, 417.28 270.99, 418.19 269.05, 420.12 268.15, 422.45 268.15, 423.61
 268.15, 424.77 269.05, 427.09 270.99, 429.03 273.31, 429.93 275.63, 429.93
 277.96, 429.03 279.89, 427.09 280.79, 424.77 280.79, 422.45"/>
<polyline points="
 280.79, 423.61 280.79, 422.45 279.89, 420.12 277.96, 418.19 275.63, 417.28
 273.31, 417.28 270.99, 418.19 269.05, 420.12 268.15, 422.45 268.15, 423.61
 268.15, 424.77 269.05, 427.09 270.99, 429.03 273.31, 429.93 275.63, 429.93
 277.96, 429.03 279.89, 427.09 280.79, 424.77 280.79, 422.45"/>
<polygon fill="#0000ff" points="
 297.43, 425.62 297.43, 424.45 296.53, 422.13 294.59, 420.20 292.27, 419.29
 289.94, 419.29 287.62, 420.20 285.68, 422.13 284.78, 424.45 284.78, 425.62
 284.78, 426.78 285.68, 429.10 287.62, 431.04 289.94, 431.94 292.27, 431.94
 294.59, 431.04 296.53, 429.10 297.43, 426.78 297.43, 424.45"/>
<polyline points="
 297.43, 425.62 297.43, 424.45 296.53, 422.13 294.59, 420.20 292.27, 419.29
 289.94, 419.29 287.62, 420.20 285.68, 422.13 284.78, 424.45 284.78, 425.62
 284.78, 426.78 285.68, 429.10 287.62, 431.04 289.94, 431.94 292.27, 431.94
 294.59, 431.04 296.53, 429.10 297.43, 426.78 297.43, 424.45"/>
<polygon fill="#0000ff" points="
 313.78, 422.75 313.78, 421.59 312.87, 419.26 310.94, 417.33 308.61, 416.42
 306.29, 416.42 303.97, 417.33 302.03, 419.26 301.13, 421.59 301.13, 422.75
 301.13, 423.91 302.03, 426.23 303.97, 428.17 306.29, 429.07 308.61, 429.07
 310.94, 428.17 312.87, 426.23 313.78, 423.91 313.78, 421.59"/>
<polyline points="
 313.78, 422.75 313.78, 421.59 312.87, 419.26 310.94, 417.33 308.61, 416.42
 306.29, 416.42 303.97, 417.33 302.03, 419.26 301.13, 421.59 301.13, 422.75
 301.13, 423.91 302.03, 426.23 303.97, 428.17 306.29, 429.07 308.61, 429.07
 310.94, 428.17 312.87, 426.23 313.78, 423.91 313.78, 421.59"/>
<polygon fill="#0000ff" points="
 330.41, 396.65 330.41, 395.49 329.51, 393.16 327.57, 391.23 325.25, 390.32
 322.93, 390.32 320.60, 391.23 318.67, 393.16 317.76, 395.49 317.76, 396.65
 317.76, 397.81 318.67, 400.13 320.60, 402.07 322.93, 402.97 325.25, 402.97
 327.57, 402.07 329.51, 400.13 330.41, 397.81 330.41, 395.49"/>
<polyline points="
 330.41, 396.65 330.41, 395.49 329.51, 393.16 327.57, 391.23 325.25, 390.32
 322.93, 390.32 320.60, 391.23 318.67, 393.16 317.76, 395.49 317.76, 396.65
 317.76, 397.81 318.67, 400.13 320.60, 402.07 322.93, 402.97 325.25, 402.97
 327.57, 402.07 329.51, 400.13 330.41, 397.81 330.41, 395.49"/>
<polygon fill="#0000ff" points="
 346.76, 404.97 346.76, 403.80 345.86, 401.48 343.92, 399.55 341.60, 398.64
 339.27, 398.64 336.95, 399.55 335.01, 401.48 334.11, 403.80 334.11, 404.97
 334.11, 406.13 335.01, 408.45 336.95, 410.39 339.27, 411.29 341.60, 411.29
 343.92, 410.39 345.86, 408.45 346.76, 406.13 346.76, 403.80"/>
<polyline points="
 346.76, 404.97 346.76, 403.80 345.86, 401.48 343.92, 399.55 341.60, 398.64
 339.27, 398.64 336.95, 399.55 335.01, 401.48 334.11, 403.80 334.11, 404.97
 334.11, 406.13 335.01, 408.45 336.95, 410.39 339.27, 411.29 341.60, 411.29
 343.92, 410.39 345.86, 408.45 346.76, 406.13 346.76, 403.80"/>
<polygon fill="#0000ff" points="
 363.39, 392.35 363.39, 391.19 362.49, 388.86 360.55, 386.93 358.23, 386.02
 355.91, 386.02 353.59, 386.93 351.65, 388.86 350.75, 391.19 350.75, 392.35
 350.75, 393.51 351.65, 395.83 353.59, 397.77 355.91, 398.67 358.23, 398.67
 360.55, 397.77 362.49, 395.83 363.39, 393.51 363.39, 391.19"/>
<polyline points="
 363.39, 392.35 363.39, 391.19 362.49, 388.86 360.55, 386.93 358.23, 386.02
 355.91, 386.02 353.59, 386.93 351.65, 388.86 350.75, 391.19 350.75, 392.35
 350.75, 393.51 351.65, 395.83 353.59, 397.77 355.91, 398.67 358.23, 398.67
 360.55, 397.77 362.49, 395.83 363.39, 393.51 363.39, 391.19"/>
<polygon fill="#0000ff" points="
 380.03, 376.29 380.03, 375.12 379.13, 372.80 377.19, 370.87 374.87, 369.96
 372.54, 369.96 370.22, 370.87 368.28, 372.80 367.38, 375.12 367.38, 376.29
 367.38, 377.45 368.28, 379.77 370.22, 381.71 372.54, 382.61 374.87, 382.61
 377.19, 381.71 379.13, 379.77 380.03, 377.45 380.03, 375.12"/>
<polyline points="
 380.03, 376.29 380.03, 375.12 379.13, 372.80 377.19, 370.87 374.87, 369.96
 372.54, 369.96 370.22, 370.87 368.28, 372.80 367.38, 375.12 367.38, 376.29
 367.38, 377.45 368.28, 379.77 370.22, 381.71 372.54, 382.61 374.87, 382.61
 377.19, 381.71 379.13, 379.77 380.03, 377.45 380.03, 375.12"/>
<polygon fill="#0000ff" points="
 396.38, 352.48 396.38, 351.32 395.47, 349.00 393.54, 347.06 391.21, 346.16
 388.89, 346.16 386.57, 347.06 384.63, 349.00 383.73, 351.32 383.73, 352.48
 383.73, 353.64 384.63, 355.97 386.57, 357.90 388.89, 358.81 391.21, 358.81
 393.54, 357.90 395.47, 355.97 396.38, 353.64 396.38, 351.32"/>
<polyline points="
 396.38, 352.48 396.38, 351.32 395.47, 349.00 393.54, 347.06 391.21, 346.16
 388.89, 346.16 386.57, 347.06 384.63, 349.00 383.73, 351.32 383.73, 352.48
 383.73, 353.64 384.63, 355.97 386.57, 357.90 388.89, 358.81 391.21, 358.81
 393.54, 357.90 395.47, 355.97 396.38, 353.64 396.38, 351.32"/>
<polygon fill="#0000ff" points="
 413.01, 332.69 413.01, 331.53 412.11, 329.21 410.17, 327.27 407.85, 326.37
 405.53, 326.37 403.20, 327.27 401.27, 329.21 400.36, 331.53 400.36, 332.69
 400.36, 333.85 401.27, 336.18 403.20, 338.11 405.53, 339.02 407.85, 339.02
 410.17, 338.11 412.11, 336.18 413.01, 333.85 413.01, 331.53"/>
<polyline points="
 413.01, 332.69 413.01, 331.53 412.11, 329.21 410.17, 327.27 407.85, 326.37
 405.53, 326.37 403.20, 327.27 401.27, 329.21 400.36, 331.53 400.36, 332.69
 400.36, 333.85 401.27, 336.18 403.20, 338.11 405.53, 339.02 407.85, 339.02
 410.17, 338.11 412.11, 336.18 413.01, 333.85 413.01, 331.53"/>
<polygon fill="#0000ff" points="
 429.36, 324.95 429.36, 323.79 428.46, 321.46 426.52, 319.53 424.20, 318.62
 421.87, 318.62 419.55, 319.53 417.61, 321.46 416.71, 323.79 416.71, 324.95
 416.71, 326.11 417.61, 328.43 419.55, 330.37 421.87, 331.27 424.20, 331.27
 426.52, 330.37 428.46, 328.43 429.36, 326.11 429.36, 323.79"/>
<polyline points="
 429.36, 324.95 429.36, 323.79 428.46, 321.46 426.52, 319.53 424.20, 318.62
 421.87, 318.62 419.55, 319.53 417.61, 321.46 416.71, 323.79 416.71, 324.95
 416.71, 326.11 417.61, 328.43 419.55, 330.37 421.87, 331.27 424.20, 331.27
 426.52, 330.37 428.46, 328.43 429.36, 326.11 429.36, 323.79"/>
<polygon fill="#0000ff" points="
 445.99, 311.76 445.99, 310.59 445.09, 308.27 443.15, 306.33 440.83, 305.43
 438.51, 305.43 436.18, 306.33 434.25, 308.27 433.35, 310.59 433.35, 311.76
 433.35, 312.92 434.25, 315.24 436.18, 317.18 438.51, 318.08 440.83, 318.08
 443.15, 317.18 445.09, 315.24 445.99, 312.92 445.99, 310.59"/>
<polyline points="
 445.99, 311.76 445.99, 310.59 445.09, 308.27 443.15, 306.33 440.83, 305.43
 438.51, 305.43 436.18, 306.33 434.25, 308.27 433.35, 310.59 433.35, 311.76
 433.35, 312.92 434.25, 315.24 436.18, 317.18 438.51, 318.08 440.83, 318.08
 443.15, 317.18 445.09, 315.24 445.99, 312.92 445.99, 310.59"/>
<polygon fill="#0000ff" points="
 462.63, 313.19 462.63, 312.03 461.72, 309.70 459.79, 307.77 457.47, 306.87
 455.14, 306.87 452.82, 307.77 450.88, 309.70 449.98, 312.03 449.98, 313.19
 449.98, 314.35 450.88, 316.67 452.82, 318.61 455.14, 319.51 457.47, 319.51
 459.79, 318.61 461.72, 316.67 462.63, 314.35 462.63, 312.03"/>
<polyline points="
 462.63, 313.19 462.63, 312.03 461.72, 309.70 459.79, 307.77 457.47, 306.87
 455.14, 306.87 452.82, 307.77 450.88, 309.70 449.98, 312.03 449.98, 313.19
 449.98, 314.35 450.88, 316.67 452.82, 318.61 455.14, 319.51 457.47, 319.51
 459.79, 318.61 461.72, 316.67 462.63, 314.35 462.63, 312.03"/>
<polygon fill="#0000ff" points="
 478.98, 295.69 478.98, 294.53 478.07, 292.21 476.14, 290.27 473.81, 289.37
 471.49, 289.37 469.17, 290.27 467.23, 292.21 466.33, 294.53 466.33, 295.69
 466.33, 296.86 467.23, 299.18 469.17, 301.11 471.49, 302.02 473.81, 302.02
 476.14, 301.11 478.07, 299.18 478.98, 296.86 478.98, 294.53"/>
<polyline points="
 478.98, 295.69 478.98, 294.53 478.07, 292.21 476.14, 290.27 473.81, 289.37
 471.49, 289.37 469.17, 290.27 467.23, 292.21 466.33, 294.53 466.33, 295.69
 466.33, 296.86 467.23, 299.18 469.17, 301.11 471.49, 302.02 473.81, 302.02
 476.14, 301.11 478.07, 299.18 478.98, 296.86 478.98, 294.53"/>
<polygon fill="#0000ff" points="
 495.61, 306.02 495.61, 304.86 494.71, 302.53 492.77, 300.60 490.45, 299.70
 488.12, 299.70 485.80, 300.60 483.87, 302.53 482.96, 304.86 482.96, 306.02
 482.96, 307.18 483.87, 309.50 485.80, 311.44 488.12, 312.34 490.45, 312.34
 492.77, 311.44 494.71, 309.50 495.61, 307.18 495.61, 304.86"/>
<polyline points="
 495.61, 306.02 495.61, 304.86 494.71, 302.53 492.77, 300.60 490.45, 299.70
 488.12, 299.70 485.80, 300.60 483.87, 302.53 482.96, 304.86 482.96, 306.02
 482.96, 307.18 483.87, 309.50 485.80, 311.44 488.12, 312.34 490.45, 312.34
 492.77, 311.44 494.71, 309.50 495.61, 307.18 495.61, 304.86"/>
<polygon fill="#0000ff" points="
 512.24, 289.38 512.24, 288.22 511.34, 285.90 509.41, 283.96 507.08, 283.06
 504.76, 283.06 502.44, 283.96 500.50, 285.90 499.60, 288.22 499.60, 289.38
 499.60, 290.55 500.50, 292.87 502.44, 294.81 504.76, 295.71 507.08, 295.71
 509.41, 294.81 511.34, 292.87 512.24, 290.55 512.24, 288.22"/>
<polyline points="
 512.24, 289.38 512.24, 288.22 511.34, 285.90 509.41, 283.96 507.08, 283.06
 504.76, 283.06 502.44, 283.96 500.50, 285.90 499.60, 288.22 499.60, 289.38
 499.60, 290.55 500.50, 292.87 502.44, 294.81 504.76, 295.71 507.08, 295.71
 509.41, 294.81 511.34, 292.87 512.24, 290.55 512.24, 288.22"/>
<polygon fill="#0000ff" points="
 528.59, 273.32 528.59, 272.16 527.69, 269.84 525.75, 267.90 523.43, 267.00
 521.11, 267.00 518.78, 267.90 516.85, 269.84 515.94, 272.16 515.94, 273.32
 515.94, 274.49 516.85, 276.81 518.78, 278.74 521.11, 279.65 523.43, 279.65
 525.75, 278.74 527.69, 276.81 528.59, 274.49 528.59, 272.16"/>
<polyline points="
 528.59, 273.32 528.59, 272.16 527.69, 269.84 525.75, 267.90 523.43, 267.00
 521.11, 267.00 518.78, 267.90 516.85, 269.84 515.94, 272.16 515.94, 273.32
 515.94, 274.49 516.85, 276.81 518.78, 278.74 521.11, 279.65 523.43, 279.65
 525.75, 278.74 527.69, 276.81 528.59, 274.49 528.59, 272.16"/>
<polygon fill="#0000ff" points="
 545.23, 266.73 545.23, 265.57 544.32, 263.24 542.39, 261.31 540.06, 260.40
 537.74, 260.40 535.42, 261.31 533.48, 263.24 532.58, 265.57 532.58, 266.73
 532.58, 267.89 533.48, 270.21 535.42, 272.15 537.74, 273.05 540.06, 273.05
 542.39, 272.15 544.32, 270.21 545.23, 267.89 545.23, 265.57"/>
<polyline points="
 545.23, 266.73 545.23, 265.57 544.32, 263.24 542.39, 261.31 540.06, 260.40
 537.74, 260.40 535.42, 261.31 533.48, 263.24 532.58, 265.57 532.58, 266.73
 532.58, 267.89 533.48, 270.21 535.42, 272.15 537.74, 273.05 540.06, 273.05
 542.39, 272.15 544.32, 270.21 545.23, 267.89 545.23, 265.57"/>
<polygon fill="#0000ff" points="
 561.58, 270.46 561.58, 269.29 560.67, 266.97 558.74, 265.03 556.41, 264.13
 554.09, 264.13 551.77, 265.03 549.83, 266.97 548.93, 269.29 548.93, 270.46
 548.93, 271.62 549.83, 273.94 551.77, 275.88 554.09, 276.78 556.41, 276.78
 558.74, 275.88 560.67, 273.94 561.58, 271.62 561.58, 269.29"/>
<polyline points="
 561.58, 270.46 561.58, 269.29 560.67, 266.97 558.74, 265.03 556.41, 264.13
 554.09, 264.13 551.77, 265.03 549.83, 266.97 548.93, 269.29 548.93, 270.46
 548.93, 271.62 549.83, 273.94 551.77, 275.88 554.09, 276.78 556.41, 276.78
 558.74, 275.88 560.67, 273.94 561.58, 271.62 561.58, 269.29"/>
<polygon fill="#0000ff" points="
 578.21, 237.76 578.21, 236.60 577.31, 234.28 575.37, 232.34 573.05, 231.44
 570.72, 231.44 568.40, 232.34 566.47, 234.28 565.56, 236.60 565.56, 237.76
 565.56, 238.92 566.47, 241.24 568.40, 243.18 570.72, 244.08 573.05, 244.08
 575.37, 243.18 577.31, 241.24 578.21, 238.92 578.21, 236.60"/>
<polyline points="
 578.21, 237.76 578.21, 236.60 577.31, 234.28 575.37, 232.34 573.05, 231.44
 570.72, 231.44 568.40, 232.34 566.47, 234.28 565.56, 236.60 565.56, 237.76
 565.56, 238.92 566.47, 241.24 568.40, 243.18 570.72, 244.08 573.05, 244.08
 575.37, 243.18 577.31, 241.24 578.21, 238.92 578.21, 236.60"/>
<polygon fill="#0000ff" points="
 594.84, 253.53 594.84, 252.37 593.94, 250.05 592.00, 248.11 589.68, 247.21
 587.36, 247.21 585.04, 248.11 583.10, 250.05 582.20, 252.37 582.20, 253.53
 582.20, 254.70 583.10, 257.02 585.04, 258.95 587.36, 259.86 589.68, 259.86
 592.00, 258.95 593.94, 257.02 594.84, 254.70 594.84, 252.37"/>
<polyline points="
 594.84, 253.53 594.84, 252.37 593.94, 250.05 592.00, 248.11 589.68, 247.21
 587.36, 247.21 585.04, 248.11 583.10, 250.05 582.20, 252.37 582.20, 253.53
 582.20, 254.70 583.10, 257.02 585.04, 258.95 587.36, 259.86 589.68, 259.86
 592.00, 258.95 593.94, 257.02 594.84, 254.70 594.84, 252.37"/>
<polygon fill="#0000ff" points="
 611.19, 208.51 611.19, 207.34 610.29, 205.02 608.35, 203.09 606.03, 202.18
 603.71, 202.18 601.38, 203.09 599.45, 205.02 598.54, 207.34 598.54, 208.51
 598.54, 209.67 599.45, 211.99 601.38, 213.93 603.71, 214.83 606.03, 214.83
 608.35, 213.93 610.29, 211.99 611.19, 209.67 611.19, 207.34"/>
<polyline points="
 611.19, 208.51 611.19, 207.34 610.29, 205.02 608.35, 203.09 606.03, 202.18
 603.71, 202.18 601.38, 203.09 599.45, 205.02 598.54, 207.34 598.54, 208.51
 598.54, 209.67 599.45, 211.99 601.38, 213.93 603.71, 214.83 606.03, 214.83
 608.35, 213.93 610.29, 211.99 611.19, 209.67 611.19, 207.34"/>
<polygon fill="#0000ff" points="
 627.83, 209.08 627.83, 207.92 626.92, 205.59 624.99, 203.66 622.66, 202.76
 620.34, 202.76 618.02, 203.66 616.08, 205.59 615.18, 207.92 615.18, 209.08
 615.18, 210.24 616.08, 212.56 618.02, 214.50 620.34, 215.40 622.66, 215.40
 624.99, 214.50 626.92, 212.56 627.83, 210.24 627.83, 207.92"/>
<polyline points="
 627.83, 209.08 627.83, 207.92 626.92, 205.59 624.99, 203.66 622.66, 202.76
 620.34, 202.76 618.02, 203.66 616.08, 205.59 615.18, 207.92 615.18, 209.08
 615.18, 210.24 616.08, 212.56 618.02, 214.50 620.34, 215.40 622.66, 215.40
 624.99, 214.50 626.92, 212.56 627.83, 210.24 627.83, 207.92"/>
<polygon fill="#0000ff" points="
 644.17, 207.07 644.17, 205.91 643.27, 203.59 641.34, 201.65 639.01, 200.75
 636.69, 200.75 634.37, 201.65 632.43, 203.59 631.53, 205.91 631.53, 207.07
 631.53, 208.23 632.43, 210.56 634.37, 212.49 636.69, 213.40 639.01, 213.40
 641.34, 212.49 643.27, 210.56 644.17, 208.23 644.17, 205.91"/>
<polyline points="
 644.17, 207.07 644.17, 205.91 643.27, 203.59 641.34, 201.65 639.01, 200.75
 636.69, 200.75 634.37, 201.65 632.43, 203.59 631.53, 205.91 631.53, 207.07
 631.53, 208.23 632.43, 210.56 634.37, 212.49 636.69, 213.40 639.01, 213.40
 641.34, 212.49 643.27, 210.56 644.17, 208.23 644.17, 205.91"/>
<polygon fill="#0000ff" points="
 660.81, 203.63 660.81, 202.47 659.91, 200.15 657.97, 198.21 655.65, 197.31
 653.32, 197.31 651.00, 198.21 649.06, 200.15 648.16, 202.47 648.16, 203.63
 648.16, 204.79 649.06, 207.11 651.00, 209.05 653.32, 209.95 655.65, 209.95
 657.97, 209.05 659.91, 207.11 660.81, 204.79 660.81, 202.47"/>
<polyline points="
 660.81, 203.63 660.81, 202.47 659.91, 200.15 657.97, 198.21 655.65, 197.31
 653.32, 197.31 651.00, 198.21 649.06, 200.15 648.16, 202.47 648.16, 203.63
 648.16, 204.79 649.06, 207.11 651.00, 209.05 653.32, 209.95 655.65, 209.95
 657.97, 209.05 659.91, 207.11 660.81, 204.79 660.81, 202.47"/>
<polygon fill="#0000ff" points="
 677.44, 172.08 677.44, 170.92 676.54, 168.60 674.60, 166.66 672.28, 165.76
 669.96, 165.76 667.63, 166.66 665.70, 168.60 664.80, 170.92 664.80, 172.08
 664.80, 173.24 665.70, 175.57 667.63, 177.50 669.96, 178.41 672.28, 178.41
 674.60, 177.50 676.54, 175.57 677.44, 173.24 677.44, 170.92"/>
<polyline points="
 677.44, 172.08 677.44, 170.92 676.54, 168.60 674.60, 166.66 672.28, 165.76
 669.96, 165.76 667.63, 166.66 665.70, 168.60 664.80, 170.92 664.80, 172.08
 664.80, 173.24 665.70, 175.57 667.63, 177.50 669.96, 178.41 672.28, 178.41
 674.60, 177.50 676.54, 175.57 677.44, 173.24 677.44, 170.92"/>
<polygon fill="#0000ff" points="
 693.79, 174.66 693.79, 173.50 692.89, 171.18 690.95, 169.24 688.63, 168.34
 686.31, 168.34 683.98, 169.24 682.05, 171.18 681.14, 173.50 681.14, 174.66
 681.14, 175.82 682.05, 178.15 683.98, 180.08 686.31, 180.99 688.63, 180.99
 690.95, 180.08 692.89, 178.15 693.79, 175.82 693.79, 173.50"/>
<polyline points="
 693.79, 174.66 693.79, 173.50 692.89, 171.18 690.95, 169.24 688.63, 168.34
 686.31, 168.34 683.98, 169.24 682.05, 171.18 681.14, 173.50 681.14, 174.66
 681.14, 175.82 682.05, 178.15 683.98, 180.08 686.31, 180.99 688.63, 180.99
 690.95, 180.08 692.89, 178.15 693.79, 175.82 693.79, 173.50"/>
<polygon fill="#0000ff" points="
 710.43, 161.18 710.43, 160.02 709.52, 157.70 707.59, 155.76 705.26, 154.86
 702.94, 154.86 700.62, 155.76 698.68, 157.70 697.78, 160.02 697.78, 161.18
 697.78, 162.34 698.68, 164.67 700.62, 166.60 702.94, 167.51 705.26, 167.51
 707.59, 166.60 709.52, 164.67 710.43, 162.34 710.43, 160.02"/>
<polyline points="
 710.43, 161.18 710.43, 160.02 709.52, 157.70 707.59, 155.76 705.26, 154.86
 702.94, 154.86 700.62, 155.76 698.68, 157.70 697.78, 160.02 697.78, 161.18
 697.78, 162.34 698.68, 164.67 700.62, 166.60 702.94, 167.51 705.26, 167.51
 707.59, 166.60 709.52, 164.67 710.43, 162.34 710.43, 160.02"/>
</g>
<g fill="none" stroke="#ff0000" stroke-width="1.000">
<polyline points="
 224.89, 464.66 241.42, 454.29 257.94, 443.91 274.46, 433.53 290.99, 423.15
 307.51, 412.78 324.03, 402.40 340.56, 392.02 357.08, 381.64 373.60, 371.27
 390.12, 360.89 406.65, 350.51 423.17, 340.14 439.69, 329.76 456.22, 319.38
 472.74, 309.00 489.26, 298.63 505.79, 288.25 522.31, 277.87 538.83, 267.50
 555.35, 257.12 571.88, 246.74 588.40, 236.36 604.92, 225.99 621.45, 215.61
 637.97, 205.23 654.49, 194.86 671.02, 184.48 687.54, 174.10 704.06, 163.72"/>
</g>
<g fill="none" stroke="#0000ff" stroke-width="1.000">
<polygon fill="#0000ff" points="
 670.47, 121.60 670.47, 120.88 669.90, 119.44 668.70, 118.23 667.25, 117.67
 665.81, 117.67 664.36, 118.23 663.16, 119.44 662.60, 120.88 662.60, 121.60
 662.60, 122.33 663.16, 123.77 664.36, 124.98 665.81, 125.54 667.25, 125.54
 668.70, 124.98 669.90, 123.77 670.47, 122.33 670.47, 120.88"/>
<polyline points="
 670.47, 121.60 670.47, 120.88 669.90, 119.44 668.70, 118.23 667.25, 117.67
 665.81, 117.67 664.36, 118.23 663.16, 119.44 662.60, 120.88 662.60, 121.60
 662.60, 122.33 663.16, 123.77 664.36, 124.98 665.81, 125.54 667.25, 125.54
 668.70, 124.98 669.90, 123.77 670.47, 122.33 670.47, 120.88"/>
</g>
<g fill="none" stroke="#ff0000" stroke-width="1.000">
<line x1="645.88" y1="137.09" x2="687.18" y2="137.09"/>
</g>
<g font-family="Times" font-weight="normal" font-style="normal"
font-size="15" stroke="none" fill="#000000">
<text x="697.51" y="126.48">M</text>
<text x="711.93" y="126.48">e</text>
<text x="719.60" y="126.48">a</text>
<text x="727.28" y="126.48">s</text>
<text x="734.20" y="126.48">u</text>
<text x="742.73" y="126.48">r</text>
<text x="748.80" y="126.48">e</text>
<text x="756.48" y="126.48">d</text>
<text x="697.51" y="141.97">F</text>
<text x="706.89" y="141.97">i</text>
<text x="712.10" y="141.97">t</text>
<text x="717.31" y="141.97"> </text>
<text x="722.10" y="141.97">y</text>
<text x="730.63" y="141.97">=</text>
<text x="740.12" y="141.97">0</text>
<text x="748.66" y="141.97">.</text>
<text x="753.44" y="141.97">5</text>
<text x="761.97" y="141.97">x</text>
<text x="770.50" y="141.97">+</text>
<text x="780.00" y="141.97">1</text>
</g>
<g font-family="Times" font-weight="normal" font-style="normal"
font-size="17" stroke="none" fill="#000000">
<text x="356.78" y="74.28">L</text>
<text x="368.17" y="74.28">i</text>
<text x="373.96" y="74.28">n</text>
<text x="383.44" y="74.28">e</text>
<text x="391.96" y="74.28">a</text>
<text x="400.49" y="74.28">r</text>
<text x="407.23" y="74.28"> </text>
<text x="412.55" y="74.28">F</text>
<text x="422.98" y="74.28">i</text>
<text x="428.77" y="74.28">t</text>
<text x="434.56" y="74.28"> </text>
<text x="439.87" y="74.28">v</text>
<text x="449.35" y="74.28">s</text>
<text x="457.04" y="74.28"> </text>
<text x="462.36" y="74.28">M</text>
<text x="478.38" y="74.28">e</text>
<text x="486.91" y="74.28">a</text>
<text x="495.44" y="74.28">s</text>
<text x="503.13" y="74.28">u</text>
<text x="512.61" y="74.28">r</text>
<text x="519.35" y="74.28">e</text>
<text x="527.88" y="74.28">m</text>
<text x="542.00" y="74.28">e</text>
<text x="550.53" y="74.28">n</text>
<text x="560.01" y="74.28">t</text>
<text x="565.80" y="74.28">s</text>
</g>
</svg>
