<?xml version="1.0" encoding="ISO-8859-1" standalone="no"?>
<!DOCTYPE svg PUBLIC "-//W3C//DTD SVG 20010904//EN"
  "http://www.w3.org/TR/2001/REC-SVG-20010904/DTD/svg10.dtd">
<!-- Created by DISLIN (http://www.dislin.de)
Version: 11.5
Date   : 26.06.2026 22:55:08
-->
<svg width="853" height="603"
  xmlns="http://www.w3.org/2000/svg"
  xmlns:xlink="http://www.w3.org/1999/xlink">

<g fill="none" stroke="#000000" stroke-width="1.000">
<rect x="157.74" y="63.38" width="694.78" height="382.16"
 fill="#f7f7f7" stroke="none"/>
</g>
<g fill="none" stroke="#000000" stroke-width="1.000">
<line x1="157.74" y1="444.55" x2="851.52" y2="444.55"/>
<line x1="157.74" y1="444.55" x2="157.74" y2="451.43"/>
<line x1="207.36" y1="449.13" x2="207.36" y2="444.55"/>
<line x1="256.98" y1="444.55" x2="256.98" y2="451.43"/>
<line x1="306.31" y1="449.13" x2="306.31" y2="444.55"/>
<line x1="355.92" y1="444.55" x2="355.92" y2="451.43"/>
<line x1="405.54" y1="449.13" x2="405.54" y2="444.55"/>
<line x1="455.16" y1="444.55" x2="455.16" y2="451.43"/>
<line x1="504.77" y1="449.13" x2="504.77" y2="444.55"/>
<line x1="554.10" y1="444.55" x2="554.10" y2="451.43"/>
<line x1="603.72" y1="449.13" x2="603.72" y2="444.55"/>
<line x1="653.34" y1="444.55" x2="653.34" y2="451.43"/>
<line x1="702.95" y1="449.13" x2="702.95" y2="444.55"/>
<line x1="752.28" y1="444.55" x2="752.28" y2="451.43"/>
<line x1="801.90" y1="449.13" x2="801.90" y2="444.55"/>
</g>
<g font-family="Times" font-weight="normal" font-style="normal"
font-size="15" stroke="none" fill="#000000">
<text x="144.26" y="468.35">-</text>
<text x="150.33" y="468.35">2</text>
<text x="158.86" y="468.35">.</text>
<text x="163.64" y="468.35">0</text>
<text x="246.36" y="468.35">0</text>
<text x="254.90" y="468.35">.</text>
<text x="259.68" y="468.35">0</text>
<text x="345.60" y="468.35">2</text>
<text x="354.13" y="468.35">.</text>
<text x="358.91" y="468.35">0</text>
<text x="444.55" y="468.35">4</text>
<text x="453.08" y="468.35">.</text>
<text x="457.86" y="468.35">0</text>
<text x="543.78" y="468.35">6</text>
<text x="552.31" y="468.35">.</text>
<text x="557.09" y="468.35">0</text>
<text x="642.73" y="468.35">8</text>
<text x="651.26" y="468.35">.</text>
<text x="656.04" y="468.35">0</text>
<text x="737.66" y="468.35">1</text>
<text x="746.19" y="468.35">0</text>
<text x="754.72" y="468.35">.</text>
<text x="759.50" y="468.35">0</text>
<text x="836.89" y="468.35">1</text>
<text x="845.42" y="468.35">2</text>
<text x="853.95" y="468.35">.</text>
<text x="858.74" y="468.35">0</text>
</g>
<g font-family="Times" font-weight="normal" font-style="normal"
font-size="15" stroke="none" fill="#000000">
<text x="487.28" y="487.28">T</text>
<text x="497.52" y="487.28">i</text>
<text x="502.73" y="487.28">m</text>
<text x="515.44" y="487.28">e</text>
</g>
<g fill="none" stroke="#000000" stroke-width="1.000">
<line x1="851.52" y1="444.55" x2="851.52" y2="451.43"/>
<line x1="157.74" y1="444.55" x2="157.74" y2="63.38"/>
<line x1="150.86" y1="444.55" x2="157.74" y2="444.55"/>
<line x1="157.74" y1="417.30" x2="153.15" y2="417.30"/>
<line x1="150.86" y1="390.05" x2="157.74" y2="390.05"/>
<line x1="157.74" y1="362.81" x2="153.15" y2="362.81"/>
<line x1="150.86" y1="335.56" x2="157.74" y2="335.56"/>
<line x1="157.74" y1="308.31" x2="153.15" y2="308.31"/>
<line x1="150.86" y1="281.07" x2="157.74" y2="281.07"/>
<line x1="157.74" y1="254.11" x2="153.15" y2="254.11"/>
<line x1="150.86" y1="226.86" x2="157.74" y2="226.86"/>
<line x1="157.74" y1="199.62" x2="153.15" y2="199.62"/>
<line x1="150.86" y1="172.37" x2="157.74" y2="172.37"/>
<line x1="157.74" y1="145.12" x2="153.15" y2="145.12"/>
<line x1="150.86" y1="117.88" x2="157.74" y2="117.88"/>
<line x1="157.74" y1="90.63" x2="153.15" y2="90.63"/>
</g>
<g font-family="Times" font-weight="normal" font-style="normal"
font-size="15" stroke="none" fill="#000000">
<text x="123.04" y="449.13">0</text>
<text x="131.57" y="449.13">.</text>
<text x="136.35" y="449.13">0</text>
<text x="123.04" y="394.64">1</text>
<text x="131.57" y="394.64">.</text>
<text x="136.35" y="394.64">0</text>
<text x="123.04" y="340.15">2</text>
<text x="131.57" y="340.15">.</text>
<text x="136.35" y="340.15">0</text>
<text x="123.04" y="285.66">3</text>
<text x="131.57" y="285.66">.</text>
<text x="136.35" y="285.66">0</text>
<text x="123.04" y="231.45">4</text>
<text x="131.57" y="231.45">.</text>
<text x="136.35" y="231.45">0</text>
<text x="123.04" y="176.96">5</text>
<text x="131.57" y="176.96">.</text>
<text x="136.35" y="176.96">0</text>
<text x="123.04" y="122.46">6</text>
<text x="131.57" y="122.46">.</text>
<text x="136.35" y="122.46">0</text>
<text x="123.04" y="67.97">7</text>
<text x="131.57" y="67.97">.</text>
<text x="136.35" y="67.97">0</text>
</g>
<g font-family="Times" font-weight="normal" font-style="normal"
font-size="15" stroke="none" fill="#000000">
<text x="114.15" y="275.62" rotate="-90">S</text>
<text x="114.15" y="266.23" rotate="-90">i</text>
<text x="114.15" y="261.02" rotate="-90">g</text>
<text x="114.15" y="252.49" rotate="-90">n</text>
<text x="114.15" y="243.96" rotate="-90">a</text>
<text x="114.15" y="236.28" rotate="-90">l</text>
</g>
<g fill="none" stroke="#000000" stroke-width="1.000">
<line x1="150.86" y1="63.38" x2="157.74" y2="63.38"/>
<line x1="157.74" y1="63.38" x2="851.52" y2="63.38"/>
<line x1="157.74" y1="63.38" x2="157.74" y2="56.50"/>
<line x1="207.36" y1="58.79" x2="207.36" y2="63.38"/>
<line x1="256.98" y1="63.38" x2="256.98" y2="56.50"/>
<line x1="306.31" y1="58.79" x2="306.31" y2="63.38"/>
<line x1="355.92" y1="63.38" x2="355.92" y2="56.50"/>
<line x1="405.54" y1="58.79" x2="405.54" y2="63.38"/>
<line x1="455.16" y1="63.38" x2="455.16" y2="56.50"/>
<line x1="504.77" y1="58.79" x2="504.77" y2="63.38"/>
<line x1="554.10" y1="63.38" x2="554.10" y2="56.50"/>
<line x1="603.72" y1="58.79" x2="603.72" y2="63.38"/>
<line x1="653.34" y1="63.38" x2="653.34" y2="56.50"/>
<line x1="702.95" y1="58.79" x2="702.95" y2="63.38"/>
<line x1="752.28" y1="63.38" x2="752.28" y2="56.50"/>
<line x1="801.90" y1="58.79" x2="801.90" y2="63.38"/>
<line x1="851.52" y1="63.38" x2="851.52" y2="56.50"/>
<line x1="851.52" y1="444.55" x2="851.52" y2="63.38"/>
<line x1="851.52" y1="444.55" x2="851.52" y2="444.55"/>
<line x1="851.52" y1="417.30" x2="851.52" y2="417.30"/>
<line x1="851.52" y1="390.05" x2="851.52" y2="390.05"/>
<line x1="851.52" y1="362.81" x2="851.52" y2="362.81"/>
<line x1="851.52" y1="335.56" x2="851.52" y2="335.56"/>
<line x1="851.52" y1="308.31" x2="851.52" y2="308.31"/>
<line x1="851.52" y1="281.07" x2="851.52" y2="281.07"/>
<line x1="851.52" y1="254.11" x2="851.52" y2="254.11"/>
<line x1="851.52" y1="226.86" x2="851.52" y2="226.86"/>
<line x1="851.52" y1="199.62" x2="851.52" y2="199.62"/>
<line x1="851.52" y1="172.37" x2="851.52" y2="172.37"/>
<line x1="851.52" y1="145.12" x2="851.52" y2="145.12"/>
<line x1="851.52" y1="117.88" x2="851.52" y2="117.88"/>
<line x1="851.52" y1="90.63" x2="851.52" y2="90.63"/>
<line x1="851.52" y1="63.38" x2="851.52" y2="63.38"/>
<polyline points="
 157.74, 63.38 851.52, 63.38 851.52, 444.55 157.74, 444.55 157.74, 63.38"/>
</g>
<g fill="none" stroke="#bfbfbf" stroke-width="1.000">
<line x1="256.98" y1="63.67" x2="256.98" y2="444.26"/>
<line x1="355.92" y1="444.26" x2="355.92" y2="63.67"/>
<line x1="455.16" y1="63.67" x2="455.16" y2="444.26"/>
<line x1="554.10" y1="444.26" x2="554.10" y2="63.67"/>
<line x1="653.34" y1="63.67" x2="653.34" y2="444.26"/>
<line x1="752.28" y1="444.26" x2="752.28" y2="63.67"/>
<line x1="851.23" y1="390.05" x2="158.03" y2="390.05"/>
<line x1="158.03" y1="335.56" x2="851.23" y2="335.56"/>
<line x1="851.23" y1="281.07" x2="158.03" y2="281.07"/>
<line x1="158.03" y1="226.86" x2="851.23" y2="226.86"/>
<line x1="851.23" y1="172.37" x2="158.03" y2="172.37"/>
<line x1="158.03" y1="117.88" x2="851.23" y2="117.88"/>
</g>
<g fill="none" stroke="#0000ff" stroke-width="1.000">
<polygon fill="#0000ff" points="
 263.30, 406.11 263.30, 404.95 262.40, 402.63 260.46, 400.69 258.14, 399.79
 255.81, 399.79 253.49, 400.69 251.56, 402.63 250.65, 404.95 250.65, 406.11
 250.65, 407.27 251.56, 409.60 253.49, 411.53 255.81, 412.44 258.14, 412.44
 260.46, 411.53 262.40, 409.60 263.30, 407.27 263.30, 404.95"/>
<polyline points="
 263.30, 406.11 263.30, 404.95 262.40, 402.63 260.46, 400.69 258.14, 399.79
 255.81, 399.79 253.49, 400.69 251.56, 402.63 250.65, 404.95 250.65, 406.11
 250.65, 407.27 251.56, 409.60 253.49, 411.53 255.81, 412.44 258.14, 412.44
 260.46, 411.53 262.40, 409.60 263.30, 407.27 263.30, 404.95"/>
<polygon fill="#0000ff" points="
 280.22, 373.99 280.22, 372.83 279.32, 370.51 277.38, 368.57 275.06, 367.67
 272.74, 367.67 270.41, 368.57 268.48, 370.51 267.57, 372.83 267.57, 373.99
 267.57, 375.15 268.48, 377.48 270.41, 379.41 272.74, 380.32 275.06, 380.32
 277.38, 379.41 279.32, 377.48 280.22, 375.15 280.22, 372.83"/>
<polyline points="
 280.22, 373.99 280.22, 372.83 279.32, 370.51 277.38, 368.57 275.06, 367.67
 272.74, 367.67 270.41, 368.57 268.48, 370.51 267.57, 372.83 267.57, 373.99
 267.57, 375.15 268.48, 377.48 270.41, 379.41 272.74, 380.32 275.06, 380.32
 277.38, 379.41 279.32, 377.48 280.22, 375.15 280.22, 372.83"/>
<polygon fill="#0000ff" points="
 297.43, 367.39 297.43, 366.23 296.53, 363.91 294.59, 361.97 292.27, 361.07
 289.94, 361.07 287.62, 361.97 285.68, 363.91 284.78, 366.23 284.78, 367.39
 284.78, 368.56 285.68, 370.88 287.62, 372.82 289.94, 373.72 292.27, 373.72
 294.59, 372.82 296.53, 370.88 297.43, 368.56 297.43, 366.23"/>
<polyline points="
 297.43, 367.39 297.43, 366.23 296.53, 363.91 294.59, 361.97 292.27, 361.07
 289.94, 361.07 287.62, 361.97 285.68, 363.91 284.78, 366.23 284.78, 367.39
 284.78, 368.56 285.68, 370.88 287.62, 372.82 289.94, 373.72 292.27, 373.72
 294.59, 372.82 296.53, 370.88 297.43, 368.56 297.43, 366.23"/>
<polygon fill="#0000ff" points="
 314.35, 353.05 314.35, 351.89 313.45, 349.57 311.51, 347.63 309.19, 346.73
 306.87, 346.73 304.54, 347.63 302.61, 349.57 301.70, 351.89 301.70, 353.05
 301.70, 354.22 302.61, 356.54 304.54, 358.48 306.87, 359.38 309.19, 359.38
 311.51, 358.48 313.45, 356.54 314.35, 354.22 314.35, 351.89"/>
<polyline points="
 314.35, 353.05 314.35, 351.89 313.45, 349.57 311.51, 347.63 309.19, 346.73
 306.87, 346.73 304.54, 347.63 302.61, 349.57 301.70, 351.89 301.70, 353.05
 301.70, 354.22 302.61, 356.54 304.54, 358.48 306.87, 359.38 309.19, 359.38
 311.51, 358.48 313.45, 356.54 314.35, 354.22 314.35, 351.89"/>
<polygon fill="#0000ff" points="
 331.56, 354.78 331.56, 353.61 330.66, 351.29 328.72, 349.36 326.40, 348.45
 324.07, 348.45 321.75, 349.36 319.81, 351.29 318.91, 353.61 318.91, 354.78
 318.91, 355.94 319.81, 358.26 321.75, 360.20 324.07, 361.10 326.40, 361.10
 328.72, 360.20 330.66, 358.26 331.56, 355.94 331.56, 353.61"/>
<polyline points="
 331.56, 354.78 331.56, 353.61 330.66, 351.29 328.72, 349.36 326.40, 348.45
 324.07, 348.45 321.75, 349.36 319.81, 351.29 318.91, 353.61 318.91, 354.78
 318.91, 355.94 319.81, 358.26 321.75, 360.20 324.07, 361.10 326.40, 361.10
 328.72, 360.20 330.66, 358.26 331.56, 355.94 331.56, 353.61"/>
<polygon fill="#0000ff" points="
 348.48, 352.19 348.48, 351.03 347.58, 348.71 345.64, 346.77 343.32, 345.87
 340.99, 345.87 338.67, 346.77 336.74, 348.71 335.83, 351.03 335.83, 352.19
 335.83, 353.36 336.74, 355.68 338.67, 357.61 340.99, 358.52 343.32, 358.52
 345.64, 357.61 347.58, 355.68 348.48, 353.36 348.48, 351.03"/>
<polyline points="
 348.48, 352.19 348.48, 351.03 347.58, 348.71 345.64, 346.77 343.32, 345.87
 340.99, 345.87 338.67, 346.77 336.74, 348.71 335.83, 351.03 335.83, 352.19
 335.83, 353.36 336.74, 355.68 338.67, 357.61 340.99, 358.52 343.32, 358.52
 345.64, 357.61 347.58, 355.68 348.48, 353.36 348.48, 351.03"/>
<polygon fill="#0000ff" points="
 365.69, 328.68 365.69, 327.51 364.79, 325.19 362.85, 323.26 360.53, 322.35
 358.20, 322.35 355.88, 323.26 353.94, 325.19 353.04, 327.51 353.04, 328.68
 353.04, 329.84 353.94, 332.16 355.88, 334.10 358.20, 335.00 360.53, 335.00
 362.85, 334.10 364.79, 332.16 365.69, 329.84 365.69, 327.51"/>
<polyline points="
 365.69, 328.68 365.69, 327.51 364.79, 325.19 362.85, 323.26 360.53, 322.35
 358.20, 322.35 355.88, 323.26 353.94, 325.19 353.04, 327.51 353.04, 328.68
 353.04, 329.84 353.94, 332.16 355.88, 334.10 358.20, 335.00 360.53, 335.00
 362.85, 334.10 364.79, 332.16 365.69, 329.84 365.69, 327.51"/>
<polygon fill="#0000ff" points="
 382.90, 336.13 382.90, 334.97 381.99, 332.65 380.06, 330.71 377.73, 329.81
 375.41, 329.81 373.09, 330.71 371.15, 332.65 370.25, 334.97 370.25, 336.13
 370.25, 337.29 371.15, 339.62 373.09, 341.55 375.41, 342.46 377.73, 342.46
 380.06, 341.55 381.99, 339.62 382.90, 337.29 382.90, 334.97"/>
<polyline points="
 382.90, 336.13 382.90, 334.97 381.99, 332.65 380.06, 330.71 377.73, 329.81
 375.41, 329.81 373.09, 330.71 371.15, 332.65 370.25, 334.97 370.25, 336.13
 370.25, 337.29 371.15, 339.62 373.09, 341.55 375.41, 342.46 377.73, 342.46
 380.06, 341.55 381.99, 339.62 382.90, 337.29 382.90, 334.97"/>
<polygon fill="#0000ff" points="
 399.82, 324.66 399.82, 323.50 398.91, 321.18 396.98, 319.24 394.66, 318.34
 392.33, 318.34 390.01, 319.24 388.07, 321.18 387.17, 323.50 387.17, 324.66
 387.17, 325.82 388.07, 328.15 390.01, 330.08 392.33, 330.99 394.66, 330.99
 396.98, 330.08 398.91, 328.15 399.82, 325.82 399.82, 323.50"/>
<polyline points="
 399.82, 324.66 399.82, 323.50 398.91, 321.18 396.98, 319.24 394.66, 318.34
 392.33, 318.34 390.01, 319.24 388.07, 321.18 387.17, 323.50 387.17, 324.66
 387.17, 325.82 388.07, 328.15 390.01, 330.08 392.33, 330.99 394.66, 330.99
 396.98, 330.08 398.91, 328.15 399.82, 325.82 399.82, 323.50"/>
<polygon fill="#0000ff" points="
 417.03, 310.32 417.03, 309.16 416.12, 306.84 414.19, 304.90 411.86, 304.00
 409.54, 304.00 407.22, 304.90 405.28, 306.84 404.38, 309.16 404.38, 310.32
 404.38, 311.48 405.28, 313.81 407.22, 315.74 409.54, 316.65 411.86, 316.65
 414.19, 315.74 416.12, 313.81 417.03, 311.48 417.03, 309.16"/>
<polyline points="
 417.03, 310.32 417.03, 309.16 416.12, 306.84 414.19, 304.90 411.86, 304.00
 409.54, 304.00 407.22, 304.90 405.28, 306.84 404.38, 309.16 404.38, 310.32
 404.38, 311.48 405.28, 313.81 407.22, 315.74 409.54, 316.65 411.86, 316.65
 414.19, 315.74 416.12, 313.81 417.03, 311.48 417.03, 309.16"/>
<polygon fill="#0000ff" points="
 433.95, 288.52 433.95, 287.36 433.04, 285.04 431.11, 283.10 428.79, 282.20
 426.46, 282.20 424.14, 283.10 422.20, 285.04 421.30, 287.36 421.30, 288.52
 421.30, 289.69 422.20, 292.01 424.14, 293.94 426.46, 294.85 428.79, 294.85
 431.11, 293.94 433.04, 292.01 433.95, 289.69 433.95, 287.36"/>
<polyline points="
 433.95, 288.52 433.95, 287.36 433.04, 285.04 431.11, 283.10 428.79, 282.20
 426.46, 282.20 424.14, 283.10 422.20, 285.04 421.30, 287.36 421.30, 288.52
 421.30, 289.69 422.20, 292.01 424.14, 293.94 426.46, 294.85 428.79, 294.85
 431.11, 293.94 433.04, 292.01 433.95, 289.69 433.95, 287.36"/>
<polygon fill="#0000ff" points="
 451.16, 270.74 451.16, 269.58 450.25, 267.26 448.32, 265.32 445.99, 264.42
 443.67, 264.42 441.35, 265.32 439.41, 267.26 438.51, 269.58 438.51, 270.74
 438.51, 271.90 439.41, 274.23 441.35, 276.16 443.67, 277.07 445.99, 277.07
 448.32, 276.16 450.25, 274.23 451.16, 271.90 451.16, 269.58"/>
<polyline points="
 451.16, 270.74 451.16, 269.58 450.25, 267.26 448.32, 265.32 445.99, 264.42
 443.67, 264.42 441.35, 265.32 439.41, 267.26 438.51, 269.58 438.51, 270.74
 438.51, 271.90 439.41, 274.23 441.35, 276.16 443.67, 277.07 445.99, 277.07
 448.32, 276.16 450.25, 274.23 451.16, 271.90 451.16, 269.58"/>
<polygon fill="#0000ff" points="
 468.36, 263.57 468.36, 262.41 467.46, 260.09 465.52, 258.15 463.20, 257.25
 460.88, 257.25 458.56, 258.15 456.62, 260.09 455.72, 262.41 455.72, 263.57
 455.72, 264.73 456.62, 267.06 458.56, 268.99 460.88, 269.90 463.20, 269.90
 465.52, 268.99 467.46, 267.06 468.36, 264.73 468.36, 262.41"/>
<polyline points="
 468.36, 263.57 468.36, 262.41 467.46, 260.09 465.52, 258.15 463.20, 257.25
 460.88, 257.25 458.56, 258.15 456.62, 260.09 455.72, 262.41 455.72, 263.57
 455.72, 264.73 456.62, 267.06 458.56, 268.99 460.88, 269.90 463.20, 269.90
 465.52, 268.99 467.46, 267.06 468.36, 264.73 468.36, 262.41"/>
<polygon fill="#0000ff" points="
 485.29, 251.81 485.29, 250.65 484.38, 248.33 482.45, 246.39 480.12, 245.49
 477.80, 245.49 475.48, 246.39 473.54, 248.33 472.64, 250.65 472.64, 251.81
 472.64, 252.97 473.54, 255.30 475.48, 257.23 477.80, 258.14 480.12, 258.14
 482.45, 257.23 484.38, 255.30 485.29, 252.97 485.29, 250.65"/>
<polyline points="
 485.29, 251.81 485.29, 250.65 484.38, 248.33 482.45, 246.39 480.12, 245.49
 477.80, 245.49 475.48, 246.39 473.54, 248.33 472.64, 250.65 472.64, 251.81
 472.64, 252.97 473.54, 255.30 475.48, 257.23 477.80, 258.14 480.12, 258.14
 482.45, 257.23 484.38, 255.30 485.29, 252.97 485.29, 250.65"/>
<polygon fill="#0000ff" points="
 502.49, 252.96 502.49, 251.80 501.59, 249.48 499.65, 247.54 497.33, 246.64
 495.01, 246.64 492.68, 247.54 490.75, 249.48 489.85, 251.80 489.85, 252.96
 489.85, 254.12 490.75, 256.45 492.68, 258.38 495.01, 259.28 497.33, 259.28
 499.65, 258.38 501.59, 256.45 502.49, 254.12 502.49, 251.80"/>
<polyline points="
 502.49, 252.96 502.49, 251.80 501.59, 249.48 499.65, 247.54 497.33, 246.64
 495.01, 246.64 492.68, 247.54 490.75, 249.48 489.85, 251.80 489.85, 252.96
 489.85, 254.12 490.75, 256.45 492.68, 258.38 495.01, 259.28 497.33, 259.28
 499.65, 258.38 501.59, 256.45 502.49, 254.12 502.49, 251.80"/>
<polygon fill="#0000ff" points="
 519.42, 237.19 519.42, 236.02 518.51, 233.70 516.58, 231.77 514.25, 230.86
 511.93, 230.86 509.61, 231.77 507.67, 233.70 506.77, 236.02 506.77, 237.19
 506.77, 238.35 507.67, 240.67 509.61, 242.61 511.93, 243.51 514.25, 243.51
 516.58, 242.61 518.51, 240.67 519.42, 238.35 519.42, 236.02"/>
<polyline points="
 519.42, 237.19 519.42, 236.02 518.51, 233.70 516.58, 231.77 514.25, 230.86
 511.93, 230.86 509.61, 231.77 507.67, 233.70 506.77, 236.02 506.77, 237.19
 506.77, 238.35 507.67, 240.67 509.61, 242.61 511.93, 243.51 514.25, 243.51
 516.58, 242.61 518.51, 240.67 519.42, 238.35 519.42, 236.02"/>
<polygon fill="#0000ff" points="
 536.62, 246.65 536.62, 245.49 535.72, 243.17 533.78, 241.23 531.46, 240.33
 529.14, 240.33 526.81, 241.23 524.88, 243.17 523.98, 245.49 523.98, 246.65
 523.98, 247.81 524.88, 250.14 526.81, 252.07 529.14, 252.97 531.46, 252.97
 533.78, 252.07 535.72, 250.14 536.62, 247.81 536.62, 245.49"/>
<polyline points="
 536.62, 246.65 536.62, 245.49 535.72, 243.17 533.78, 241.23 531.46, 240.33
 529.14, 240.33 526.81, 241.23 524.88, 243.17 523.98, 245.49 523.98, 246.65
 523.98, 247.81 524.88, 250.14 526.81, 252.07 529.14, 252.97 531.46, 252.97
 533.78, 252.07 535.72, 250.14 536.62, 247.81 536.62, 245.49"/>
<polygon fill="#0000ff" points="
 553.54, 231.45 553.54, 230.29 552.64, 227.97 550.71, 226.03 548.38, 225.13
 546.06, 225.13 543.74, 226.03 541.80, 227.97 540.90, 230.29 540.90, 231.45
 540.90, 232.61 541.80, 234.93 543.74, 236.87 546.06, 237.77 548.38, 237.77
 550.71, 236.87 552.64, 234.93 553.54, 232.61 553.54, 230.29"/>
<polyline points="
 553.54, 231.45 553.54, 230.29 552.64, 227.97 550.71, 226.03 548.38, 225.13
 546.06, 225.13 543.74, 226.03 541.80, 227.97 540.90, 230.29 540.90, 231.45
 540.90, 232.61 541.80, 234.93 543.74, 236.87 546.06, 237.77 548.38, 237.77
 550.71, 236.87 552.64, 234.93 553.54, 232.61 553.54, 230.29"/>
<polygon fill="#0000ff" points="
 570.75, 217.11 570.75, 215.95 569.85, 213.63 567.91, 211.69 565.59, 210.79
 563.27, 210.79 560.94, 211.69 559.01, 213.63 558.10, 215.95 558.10, 217.11
 558.10, 218.27 559.01, 220.59 560.94, 222.53 563.27, 223.43 565.59, 223.43
 567.91, 222.53 569.85, 220.59 570.75, 218.27 570.75, 215.95"/>
<polyline points="
 570.75, 217.11 570.75, 215.95 569.85, 213.63 567.91, 211.69 565.59, 210.79
 563.27, 210.79 560.94, 211.69 559.01, 213.63 558.10, 215.95 558.10, 217.11
 558.10, 218.27 559.01, 220.59 560.94, 222.53 563.27, 223.43 565.59, 223.43
 567.91, 222.53 569.85, 220.59 570.75, 218.27 570.75, 215.95"/>
<polygon fill="#0000ff" points="
 587.96, 211.09 587.96, 209.93 587.06, 207.60 585.12, 205.67 582.80, 204.76
 580.48, 204.76 578.15, 205.67 576.22, 207.60 575.31, 209.93 575.31, 211.09
 575.31, 212.25 576.22, 214.57 578.15, 216.51 580.48, 217.41 582.80, 217.41
 585.12, 216.51 587.06, 214.57 587.96, 212.25 587.96, 209.93"/>
<polyline points="
 587.96, 211.09 587.96, 209.93 587.06, 207.60 585.12, 205.67 582.80, 204.76
 580.48, 204.76 578.15, 205.67 576.22, 207.60 575.31, 209.93 575.31, 211.09
 575.31, 212.25 576.22, 214.57 578.15, 216.51 580.48, 217.41 582.80, 217.41
 585.12, 216.51 587.06, 214.57 587.96, 212.25 587.96, 209.93"/>
<polygon fill="#0000ff" points="
 604.88, 214.53 604.88, 213.37 603.98, 211.04 602.04, 209.11 599.72, 208.20
 597.40, 208.20 595.07, 209.11 593.14, 211.04 592.23, 213.37 592.23, 214.53
 592.23, 215.69 593.14, 218.01 595.07, 219.95 597.40, 220.85 599.72, 220.85
 602.04, 219.95 603.98, 218.01 604.88, 215.69 604.88, 213.37"/>
<polyline points="
 604.88, 214.53 604.88, 213.37 603.98, 211.04 602.04, 209.11 599.72, 208.20
 597.40, 208.20 595.07, 209.11 593.14, 211.04 592.23, 213.37 592.23, 214.53
 592.23, 215.69 593.14, 218.01 595.07, 219.95 597.40, 220.85 599.72, 220.85
 602.04, 219.95 603.98, 218.01 604.88, 215.69 604.88, 213.37"/>
<polygon fill="#0000ff" points="
 622.09, 184.99 622.09, 183.83 621.19, 181.50 619.25, 179.57 616.93, 178.66
 614.61, 178.66 612.28, 179.57 610.35, 181.50 609.44, 183.83 609.44, 184.99
 609.44, 186.15 610.35, 188.47 612.28, 190.41 614.61, 191.31 616.93, 191.31
 619.25, 190.41 621.19, 188.47 622.09, 186.15 622.09, 183.83"/>
<polyline points="
 622.09, 184.99 622.09, 183.83 621.19, 181.50 619.25, 179.57 616.93, 178.66
 614.61, 178.66 612.28, 179.57 610.35, 181.50 609.44, 183.83 609.44, 184.99
 609.44, 186.15 610.35, 188.47 612.28, 190.41 614.61, 191.31 616.93, 191.31
 619.25, 190.41 621.19, 188.47 622.09, 186.15 622.09, 183.83"/>
<polygon fill="#0000ff" points="
 639.01, 199.04 639.01, 197.88 638.11, 195.56 636.17, 193.62 633.85, 192.72
 631.53, 192.72 629.20, 193.62 627.27, 195.56 626.36, 197.88 626.36, 199.04
 626.36, 200.20 627.27, 202.53 629.20, 204.46 631.53, 205.37 633.85, 205.37
 636.17, 204.46 638.11, 202.53 639.01, 200.20 639.01, 197.88"/>
<polyline points="
 639.01, 199.04 639.01, 197.88 638.11, 195.56 636.17, 193.62 633.85, 192.72
 631.53, 192.72 629.20, 193.62 627.27, 195.56 626.36, 197.88 626.36, 199.04
 626.36, 200.20 627.27, 202.53 629.20, 204.46 631.53, 205.37 633.85, 205.37
 636.17, 204.46 638.11, 202.53 639.01, 200.20 639.01, 197.88"/>
<polygon fill="#0000ff" points="
 656.22, 158.32 656.22, 157.15 655.32, 154.83 653.38, 152.89 651.06, 151.99
 648.73, 151.99 646.41, 152.89 644.48, 154.83 643.57, 157.15 643.57, 158.32
 643.57, 159.48 644.48, 161.80 646.41, 163.74 648.73, 164.64 651.06, 164.64
 653.38, 163.74 655.32, 161.80 656.22, 159.48 656.22, 157.15"/>
<polyline points="
 656.22, 158.32 656.22, 157.15 655.32, 154.83 653.38, 152.89 651.06, 151.99
 648.73, 151.99 646.41, 152.89 644.48, 154.83 643.57, 157.15 643.57, 158.32
 643.57, 159.48 644.48, 161.80 646.41, 163.74 648.73, 164.64 651.06, 164.64
 653.38, 163.74 655.32, 161.80 656.22, 159.48 656.22, 157.15"/>
<polygon fill="#0000ff" points="
 673.43, 158.89 673.43, 157.73 672.52, 155.40 670.59, 153.47 668.27, 152.56
 665.94, 152.56 663.62, 153.47 661.68, 155.40 660.78, 157.73 660.78, 158.89
 660.78, 160.05 661.68, 162.37 663.62, 164.31 665.94, 165.21 668.27, 165.21
 670.59, 164.31 672.52, 162.37 673.43, 160.05 673.43, 157.73"/>
<polyline points="
 673.43, 158.89 673.43, 157.73 672.52, 155.40 670.59, 153.47 668.27, 152.56
 665.94, 152.56 663.62, 153.47 661.68, 155.40 660.78, 157.73 660.78, 158.89
 660.78, 160.05 661.68, 162.37 663.62, 164.31 665.94, 165.21 668.27, 165.21
 670.59, 164.31 672.52, 162.37 673.43, 160.05 673.43, 157.73"/>
<polygon fill="#0000ff" points="
 690.35, 156.88 690.35, 155.72 689.45, 153.40 687.51, 151.46 685.19, 150.56
 682.86, 150.56 680.54, 151.46 678.61, 153.40 677.70, 155.72 677.70, 156.88
 677.70, 158.04 678.61, 160.37 680.54, 162.30 682.86, 163.21 685.19, 163.21
 687.51, 162.30 689.45, 160.37 690.35, 158.04 690.35, 155.72"/>
<polyline points="
 690.35, 156.88 690.35, 155.72 689.45, 153.40 687.51, 151.46 685.19, 150.56
 682.86, 150.56 680.54, 151.46 678.61, 153.40 677.70, 155.72 677.70, 156.88
 677.70, 158.04 678.61, 160.37 680.54, 162.30 682.86, 163.21 685.19, 163.21
 687.51, 162.30 689.45, 160.37 690.35, 158.04 690.35, 155.72"/>
<polygon fill="#0000ff" points="
 707.56, 153.73 707.56, 152.56 706.65, 150.24 704.72, 148.31 702.40, 147.40
 700.07, 147.40 697.75, 148.31 695.81, 150.24 694.91, 152.56 694.91, 153.73
 694.91, 154.89 695.81, 157.21 697.75, 159.15 700.07, 160.05 702.40, 160.05
 704.72, 159.15 706.65, 157.21 707.56, 154.89 707.56, 152.56"/>
<polyline points="
 707.56, 153.73 707.56, 152.56 706.65, 150.24 704.72, 148.31 702.40, 147.40
 700.07, 147.40 697.75, 148.31 695.81, 150.24 694.91, 152.56 694.91, 153.73
 694.91, 154.89 695.81, 157.21 697.75, 159.15 700.07, 160.05 702.40, 160.05
 704.72, 159.15 706.65, 157.21 707.56, 154.89 707.56, 152.56"/>
<polygon fill="#0000ff" points="
 724.48, 125.33 724.48, 124.17 723.58, 121.85 721.64, 119.91 719.32, 119.01
 716.99, 119.01 714.67, 119.91 712.73, 121.85 711.83, 124.17 711.83, 125.33
 711.83, 126.49 712.73, 128.82 714.67, 130.75 716.99, 131.66 719.32, 131.66
 721.64, 130.75 723.58, 128.82 724.48, 126.49 724.48, 124.17"/>
<polyline points="
 724.48, 125.33 724.48, 124.17 723.58, 121.85 721.64, 119.91 719.32, 119.01
 716.99, 119.01 714.67, 119.91 712.73, 121.85 711.83, 124.17 711.83, 125.33
 711.83, 126.49 712.73, 128.82 714.67, 130.75 716.99, 131.66 719.32, 131.66
 721.64, 130.75 723.58, 128.82 724.48, 126.49 724.48, 124.17"/>
<polygon fill="#0000ff" points="
 741.69, 127.63 741.69, 126.47 740.78, 124.14 738.85, 122.21 736.53, 121.30
 734.20, 121.30 731.88, 122.21 729.94, 124.14 729.04, 126.47 729.04, 127.63
 729.04, 128.79 729.94, 131.11 731.88, 133.05 734.20, 133.95 736.53, 133.95
 738.85, 133.05 740.78, 131.11 741.69, 128.79 741.69, 126.47"/>
<polyline points="
 741.69, 127.63 741.69, 126.47 740.78, 124.14 738.85, 122.21 736.53, 121.30
 734.20, 121.30 731.88, 122.21 729.94, 124.14 729.04, 126.47 729.04, 127.63
 729.04, 128.79 729.94, 131.11 731.88, 133.05 734.20, 133.95 736.53, 133.95
 738.85, 133.05 740.78, 131.11 741.69, 128.79 741.69, 126.47"/>
<polygon fill="#0000ff" points="
 758.61, 115.58 758.61, 114.42 757.71, 112.10 755.77, 110.16 753.45, 109.26
 751.12, 109.26 748.80, 110.16 746.86, 112.10 745.96, 114.42 745.96, 115.58
 745.96, 116.74 746.86, 119.07 748.80, 121.00 751.12, 121.91 753.45, 121.91
 755.77, 121.00 757.71, 119.07 758.61, 116.74 758.61, 114.42"/>
<polyline points="
 758.61, 115.58 758.61, 114.42 757.71, 112.10 755.77, 110.16 753.45, 109.26
 751.12, 109.26 748.80, 110.16 746.86, 112.10 745.96, 114.42 745.96, 115.58
 745.96, 116.74 746.86, 119.07 748.80, 121.00 751.12, 121.91 753.45, 121.91
 755.77, 121.00 757.71, 119.07 758.61, 116.74 758.61, 114.42"/>
</g>
<g fill="none" stroke="#ff0000" stroke-width="1.000">
<polyline points="
 256.85, 390.09 273.94, 380.71 291.03, 371.32 308.12, 361.93 325.21, 352.54
 342.29, 343.15 359.38, 333.76 376.47, 324.38 393.56, 314.99 410.65, 305.60
 427.73, 296.21 444.82, 286.82 461.91, 277.43 479.00, 268.05 496.09, 258.66
 513.17, 249.27 530.26, 239.88 547.35, 230.49 564.44, 221.11 581.53, 211.72
 598.61, 202.33 615.70, 192.94 632.79, 183.55 649.88, 174.16 666.97, 164.78
 684.06, 155.39 701.14, 146.00 718.23, 136.61 735.32, 127.22 752.41, 117.84"/>
</g>
<g fill="none" stroke="#000000" stroke-width="1.000">
<polyline points="
 689.19, 68.55 846.07, 68.55 846.07, 109.56 689.19, 109.56 689.19, 68.55"/>
</g>
<g fill="none" stroke="#0000ff" stroke-width="1.000">
<polygon fill="#0000ff" points="
 721.80, 81.74 721.80, 81.02 721.24, 79.57 720.04, 78.37 718.59, 77.80
 717.15, 77.80 715.70, 78.37 714.50, 79.57 713.93, 81.02 713.93, 81.74
 713.93, 82.46 714.50, 83.91 715.70, 85.11 717.15, 85.67 718.59, 85.67
 720.04, 85.11 721.24, 83.91 721.80, 82.46 721.80, 81.02"/>
<polyline points="
 721.80, 81.74 721.80, 81.02 721.24, 79.57 720.04, 78.37 718.59, 77.80
 717.15, 77.80 715.70, 78.37 714.50, 79.57 713.93, 81.02 713.93, 81.74
 713.93, 82.46 714.50, 83.91 715.70, 85.11 717.15, 85.67 718.59, 85.67
 720.04, 85.11 721.24, 83.91 721.80, 82.46 721.80, 81.02"/>
</g>
<g fill="none" stroke="#ff0000" stroke-width="1.000">
<line x1="697.22" y1="97.23" x2="738.52" y2="97.23"/>
</g>
<g font-family="Times" font-weight="normal" font-style="normal"
font-size="15" stroke="none" fill="#000000">
<text x="748.84" y="86.61">M</text>
<text x="763.27" y="86.61">e</text>
<text x="770.94" y="86.61">a</text>
<text x="778.62" y="86.61">s</text>
<text x="785.54" y="86.61">u</text>
<text x="794.07" y="86.61">r</text>
<text x="800.14" y="86.61">e</text>
<text x="807.81" y="86.61">d</text>
<text x="748.84" y="102.10">F</text>
<text x="758.23" y="102.10">i</text>
<text x="763.44" y="102.10">t</text>
<text x="768.65" y="102.10"> </text>
<text x="773.43" y="102.10">y</text>
<text x="781.97" y="102.10">=</text>
<text x="791.46" y="102.10">0</text>
<text x="799.99" y="102.10">.</text>
<text x="804.78" y="102.10">5</text>
<text x="813.31" y="102.10">x</text>
<text x="821.84" y="102.10">+</text>
<text x="831.33" y="102.10">1</text>
</g>
<g font-family="Times" font-weight="normal" font-style="normal"
font-size="17" stroke="none" fill="#000000">
<text x="396.94" y="34.13">L</text>
<text x="408.32" y="34.13">i</text>
<text x="414.11" y="34.13">n</text>
<text x="423.59" y="34.13">e</text>
<text x="432.12" y="34.13">a</text>
<text x="440.64" y="34.13">r</text>
<text x="447.38" y="34.13"> </text>
<text x="452.70" y="34.13">F</text>
<text x="463.13" y="34.13">i</text>
<text x="468.92" y="34.13">t</text>
<text x="474.71" y="34.13"> </text>
<text x="480.02" y="34.13">v</text>
<text x="489.50" y="34.13">s</text>
<text x="497.20" y="34.13"> </text>
<text x="502.51" y="34.13">M</text>
<text x="518.53" y="34.13">e</text>
<text x="527.06" y="34.13">a</text>
<text x="535.59" y="34.13">s</text>
<text x="543.28" y="34.13">u</text>
<text x="552.76" y="34.13">r</text>
<text x="559.50" y="34.13">e</text>
<text x="568.03" y="34.13">m</text>
<text x="582.15" y="34.13">e</text>
<text x="590.68" y="34.13">n</text>
<text x="600.16" y="34.13">t</text>
<text x="605.95" y="34.13">s</text>
</g>
</svg>
