<?xml version="1.0" encoding="ISO-8859-1" standalone="no"?>
<!DOCTYPE svg PUBLIC "-//W3C//DTD SVG 20010904//EN"
  "http://www.w3.org/TR/2001/REC-SVG-20010904/DTD/svg10.dtd">
<!-- Created by DISLIN (http://www.dislin.de)
Version: 11.5
Date   : 28.06.2026 11:55:47
-->
<svg width="853" height="603"
  xmlns="http://www.w3.org/2000/svg"
  xmlns:xlink="http://www.w3.org/1999/xlink">

<g font-family="Times" font-weight="normal" font-style="normal"
font-size="15" stroke="none" fill="#000000">
<text x="564.14" y="311.18">P</text>
<text x="573.53" y="311.18">y</text>
<text x="582.06" y="311.18">t</text>
<text x="587.27" y="311.18">h</text>
<text x="595.80" y="311.18">o</text>
<text x="604.34" y="311.18">n</text>
<text x="564.14" y="326.67">2</text>
<text x="572.67" y="326.67">5</text>
<text x="581.20" y="326.67">.</text>
<text x="585.99" y="326.67">0</text>
<text x="594.52" y="326.67"> </text>
<text x="599.30" y="326.67">%</text>
</g>
<g fill="none" stroke="#000000" stroke-width="1.000">
<polyline points="
 613.68, 463.11 615.70, 461.06 617.70, 458.98 619.66, 456.88 621.60, 454.75
 623.50, 452.59 625.38, 450.41 627.23, 448.20 629.05, 445.96 630.83, 443.71
 632.59, 441.42 634.31, 439.12 636.00, 436.79 637.67, 434.43 639.29, 432.06
 640.89, 429.66 642.45, 427.25 643.98, 424.81 645.48, 422.35 646.94, 419.87
 648.37, 417.36 649.76, 414.85 651.12, 412.31 652.45, 409.75 653.74, 407.18
 654.99, 404.58 656.21, 401.98 657.39, 399.35 658.54, 396.71 659.65, 394.05
 660.72, 391.38 661.76, 388.70 662.76, 386.00 663.73, 383.28 664.65, 380.56
 665.54, 377.82 666.40, 375.07 667.21, 372.31 667.99, 369.54 668.73, 366.75
 669.43, 363.96 670.09, 361.16 670.71, 358.35 671.30, 355.53 671.85, 352.70
 672.36, 349.87 672.83, 347.03 673.26, 344.18 673.65, 341.33 674.00, 338.47
 674.32, 335.61 674.59, 332.74 674.83, 329.87 675.02, 327.00 675.18, 324.12
 675.30, 321.25 675.38, 318.37 675.42, 315.49 675.42, 312.61 675.38, 309.73
 675.30, 306.85 675.18, 303.98 675.02, 301.10 674.83, 298.23 674.59, 295.36
 674.32, 292.49 674.00, 289.63 673.65, 286.77 673.26, 283.92 672.83, 281.07
 672.36, 278.23 671.85, 275.40 671.30, 272.57 670.71, 269.75 670.09, 266.94
 669.43, 264.14 668.73, 261.35 667.99, 258.56 667.21, 255.79 666.40, 253.03
 665.54, 250.28 664.65, 247.54 663.73, 244.82 662.76, 242.10 661.76, 239.40
 660.72, 236.72 659.65, 234.05 658.54, 231.39 657.39, 228.75 656.21, 226.12
 654.99, 223.51 653.74, 220.92 652.45, 218.35 651.12, 215.79 649.76, 213.25
 648.37, 210.73 646.94, 208.23 645.48, 205.75 643.98, 203.29 642.45, 200.85"/>
<polyline points="
 642.45, 200.85 640.89, 198.44 639.29, 196.04 637.67, 193.66 636.00, 191.31
 634.31, 188.98 632.59, 186.68 630.83, 184.39 629.05, 182.14 627.23, 179.90
 625.38, 177.69 623.50, 175.51 621.60, 173.35 619.66, 171.22 617.70, 169.12
 615.70, 167.04 613.68, 164.99 613.68, 164.99 464.62, 314.05 613.68, 463.11"/>
</g>
<g font-family="Times" font-weight="normal" font-style="normal"
font-size="15" stroke="none" fill="#ff0000">
<text x="415.86" y="205.35">C</text>
<text x="426.97" y="205.35">+</text>
<text x="436.46" y="205.35">+</text>
<text x="406.40" y="220.84">3</text>
<text x="414.93" y="220.84">5</text>
<text x="423.46" y="220.84">.</text>
<text x="428.25" y="220.84">0</text>
<text x="436.78" y="220.84"> </text>
<text x="441.56" y="220.84">%</text>
</g>
<g fill="none" stroke="#ff0000" stroke-width="1.000">
<polyline points="
 613.68, 164.99 611.63, 162.97 609.55, 160.98 607.45, 159.01 605.32, 157.07
 603.16, 155.17 600.98, 153.29 598.77, 151.44 596.53, 149.62 594.28, 147.84
 591.99, 146.08 589.69, 144.36 587.36, 142.67 585.01, 141.01 582.63, 139.38
 580.24, 137.78 577.82, 136.22 575.38, 134.69 572.92, 133.19 570.44, 131.73
 567.94, 130.30 565.42, 128.91 562.88, 127.55 560.32, 126.23 557.75, 124.94
 555.16, 123.68 552.55, 122.46 549.92, 121.28 547.28, 120.13 544.63, 119.02
 541.95, 117.95 539.27, 116.91 536.57, 115.91 533.86, 114.94 531.13, 114.02
 528.39, 113.13 525.64, 112.27 522.88, 111.46 520.11, 110.68 517.32, 109.94
 514.53, 109.24 511.73, 108.58 508.92, 107.96 506.10, 107.37 503.27, 106.82
 500.44, 106.31 497.60, 105.84 494.75, 105.41 491.90, 105.02 489.04, 104.67
 486.18, 104.35 483.31, 104.08 480.44, 103.84 477.57, 103.65 474.70, 103.49
 471.82, 103.37 468.94, 103.29 466.06, 103.25 463.18, 103.25 460.30, 103.29
 457.42, 103.37 454.55, 103.49 451.67, 103.65 448.80, 103.84 445.93, 104.08
 443.06, 104.35 440.20, 104.67 437.34, 105.02 434.49, 105.41 431.64, 105.84
 428.80, 106.31 425.97, 106.82 423.14, 107.37 420.32, 107.96 417.51, 108.58
 414.71, 109.24 411.92, 109.94 409.14, 110.68 406.36, 111.46 403.60, 112.27
 400.85, 113.13 398.11, 114.02 395.39, 114.94 392.67, 115.91 389.97, 116.91
 387.29, 117.95 384.62, 119.02 381.96, 120.13 379.32, 121.28 376.69, 122.46
 374.09, 123.68 371.49, 124.94 368.92, 126.23 366.36, 127.55 363.83, 128.91
 361.31, 130.30 358.81, 131.73 356.33, 133.19 353.87, 134.69 351.43, 136.22"/>
<polyline points="
 351.43, 136.22 349.01, 137.78 346.61, 139.38 344.24, 141.01 341.88, 142.67
 339.55, 144.36 337.25, 146.08 334.97, 147.84 332.71, 149.62 330.47, 151.44
 328.27, 153.29 326.08, 155.17 323.93, 157.07 321.79, 159.01 319.69, 160.98
 317.61, 162.97 315.56, 164.99 313.54, 167.04 311.55, 169.12 309.58, 171.22
 307.65, 173.35 305.74, 175.51 303.86, 177.69 302.01, 179.90 300.20, 182.14
 298.41, 184.39 296.65, 186.68 294.93, 188.98 293.24, 191.31 291.58, 193.66
 289.95, 196.04 288.35, 198.44 286.79, 200.85 285.26, 203.29 283.77, 205.75
 282.30, 208.23 280.87, 210.73 279.48, 213.25 278.12, 215.79 276.80, 218.35
 275.51, 220.92 274.25, 223.51 273.03, 226.12 271.85, 228.75 270.70, 231.39
 269.59, 234.05 268.52, 236.72 267.48, 239.40 266.48, 242.10 265.51, 244.81
 264.59, 247.54 263.70, 250.28 262.85, 253.03 262.03, 255.79 261.25, 258.56
 260.52, 261.35 259.81, 264.14 259.15, 266.94 258.53, 269.75 257.94, 272.57
 257.39, 275.40 256.89, 278.23 256.42, 281.07 464.62, 314.05 613.68, 164.99"/>
<line x1="330.09" y1="151.77" x2="302.34" y2="179.51"/>
<line x1="363.97" y1="128.83" x2="279.40" y2="213.40"/>
<line x1="384.81" y1="118.94" x2="269.51" y2="234.24"/>
<line x1="401.91" y1="112.80" x2="263.37" y2="251.33"/>
<line x1="416.94" y1="108.72" x2="259.29" y2="266.37"/>
<line x1="430.59" y1="106.02" x2="256.59" y2="280.02"/>
<line x1="443.22" y1="104.34" x2="265.11" y2="282.45"/>
<line x1="455.04" y1="103.47" x2="274.56" y2="283.95"/>
<line x1="466.21" y1="103.26" x2="284.02" y2="285.44"/>
<line x1="476.81" y1="103.61" x2="293.47" y2="286.94"/>
<line x1="486.93" y1="104.44" x2="302.92" y2="288.44"/>
<line x1="496.62" y1="105.70" x2="410.73" y2="191.58"/>
<line x1="402.67" y1="199.64" x2="312.38" y2="289.94"/>
<line x1="505.93" y1="107.34" x2="421.68" y2="191.58"/>
<line x1="402.67" y1="210.59" x2="321.83" y2="291.43"/>
<line x1="514.89" y1="109.33" x2="432.63" y2="191.58"/>
<line x1="402.67" y1="221.55" x2="331.29" y2="292.93"/>
<line x1="523.52" y1="111.65" x2="443.58" y2="191.58"/>
<line x1="410.32" y1="224.85" x2="340.74" y2="294.43"/>
<line x1="531.86" y1="114.26" x2="454.54" y2="191.58"/>
<line x1="421.27" y1="224.85" x2="350.19" y2="295.93"/>
<line x1="539.91" y1="117.16" x2="457.74" y2="199.33"/>
<line x1="432.22" y1="224.85" x2="359.65" y2="297.42"/>
<line x1="547.71" y1="120.32" x2="457.74" y2="210.28"/>
<line x1="443.17" y1="224.85" x2="369.10" y2="298.92"/>
<line x1="555.25" y1="123.73" x2="457.74" y2="221.24"/>
<line x1="454.12" y1="224.85" x2="378.56" y2="300.42"/>
<line x1="562.55" y1="127.38" x2="388.01" y2="301.92"/>
<line x1="569.61" y1="131.26" x2="397.46" y2="303.41"/>
<line x1="576.46" y1="135.37" x2="406.92" y2="304.91"/>
<line x1="583.09" y1="139.69" x2="416.37" y2="306.41"/>
<line x1="589.50" y1="144.23" x2="425.82" y2="307.90"/>
<line x1="595.71" y1="148.97" x2="435.28" y2="309.40"/>
<line x1="601.71" y1="153.92" x2="444.73" y2="310.90"/>
<line x1="607.51" y1="159.07" x2="454.19" y2="312.40"/>
<line x1="613.11" y1="164.43" x2="463.64" y2="313.89"/>
</g>
<g font-family="Times" font-weight="normal" font-style="normal"
font-size="15" stroke="none" fill="#00ff00">
<text x="312.04" y="355.92">J</text>
<text x="318.97" y="355.92">a</text>
<text x="326.64" y="355.92">v</text>
<text x="335.17" y="355.92">a</text>
<text x="303.15" y="371.41">1</text>
<text x="311.68" y="371.41">5</text>
<text x="320.21" y="371.41">.</text>
<text x="325.00" y="371.41">0</text>
<text x="333.53" y="371.41"> </text>
<text x="338.31" y="371.41">%</text>
</g>
<g fill="none" stroke="#00ff00" stroke-width="1.000">
<polyline points="
 256.42, 281.07 255.99, 283.92 255.59, 286.77 255.24, 289.63 254.93, 292.49
 254.65, 295.36 254.42, 298.23 254.22, 301.10 254.06, 303.98 253.94, 306.85
 253.87, 309.73 253.83, 312.61 253.83, 315.49 253.87, 318.37 253.94, 321.25
 254.06, 324.12 254.22, 327.00 254.42, 329.87 254.65, 332.74 254.93, 335.61
 255.24, 338.47 255.59, 341.33 255.99, 344.18 256.42, 347.03 256.89, 349.87
 257.39, 352.70 257.94, 355.53 258.53, 358.35 259.15, 361.16 259.81, 363.96
 260.52, 366.75 261.25, 369.54 262.03, 372.31 262.85, 375.07 263.70, 377.82
 264.59, 380.56 265.51, 383.28 266.48, 386.00 267.48, 388.70 268.52, 391.38
 269.59, 394.05 270.70, 396.71 271.85, 399.35 273.03, 401.98 274.25, 404.58
 275.51, 407.18 276.80, 409.75 278.12, 412.31 279.48, 414.85 280.87, 417.36
 282.30, 419.87 283.77, 422.35 285.26, 424.81 286.79, 427.25 288.35, 429.66
 289.95, 432.06 291.58, 434.43 293.24, 436.79 294.93, 439.12 296.65, 441.42
 298.41, 443.71 300.20, 445.96 302.01, 448.20 303.86, 450.41 305.74, 452.59
 307.65, 454.75 309.58, 456.88 311.55, 458.98 313.54, 461.06 315.56, 463.11
 464.62, 314.05 256.42, 281.07"/>
<line x1="315.37" y1="462.91" x2="315.62" y2="463.05"/>
<line x1="314.61" y1="462.14" x2="315.83" y2="462.84"/>
<line x1="313.85" y1="461.37" x2="316.04" y2="462.63"/>
<line x1="313.12" y1="460.62" x2="316.25" y2="462.42"/>
<line x1="312.41" y1="459.88" x2="316.46" y2="462.21"/>
<line x1="311.70" y1="459.14" x2="316.67" y2="462.00"/>
<line x1="311.02" y1="458.41" x2="316.88" y2="461.80"/>
<line x1="295.03" y1="439.25" x2="323.17" y2="455.50"/>
<line x1="294.61" y1="438.67" x2="323.38" y2="455.29"/>
<line x1="294.19" y1="438.10" x2="323.59" y2="455.08"/>
<line x1="293.78" y1="437.53" x2="323.80" y2="454.87"/>
<line x1="293.36" y1="436.96" x2="324.01" y2="454.66"/>
<line x1="292.96" y1="436.40" x2="324.22" y2="454.45"/>
<line x1="292.57" y1="435.84" x2="324.43" y2="454.24"/>
<line x1="292.17" y1="435.28" x2="324.64" y2="454.03"/>
<line x1="282.12" y1="419.54" x2="330.94" y2="447.73"/>
<line x1="281.83" y1="419.04" x2="331.15" y2="447.52"/>
<line x1="281.55" y1="418.55" x2="331.36" y2="447.31"/>
<line x1="281.27" y1="418.06" x2="331.57" y2="447.10"/>
<line x1="280.99" y1="417.56" x2="331.78" y2="446.89"/>
<line x1="280.71" y1="417.07" x2="331.99" y2="446.68"/>
<line x1="280.44" y1="416.59" x2="332.20" y2="446.47"/>
<line x1="280.17" y1="416.10" x2="332.41" y2="446.26"/>
<line x1="273.08" y1="402.06" x2="338.71" y2="439.96"/>
<line x1="272.87" y1="401.62" x2="338.92" y2="439.75"/>
<line x1="272.67" y1="401.17" x2="339.13" y2="439.54"/>
<line x1="272.47" y1="400.72" x2="339.34" y2="439.33"/>
<line x1="272.27" y1="400.27" x2="339.55" y2="439.12"/>
<line x1="272.06" y1="399.83" x2="339.76" y2="438.91"/>
<line x1="271.86" y1="399.38" x2="339.97" y2="438.70"/>
<line x1="271.67" y1="398.94" x2="340.18" y2="438.49"/>
<line x1="266.48" y1="386.00" x2="346.48" y2="432.19"/>
<line x1="266.33" y1="385.59" x2="346.69" y2="431.98"/>
<line x1="266.19" y1="385.17" x2="346.90" y2="431.77"/>
<line x1="266.04" y1="384.75" x2="347.11" y2="431.56"/>
<line x1="265.89" y1="384.34" x2="347.32" y2="431.35"/>
<line x1="265.74" y1="383.92" x2="347.53" y2="431.14"/>
<line x1="265.59" y1="383.50" x2="347.74" y2="430.93"/>
<line x1="265.45" y1="383.09" x2="347.95" y2="430.72"/>
<line x1="261.65" y1="370.96" x2="354.25" y2="424.42"/>
<line x1="261.54" y1="370.57" x2="354.46" y2="424.21"/>
<line x1="261.43" y1="370.17" x2="354.67" y2="424.00"/>
<line x1="261.32" y1="369.78" x2="354.88" y2="423.79"/>
<line x1="261.21" y1="369.39" x2="355.09" y2="423.58"/>
<line x1="261.11" y1="368.99" x2="355.30" y2="423.37"/>
<line x1="261.01" y1="368.60" x2="355.51" y2="423.16"/>
<line x1="260.90" y1="368.21" x2="355.72" y2="422.95"/>
<line x1="258.19" y1="356.71" x2="362.02" y2="416.65"/>
<line x1="258.11" y1="356.33" x2="362.23" y2="416.44"/>
<line x1="258.03" y1="355.96" x2="362.44" y2="416.23"/>
<line x1="257.95" y1="355.58" x2="362.65" y2="416.02"/>
<line x1="257.88" y1="355.21" x2="362.86" y2="415.81"/>
<line x1="257.81" y1="354.83" x2="363.07" y2="415.61"/>
<line x1="257.74" y1="354.46" x2="363.28" y2="415.40"/>
<line x1="257.66" y1="354.09" x2="363.49" y2="415.19"/>
<line x1="255.84" y1="343.10" x2="299.42" y2="368.26"/>
<line x1="311.83" y1="375.43" x2="369.78" y2="408.89"/>
<line x1="255.79" y1="342.74" x2="299.42" y2="367.93"/>
<line x1="312.40" y1="375.43" x2="369.99" y2="408.68"/>
<line x1="255.74" y1="342.38" x2="299.42" y2="367.60"/>
<line x1="312.98" y1="375.43" x2="370.20" y2="408.47"/>
<line x1="255.69" y1="342.02" x2="299.42" y2="367.27"/>
<line x1="313.55" y1="375.43" x2="370.41" y2="408.26"/>
<line x1="255.64" y1="341.66" x2="299.42" y2="366.94"/>
<line x1="314.12" y1="375.43" x2="370.62" y2="408.05"/>
<line x1="255.59" y1="341.30" x2="299.42" y2="366.61"/>
<line x1="314.70" y1="375.43" x2="370.83" y2="407.84"/>
<line x1="255.55" y1="340.94" x2="299.42" y2="366.28"/>
<line x1="315.27" y1="375.43" x2="371.04" y2="407.63"/>
<line x1="255.50" y1="340.59" x2="299.42" y2="365.94"/>
<line x1="315.84" y1="375.43" x2="371.25" y2="407.42"/>
<line x1="254.43" y1="330.03" x2="299.42" y2="356.01"/>
<line x1="333.05" y1="375.43" x2="377.55" y2="401.12"/>
<line x1="254.40" y1="329.69" x2="299.42" y2="355.68"/>
<line x1="333.63" y1="375.43" x2="377.76" y2="400.91"/>
<line x1="254.38" y1="329.34" x2="299.42" y2="355.35"/>
<line x1="334.20" y1="375.43" x2="377.97" y2="400.70"/>
<line x1="254.36" y1="329.00" x2="299.42" y2="355.02"/>
<line x1="334.77" y1="375.43" x2="378.18" y2="400.49"/>
<line x1="254.33" y1="328.65" x2="299.42" y2="354.69"/>
<line x1="335.35" y1="375.43" x2="378.39" y2="400.28"/>
<line x1="254.31" y1="328.31" x2="299.42" y2="354.35"/>
<line x1="335.92" y1="375.43" x2="378.60" y2="400.07"/>
<line x1="254.28" y1="327.96" x2="299.42" y2="354.02"/>
<line x1="336.49" y1="375.43" x2="378.81" y2="399.86"/>
<line x1="254.26" y1="327.62" x2="299.42" y2="353.69"/>
<line x1="337.07" y1="375.43" x2="379.02" y2="399.65"/>
<line x1="253.85" y1="317.45" x2="299.42" y2="343.76"/>
<line x1="354.28" y1="375.43" x2="385.32" y2="393.35"/>
<line x1="253.85" y1="317.11" x2="299.42" y2="343.43"/>
<line x1="354.49" y1="375.22" x2="385.53" y2="393.14"/>
<line x1="253.84" y1="316.78" x2="299.42" y2="343.09"/>
<line x1="354.49" y1="374.89" x2="385.74" y2="392.93"/>
<line x1="253.84" y1="316.45" x2="299.42" y2="342.76"/>
<line x1="354.49" y1="374.56" x2="385.95" y2="392.72"/>
<line x1="253.83" y1="316.11" x2="299.42" y2="342.43"/>
<line x1="354.49" y1="374.22" x2="386.16" y2="392.51"/>
<line x1="253.83" y1="315.78" x2="299.52" y2="342.16"/>
<line x1="354.49" y1="373.89" x2="386.37" y2="392.30"/>
<line x1="253.83" y1="315.44" x2="300.09" y2="342.16"/>
<line x1="354.49" y1="373.56" x2="386.58" y2="392.09"/>
<line x1="253.83" y1="315.11" x2="300.67" y2="342.16"/>
<line x1="354.49" y1="373.23" x2="386.79" y2="391.88"/>
<line x1="254.01" y1="305.28" x2="317.87" y2="342.16"/>
<line x1="354.49" y1="363.30" x2="393.09" y2="385.58"/>
<line x1="254.02" y1="304.96" x2="318.45" y2="342.16"/>
<line x1="354.49" y1="362.96" x2="393.30" y2="385.37"/>
<line x1="254.03" y1="304.64" x2="319.02" y2="342.16"/>
<line x1="354.49" y1="362.63" x2="393.51" y2="385.16"/>
<line x1="254.05" y1="304.31" x2="319.60" y2="342.16"/>
<line x1="354.49" y1="362.30" x2="393.72" y2="384.95"/>
<line x1="254.06" y1="303.99" x2="320.17" y2="342.16"/>
<line x1="354.49" y1="361.97" x2="393.93" y2="384.74"/>
<line x1="254.08" y1="303.67" x2="320.74" y2="342.16"/>
<line x1="354.49" y1="361.64" x2="394.14" y2="384.53"/>
<line x1="254.10" y1="303.35" x2="321.32" y2="342.16"/>
<line x1="354.49" y1="361.31" x2="394.35" y2="384.32"/>
<line x1="254.11" y1="303.03" x2="321.89" y2="342.16"/>
<line x1="354.49" y1="360.98" x2="394.56" y2="384.11"/>
<line x1="254.83" y1="293.50" x2="339.10" y2="342.16"/>
<line x1="354.49" y1="351.04" x2="400.86" y2="377.81"/>
<line x1="254.86" y1="293.19" x2="339.67" y2="342.16"/>
<line x1="354.49" y1="350.71" x2="401.07" y2="377.60"/>
<line x1="254.89" y1="292.88" x2="340.25" y2="342.16"/>
<line x1="354.49" y1="350.38" x2="401.28" y2="377.39"/>
<line x1="254.92" y1="292.56" x2="340.82" y2="342.16"/>
<line x1="354.49" y1="350.05" x2="401.49" y2="377.18"/>
<line x1="254.95" y1="292.25" x2="341.39" y2="342.16"/>
<line x1="354.49" y1="349.72" x2="401.70" y2="376.97"/>
<line x1="254.99" y1="291.94" x2="341.97" y2="342.16"/>
<line x1="354.49" y1="349.39" x2="401.91" y2="376.76"/>
<line x1="255.02" y1="291.63" x2="342.54" y2="342.16"/>
<line x1="354.49" y1="349.06" x2="402.12" y2="376.55"/>
<line x1="255.06" y1="291.32" x2="343.11" y2="342.16"/>
<line x1="354.49" y1="348.72" x2="402.33" y2="376.34"/>
<line x1="256.26" y1="282.08" x2="408.63" y2="370.04"/>
<line x1="256.31" y1="281.77" x2="408.84" y2="369.83"/>
<line x1="256.36" y1="281.47" x2="409.05" y2="369.62"/>
<line x1="256.40" y1="281.16" x2="409.26" y2="369.42"/>
<line x1="256.97" y1="281.16" x2="409.47" y2="369.21"/>
<line x1="257.76" y1="281.29" x2="409.68" y2="369.00"/>
<line x1="258.55" y1="281.41" x2="409.89" y2="368.79"/>
<line x1="259.34" y1="281.54" x2="410.10" y2="368.58"/>
<line x1="283.05" y1="285.29" x2="416.39" y2="362.28"/>
<line x1="283.84" y1="285.42" x2="416.60" y2="362.07"/>
<line x1="284.63" y1="285.54" x2="416.81" y2="361.86"/>
<line x1="285.42" y1="285.67" x2="417.02" y2="361.65"/>
<line x1="286.21" y1="285.79" x2="417.23" y2="361.44"/>
<line x1="287.01" y1="285.92" x2="417.44" y2="361.23"/>
<line x1="287.80" y1="286.04" x2="417.65" y2="361.02"/>
<line x1="288.59" y1="286.17" x2="417.86" y2="360.81"/>
<line x1="312.30" y1="289.92" x2="424.16" y2="354.51"/>
<line x1="313.09" y1="290.05" x2="424.37" y2="354.30"/>
<line x1="313.88" y1="290.17" x2="424.58" y2="354.09"/>
<line x1="314.67" y1="290.30" x2="424.79" y2="353.88"/>
<line x1="315.46" y1="290.42" x2="425.00" y2="353.67"/>
<line x1="316.25" y1="290.55" x2="425.21" y2="353.46"/>
<line x1="317.04" y1="290.68" x2="425.42" y2="353.25"/>
<line x1="317.83" y1="290.80" x2="425.63" y2="353.04"/>
<line x1="341.55" y1="294.56" x2="431.93" y2="346.74"/>
<line x1="342.34" y1="294.68" x2="432.14" y2="346.53"/>
<line x1="343.13" y1="294.81" x2="432.35" y2="346.32"/>
<line x1="343.92" y1="294.93" x2="432.56" y2="346.11"/>
<line x1="344.71" y1="295.06" x2="432.77" y2="345.90"/>
<line x1="345.50" y1="295.18" x2="432.98" y2="345.69"/>
<line x1="346.29" y1="295.31" x2="433.19" y2="345.48"/>
<line x1="347.08" y1="295.43" x2="433.40" y2="345.27"/>
<line x1="370.79" y1="299.19" x2="439.70" y2="338.97"/>
<line x1="371.58" y1="299.31" x2="439.91" y2="338.76"/>
<line x1="372.37" y1="299.44" x2="440.12" y2="338.55"/>
<line x1="373.16" y1="299.56" x2="440.33" y2="338.34"/>
<line x1="373.95" y1="299.69" x2="440.54" y2="338.13"/>
<line x1="374.75" y1="299.81" x2="440.75" y2="337.92"/>
<line x1="375.54" y1="299.94" x2="440.96" y2="337.71"/>
<line x1="376.33" y1="300.06" x2="441.17" y2="337.50"/>
<line x1="400.04" y1="303.82" x2="447.47" y2="331.20"/>
<line x1="400.83" y1="303.95" x2="447.68" y2="330.99"/>
<line x1="401.62" y1="304.07" x2="447.89" y2="330.78"/>
<line x1="402.41" y1="304.20" x2="448.10" y2="330.57"/>
<line x1="403.20" y1="304.32" x2="448.31" y2="330.36"/>
<line x1="403.99" y1="304.45" x2="448.52" y2="330.15"/>
<line x1="404.78" y1="304.57" x2="448.73" y2="329.94"/>
<line x1="405.57" y1="304.70" x2="448.94" y2="329.73"/>
<line x1="429.29" y1="308.45" x2="455.24" y2="323.43"/>
<line x1="430.08" y1="308.58" x2="455.45" y2="323.23"/>
<line x1="430.87" y1="308.70" x2="455.66" y2="323.02"/>
<line x1="431.66" y1="308.83" x2="455.87" y2="322.81"/>
<line x1="432.45" y1="308.95" x2="456.08" y2="322.60"/>
<line x1="433.24" y1="309.08" x2="456.29" y2="322.39"/>
<line x1="434.03" y1="309.20" x2="456.50" y2="322.18"/>
<line x1="434.82" y1="309.33" x2="456.71" y2="321.97"/>
<line x1="458.53" y1="313.09" x2="463.00" y2="315.67"/>
<line x1="459.32" y1="313.21" x2="463.21" y2="315.46"/>
<line x1="460.11" y1="313.34" x2="463.42" y2="315.25"/>
<line x1="460.90" y1="313.46" x2="463.63" y2="315.04"/>
<line x1="461.69" y1="313.59" x2="463.84" y2="314.83"/>
<line x1="462.49" y1="313.71" x2="464.05" y2="314.62"/>
<line x1="463.28" y1="313.84" x2="464.26" y2="314.41"/>
<line x1="464.07" y1="313.96" x2="464.47" y2="314.20"/>
</g>
<g font-family="Times" font-weight="normal" font-style="normal"
font-size="15" stroke="none" fill="#ffff00">
<text x="428.77" y="442.25">R</text>
<text x="439.87" y="442.25">u</text>
<text x="448.40" y="442.25">s</text>
<text x="455.33" y="442.25">t</text>
<text x="420.17" y="457.74">2</text>
<text x="428.70" y="457.74">0</text>
<text x="437.23" y="457.74">.</text>
<text x="442.01" y="457.74">0</text>
<text x="450.54" y="457.74"> </text>
<text x="455.33" y="457.74">%</text>
</g>
<g fill="none" stroke="#ffff00" stroke-width="1.000">
<polyline points="
 315.56, 463.11 317.61, 465.13 319.69, 467.12 321.79, 469.09 323.93, 471.03
 326.08, 472.93 328.27, 474.81 330.47, 476.66 332.71, 478.47 334.97, 480.26
 337.25, 482.02 339.55, 483.74 341.88, 485.43 344.24, 487.09 346.61, 488.72
 349.01, 490.32 351.43, 491.88 353.87, 493.41 356.33, 494.91 358.81, 496.37
 361.31, 497.80 363.83, 499.19 366.36, 500.55 368.92, 501.87 371.49, 503.16
 374.09, 504.42 376.69, 505.64 379.32, 506.82 381.96, 507.97 384.62, 509.08
 387.29, 510.15 389.97, 511.19 392.67, 512.19 395.39, 513.16 398.11, 514.08
 400.85, 514.97 403.60, 515.83 406.36, 516.64 409.14, 517.42 411.92, 518.16
 414.71, 518.86 417.51, 519.52 420.32, 520.14 423.14, 520.73 425.97, 521.28
 428.80, 521.78 431.64, 522.25 434.49, 522.69 437.34, 523.08 440.20, 523.43
 443.06, 523.74 445.93, 524.02 448.80, 524.26 451.67, 524.45 454.55, 524.61
 457.42, 524.73 460.30, 524.81 463.18, 524.85 466.06, 524.85 468.94, 524.81
 471.82, 524.73 474.70, 524.61 477.57, 524.45 480.44, 524.26 483.31, 524.02
 486.18, 523.74 489.04, 523.43 491.90, 523.08 494.75, 522.69 497.60, 522.25
 500.44, 521.78 503.27, 521.28 506.10, 520.73 508.92, 520.14 511.73, 519.52
 514.53, 518.86 517.32, 518.16 520.11, 517.42 522.88, 516.64 525.64, 515.83
 528.39, 514.97 531.13, 514.08 533.86, 513.16 536.57, 512.19 539.27, 511.19
 541.95, 510.15 544.63, 509.08 547.28, 507.97 549.92, 506.82 552.55, 505.64
 555.16, 504.42 557.75, 503.16 560.32, 501.87 560.32, 501.87 464.62, 314.05
 315.56, 463.11"/>
<line x1="318.15" y1="460.52" x2="345.80" y2="488.17"/>
<line x1="323.63" y1="455.04" x2="371.99" y2="503.40"/>
<line x1="329.10" y1="449.57" x2="391.17" y2="511.63"/>
<line x1="334.58" y1="444.09" x2="407.43" y2="516.94"/>
<line x1="340.06" y1="438.62" x2="421.91" y2="520.47"/>
<line x1="345.53" y1="433.14" x2="435.17" y2="522.78"/>
<line x1="351.01" y1="427.66" x2="447.49" y2="524.15"/>
<line x1="356.48" y1="422.19" x2="459.06" y2="524.77"/>
<line x1="361.96" y1="416.71" x2="470.02" y2="524.78"/>
<line x1="367.43" y1="411.24" x2="416.44" y2="460.24"/>
<line x1="417.95" y1="461.75" x2="480.45" y2="524.25"/>
<line x1="372.91" y1="405.76" x2="416.44" y2="449.29"/>
<line x1="428.90" y1="461.75" x2="490.41" y2="523.26"/>
<line x1="378.38" y1="400.29" x2="416.44" y2="438.34"/>
<line x1="439.85" y1="461.75" x2="499.96" y2="521.86"/>
<line x1="383.86" y1="394.81" x2="417.53" y2="428.48"/>
<line x1="450.80" y1="461.75" x2="509.14" y2="520.09"/>
<line x1="389.34" y1="389.34" x2="428.48" y2="428.48"/>
<line x1="461.75" y1="461.75" x2="517.98" y2="517.98"/>
<line x1="394.81" y1="383.86" x2="439.44" y2="428.48"/>
<line x1="471.50" y1="460.55" x2="526.51" y2="515.56"/>
<line x1="400.29" y1="378.38" x2="450.39" y2="428.48"/>
<line x1="471.50" y1="449.60" x2="534.74" y2="512.84"/>
<line x1="405.76" y1="372.91" x2="461.34" y2="428.48"/>
<line x1="471.50" y1="438.65" x2="542.70" y2="509.85"/>
<line x1="411.24" y1="367.43" x2="550.41" y2="506.60"/>
<line x1="416.71" y1="361.96" x2="557.86" y2="503.11"/>
<line x1="422.19" y1="356.48" x2="552.78" y2="487.07"/>
<line x1="427.66" y1="351.01" x2="541.41" y2="464.75"/>
<line x1="433.14" y1="345.53" x2="530.03" y2="442.42"/>
<line x1="438.62" y1="340.06" x2="518.65" y2="420.09"/>
<line x1="444.09" y1="334.58" x2="507.28" y2="397.76"/>
<line x1="449.57" y1="329.10" x2="495.90" y2="375.44"/>
<line x1="455.04" y1="323.63" x2="484.52" y2="353.11"/>
<line x1="460.52" y1="318.15" x2="473.15" y2="330.78"/>
</g>
<g font-family="Times" font-weight="normal" font-style="normal"
font-size="15" stroke="none" fill="#0000ff">
<text x="632.40" y="504.77">O</text>
<text x="644.36" y="504.77">t</text>
<text x="649.57" y="504.77">h</text>
<text x="658.10" y="504.77">e</text>
<text x="665.78" y="504.77">r</text>
<text x="631.83" y="520.26">5</text>
<text x="640.36" y="520.26">.</text>
<text x="645.14" y="520.26">0</text>
<text x="653.67" y="520.26"> </text>
<text x="658.45" y="520.26">%</text>
</g>
<g fill="none" stroke="#0000ff" stroke-width="1.000">
<line x1="605.15" y1="507.64" x2="591.68" y2="489.00"/>
<polygon fill="#0000ff" points="
 593.23, 502.03 591.68, 489.00 603.56, 494.56"/>
<polyline points="
 593.23, 502.03 591.68, 489.00 603.56, 494.56 593.23, 502.03"/>
<line x1="628.10" y1="507.64" x2="605.15" y2="507.64"/>
<polyline points="
 560.32, 501.87 562.88, 500.55 565.42, 499.19 567.94, 497.80 570.44, 496.37
 572.92, 494.91 575.38, 493.41 577.82, 491.88 580.24, 490.32 582.63, 488.72
 585.01, 487.09 587.36, 485.43 589.69, 483.74 591.99, 482.02 594.28, 480.26
 596.53, 478.47 598.77, 476.66 600.98, 474.81 603.16, 472.93 605.32, 471.03
 607.45, 469.09 609.55, 467.12 611.63, 465.13 613.68, 463.11 613.68, 463.11
 464.62, 314.05 560.32, 501.87"/>
<line x1="464.66" y1="314.09" x2="464.65" y2="314.10"/>
<line x1="464.87" y1="314.29" x2="464.79" y2="314.37"/>
<line x1="465.07" y1="314.50" x2="464.92" y2="314.64"/>
<line x1="465.27" y1="314.70" x2="465.06" y2="314.91"/>
<line x1="465.47" y1="314.90" x2="465.20" y2="315.18"/>
<line x1="465.68" y1="315.11" x2="465.33" y2="315.45"/>
<line x1="471.76" y1="321.19" x2="469.44" y2="323.51"/>
<line x1="471.96" y1="321.39" x2="469.58" y2="323.78"/>
<line x1="472.17" y1="321.59" x2="469.71" y2="324.05"/>
<line x1="472.37" y1="321.80" x2="469.85" y2="324.32"/>
<line x1="472.57" y1="322.00" x2="469.99" y2="324.58"/>
<line x1="472.77" y1="322.20" x2="470.13" y2="324.85"/>
<line x1="472.98" y1="322.41" x2="470.26" y2="325.12"/>
<line x1="473.18" y1="322.61" x2="470.40" y2="325.39"/>
<line x1="479.26" y1="328.69" x2="474.51" y2="333.45"/>
<line x1="479.47" y1="328.90" x2="474.64" y2="333.72"/>
<line x1="479.67" y1="329.10" x2="474.78" y2="333.99"/>
<line x1="479.87" y1="329.30" x2="474.92" y2="334.26"/>
<line x1="480.08" y1="329.50" x2="475.05" y2="334.53"/>
<line x1="480.28" y1="329.71" x2="475.19" y2="334.79"/>
<line x1="480.48" y1="329.91" x2="475.33" y2="335.06"/>
<line x1="480.68" y1="330.11" x2="475.46" y2="335.33"/>
<line x1="486.77" y1="336.20" x2="479.57" y2="343.39"/>
<line x1="486.97" y1="336.40" x2="479.71" y2="343.66"/>
<line x1="487.17" y1="336.60" x2="479.85" y2="343.93"/>
<line x1="487.38" y1="336.80" x2="479.98" y2="344.20"/>
<line x1="487.58" y1="337.01" x2="480.12" y2="344.47"/>
<line x1="487.78" y1="337.21" x2="480.26" y2="344.74"/>
<line x1="487.98" y1="337.41" x2="480.39" y2="345.00"/>
<line x1="488.19" y1="337.62" x2="480.53" y2="345.27"/>
<line x1="494.27" y1="343.70" x2="484.64" y2="353.33"/>
<line x1="494.47" y1="343.90" x2="484.77" y2="353.60"/>
<line x1="494.68" y1="344.11" x2="484.91" y2="353.87"/>
<line x1="494.88" y1="344.31" x2="485.05" y2="354.14"/>
<line x1="495.08" y1="344.51" x2="485.19" y2="354.41"/>
<line x1="495.29" y1="344.71" x2="485.32" y2="354.68"/>
<line x1="495.49" y1="344.92" x2="485.46" y2="354.95"/>
<line x1="495.69" y1="345.12" x2="485.60" y2="355.21"/>
<line x1="501.78" y1="351.20" x2="489.70" y2="363.28"/>
<line x1="501.98" y1="351.41" x2="489.84" y2="363.54"/>
<line x1="502.18" y1="351.61" x2="489.98" y2="363.81"/>
<line x1="502.38" y1="351.81" x2="490.11" y2="364.08"/>
<line x1="502.59" y1="352.01" x2="490.25" y2="364.35"/>
<line x1="502.79" y1="352.22" x2="490.39" y2="364.62"/>
<line x1="502.99" y1="352.42" x2="490.52" y2="364.89"/>
<line x1="503.19" y1="352.62" x2="490.66" y2="365.16"/>
<line x1="509.28" y1="358.71" x2="494.77" y2="373.22"/>
<line x1="509.48" y1="358.91" x2="494.91" y2="373.49"/>
<line x1="509.68" y1="359.11" x2="495.04" y2="373.75"/>
<line x1="509.89" y1="359.32" x2="495.18" y2="374.02"/>
<line x1="510.09" y1="359.52" x2="495.32" y2="374.29"/>
<line x1="510.29" y1="359.72" x2="495.45" y2="374.56"/>
<line x1="510.50" y1="359.92" x2="495.59" y2="374.83"/>
<line x1="510.70" y1="360.13" x2="495.73" y2="375.10"/>
<line x1="516.78" y1="366.21" x2="499.83" y2="383.16"/>
<line x1="516.99" y1="366.41" x2="499.97" y2="383.43"/>
<line x1="517.19" y1="366.62" x2="500.11" y2="383.70"/>
<line x1="517.39" y1="366.82" x2="500.25" y2="383.97"/>
<line x1="517.59" y1="367.02" x2="500.38" y2="384.23"/>
<line x1="517.80" y1="367.22" x2="500.52" y2="384.50"/>
<line x1="518.00" y1="367.43" x2="500.66" y2="384.77"/>
<line x1="518.20" y1="367.63" x2="500.79" y2="385.04"/>
<line x1="524.29" y1="373.71" x2="504.90" y2="393.10"/>
<line x1="524.49" y1="373.92" x2="505.04" y2="393.37"/>
<line x1="524.69" y1="374.12" x2="505.17" y2="393.64"/>
<line x1="524.89" y1="374.32" x2="505.31" y2="393.91"/>
<line x1="525.10" y1="374.53" x2="505.45" y2="394.18"/>
<line x1="525.30" y1="374.73" x2="505.58" y2="394.44"/>
<line x1="525.50" y1="374.93" x2="505.72" y2="394.71"/>
<line x1="525.71" y1="375.13" x2="505.86" y2="394.98"/>
<line x1="531.79" y1="381.22" x2="509.97" y2="403.04"/>
<line x1="531.99" y1="381.42" x2="510.10" y2="403.31"/>
<line x1="532.20" y1="381.62" x2="510.24" y2="403.58"/>
<line x1="532.40" y1="381.83" x2="510.38" y2="403.85"/>
<line x1="532.60" y1="382.03" x2="510.51" y2="404.12"/>
<line x1="532.80" y1="382.23" x2="510.65" y2="404.39"/>
<line x1="533.01" y1="382.43" x2="510.79" y2="404.65"/>
<line x1="533.21" y1="382.64" x2="510.92" y2="404.92"/>
<line x1="539.29" y1="388.72" x2="515.03" y2="412.98"/>
<line x1="539.50" y1="388.92" x2="515.17" y2="413.25"/>
<line x1="539.70" y1="389.13" x2="515.30" y2="413.52"/>
<line x1="539.90" y1="389.33" x2="515.44" y2="413.79"/>
<line x1="540.10" y1="389.53" x2="515.58" y2="414.06"/>
<line x1="540.31" y1="389.74" x2="515.72" y2="414.33"/>
<line x1="540.51" y1="389.94" x2="515.85" y2="414.60"/>
<line x1="540.71" y1="390.14" x2="515.99" y2="414.87"/>
<line x1="546.80" y1="396.23" x2="520.10" y2="422.93"/>
<line x1="547.00" y1="396.43" x2="520.23" y2="423.19"/>
<line x1="547.20" y1="396.63" x2="520.37" y2="423.46"/>
<line x1="547.41" y1="396.83" x2="520.51" y2="423.73"/>
<line x1="547.61" y1="397.04" x2="520.64" y2="424.00"/>
<line x1="547.81" y1="397.24" x2="520.78" y2="424.27"/>
<line x1="548.01" y1="397.44" x2="520.92" y2="424.54"/>
<line x1="548.22" y1="397.64" x2="521.05" y2="424.81"/>
<line x1="554.30" y1="403.73" x2="525.16" y2="432.87"/>
<line x1="554.50" y1="403.93" x2="525.30" y2="433.14"/>
<line x1="554.71" y1="404.13" x2="525.44" y2="433.40"/>
<line x1="554.91" y1="404.34" x2="525.57" y2="433.67"/>
<line x1="555.11" y1="404.54" x2="525.71" y2="433.94"/>
<line x1="555.31" y1="404.74" x2="525.85" y2="434.21"/>
<line x1="555.52" y1="404.95" x2="525.98" y2="434.48"/>
<line x1="555.72" y1="405.15" x2="526.12" y2="434.75"/>
<line x1="561.80" y1="411.23" x2="530.23" y2="442.81"/>
<line x1="562.01" y1="411.44" x2="530.36" y2="443.08"/>
<line x1="562.21" y1="411.64" x2="530.50" y2="443.35"/>
<line x1="562.41" y1="411.84" x2="530.64" y2="443.62"/>
<line x1="562.62" y1="412.04" x2="530.78" y2="443.88"/>
<line x1="562.82" y1="412.25" x2="530.91" y2="444.15"/>
<line x1="563.02" y1="412.45" x2="531.05" y2="444.42"/>
<line x1="563.22" y1="412.65" x2="531.19" y2="444.69"/>
<line x1="569.31" y1="418.74" x2="535.29" y2="452.75"/>
<line x1="569.51" y1="418.94" x2="535.43" y2="453.02"/>
<line x1="569.71" y1="419.14" x2="535.57" y2="453.29"/>
<line x1="569.92" y1="419.34" x2="535.70" y2="453.56"/>
<line x1="570.12" y1="419.55" x2="535.84" y2="453.83"/>
<line x1="570.32" y1="419.75" x2="535.98" y2="454.09"/>
<line x1="570.52" y1="419.95" x2="536.11" y2="454.36"/>
<line x1="570.73" y1="420.16" x2="536.25" y2="454.63"/>
<line x1="576.81" y1="426.24" x2="540.36" y2="462.69"/>
<line x1="577.01" y1="426.44" x2="540.50" y2="462.96"/>
<line x1="577.22" y1="426.65" x2="540.63" y2="463.23"/>
<line x1="577.42" y1="426.85" x2="540.77" y2="463.50"/>
<line x1="577.62" y1="427.05" x2="540.91" y2="463.77"/>
<line x1="577.83" y1="427.25" x2="541.04" y2="464.04"/>
<line x1="578.03" y1="427.46" x2="541.18" y2="464.30"/>
<line x1="578.23" y1="427.66" x2="541.32" y2="464.57"/>
<line x1="584.32" y1="433.74" x2="545.42" y2="472.63"/>
<line x1="584.52" y1="433.95" x2="545.56" y2="472.90"/>
<line x1="584.72" y1="434.15" x2="545.70" y2="473.17"/>
<line x1="584.92" y1="434.35" x2="545.83" y2="473.44"/>
<line x1="585.13" y1="434.55" x2="545.97" y2="473.71"/>
<line x1="585.33" y1="434.76" x2="546.11" y2="473.98"/>
<line x1="585.53" y1="434.96" x2="546.25" y2="474.25"/>
<line x1="585.73" y1="435.16" x2="546.38" y2="474.52"/>
<line x1="591.82" y1="441.25" x2="550.49" y2="482.58"/>
<line x1="592.02" y1="441.45" x2="550.63" y2="482.84"/>
<line x1="592.22" y1="441.65" x2="550.76" y2="483.11"/>
<line x1="592.43" y1="441.86" x2="550.90" y2="483.38"/>
<line x1="592.63" y1="442.06" x2="551.04" y2="483.65"/>
<line x1="592.83" y1="442.26" x2="551.17" y2="483.92"/>
<line x1="593.04" y1="442.46" x2="551.31" y2="484.19"/>
<line x1="593.24" y1="442.67" x2="551.45" y2="484.46"/>
<line x1="599.32" y1="448.75" x2="555.56" y2="492.52"/>
<line x1="599.53" y1="448.95" x2="555.69" y2="492.79"/>
<line x1="599.73" y1="449.16" x2="555.83" y2="493.06"/>
<line x1="599.93" y1="449.36" x2="555.97" y2="493.32"/>
<line x1="600.13" y1="449.56" x2="556.10" y2="493.59"/>
<line x1="600.34" y1="449.76" x2="556.24" y2="493.86"/>
<line x1="600.54" y1="449.97" x2="556.38" y2="494.13"/>
<line x1="600.74" y1="450.17" x2="556.51" y2="494.40"/>
<line x1="606.83" y1="456.25" x2="562.16" y2="500.92"/>
<line x1="607.03" y1="456.46" x2="563.00" y2="500.48"/>
<line x1="607.23" y1="456.66" x2="563.88" y2="500.02"/>
<line x1="607.43" y1="456.86" x2="564.75" y2="499.55"/>
<line x1="607.64" y1="457.07" x2="565.63" y2="499.07"/>
<line x1="607.84" y1="457.27" x2="566.54" y2="498.57"/>
<line x1="608.04" y1="457.47" x2="567.45" y2="498.07"/>
<line x1="608.25" y1="457.67" x2="568.37" y2="497.55"/>
</g>
<g font-family="Times" font-weight="normal" font-style="normal"
font-size="17" stroke="none" fill="#000000">
<text x="384.60" y="74.28">L</text>
<text x="395.99" y="74.28">a</text>
<text x="404.51" y="74.28">n</text>
<text x="413.99" y="74.28">g</text>
<text x="423.47" y="74.28">u</text>
<text x="432.95" y="74.28">a</text>
<text x="441.48" y="74.28">g</text>
<text x="450.96" y="74.28">e</text>
<text x="459.49" y="74.28"> </text>
<text x="464.80" y="74.28">P</text>
<text x="475.23" y="74.28">o</text>
<text x="484.71" y="74.28">p</text>
<text x="494.19" y="74.28">u</text>
<text x="503.67" y="74.28">l</text>
<text x="509.46" y="74.28">a</text>
<text x="517.99" y="74.28">r</text>
<text x="524.73" y="74.28">i</text>
<text x="530.52" y="74.28">t</text>
<text x="536.31" y="74.28">y</text>
</g>
</svg>
