<?xml version="1.0" encoding="ISO-8859-1" standalone="no"?>
<!DOCTYPE svg PUBLIC "-//W3C//DTD SVG 20010904//EN"
  "http://www.w3.org/TR/2001/REC-SVG-20010904/DTD/svg10.dtd">
<!-- Created by DISLIN (http://www.dislin.de)
Version: 11.5
Date   : 27.06.2026 03:45:10
-->
<svg width="853" height="603"
  xmlns="http://www.w3.org/2000/svg"
  xmlns:xlink="http://www.w3.org/1999/xlink">

<g font-family="Times" font-weight="normal" font-style="normal"
font-size="15" stroke="none" fill="#000000">
<text x="689.19" y="326.96">P</text>
<text x="698.58" y="326.96">y</text>
<text x="707.11" y="326.96">t</text>
<text x="712.32" y="326.96">h</text>
<text x="720.85" y="326.96">o</text>
<text x="729.38" y="326.96">n</text>
<text x="698.37" y="342.44">2</text>
<text x="706.90" y="342.44">5</text>
<text x="715.43" y="342.44">.</text>
<text x="720.21" y="342.44">0</text>
</g>
<g fill="none" stroke="#000000" stroke-width="1.000">
<polyline points="
 685.46, 313.19 740.53, 313.19 740.53, 346.46 685.46, 346.46 685.46, 313.19"/>
<line x1="673.70" y1="329.82" x2="650.76" y2="329.82"/>
<polygon fill="#000000" points="
 662.23, 336.20 650.76, 329.82 662.23, 323.45"/>
<polyline points="
 662.23, 336.20 650.76, 329.82 662.23, 323.45 662.23, 336.20"/>
<line x1="685.17" y1="329.82" x2="673.70" y2="329.82"/>
<polyline points="
 578.11, 492.06 580.13, 490.01 582.13, 487.94 584.10, 485.83 586.05, 483.71
 587.97, 481.56 589.87, 479.38 591.73, 477.18 593.57, 474.96 595.38, 472.72
 597.16, 470.45 598.91, 468.16 600.64, 465.85 602.33, 463.52 604.00, 461.16
 605.63, 458.79 607.24, 456.39 608.81, 453.98 610.36, 451.55 611.87, 449.09
 613.36, 446.62 614.81, 444.13 616.23, 441.62 617.62, 439.09 618.97, 436.55
 620.30, 433.99 621.59, 431.41 622.85, 428.82 624.08, 426.21 625.28, 423.59
 626.44, 420.95 627.57, 418.29 628.66, 415.63 629.72, 412.95 630.75, 410.25
 631.74, 407.54 632.70, 404.83 633.63, 402.10 634.52, 399.35 635.38, 396.60
 636.20, 393.84 636.98, 391.06 637.74, 388.28 638.45, 385.49 639.13, 382.68
 639.78, 379.88 640.39, 377.06 640.97, 374.23 641.51, 371.40 642.01, 368.56
 642.48, 365.72 642.92, 362.87 643.31, 360.01 643.67, 357.15 644.00, 354.28
 644.29, 351.42 644.54, 348.54 644.76, 345.67 644.94, 342.79 645.09, 339.91
 645.19, 337.03 645.27, 334.15 645.30, 331.27 645.30, 328.38 645.27, 325.50
 645.19, 322.62 645.09, 319.74 644.94, 316.86 644.76, 313.98 644.54, 311.10
 644.29, 308.23 644.00, 305.36 643.67, 302.50 643.31, 299.64 642.92, 296.78
 642.48, 293.93 642.01, 291.09 641.51, 288.25 640.97, 285.42 640.39, 282.59
 639.78, 279.77 639.13, 276.96 638.45, 274.16 637.74, 271.37 636.98, 268.59
 636.20, 265.81 635.38, 263.05 634.52, 260.29 633.63, 257.55 632.70, 254.82
 631.74, 252.10 630.75, 249.40 629.72, 246.70 628.66, 244.02 627.57, 241.35
 626.44, 238.70 625.28, 236.06 624.08, 233.44 622.85, 230.83 621.59, 228.24"/>
<polyline points="
 621.59, 228.24 620.30, 225.66 618.97, 223.10 617.62, 220.55 616.23, 218.03
 614.81, 215.52 613.36, 213.03 611.87, 210.56 610.36, 208.10 608.81, 205.67
 607.24, 203.25 605.63, 200.86 604.00, 198.48 602.33, 196.13 600.64, 193.80
 598.91, 191.49 597.16, 189.20 595.38, 186.93 593.57, 184.69 591.73, 182.46
 589.87, 180.27 587.97, 178.09 586.05, 175.94 584.10, 173.81 582.13, 171.71
 580.13, 169.63 578.11, 167.58 578.11, 167.58 415.86, 329.82 578.11, 492.06"/>
</g>
<g font-family="Times" font-weight="normal" font-style="normal"
font-size="15" stroke="none" fill="#ff0000">
<text x="279.92" y="81.74">C</text>
<text x="291.02" y="81.74">+</text>
<text x="300.52" y="81.74">+</text>
<text x="279.63" y="97.23">3</text>
<text x="288.16" y="97.23">5</text>
<text x="296.70" y="97.23">.</text>
<text x="301.48" y="97.23">0</text>
</g>
<g fill="none" stroke="#ff0000" stroke-width="1.000">
<polyline points="
 275.90, 67.97 312.62, 67.97 312.62, 101.24 275.90, 101.24 275.90, 67.97"/>
<line x1="336.13" y1="84.61" x2="343.30" y2="106.40"/>
<polygon fill="#ff0000" points="
 345.77, 93.51 343.30, 106.40 333.66, 97.50"/>
<polyline points="
 345.77, 93.51 343.30, 106.40 333.66, 97.50 345.77, 93.51"/>
<line x1="313.19" y1="84.61" x2="336.13" y2="84.61"/>
<polyline points="
 578.11, 167.58 576.05, 165.56 573.98, 163.56 571.87, 161.58 569.75, 159.64
 567.60, 157.72 565.42, 155.82 563.22, 153.96 561.00, 152.12 558.76, 150.31
 556.49, 148.53 554.20, 146.78 551.89, 145.05 549.56, 143.36 547.21, 141.69
 544.83, 140.06 542.44, 138.45 540.02, 136.88 537.59, 135.33 535.13, 133.82
 532.66, 132.33 530.17, 130.88 527.66, 129.46 525.13, 128.07 522.59, 126.71
 520.03, 125.39 517.45, 124.10 514.86, 122.84 512.25, 121.61 509.63, 120.41
 506.99, 119.25 504.33, 118.12 501.67, 117.03 498.99, 115.97 496.29, 114.94
 493.59, 113.95 490.87, 112.99 488.14, 112.06 485.39, 111.17 482.64, 110.31
 479.88, 109.49 477.10, 108.70 474.32, 107.95 471.53, 107.24 468.73, 106.55
 465.92, 105.91 463.10, 105.30 460.27, 104.72 457.44, 104.18 454.60, 103.67
 451.76, 103.21 448.91, 102.77 446.05, 102.38 443.19, 102.01 440.33, 101.69
 437.46, 101.40 434.59, 101.15 431.71, 100.93 428.83, 100.75 425.95, 100.60
 423.07, 100.49 420.19, 100.42 417.31, 100.39 414.42, 100.39 411.54, 100.42
 408.66, 100.49 405.78, 100.60 402.90, 100.75 400.02, 100.93 397.14, 101.15
 394.27, 101.40 391.40, 101.69 388.54, 102.01 385.68, 102.38 382.82, 102.77
 379.97, 103.21 377.13, 103.67 374.29, 104.18 371.46, 104.72 368.63, 105.30
 365.81, 105.91 363.00, 106.55 360.20, 107.24 357.41, 107.95 354.63, 108.70
 351.85, 109.49 349.09, 110.31 346.34, 111.17 343.59, 112.06 340.86, 112.99
 338.14, 113.95 335.44, 114.94 332.74, 115.97 330.06, 117.03 327.40, 118.12
 324.74, 119.25 322.10, 120.41 319.48, 121.61 316.87, 122.84 314.28, 124.10"/>
<polyline points="
 314.28, 124.10 311.70, 125.39 309.14, 126.71 306.60, 128.07 304.07, 129.46
 301.56, 130.88 299.07, 132.33 296.60, 133.82 294.14, 135.33 291.71, 136.88
 289.29, 138.45 286.90, 140.06 284.52, 141.69 282.17, 143.36 279.84, 145.05
 277.53, 146.78 275.24, 148.53 272.97, 150.31 270.73, 152.12 268.50, 153.96
 266.31, 155.82 264.13, 157.72 261.98, 159.64 259.85, 161.58 257.75, 163.56
 255.68, 165.56 253.62, 167.58 251.60, 169.63 249.60, 171.71 247.62, 173.81
 245.68, 175.94 243.76, 178.09 241.86, 180.27 240.00, 182.46 238.16, 184.69
 236.35, 186.93 234.57, 189.20 232.82, 191.49 231.09, 193.80 229.40, 196.13
 227.73, 198.48 226.10, 200.86 224.49, 203.25 222.92, 205.67 221.37, 208.10
 219.86, 210.56 218.37, 213.03 216.92, 215.52 215.50, 218.03 214.11, 220.55
 212.75, 223.10 211.43, 225.66 210.14, 228.24 208.88, 230.83 207.65, 233.44
 206.45, 236.06 205.29, 238.70 204.16, 241.35 203.07, 244.02 202.01, 246.70
 200.98, 249.40 199.99, 252.10 199.03, 254.82 198.10, 257.55 197.21, 260.29
 196.35, 263.05 195.53, 265.81 194.75, 268.59 193.99, 271.37 193.28, 274.16
 192.59, 276.96 191.95, 279.77 191.34, 282.59 190.76, 285.42 190.22, 288.25
 189.72, 291.09 189.25, 293.93 415.86, 329.82 578.11, 167.58"/>
<line x1="287.33" y1="139.77" x2="225.81" y2="201.29"/>
<line x1="313.62" y1="124.42" x2="210.46" y2="227.58"/>
<line x1="333.21" y1="115.79" x2="201.83" y2="247.17"/>
<line x1="349.87" y1="110.08" x2="196.12" y2="263.83"/>
<line x1="364.75" y1="106.15" x2="192.19" y2="278.71"/>
<line x1="378.38" y1="103.47" x2="189.51" y2="292.34"/>
<line x1="391.08" y1="101.73" x2="197.56" y2="295.25"/>
<line x1="403.01" y1="100.74" x2="207.01" y2="296.74"/>
<line x1="414.32" y1="100.39" x2="216.46" y2="298.24"/>
<line x1="425.09" y1="100.57" x2="225.92" y2="299.74"/>
<line x1="435.39" y1="101.22" x2="235.37" y2="301.24"/>
<line x1="445.28" y1="102.28" x2="244.83" y2="302.73"/>
<line x1="454.80" y1="103.71" x2="254.28" y2="304.23"/>
<line x1="463.98" y1="105.49" x2="263.73" y2="305.73"/>
<line x1="472.84" y1="107.57" x2="273.19" y2="307.23"/>
<line x1="481.42" y1="109.95" x2="282.64" y2="308.72"/>
<line x1="489.72" y1="112.60" x2="292.09" y2="310.22"/>
<line x1="497.77" y1="115.50" x2="301.55" y2="311.72"/>
<line x1="505.57" y1="118.65" x2="311.00" y2="313.22"/>
<line x1="513.14" y1="122.03" x2="320.46" y2="314.71"/>
<line x1="520.49" y1="125.63" x2="329.91" y2="316.21"/>
<line x1="527.63" y1="129.44" x2="339.36" y2="317.71"/>
<line x1="534.55" y1="133.47" x2="348.82" y2="319.20"/>
<line x1="541.28" y1="137.70" x2="358.27" y2="320.70"/>
<line x1="547.81" y1="142.12" x2="367.73" y2="322.20"/>
<line x1="554.14" y1="146.73" x2="377.18" y2="323.70"/>
<line x1="560.29" y1="151.54" x2="386.63" y2="325.19"/>
<line x1="566.24" y1="156.54" x2="396.09" y2="326.69"/>
<line x1="572.01" y1="161.71" x2="405.54" y2="328.19"/>
<line x1="577.60" y1="167.08" x2="414.99" y2="329.69"/>
</g>
<g font-family="Times" font-weight="normal" font-style="normal"
font-size="15" stroke="none" fill="#00ff00">
<text x="121.32" y="406.69">J</text>
<text x="128.24" y="406.69">a</text>
<text x="135.92" y="406.69">v</text>
<text x="144.45" y="406.69">a</text>
<text x="121.60" y="422.17">1</text>
<text x="130.14" y="422.17">5</text>
<text x="138.67" y="422.17">.</text>
<text x="143.45" y="422.17">0</text>
</g>
<g fill="none" stroke="#00ff00" stroke-width="1.000">
<polyline points="
 117.59, 392.92 154.87, 392.92 154.87, 426.19 117.59, 426.19 117.59, 392.92"/>
<line x1="170.65" y1="409.56" x2="192.44" y2="402.38"/>
<polygon fill="#00ff00" points="
 179.56, 399.92 192.44, 402.38 183.54, 412.02"/>
<polyline points="
 179.56, 399.92 192.44, 402.38 183.54, 412.02 179.56, 399.92"/>
<line x1="155.45" y1="409.56" x2="170.65" y2="409.56"/>
<polyline points="
 189.25, 293.93 188.81, 296.78 188.42, 299.64 188.06, 302.50 187.73, 305.36
 187.44, 308.23 187.19, 311.10 186.97, 313.98 186.79, 316.86 186.64, 319.74
 186.54, 322.62 186.46, 325.50 186.43, 328.38 186.43, 331.27 186.46, 334.15
 186.54, 337.03 186.64, 339.91 186.79, 342.79 186.97, 345.67 187.19, 348.54
 187.44, 351.42 187.73, 354.28 188.06, 357.15 188.42, 360.01 188.81, 362.87
 189.25, 365.72 189.72, 368.56 190.22, 371.40 190.76, 374.23 191.34, 377.06
 191.95, 379.88 192.59, 382.68 193.28, 385.49 193.99, 388.28 194.75, 391.06
 195.53, 393.84 196.35, 396.60 197.21, 399.35 198.10, 402.10 199.03, 404.83
 199.99, 407.54 200.98, 410.25 202.01, 412.95 203.07, 415.63 204.16, 418.29
 205.29, 420.95 206.45, 423.59 207.65, 426.21 208.88, 428.82 210.14, 431.41
 211.43, 433.99 212.75, 436.55 214.11, 439.09 215.50, 441.62 216.92, 444.13
 218.37, 446.62 219.86, 449.09 221.37, 451.55 222.92, 453.98 224.49, 456.39
 226.10, 458.79 227.73, 461.16 229.40, 463.52 231.09, 465.85 232.82, 468.16
 234.57, 470.45 236.35, 472.72 238.16, 474.96 240.00, 477.18 241.86, 479.38
 243.76, 481.56 245.68, 483.71 247.62, 485.83 249.60, 487.94 251.60, 490.01
 253.62, 492.06 415.86, 329.82 189.25, 293.93"/>
<line x1="253.11" y1="491.55" x2="253.76" y2="491.92"/>
<line x1="252.35" y1="490.78" x2="253.97" y2="491.71"/>
<line x1="251.59" y1="490.01" x2="254.18" y2="491.50"/>
<line x1="250.88" y1="489.26" x2="254.39" y2="491.29"/>
<line x1="250.16" y1="488.52" x2="254.60" y2="491.08"/>
<line x1="249.45" y1="487.77" x2="254.81" y2="490.87"/>
<line x1="232.92" y1="468.30" x2="261.11" y2="484.58"/>
<line x1="232.48" y1="467.71" x2="261.32" y2="484.37"/>
<line x1="232.05" y1="467.13" x2="261.53" y2="484.16"/>
<line x1="231.62" y1="466.55" x2="261.74" y2="483.95"/>
<line x1="231.18" y1="465.97" x2="261.95" y2="483.74"/>
<line x1="230.76" y1="465.40" x2="262.16" y2="483.53"/>
<line x1="230.35" y1="464.83" x2="262.37" y2="483.32"/>
<line x1="229.93" y1="464.26" x2="262.58" y2="483.11"/>
<line x1="219.32" y1="448.19" x2="268.88" y2="476.81"/>
<line x1="219.01" y1="447.68" x2="269.09" y2="476.60"/>
<line x1="218.71" y1="447.18" x2="269.30" y2="476.39"/>
<line x1="218.40" y1="446.67" x2="269.51" y2="476.18"/>
<line x1="218.11" y1="446.17" x2="269.72" y2="475.97"/>
<line x1="217.82" y1="445.67" x2="269.93" y2="475.76"/>
<line x1="217.53" y1="445.17" x2="270.14" y2="475.55"/>
<line x1="217.24" y1="444.67" x2="270.35" y2="475.34"/>
<line x1="209.61" y1="430.34" x2="276.65" y2="469.04"/>
<line x1="209.39" y1="429.87" x2="276.86" y2="468.83"/>
<line x1="209.17" y1="429.41" x2="277.07" y2="468.62"/>
<line x1="208.94" y1="428.95" x2="277.28" y2="468.41"/>
<line x1="208.73" y1="428.50" x2="277.49" y2="468.20"/>
<line x1="208.51" y1="428.04" x2="277.70" y2="467.99"/>
<line x1="208.30" y1="427.59" x2="277.91" y2="467.78"/>
<line x1="208.08" y1="427.13" x2="278.12" y2="467.57"/>
<line x1="202.39" y1="413.91" x2="284.42" y2="461.27"/>
<line x1="202.22" y1="413.48" x2="284.63" y2="461.06"/>
<line x1="202.05" y1="413.05" x2="284.84" y2="460.85"/>
<line x1="201.89" y1="412.63" x2="285.05" y2="460.64"/>
<line x1="201.72" y1="412.20" x2="285.26" y2="460.43"/>
<line x1="201.56" y1="411.78" x2="285.47" y2="460.22"/>
<line x1="201.40" y1="411.35" x2="285.68" y2="460.01"/>
<line x1="201.24" y1="410.93" x2="285.89" y2="459.80"/>
<line x1="196.95" y1="398.52" x2="292.19" y2="453.50"/>
<line x1="196.83" y1="398.11" x2="292.40" y2="453.29"/>
<line x1="196.70" y1="397.71" x2="292.61" y2="453.08"/>
<line x1="196.57" y1="397.31" x2="292.82" y2="452.87"/>
<line x1="196.45" y1="396.90" x2="293.03" y2="452.66"/>
<line x1="196.32" y1="396.50" x2="293.24" y2="452.45"/>
<line x1="196.21" y1="396.10" x2="293.45" y2="452.24"/>
<line x1="196.09" y1="395.70" x2="293.66" y2="452.03"/>
<line x1="192.90" y1="383.92" x2="299.95" y2="445.73"/>
<line x1="192.80" y1="383.54" x2="300.16" y2="445.52"/>
<line x1="192.71" y1="383.15" x2="300.37" y2="445.31"/>
<line x1="192.61" y1="382.77" x2="300.58" y2="445.10"/>
<line x1="192.53" y1="382.38" x2="300.79" y2="444.89"/>
<line x1="192.44" y1="382.00" x2="301.00" y2="444.68"/>
<line x1="192.35" y1="381.62" x2="301.21" y2="444.47"/>
<line x1="192.26" y1="381.24" x2="301.42" y2="444.26"/>
<line x1="189.97" y1="369.98" x2="307.72" y2="437.97"/>
<line x1="189.90" y1="369.61" x2="307.93" y2="437.76"/>
<line x1="189.84" y1="369.24" x2="308.14" y2="437.55"/>
<line x1="189.77" y1="368.87" x2="308.35" y2="437.34"/>
<line x1="189.71" y1="368.50" x2="308.56" y2="437.13"/>
<line x1="189.65" y1="368.14" x2="308.77" y2="436.92"/>
<line x1="189.59" y1="367.77" x2="308.98" y2="436.71"/>
<line x1="189.53" y1="367.41" x2="309.19" y2="436.50"/>
<line x1="187.99" y1="356.58" x2="315.49" y2="430.20"/>
<line x1="187.95" y1="356.23" x2="315.70" y2="429.99"/>
<line x1="187.91" y1="355.88" x2="315.91" y2="429.78"/>
<line x1="187.87" y1="355.52" x2="316.12" y2="429.57"/>
<line x1="187.83" y1="355.17" x2="316.33" y2="429.36"/>
<line x1="187.79" y1="354.81" x2="316.54" y2="429.15"/>
<line x1="187.75" y1="354.46" x2="316.75" y2="428.94"/>
<line x1="187.71" y1="354.10" x2="316.96" y2="428.73"/>
<line x1="186.84" y1="343.67" x2="323.26" y2="422.43"/>
<line x1="186.82" y1="343.33" x2="323.47" y2="422.22"/>
<line x1="186.80" y1="342.98" x2="323.68" y2="422.01"/>
<line x1="186.78" y1="342.64" x2="323.89" y2="421.80"/>
<line x1="186.76" y1="342.30" x2="324.10" y2="421.59"/>
<line x1="186.75" y1="341.96" x2="324.31" y2="421.38"/>
<line x1="186.73" y1="341.62" x2="324.52" y2="421.17"/>
<line x1="186.71" y1="341.27" x2="324.73" y2="420.96"/>
<line x1="186.43" y1="331.17" x2="331.03" y2="414.66"/>
<line x1="186.43" y1="330.84" x2="331.24" y2="414.45"/>
<line x1="186.43" y1="330.51" x2="331.45" y2="414.24"/>
<line x1="186.43" y1="330.18" x2="331.66" y2="414.03"/>
<line x1="186.43" y1="329.85" x2="331.87" y2="413.82"/>
<line x1="186.43" y1="329.52" x2="332.08" y2="413.61"/>
<line x1="186.43" y1="329.19" x2="332.29" y2="413.40"/>
<line x1="186.43" y1="328.86" x2="332.50" y2="413.19"/>
<line x1="186.68" y1="319.07" x2="338.80" y2="406.89"/>
<line x1="186.69" y1="318.74" x2="339.01" y2="406.68"/>
<line x1="186.71" y1="318.42" x2="339.22" y2="406.47"/>
<line x1="186.73" y1="318.10" x2="339.43" y2="406.26"/>
<line x1="186.74" y1="317.78" x2="339.64" y2="406.05"/>
<line x1="186.76" y1="317.46" x2="339.85" y2="405.84"/>
<line x1="186.77" y1="317.14" x2="340.06" y2="405.63"/>
<line x1="186.79" y1="316.81" x2="340.27" y2="405.42"/>
<line x1="187.53" y1="307.31" x2="346.56" y2="399.12"/>
<line x1="187.57" y1="306.99" x2="346.77" y2="398.91"/>
<line x1="187.60" y1="306.68" x2="346.98" y2="398.70"/>
<line x1="187.63" y1="306.37" x2="347.19" y2="398.49"/>
<line x1="187.66" y1="306.06" x2="347.40" y2="398.28"/>
<line x1="187.69" y1="305.74" x2="347.61" y2="398.07"/>
<line x1="187.72" y1="305.43" x2="347.82" y2="397.86"/>
<line x1="187.76" y1="305.12" x2="348.03" y2="397.65"/>
<line x1="188.95" y1="295.87" x2="354.33" y2="391.36"/>
<line x1="189.00" y1="295.57" x2="354.54" y2="391.15"/>
<line x1="189.04" y1="295.26" x2="354.75" y2="390.94"/>
<line x1="189.09" y1="294.96" x2="354.96" y2="390.73"/>
<line x1="189.14" y1="294.65" x2="355.17" y2="390.52"/>
<line x1="189.18" y1="294.35" x2="355.38" y2="390.31"/>
<line x1="189.23" y1="294.05" x2="355.59" y2="390.10"/>
<line x1="189.74" y1="294.01" x2="355.80" y2="389.89"/>
<line x1="213.45" y1="297.76" x2="362.10" y2="383.59"/>
<line x1="214.24" y1="297.89" x2="362.31" y2="383.38"/>
<line x1="215.03" y1="298.02" x2="362.52" y2="383.17"/>
<line x1="215.82" y1="298.14" x2="362.73" y2="382.96"/>
<line x1="216.62" y1="298.27" x2="362.94" y2="382.75"/>
<line x1="217.41" y1="298.39" x2="363.15" y2="382.54"/>
<line x1="218.20" y1="298.52" x2="363.36" y2="382.33"/>
<line x1="218.99" y1="298.64" x2="363.57" y2="382.12"/>
<line x1="242.70" y1="302.40" x2="369.87" y2="375.82"/>
<line x1="243.49" y1="302.52" x2="370.08" y2="375.61"/>
<line x1="244.28" y1="302.65" x2="370.29" y2="375.40"/>
<line x1="245.07" y1="302.77" x2="370.50" y2="375.19"/>
<line x1="245.86" y1="302.90" x2="370.71" y2="374.98"/>
<line x1="246.65" y1="303.02" x2="370.92" y2="374.77"/>
<line x1="247.44" y1="303.15" x2="371.13" y2="374.56"/>
<line x1="248.23" y1="303.27" x2="371.34" y2="374.35"/>
<line x1="271.95" y1="307.03" x2="377.64" y2="368.05"/>
<line x1="272.74" y1="307.15" x2="377.85" y2="367.84"/>
<line x1="273.53" y1="307.28" x2="378.06" y2="367.63"/>
<line x1="274.32" y1="307.40" x2="378.27" y2="367.42"/>
<line x1="275.11" y1="307.53" x2="378.48" y2="367.21"/>
<line x1="275.90" y1="307.66" x2="378.69" y2="367.00"/>
<line x1="276.69" y1="307.78" x2="378.90" y2="366.79"/>
<line x1="277.48" y1="307.91" x2="379.11" y2="366.58"/>
<line x1="301.19" y1="311.66" x2="385.41" y2="360.28"/>
<line x1="301.98" y1="311.79" x2="385.62" y2="360.07"/>
<line x1="302.77" y1="311.91" x2="385.83" y2="359.86"/>
<line x1="303.56" y1="312.04" x2="386.04" y2="359.65"/>
<line x1="304.36" y1="312.16" x2="386.25" y2="359.44"/>
<line x1="305.15" y1="312.29" x2="386.46" y2="359.23"/>
<line x1="305.94" y1="312.41" x2="386.67" y2="359.02"/>
<line x1="306.73" y1="312.54" x2="386.88" y2="358.81"/>
<line x1="330.44" y1="316.29" x2="393.17" y2="352.51"/>
<line x1="331.23" y1="316.42" x2="393.38" y2="352.30"/>
<line x1="332.02" y1="316.54" x2="393.59" y2="352.09"/>
<line x1="332.81" y1="316.67" x2="393.80" y2="351.88"/>
<line x1="333.60" y1="316.79" x2="394.01" y2="351.67"/>
<line x1="334.39" y1="316.92" x2="394.22" y2="351.46"/>
<line x1="335.18" y1="317.04" x2="394.43" y2="351.25"/>
<line x1="335.97" y1="317.17" x2="394.64" y2="351.04"/>
<line x1="359.69" y1="320.93" x2="400.94" y2="344.75"/>
<line x1="360.48" y1="321.05" x2="401.15" y2="344.54"/>
<line x1="361.27" y1="321.18" x2="401.36" y2="344.33"/>
<line x1="362.06" y1="321.30" x2="401.57" y2="344.12"/>
<line x1="362.85" y1="321.43" x2="401.78" y2="343.91"/>
<line x1="363.64" y1="321.55" x2="401.99" y2="343.70"/>
<line x1="364.43" y1="321.68" x2="402.20" y2="343.49"/>
<line x1="365.22" y1="321.80" x2="402.41" y2="343.28"/>
<line x1="388.93" y1="325.56" x2="408.71" y2="336.98"/>
<line x1="389.72" y1="325.68" x2="408.92" y2="336.77"/>
<line x1="390.51" y1="325.81" x2="409.13" y2="336.56"/>
<line x1="391.30" y1="325.93" x2="409.34" y2="336.35"/>
<line x1="392.10" y1="326.06" x2="409.55" y2="336.14"/>
<line x1="392.89" y1="326.18" x2="409.76" y2="335.93"/>
<line x1="393.68" y1="326.31" x2="409.97" y2="335.72"/>
<line x1="394.47" y1="326.43" x2="410.18" y2="335.51"/>
</g>
<g font-family="Times" font-weight="normal" font-style="normal"
font-size="15" stroke="none" fill="#ffff00">
<text x="317.78" y="581.64">R</text>
<text x="328.88" y="581.64">u</text>
<text x="337.41" y="581.64">s</text>
<text x="344.34" y="581.64">t</text>
<text x="318.64" y="597.12">2</text>
<text x="327.17" y="597.12">0</text>
<text x="335.70" y="597.12">.</text>
<text x="340.48" y="597.12">0</text>
</g>
<g fill="none" stroke="#ffff00" stroke-width="1.000">
<polyline points="
 314.05, 567.87 352.19, 567.87 352.19, 601.14 314.05, 601.14 314.05, 567.87"/>
<line x1="375.71" y1="584.51" x2="379.15" y2="561.85"/>
<polygon fill="#ffff00" points="
 371.13, 572.23 379.15, 561.85 383.73, 574.15"/>
<polyline points="
 371.13, 572.23 379.15, 561.85 383.73, 574.15 371.13, 572.23"/>
<line x1="352.77" y1="584.51" x2="375.71" y2="584.51"/>
<polyline points="
 253.62, 492.06 255.68, 494.09 257.75, 496.09 259.85, 498.06 261.98, 500.01
 264.13, 501.93 266.31, 503.82 268.50, 505.69 270.73, 507.53 272.97, 509.34
 275.24, 511.12 277.53, 512.87 279.84, 514.60 282.17, 516.29 284.52, 517.96
 286.90, 519.59 289.29, 521.20 291.71, 522.77 294.14, 524.32 296.60, 525.83
 299.07, 527.31 301.56, 528.77 304.07, 530.19 306.60, 531.58 309.14, 532.93
 311.70, 534.26 314.28, 535.55 316.87, 536.81 319.48, 538.04 322.10, 539.23
 324.74, 540.40 327.40, 541.52 330.06, 542.62 332.74, 543.68 335.44, 544.71
 338.14, 545.70 340.86, 546.66 343.59, 547.59 346.34, 548.48 349.09, 549.33
 351.85, 550.16 354.63, 550.94 357.41, 551.70 360.20, 552.41 363.00, 553.09
 365.81, 553.74 368.63, 554.35 371.46, 554.93 374.29, 555.47 377.13, 555.97
 379.97, 556.44 382.82, 556.87 385.68, 557.27 388.54, 557.63 391.40, 557.96
 394.27, 558.25 397.14, 558.50 400.02, 558.72 402.90, 558.90 405.78, 559.04
 408.66, 559.15 411.54, 559.23 414.42, 559.26 417.31, 559.26 420.19, 559.23
 423.07, 559.15 425.95, 559.04 428.83, 558.90 431.71, 558.72 434.59, 558.50
 437.46, 558.25 440.33, 557.96 443.19, 557.63 446.05, 557.27 448.91, 556.87
 451.76, 556.44 454.60, 555.97 457.44, 555.47 460.27, 554.93 463.10, 554.35
 465.92, 553.74 468.73, 553.09 471.53, 552.41 474.32, 551.70 477.10, 550.94
 479.88, 550.16 482.64, 549.33 485.39, 548.48 488.14, 547.59 490.87, 546.66
 493.59, 545.70 496.29, 544.71 498.99, 543.68 501.67, 542.62 504.33, 541.52
 506.99, 540.40 509.63, 539.23 512.25, 538.04 514.86, 536.81 517.45, 535.55"/>
<polyline points="
 517.45, 535.55 520.03, 534.26 415.86, 329.82 253.62, 492.06"/>
<line x1="257.86" y1="487.83" x2="294.66" y2="524.64"/>
<line x1="263.33" y1="482.36" x2="318.60" y2="537.63"/>
<line x1="268.81" y1="476.88" x2="337.33" y2="545.40"/>
<line x1="274.28" y1="471.40" x2="353.50" y2="550.62"/>
<line x1="279.76" y1="465.93" x2="368.06" y2="554.23"/>
<line x1="285.23" y1="460.45" x2="381.45" y2="556.67"/>
<line x1="290.71" y1="454.98" x2="393.95" y2="558.22"/>
<line x1="296.19" y1="449.50" x2="405.73" y2="559.04"/>
<line x1="301.66" y1="444.03" x2="416.90" y2="559.26"/>
<line x1="307.14" y1="438.55" x2="427.55" y2="558.96"/>
<line x1="312.61" y1="433.08" x2="437.75" y2="558.22"/>
<line x1="318.09" y1="427.60" x2="447.55" y2="557.06"/>
<line x1="323.56" y1="422.12" x2="456.99" y2="555.55"/>
<line x1="329.04" y1="416.65" x2="466.09" y2="553.70"/>
<line x1="334.52" y1="411.17" x2="474.88" y2="551.54"/>
<line x1="339.99" y1="405.70" x2="483.39" y2="549.10"/>
<line x1="345.47" y1="400.22" x2="491.63" y2="546.39"/>
<line x1="350.94" y1="394.75" x2="499.62" y2="543.43"/>
<line x1="356.42" y1="389.27" x2="507.37" y2="540.23"/>
<line x1="361.89" y1="383.80" x2="514.89" y2="536.80"/>
<line x1="367.37" y1="378.32" x2="516.62" y2="527.58"/>
<line x1="372.84" y1="372.84" x2="505.25" y2="505.25"/>
<line x1="378.32" y1="367.37" x2="493.87" y2="482.92"/>
<line x1="383.80" y1="361.89" x2="482.49" y2="460.59"/>
<line x1="389.27" y1="356.42" x2="471.12" y2="438.26"/>
<line x1="394.75" y1="350.94" x2="459.74" y2="415.94"/>
<line x1="400.22" y1="345.47" x2="448.36" y2="393.61"/>
<line x1="405.70" y1="339.99" x2="436.99" y2="371.28"/>
<line x1="411.17" y1="334.52" x2="425.61" y2="348.95"/>
</g>
<g font-family="Times" font-weight="normal" font-style="normal"
font-size="15" stroke="none" fill="#0000ff">
<text x="594.54" y="535.75">O</text>
<text x="606.50" y="535.75">t</text>
<text x="611.71" y="535.75">h</text>
<text x="620.24" y="535.75">e</text>
<text x="627.92" y="535.75">r</text>
<text x="603.43" y="551.24">5</text>
<text x="611.97" y="551.24">.</text>
<text x="616.75" y="551.24">0</text>
</g>
<g fill="none" stroke="#0000ff" stroke-width="1.000">
<polyline points="
 590.81, 521.98 636.70, 521.98 636.70, 555.25 590.81, 555.25 590.81, 521.98"/>
<line x1="567.58" y1="538.62" x2="553.82" y2="519.97"/>
<polygon fill="#0000ff" points="
 555.51, 532.99 553.82, 519.97 565.76, 525.42"/>
<polyline points="
 555.51, 532.99 553.82, 519.97 565.76, 525.42 555.51, 532.99"/>
<line x1="590.53" y1="538.62" x2="567.58" y2="538.62"/>
<polyline points="
 520.03, 534.26 522.59, 532.93 525.13, 531.58 527.66, 530.19 530.17, 528.77
 532.66, 527.31 535.13, 525.83 537.59, 524.32 540.02, 522.77 542.44, 521.20
 544.83, 519.59 547.21, 517.96 549.56, 516.29 551.89, 514.60 554.20, 512.87
 556.49, 511.12 558.76, 509.34 561.00, 507.53 563.22, 505.69 565.42, 503.82
 567.60, 501.93 569.75, 500.01 571.87, 498.06 573.98, 496.09 576.05, 494.09
 578.11, 492.06 415.86, 329.82 520.03, 534.26"/>
<line x1="415.97" y1="329.93" x2="415.94" y2="329.96"/>
<line x1="416.17" y1="330.13" x2="416.07" y2="330.23"/>
<line x1="416.38" y1="330.34" x2="416.21" y2="330.50"/>
<line x1="416.58" y1="330.54" x2="416.35" y2="330.77"/>
<line x1="416.78" y1="330.74" x2="416.48" y2="331.04"/>
<line x1="422.87" y1="336.82" x2="420.59" y2="339.10"/>
<line x1="423.07" y1="337.03" x2="420.73" y2="339.37"/>
<line x1="423.27" y1="337.23" x2="420.86" y2="339.64"/>
<line x1="423.47" y1="337.43" x2="421.00" y2="339.91"/>
<line x1="423.68" y1="337.64" x2="421.14" y2="340.17"/>
<line x1="423.88" y1="337.84" x2="421.28" y2="340.44"/>
<line x1="424.08" y1="338.04" x2="421.41" y2="340.71"/>
<line x1="424.29" y1="338.24" x2="421.55" y2="340.98"/>
<line x1="430.37" y1="344.33" x2="425.66" y2="349.04"/>
<line x1="430.57" y1="344.53" x2="425.79" y2="349.31"/>
<line x1="430.78" y1="344.73" x2="425.93" y2="349.58"/>
<line x1="430.98" y1="344.94" x2="426.07" y2="349.85"/>
<line x1="431.18" y1="345.14" x2="426.20" y2="350.12"/>
<line x1="431.38" y1="345.34" x2="426.34" y2="350.38"/>
<line x1="431.59" y1="345.55" x2="426.48" y2="350.65"/>
<line x1="431.79" y1="345.75" x2="426.61" y2="350.92"/>
<line x1="437.87" y1="351.83" x2="430.72" y2="358.98"/>
<line x1="438.08" y1="352.03" x2="430.86" y2="359.25"/>
<line x1="438.28" y1="352.24" x2="431.00" y2="359.52"/>
<line x1="438.48" y1="352.44" x2="431.13" y2="359.79"/>
<line x1="438.68" y1="352.64" x2="431.27" y2="360.06"/>
<line x1="438.89" y1="352.85" x2="431.41" y2="360.33"/>
<line x1="439.09" y1="353.05" x2="431.54" y2="360.60"/>
<line x1="439.29" y1="353.25" x2="431.68" y2="360.86"/>
<line x1="445.38" y1="359.34" x2="435.79" y2="368.92"/>
<line x1="445.58" y1="359.54" x2="435.92" y2="369.19"/>
<line x1="445.78" y1="359.74" x2="436.06" y2="369.46"/>
<line x1="445.99" y1="359.94" x2="436.20" y2="369.73"/>
<line x1="446.19" y1="360.15" x2="436.34" y2="370.00"/>
<line x1="446.39" y1="360.35" x2="436.47" y2="370.27"/>
<line x1="446.59" y1="360.55" x2="436.61" y2="370.54"/>
<line x1="446.80" y1="360.76" x2="436.75" y2="370.81"/>
<line x1="452.88" y1="366.84" x2="440.85" y2="378.87"/>
<line x1="453.08" y1="367.04" x2="440.99" y2="379.14"/>
<line x1="453.29" y1="367.24" x2="441.13" y2="379.40"/>
<line x1="453.49" y1="367.45" x2="441.26" y2="379.67"/>
<line x1="453.69" y1="367.65" x2="441.40" y2="379.94"/>
<line x1="453.89" y1="367.85" x2="441.54" y2="380.21"/>
<line x1="454.10" y1="368.06" x2="441.67" y2="380.48"/>
<line x1="454.30" y1="368.26" x2="441.81" y2="380.75"/>
<line x1="460.38" y1="374.34" x2="445.92" y2="388.81"/>
<line x1="460.59" y1="374.55" x2="446.06" y2="389.08"/>
<line x1="460.79" y1="374.75" x2="446.19" y2="389.35"/>
<line x1="460.99" y1="374.95" x2="446.33" y2="389.61"/>
<line x1="461.20" y1="375.15" x2="446.47" y2="389.88"/>
<line x1="461.40" y1="375.36" x2="446.60" y2="390.15"/>
<line x1="461.60" y1="375.56" x2="446.74" y2="390.42"/>
<line x1="461.80" y1="375.76" x2="446.88" y2="390.69"/>
<line x1="467.89" y1="381.85" x2="450.98" y2="398.75"/>
<line x1="468.09" y1="382.05" x2="451.12" y2="399.02"/>
<line x1="468.29" y1="382.25" x2="451.26" y2="399.29"/>
<line x1="468.50" y1="382.45" x2="451.40" y2="399.56"/>
<line x1="468.70" y1="382.66" x2="451.53" y2="399.82"/>
<line x1="468.90" y1="382.86" x2="451.67" y2="400.09"/>
<line x1="469.10" y1="383.06" x2="451.81" y2="400.36"/>
<line x1="469.31" y1="383.27" x2="451.94" y2="400.63"/>
<line x1="475.39" y1="389.35" x2="456.05" y2="408.69"/>
<line x1="475.59" y1="389.55" x2="456.19" y2="408.96"/>
<line x1="475.80" y1="389.76" x2="456.32" y2="409.23"/>
<line x1="476.00" y1="389.96" x2="456.46" y2="409.50"/>
<line x1="476.20" y1="390.16" x2="456.60" y2="409.77"/>
<line x1="476.41" y1="390.36" x2="456.73" y2="410.04"/>
<line x1="476.61" y1="390.57" x2="456.87" y2="410.30"/>
<line x1="476.81" y1="390.77" x2="457.01" y2="410.57"/>
<line x1="482.89" y1="396.85" x2="461.12" y2="418.63"/>
<line x1="483.10" y1="397.06" x2="461.25" y2="418.90"/>
<line x1="483.30" y1="397.26" x2="461.39" y2="419.17"/>
<line x1="483.50" y1="397.46" x2="461.53" y2="419.44"/>
<line x1="483.71" y1="397.67" x2="461.66" y2="419.71"/>
<line x1="483.91" y1="397.87" x2="461.80" y2="419.98"/>
<line x1="484.11" y1="398.07" x2="461.94" y2="420.25"/>
<line x1="484.31" y1="398.27" x2="462.07" y2="420.51"/>
<line x1="490.40" y1="404.36" x2="466.18" y2="428.57"/>
<line x1="490.60" y1="404.56" x2="466.32" y2="428.84"/>
<line x1="490.80" y1="404.76" x2="466.45" y2="429.11"/>
<line x1="491.01" y1="404.97" x2="466.59" y2="429.38"/>
<line x1="491.21" y1="405.17" x2="466.73" y2="429.65"/>
<line x1="491.41" y1="405.37" x2="466.87" y2="429.92"/>
<line x1="491.62" y1="405.57" x2="467.00" y2="430.19"/>
<line x1="491.82" y1="405.78" x2="467.14" y2="430.46"/>
<line x1="497.90" y1="411.86" x2="471.25" y2="438.52"/>
<line x1="498.10" y1="412.06" x2="471.38" y2="438.79"/>
<line x1="498.31" y1="412.27" x2="471.52" y2="439.05"/>
<line x1="498.51" y1="412.47" x2="471.66" y2="439.32"/>
<line x1="498.71" y1="412.67" x2="471.79" y2="439.59"/>
<line x1="498.92" y1="412.88" x2="471.93" y2="439.86"/>
<line x1="499.12" y1="413.08" x2="472.07" y2="440.13"/>
<line x1="499.32" y1="413.28" x2="472.20" y2="440.40"/>
<line x1="505.41" y1="419.36" x2="476.31" y2="448.46"/>
<line x1="505.61" y1="419.57" x2="476.45" y2="448.73"/>
<line x1="505.81" y1="419.77" x2="476.59" y2="449.00"/>
<line x1="506.01" y1="419.97" x2="476.72" y2="449.26"/>
<line x1="506.22" y1="420.18" x2="476.86" y2="449.53"/>
<line x1="506.42" y1="420.38" x2="477.00" y2="449.80"/>
<line x1="506.62" y1="420.58" x2="477.13" y2="450.07"/>
<line x1="506.83" y1="420.78" x2="477.27" y2="450.34"/>
<line x1="512.91" y1="426.87" x2="481.38" y2="458.40"/>
<line x1="513.11" y1="427.07" x2="481.51" y2="458.67"/>
<line x1="513.31" y1="427.27" x2="481.65" y2="458.94"/>
<line x1="513.52" y1="427.48" x2="481.79" y2="459.21"/>
<line x1="513.72" y1="427.68" x2="481.93" y2="459.47"/>
<line x1="513.92" y1="427.88" x2="482.06" y2="459.74"/>
<line x1="514.13" y1="428.09" x2="482.20" y2="460.01"/>
<line x1="514.33" y1="428.29" x2="482.34" y2="460.28"/>
<line x1="520.41" y1="434.37" x2="486.44" y2="468.34"/>
<line x1="520.62" y1="434.57" x2="486.58" y2="468.61"/>
<line x1="520.82" y1="434.78" x2="486.72" y2="468.88"/>
<line x1="521.02" y1="434.98" x2="486.85" y2="469.15"/>
<line x1="521.22" y1="435.18" x2="486.99" y2="469.42"/>
<line x1="521.43" y1="435.39" x2="487.13" y2="469.69"/>
<line x1="521.63" y1="435.59" x2="487.26" y2="469.95"/>
<line x1="521.83" y1="435.79" x2="487.40" y2="470.22"/>
<line x1="527.92" y1="441.88" x2="491.51" y2="478.28"/>
<line x1="528.12" y1="442.08" x2="491.65" y2="478.55"/>
<line x1="528.32" y1="442.28" x2="491.78" y2="478.82"/>
<line x1="528.52" y1="442.48" x2="491.92" y2="479.09"/>
<line x1="528.73" y1="442.69" x2="492.06" y2="479.36"/>
<line x1="528.93" y1="442.89" x2="492.19" y2="479.63"/>
<line x1="529.13" y1="443.09" x2="492.33" y2="479.90"/>
<line x1="529.34" y1="443.30" x2="492.47" y2="480.16"/>
<line x1="535.42" y1="449.38" x2="496.57" y2="488.23"/>
<line x1="535.62" y1="449.58" x2="496.71" y2="488.49"/>
<line x1="535.83" y1="449.78" x2="496.85" y2="488.76"/>
<line x1="536.03" y1="449.99" x2="496.98" y2="489.03"/>
<line x1="536.23" y1="450.19" x2="497.12" y2="489.30"/>
<line x1="536.43" y1="450.39" x2="497.26" y2="489.57"/>
<line x1="536.64" y1="450.60" x2="497.40" y2="489.84"/>
<line x1="536.84" y1="450.80" x2="497.53" y2="490.11"/>
<line x1="542.92" y1="456.88" x2="501.64" y2="498.17"/>
<line x1="543.13" y1="457.09" x2="501.78" y2="498.44"/>
<line x1="543.33" y1="457.29" x2="501.91" y2="498.70"/>
<line x1="543.53" y1="457.49" x2="502.05" y2="498.97"/>
<line x1="543.73" y1="457.69" x2="502.19" y2="499.24"/>
<line x1="543.94" y1="457.90" x2="502.32" y2="499.51"/>
<line x1="544.14" y1="458.10" x2="502.46" y2="499.78"/>
<line x1="544.34" y1="458.30" x2="502.60" y2="500.05"/>
<line x1="550.43" y1="464.39" x2="506.71" y2="508.11"/>
<line x1="550.63" y1="464.59" x2="506.84" y2="508.38"/>
<line x1="550.83" y1="464.79" x2="506.98" y2="508.65"/>
<line x1="551.04" y1="464.99" x2="507.12" y2="508.91"/>
<line x1="551.24" y1="465.20" x2="507.25" y2="509.18"/>
<line x1="551.44" y1="465.40" x2="507.39" y2="509.45"/>
<line x1="551.64" y1="465.60" x2="507.53" y2="509.72"/>
<line x1="551.85" y1="465.81" x2="507.66" y2="509.99"/>
<line x1="557.93" y1="471.89" x2="511.77" y2="518.05"/>
<line x1="558.13" y1="472.09" x2="511.91" y2="518.32"/>
<line x1="558.34" y1="472.30" x2="512.04" y2="518.59"/>
<line x1="558.54" y1="472.50" x2="512.18" y2="518.86"/>
<line x1="558.74" y1="472.70" x2="512.32" y2="519.12"/>
<line x1="558.95" y1="472.90" x2="512.46" y2="519.39"/>
<line x1="559.15" y1="473.11" x2="512.59" y2="519.66"/>
<line x1="559.35" y1="473.31" x2="512.73" y2="519.93"/>
<line x1="565.43" y1="479.39" x2="516.84" y2="527.99"/>
<line x1="565.64" y1="479.60" x2="516.97" y2="528.26"/>
<line x1="565.84" y1="479.80" x2="517.11" y2="528.53"/>
<line x1="566.04" y1="480.00" x2="517.25" y2="528.80"/>
<line x1="566.25" y1="480.20" x2="517.38" y2="529.07"/>
<line x1="566.45" y1="480.41" x2="517.52" y2="529.34"/>
<line x1="566.65" y1="480.61" x2="517.66" y2="529.60"/>
<line x1="566.85" y1="480.81" x2="517.79" y2="529.87"/>
<line x1="572.94" y1="486.90" x2="532.33" y2="527.51"/>
<line x1="573.14" y1="487.10" x2="533.33" y2="526.92"/>
<line x1="573.34" y1="487.30" x2="534.34" y2="526.31"/>
<line x1="573.55" y1="487.51" x2="535.36" y2="525.69"/>
<line x1="573.75" y1="487.71" x2="536.42" y2="525.04"/>
<line x1="573.95" y1="487.91" x2="537.48" y2="524.38"/>
<line x1="574.16" y1="488.11" x2="538.59" y2="523.68"/>
<line x1="574.36" y1="488.32" x2="539.70" y2="522.98"/>
</g>
<g font-family="Times" font-weight="normal" font-style="normal"
font-size="17" stroke="none" fill="#000000">
<text x="335.85" y="37.00">L</text>
<text x="347.23" y="37.00">a</text>
<text x="355.76" y="37.00">n</text>
<text x="365.24" y="37.00">g</text>
<text x="374.72" y="37.00">u</text>
<text x="384.20" y="37.00">a</text>
<text x="392.72" y="37.00">g</text>
<text x="402.20" y="37.00">e</text>
<text x="410.73" y="37.00"> </text>
<text x="416.04" y="37.00">P</text>
<text x="426.47" y="37.00">o</text>
<text x="435.95" y="37.00">p</text>
<text x="445.43" y="37.00">u</text>
<text x="454.91" y="37.00">l</text>
<text x="460.70" y="37.00">a</text>
<text x="469.23" y="37.00">r</text>
<text x="475.97" y="37.00">i</text>
<text x="481.76" y="37.00">t</text>
<text x="487.55" y="37.00">y</text>
</g>
</svg>
