<?xml version="1.0" encoding="ISO-8859-1" standalone="no"?>
<!DOCTYPE svg PUBLIC "-//W3C//DTD SVG 20010904//EN"
  "http://www.w3.org/TR/2001/REC-SVG-20010904/DTD/svg10.dtd">
<!-- Created by DISLIN (http://www.dislin.de)
Version: 11.5
Date   : 27.06.2026 18:20:59
-->
<svg width="853" height="603"
  xmlns="http://www.w3.org/2000/svg"
  xmlns:xlink="http://www.w3.org/1999/xlink">

<g fill="none" stroke="#000000" stroke-width="1.000">
<line x1="129.06" y1="524.85" x2="799.89" y2="524.85"/>
<line x1="129.06" y1="531.73" x2="129.06" y2="524.85"/>
<line x1="184.99" y1="524.85" x2="184.99" y2="529.44"/>
<line x1="240.91" y1="531.73" x2="240.91" y2="524.85"/>
<line x1="296.84" y1="524.85" x2="296.84" y2="529.44"/>
<line x1="352.77" y1="531.73" x2="352.77" y2="524.85"/>
<line x1="408.69" y1="524.85" x2="408.69" y2="529.44"/>
<line x1="464.62" y1="531.73" x2="464.62" y2="524.85"/>
<line x1="520.26" y1="524.85" x2="520.26" y2="529.44"/>
<line x1="576.19" y1="531.73" x2="576.19" y2="524.85"/>
<line x1="632.11" y1="524.85" x2="632.11" y2="529.44"/>
<line x1="688.04" y1="531.73" x2="688.04" y2="524.85"/>
<line x1="743.97" y1="524.85" x2="743.97" y2="529.44"/>
</g>
<g font-family="Times" font-weight="normal" font-style="normal"
font-size="15" stroke="none" fill="#000000">
<text x="118.74" y="548.65">0</text>
<text x="127.27" y="548.65">.</text>
<text x="132.05" y="548.65">5</text>
<text x="230.30" y="548.65">1</text>
<text x="238.83" y="548.65">.</text>
<text x="243.62" y="548.65">0</text>
<text x="342.16" y="548.65">1</text>
<text x="350.69" y="548.65">.</text>
<text x="355.47" y="548.65">5</text>
<text x="454.01" y="548.65">2</text>
<text x="462.54" y="548.65">.</text>
<text x="467.32" y="548.65">0</text>
<text x="565.86" y="548.65">2</text>
<text x="574.39" y="548.65">.</text>
<text x="579.18" y="548.65">5</text>
<text x="677.72" y="548.65">3</text>
<text x="686.25" y="548.65">.</text>
<text x="691.03" y="548.65">0</text>
<text x="789.57" y="548.65">3</text>
<text x="798.10" y="548.65">.</text>
<text x="802.88" y="548.65">5</text>
</g>
<g font-family="Times" font-weight="normal" font-style="normal"
font-size="15" stroke="none" fill="#000000">
<text x="456.59" y="567.58">X</text>
<text x="468.55" y="567.58"> </text>
</g>
<g fill="none" stroke="#000000" stroke-width="1.000">
<line x1="799.89" y1="531.73" x2="799.89" y2="524.85"/>
<line x1="129.06" y1="524.85" x2="129.06" y2="103.54"/>
<line x1="129.06" y1="524.85" x2="122.18" y2="524.85"/>
<line x1="124.47" y1="489.86" x2="129.06" y2="489.86"/>
<line x1="129.06" y1="454.58" x2="122.18" y2="454.58"/>
<line x1="124.47" y1="419.59" x2="129.06" y2="419.59"/>
<line x1="129.06" y1="384.32" x2="122.18" y2="384.32"/>
<line x1="124.47" y1="349.33" x2="129.06" y2="349.33"/>
<line x1="129.06" y1="314.34" x2="122.18" y2="314.34"/>
<line x1="124.47" y1="279.06" x2="129.06" y2="279.06"/>
<line x1="129.06" y1="244.07" x2="122.18" y2="244.07"/>
<line x1="124.47" y1="208.79" x2="129.06" y2="208.79"/>
<line x1="129.06" y1="173.80" x2="122.18" y2="173.80"/>
<line x1="124.47" y1="138.53" x2="129.06" y2="138.53"/>
</g>
<g font-family="Times" font-weight="normal" font-style="normal"
font-size="15" stroke="none" fill="#000000">
<text x="94.36" y="529.44">1</text>
<text x="102.89" y="529.44">.</text>
<text x="107.67" y="529.44">5</text>
<text x="94.36" y="459.17">2</text>
<text x="102.89" y="459.17">.</text>
<text x="107.67" y="459.17">0</text>
<text x="94.36" y="388.91">2</text>
<text x="102.89" y="388.91">.</text>
<text x="107.67" y="388.91">5</text>
<text x="94.36" y="318.93">3</text>
<text x="102.89" y="318.93">.</text>
<text x="107.67" y="318.93">0</text>
<text x="94.36" y="248.66">3</text>
<text x="102.89" y="248.66">.</text>
<text x="107.67" y="248.66">5</text>
<text x="94.36" y="178.39">4</text>
<text x="102.89" y="178.39">.</text>
<text x="107.67" y="178.39">0</text>
<text x="94.36" y="108.12">4</text>
<text x="102.89" y="108.12">.</text>
<text x="107.67" y="108.12">5</text>
</g>
<g font-family="Times" font-weight="normal" font-style="normal"
font-size="15" stroke="none" fill="#000000">
<text x="85.47" y="322.08" rotate="-90">Y</text>
<text x="85.47" y="310.12" rotate="-90"> </text>
</g>
<g fill="none" stroke="#000000" stroke-width="1.000">
<line x1="129.06" y1="103.54" x2="122.18" y2="103.54"/>
<line x1="129.06" y1="103.54" x2="799.89" y2="103.54"/>
<line x1="129.06" y1="96.65" x2="129.06" y2="103.54"/>
<line x1="184.99" y1="103.54" x2="184.99" y2="98.95"/>
<line x1="240.91" y1="96.65" x2="240.91" y2="103.54"/>
<line x1="296.84" y1="103.54" x2="296.84" y2="98.95"/>
<line x1="352.77" y1="96.65" x2="352.77" y2="103.54"/>
<line x1="408.69" y1="103.54" x2="408.69" y2="98.95"/>
<line x1="464.62" y1="96.65" x2="464.62" y2="103.54"/>
<line x1="520.26" y1="103.54" x2="520.26" y2="98.95"/>
<line x1="576.19" y1="96.65" x2="576.19" y2="103.54"/>
<line x1="632.11" y1="103.54" x2="632.11" y2="98.95"/>
<line x1="688.04" y1="96.65" x2="688.04" y2="103.54"/>
<line x1="743.97" y1="103.54" x2="743.97" y2="98.95"/>
<line x1="799.89" y1="96.65" x2="799.89" y2="103.54"/>
<line x1="799.89" y1="524.85" x2="799.89" y2="103.54"/>
<line x1="799.89" y1="524.85" x2="806.78" y2="524.85"/>
<line x1="804.48" y1="489.86" x2="799.89" y2="489.86"/>
<line x1="799.89" y1="454.58" x2="806.78" y2="454.58"/>
<line x1="804.48" y1="419.59" x2="799.89" y2="419.59"/>
<line x1="799.89" y1="384.32" x2="806.78" y2="384.32"/>
<line x1="804.48" y1="349.33" x2="799.89" y2="349.33"/>
<line x1="799.89" y1="314.34" x2="806.78" y2="314.34"/>
<line x1="804.48" y1="279.06" x2="799.89" y2="279.06"/>
<line x1="799.89" y1="244.07" x2="806.78" y2="244.07"/>
<line x1="804.48" y1="208.79" x2="799.89" y2="208.79"/>
<line x1="799.89" y1="173.80" x2="806.78" y2="173.80"/>
<line x1="804.48" y1="138.53" x2="799.89" y2="138.53"/>
<line x1="799.89" y1="103.54" x2="806.78" y2="103.54"/>
<polyline points="
 129.06, 103.54 799.89, 103.54 799.89, 524.85 129.06, 524.85 129.06, 103.54"/>
</g>
<g fill="none" stroke="#bfbfbf" stroke-width="1.000">
<line x1="240.91" y1="524.56" x2="240.91" y2="103.82"/>
<line x1="352.77" y1="103.82" x2="352.77" y2="524.56"/>
<line x1="464.62" y1="524.56" x2="464.62" y2="103.82"/>
<line x1="576.19" y1="103.82" x2="576.19" y2="524.56"/>
<line x1="688.04" y1="524.56" x2="688.04" y2="103.82"/>
<line x1="799.61" y1="454.58" x2="129.35" y2="454.58"/>
<line x1="129.35" y1="384.32" x2="799.61" y2="384.32"/>
<line x1="799.61" y1="314.34" x2="129.35" y2="314.34"/>
<line x1="129.35" y1="244.07" x2="799.61" y2="244.07"/>
<line x1="799.61" y1="173.80" x2="129.35" y2="173.80"/>
</g>
<g fill="none" stroke="#ff0000" stroke-width="1.000">
<polyline points="
 193.88, 479.25 193.88, 484.98 199.62, 484.98 199.62, 479.25 193.88, 479.25"/>
<polyline points="
 237.19, 457.74 237.19, 463.47 242.92, 463.47 242.92, 457.74 237.19, 457.74"/>
<polyline points="
 236.33, 476.95 236.33, 482.69 242.06, 482.69 242.06, 476.95 236.33, 476.95"/>
<polyline points="
 230.02, 467.78 230.02, 473.51 235.75, 473.51 235.75, 467.78 230.02, 467.78"/>
<polyline points="
 251.24, 456.30 251.24, 462.04 256.98, 462.04 256.98, 456.30 251.24, 456.30"/>
<polyline points="
 217.68, 433.93 217.68, 439.67 223.42, 439.67 223.42, 433.93 217.68, 433.93"/>
<polyline points="
 218.26, 467.78 218.26, 473.51 223.99, 473.51 223.99, 467.78 218.26, 467.78"/>
<polyline points="
 202.77, 473.51 202.77, 479.25 208.51, 479.25 208.51, 473.51 202.77, 473.51"/>
<polyline points="
 272.18, 449.99 272.18, 455.73 277.91, 455.73 277.91, 449.99 272.18, 449.99"/>
<polyline points="
 225.14, 428.20 225.14, 433.93 230.88, 433.93 230.88, 428.20 225.14, 428.20"/>
<polyline points="
 268.16, 428.48 268.16, 434.22 273.90, 434.22 273.90, 428.48 268.16, 428.48"/>
<polyline points="
 203.92, 467.20 203.92, 472.94 209.65, 472.94 209.65, 467.20 203.92, 467.20"/>
<polyline points="
 258.70, 454.58 258.70, 460.32 264.43, 460.32 264.43, 454.58 258.70, 454.58"/>
<polyline points="
 238.05, 474.95 238.05, 480.68 243.78, 480.68 243.78, 474.95 238.05, 474.95"/>
<polyline points="
 260.70, 451.43 260.70, 457.16 266.44, 457.16 266.44, 451.43 260.70, 451.43"/>
<polyline points="
 203.63, 468.35 203.63, 474.09 209.37, 474.09 209.37, 468.35 203.63, 468.35"/>
<polyline points="
 218.26, 475.81 218.26, 481.54 223.99, 481.54 223.99, 475.81 218.26, 475.81"/>
<polyline points="
 254.68, 478.10 254.68, 483.84 260.42, 483.84 260.42, 478.10 254.68, 478.10"/>
<polyline points="
 238.62, 439.10 238.62, 444.83 244.36, 444.83 244.36, 439.10 238.62, 439.10"/>
<polyline points="
 264.43, 445.41 264.43, 451.14 270.17, 451.14 270.17, 445.41 264.43, 445.41"/>
<polyline points="
 219.98, 466.63 219.98, 472.36 225.71, 472.36 225.71, 466.63 219.98, 466.63"/>
<polyline points="
 259.56, 427.05 259.56, 432.79 265.29, 432.79 265.29, 427.05 259.56, 427.05"/>
<polyline points="
 199.90, 435.65 199.90, 441.39 205.64, 441.39 205.64, 435.65 199.90, 435.65"/>
<polyline points="
 239.77, 478.10 239.77, 483.84 245.50, 483.84 245.50, 478.10 239.77, 478.10"/>
<polyline points="
 271.89, 433.36 271.89, 439.10 277.63, 439.10 277.63, 433.36 271.89, 433.36"/>
<polyline points="
 278.77, 447.70 278.77, 453.44 284.51, 453.44 284.51, 447.70 278.77, 447.70"/>
<polyline points="
 243.21, 449.71 243.21, 455.44 248.95, 455.44 248.95, 449.71 243.21, 449.71"/>
<polyline points="
 276.19, 468.64 276.19, 474.37 281.93, 474.37 281.93, 468.64 276.19, 468.64"/>
<polyline points="
 197.61, 427.91 197.61, 433.65 203.34, 433.65 203.34, 427.91 197.61, 427.91"/>
<polyline points="
 258.12, 456.59 258.12, 462.33 263.86, 462.33 263.86, 456.59 258.12, 456.59"/>
<polyline points="
 266.44, 448.56 266.44, 454.30 272.18, 454.30 272.18, 448.56 266.44, 448.56"/>
<polyline points="
 243.78, 473.23 243.78, 478.96 249.52, 478.96 249.52, 473.23 243.78, 473.23"/>
<polyline points="
 229.16, 429.06 229.16, 434.79 234.89, 434.79 234.89, 429.06 229.16, 429.06"/>
<polyline points="
 207.93, 435.94 207.93, 441.68 213.67, 441.68 213.67, 435.94 207.93, 435.94"/>
<polyline points="
 201.05, 462.90 201.05, 468.64 206.79, 468.64 206.79, 462.90 201.05, 462.90"/>
<polyline points="
 239.19, 468.35 239.19, 474.09 244.93, 474.09 244.93, 468.35 239.19, 468.35"/>
<polyline points="
 257.26, 447.70 257.26, 453.44 263.00, 453.44 263.00, 447.70 257.26, 447.70"/>
<polyline points="
 258.12, 426.19 258.12, 431.93 263.86, 431.93 263.86, 426.19 258.12, 426.19"/>
<polyline points="
 247.22, 467.49 247.22, 473.23 252.96, 473.23 252.96, 467.49 247.22, 467.49"/>
<polyline points="
 195.03, 457.74 195.03, 463.47 200.76, 463.47 200.76, 457.74 195.03, 457.74"/>
</g>
<g fill="none" stroke="#0000ff" stroke-width="1.000">
<polygon fill="#0000ff" points="
 694.87, 150.28 694.87, 149.77 694.47, 148.74 693.60, 147.88 692.57, 147.47
 691.54, 147.47 690.51, 147.88 689.65, 148.74 689.25, 149.77 689.25, 150.28
 689.25, 150.80 689.65, 151.83 690.51, 152.69 691.54, 153.10 692.57, 153.10
 693.60, 152.69 694.47, 151.83 694.87, 150.80 694.87, 149.77"/>
<polyline points="
 694.87, 150.28 694.87, 149.77 694.47, 148.74 693.60, 147.88 692.57, 147.47
 691.54, 147.47 690.51, 147.88 689.65, 148.74 689.25, 149.77 689.25, 150.28
 689.25, 150.80 689.65, 151.83 690.51, 152.69 691.54, 153.10 692.57, 153.10
 693.60, 152.69 694.47, 151.83 694.87, 150.80 694.87, 149.77"/>
<polygon fill="#0000ff" points="
 668.19, 188.72 668.19, 188.20 667.79, 187.17 666.93, 186.31 665.90, 185.91
 664.87, 185.91 663.83, 186.31 662.97, 187.17 662.57, 188.20 662.57, 188.72
 662.57, 189.23 662.97, 190.27 663.83, 191.13 664.87, 191.53 665.90, 191.53
 666.93, 191.13 667.79, 190.27 668.19, 189.23 668.19, 188.20"/>
<polyline points="
 668.19, 188.72 668.19, 188.20 667.79, 187.17 666.93, 186.31 665.90, 185.91
 664.87, 185.91 663.83, 186.31 662.97, 187.17 662.57, 188.20 662.57, 188.72
 662.57, 189.23 662.97, 190.27 663.83, 191.13 664.87, 191.53 665.90, 191.53
 666.93, 191.13 667.79, 190.27 668.19, 189.23 668.19, 188.20"/>
<polygon fill="#0000ff" points="
 734.73, 150.57 734.73, 150.06 734.33, 149.02 733.47, 148.16 732.44, 147.76
 731.41, 147.76 730.37, 148.16 729.51, 149.02 729.11, 150.06 729.11, 150.57
 729.11, 151.09 729.51, 152.12 730.37, 152.98 731.41, 153.38 732.44, 153.38
 733.47, 152.98 734.33, 152.12 734.73, 151.09 734.73, 150.06"/>
<polyline points="
 734.73, 150.57 734.73, 150.06 734.33, 149.02 733.47, 148.16 732.44, 147.76
 731.41, 147.76 730.37, 148.16 729.51, 149.02 729.11, 150.06 729.11, 150.57
 729.11, 151.09 729.51, 152.12 730.37, 152.98 731.41, 153.38 732.44, 153.38
 733.47, 152.98 734.33, 152.12 734.73, 151.09 734.73, 150.06"/>
<polygon fill="#0000ff" points="
 652.42, 162.04 652.42, 161.53 652.02, 160.50 651.16, 159.63 650.13, 159.23
 649.09, 159.23 648.06, 159.63 647.20, 160.50 646.80, 161.53 646.80, 162.04
 646.80, 162.56 647.20, 163.59 648.06, 164.45 649.09, 164.85 650.13, 164.85
 651.16, 164.45 652.02, 163.59 652.42, 162.56 652.42, 161.53"/>
<polyline points="
 652.42, 162.04 652.42, 161.53 652.02, 160.50 651.16, 159.63 650.13, 159.23
 649.09, 159.23 648.06, 159.63 647.20, 160.50 646.80, 161.53 646.80, 162.04
 646.80, 162.56 647.20, 163.59 648.06, 164.45 649.09, 164.85 650.13, 164.85
 651.16, 164.45 652.02, 163.59 652.42, 162.56 652.42, 161.53"/>
<polygon fill="#0000ff" points="
 685.40, 168.07 685.40, 167.55 685.00, 166.52 684.14, 165.66 683.11, 165.26
 682.08, 165.26 681.04, 165.66 680.18, 166.52 679.78, 167.55 679.78, 168.07
 679.78, 168.58 680.18, 169.62 681.04, 170.48 682.08, 170.88 683.11, 170.88
 684.14, 170.48 685.00, 169.62 685.40, 168.58 685.40, 167.55"/>
<polyline points="
 685.40, 168.07 685.40, 167.55 685.00, 166.52 684.14, 165.66 683.11, 165.26
 682.08, 165.26 681.04, 165.66 680.18, 166.52 679.78, 167.55 679.78, 168.07
 679.78, 168.58 680.18, 169.62 681.04, 170.48 682.08, 170.88 683.11, 170.88
 684.14, 170.48 685.00, 169.62 685.40, 168.58 685.40, 167.55"/>
<polygon fill="#0000ff" points="
 727.28, 158.03 727.28, 157.51 726.87, 156.48 726.01, 155.62 724.98, 155.22
 723.95, 155.22 722.92, 155.62 722.06, 156.48 721.65, 157.51 721.65, 158.03
 721.65, 158.54 722.06, 159.58 722.92, 160.44 723.95, 160.84 724.98, 160.84
 726.01, 160.44 726.87, 159.58 727.28, 158.54 727.28, 157.51"/>
<polyline points="
 727.28, 158.03 727.28, 157.51 726.87, 156.48 726.01, 155.62 724.98, 155.22
 723.95, 155.22 722.92, 155.62 722.06, 156.48 721.65, 157.51 721.65, 158.03
 721.65, 158.54 722.06, 159.58 722.92, 160.44 723.95, 160.84 724.98, 160.84
 726.01, 160.44 726.87, 159.58 727.28, 158.54 727.28, 157.51"/>
<polygon fill="#0000ff" points="
 663.61, 191.30 663.61, 190.78 663.20, 189.75 662.34, 188.89 661.31, 188.49
 660.28, 188.49 659.25, 188.89 658.39, 189.75 657.98, 190.78 657.98, 191.30
 657.98, 191.81 658.39, 192.85 659.25, 193.71 660.28, 194.11 661.31, 194.11
 662.34, 193.71 663.20, 192.85 663.61, 191.81 663.61, 190.78"/>
<polyline points="
 663.61, 191.30 663.61, 190.78 663.20, 189.75 662.34, 188.89 661.31, 188.49
 660.28, 188.49 659.25, 188.89 658.39, 189.75 657.98, 190.78 657.98, 191.30
 657.98, 191.81 658.39, 192.85 659.25, 193.71 660.28, 194.11 661.31, 194.11
 662.34, 193.71 663.20, 192.85 663.61, 191.81 663.61, 190.78"/>
<polygon fill="#0000ff" points="
 728.42, 195.60 728.42, 195.08 728.02, 194.05 727.16, 193.19 726.13, 192.79
 725.10, 192.79 724.06, 193.19 723.20, 194.05 722.80, 195.08 722.80, 195.60
 722.80, 196.12 723.20, 197.15 724.06, 198.01 725.10, 198.41 726.13, 198.41
 727.16, 198.01 728.02, 197.15 728.42, 196.12 728.42, 195.08"/>
<polyline points="
 728.42, 195.60 728.42, 195.08 728.02, 194.05 727.16, 193.19 726.13, 192.79
 725.10, 192.79 724.06, 193.19 723.20, 194.05 722.80, 195.08 722.80, 195.60
 722.80, 196.12 723.20, 197.15 724.06, 198.01 725.10, 198.41 726.13, 198.41
 727.16, 198.01 728.02, 197.15 728.42, 196.12 728.42, 195.08"/>
<polygon fill="#0000ff" points="
 667.62, 148.56 667.62, 148.05 667.22, 147.02 666.36, 146.15 665.33, 145.75
 664.29, 145.75 663.26, 146.15 662.40, 147.02 662.00, 148.05 662.00, 148.56
 662.00, 149.08 662.40, 150.11 663.26, 150.97 664.29, 151.37 665.33, 151.37
 666.36, 150.97 667.22, 150.11 667.62, 149.08 667.62, 148.05"/>
<polyline points="
 667.62, 148.56 667.62, 148.05 667.22, 147.02 666.36, 146.15 665.33, 145.75
 664.29, 145.75 663.26, 146.15 662.40, 147.02 662.00, 148.05 662.00, 148.56
 662.00, 149.08 662.40, 150.11 663.26, 150.97 664.29, 151.37 665.33, 151.37
 666.36, 150.97 667.22, 150.11 667.62, 149.08 667.62, 148.05"/>
<polygon fill="#0000ff" points="
 668.48, 168.35 668.48, 167.84 668.08, 166.80 667.22, 165.94 666.19, 165.54
 665.15, 165.54 664.12, 165.94 663.26, 166.80 662.86, 167.84 662.86, 168.35
 662.86, 168.87 663.26, 169.90 664.12, 170.76 665.15, 171.16 666.19, 171.16
 667.22, 170.76 668.08, 169.90 668.48, 168.87 668.48, 167.84"/>
<polyline points="
 668.48, 168.35 668.48, 167.84 668.08, 166.80 667.22, 165.94 666.19, 165.54
 665.15, 165.54 664.12, 165.94 663.26, 166.80 662.86, 167.84 662.86, 168.35
 662.86, 168.87 663.26, 169.90 664.12, 170.76 665.15, 171.16 666.19, 171.16
 667.22, 170.76 668.08, 169.90 668.48, 168.87 668.48, 167.84"/>
<polygon fill="#0000ff" points="
 720.68, 173.80 720.68, 173.29 720.28, 172.25 719.42, 171.39 718.38, 170.99
 717.35, 170.99 716.32, 171.39 715.46, 172.25 715.06, 173.29 715.06, 173.80
 715.06, 174.32 715.46, 175.35 716.32, 176.21 717.35, 176.61 718.38, 176.61
 719.42, 176.21 720.28, 175.35 720.68, 174.32 720.68, 173.29"/>
<polyline points="
 720.68, 173.80 720.68, 173.29 720.28, 172.25 719.42, 171.39 718.38, 170.99
 717.35, 170.99 716.32, 171.39 715.46, 172.25 715.06, 173.29 715.06, 173.80
 715.06, 174.32 715.46, 175.35 716.32, 176.21 717.35, 176.61 718.38, 176.61
 719.42, 176.21 720.28, 175.35 720.68, 174.32 720.68, 173.29"/>
<polygon fill="#0000ff" points="
 657.58, 147.99 657.58, 147.47 657.18, 146.44 656.32, 145.58 655.29, 145.18
 654.26, 145.18 653.22, 145.58 652.36, 146.44 651.96, 147.47 651.96, 147.99
 651.96, 148.51 652.36, 149.54 653.22, 150.40 654.26, 150.80 655.29, 150.80
 656.32, 150.40 657.18, 149.54 657.58, 148.51 657.58, 147.47"/>
<polyline points="
 657.58, 147.99 657.58, 147.47 657.18, 146.44 656.32, 145.58 655.29, 145.18
 654.26, 145.18 653.22, 145.58 652.36, 146.44 651.96, 147.47 651.96, 147.99
 651.96, 148.51 652.36, 149.54 653.22, 150.40 654.26, 150.80 655.29, 150.80
 656.32, 150.40 657.18, 149.54 657.58, 148.51 657.58, 147.47"/>
<polygon fill="#0000ff" points="
 663.89, 165.77 663.89, 165.26 663.49, 164.22 662.63, 163.36 661.60, 162.96
 660.57, 162.96 659.53, 163.36 658.67, 164.22 658.27, 165.26 658.27, 165.77
 658.27, 166.29 658.67, 167.32 659.53, 168.18 660.57, 168.58 661.60, 168.58
 662.63, 168.18 663.49, 167.32 663.89, 166.29 663.89, 165.26"/>
<polyline points="
 663.89, 165.77 663.89, 165.26 663.49, 164.22 662.63, 163.36 661.60, 162.96
 660.57, 162.96 659.53, 163.36 658.67, 164.22 658.27, 165.26 658.27, 165.77
 658.27, 166.29 658.67, 167.32 659.53, 168.18 660.57, 168.58 661.60, 168.58
 662.63, 168.18 663.49, 167.32 663.89, 166.29 663.89, 165.26"/>
<polygon fill="#0000ff" points="
 661.02, 150.86 661.02, 150.34 660.62, 149.31 659.76, 148.45 658.73, 148.05
 657.70, 148.05 656.66, 148.45 655.80, 149.31 655.40, 150.34 655.40, 150.86
 655.40, 151.37 655.80, 152.41 656.66, 153.27 657.70, 153.67 658.73, 153.67
 659.76, 153.27 660.62, 152.41 661.02, 151.37 661.02, 150.34"/>
<polyline points="
 661.02, 150.86 661.02, 150.34 660.62, 149.31 659.76, 148.45 658.73, 148.05
 657.70, 148.05 656.66, 148.45 655.80, 149.31 655.40, 150.34 655.40, 150.86
 655.40, 151.37 655.80, 152.41 656.66, 153.27 657.70, 153.67 658.73, 153.67
 659.76, 153.27 660.62, 152.41 661.02, 151.37 661.02, 150.34"/>
<polygon fill="#0000ff" points="
 679.09, 151.72 679.09, 151.20 678.69, 150.17 677.83, 149.31 676.80, 148.91
 675.77, 148.91 674.73, 149.31 673.87, 150.17 673.47, 151.20 673.47, 151.72
 673.47, 152.24 673.87, 153.27 674.73, 154.13 675.77, 154.53 676.80, 154.53
 677.83, 154.13 678.69, 153.27 679.09, 152.24 679.09, 151.20"/>
<polyline points="
 679.09, 151.72 679.09, 151.20 678.69, 150.17 677.83, 149.31 676.80, 148.91
 675.77, 148.91 674.73, 149.31 673.87, 150.17 673.47, 151.20 673.47, 151.72
 673.47, 152.24 673.87, 153.27 674.73, 154.13 675.77, 154.53 676.80, 154.53
 677.83, 154.13 678.69, 153.27 679.09, 152.24 679.09, 151.20"/>
<polygon fill="#0000ff" points="
 713.22, 146.56 713.22, 146.04 712.82, 145.01 711.96, 144.15 710.93, 143.75
 709.90, 143.75 708.86, 144.15 708.00, 145.01 707.60, 146.04 707.60, 146.56
 707.60, 147.07 708.00, 148.11 708.86, 148.97 709.90, 149.37 710.93, 149.37
 711.96, 148.97 712.82, 148.11 713.22, 147.07 713.22, 146.04"/>
<polyline points="
 713.22, 146.56 713.22, 146.04 712.82, 145.01 711.96, 144.15 710.93, 143.75
 709.90, 143.75 708.86, 144.15 708.00, 145.01 707.60, 146.04 707.60, 146.56
 707.60, 147.07 708.00, 148.11 708.86, 148.97 709.90, 149.37 710.93, 149.37
 711.96, 148.97 712.82, 148.11 713.22, 147.07 713.22, 146.04"/>
<polygon fill="#0000ff" points="
 658.44, 167.78 658.44, 167.26 658.04, 166.23 657.18, 165.37 656.15, 164.97
 655.12, 164.97 654.08, 165.37 653.22, 166.23 652.82, 167.26 652.82, 167.78
 652.82, 168.30 653.22, 169.33 654.08, 170.19 655.12, 170.59 656.15, 170.59
 657.18, 170.19 658.04, 169.33 658.44, 168.30 658.44, 167.26"/>
<polyline points="
 658.44, 167.78 658.44, 167.26 658.04, 166.23 657.18, 165.37 656.15, 164.97
 655.12, 164.97 654.08, 165.37 653.22, 166.23 652.82, 167.26 652.82, 167.78
 652.82, 168.30 653.22, 169.33 654.08, 170.19 655.12, 170.59 656.15, 170.59
 657.18, 170.19 658.04, 169.33 658.44, 168.30 658.44, 167.26"/>
<polygon fill="#0000ff" points="
 694.58, 146.84 694.58, 146.33 694.18, 145.29 693.32, 144.43 692.29, 144.03
 691.25, 144.03 690.22, 144.43 689.36, 145.29 688.96, 146.33 688.96, 146.84
 688.96, 147.36 689.36, 148.39 690.22, 149.25 691.25, 149.65 692.29, 149.65
 693.32, 149.25 694.18, 148.39 694.58, 147.36 694.58, 146.33"/>
<polyline points="
 694.58, 146.84 694.58, 146.33 694.18, 145.29 693.32, 144.43 692.29, 144.03
 691.25, 144.03 690.22, 144.43 689.36, 145.29 688.96, 146.33 688.96, 146.84
 688.96, 147.36 689.36, 148.39 690.22, 149.25 691.25, 149.65 692.29, 149.65
 693.32, 149.25 694.18, 148.39 694.58, 147.36 694.58, 146.33"/>
<polygon fill="#0000ff" points="
 659.02, 160.90 659.02, 160.38 658.61, 159.35 657.75, 158.49 656.72, 158.09
 655.69, 158.09 654.66, 158.49 653.80, 159.35 653.40, 160.38 653.40, 160.90
 653.40, 161.41 653.80, 162.45 654.66, 163.31 655.69, 163.71 656.72, 163.71
 657.75, 163.31 658.61, 162.45 659.02, 161.41 659.02, 160.38"/>
<polyline points="
 659.02, 160.90 659.02, 160.38 658.61, 159.35 657.75, 158.49 656.72, 158.09
 655.69, 158.09 654.66, 158.49 653.80, 159.35 653.40, 160.38 653.40, 160.90
 653.40, 161.41 653.80, 162.45 654.66, 163.31 655.69, 163.71 656.72, 163.71
 657.75, 163.31 658.61, 162.45 659.02, 161.41 659.02, 160.38"/>
<polygon fill="#0000ff" points="
 658.73, 200.76 658.73, 200.25 658.33, 199.21 657.47, 198.35 656.44, 197.95
 655.40, 197.95 654.37, 198.35 653.51, 199.21 653.11, 200.25 653.11, 200.76
 653.11, 201.28 653.51, 202.31 654.37, 203.17 655.40, 203.57 656.44, 203.57
 657.47, 203.17 658.33, 202.31 658.73, 201.28 658.73, 200.25"/>
<polyline points="
 658.73, 200.76 658.73, 200.25 658.33, 199.21 657.47, 198.35 656.44, 197.95
 655.40, 197.95 654.37, 198.35 653.51, 199.21 653.11, 200.25 653.11, 200.76
 653.11, 201.28 653.51, 202.31 654.37, 203.17 655.40, 203.57 656.44, 203.57
 657.47, 203.17 658.33, 202.31 658.73, 201.28 658.73, 200.25"/>
<polygon fill="#0000ff" points="
 653.57, 192.44 653.57, 191.93 653.17, 190.90 652.31, 190.04 651.27, 189.63
 650.24, 189.63 649.21, 190.04 648.35, 190.90 647.95, 191.93 647.95, 192.44
 647.95, 192.96 648.35, 193.99 649.21, 194.85 650.24, 195.26 651.27, 195.26
 652.31, 194.85 653.17, 193.99 653.57, 192.96 653.57, 191.93"/>
<polyline points="
 653.57, 192.44 653.57, 191.93 653.17, 190.90 652.31, 190.04 651.27, 189.63
 650.24, 189.63 649.21, 190.04 648.35, 190.90 647.95, 191.93 647.95, 192.44
 647.95, 192.96 648.35, 193.99 649.21, 194.85 650.24, 195.26 651.27, 195.26
 652.31, 194.85 653.17, 193.99 653.57, 192.96 653.57, 191.93"/>
<polygon fill="#0000ff" points="
 722.97, 187.86 722.97, 187.34 722.57, 186.31 721.71, 185.45 720.68, 185.05
 719.65, 185.05 718.61, 185.45 717.75, 186.31 717.35, 187.34 717.35, 187.86
 717.35, 188.37 717.75, 189.40 718.61, 190.27 719.65, 190.67 720.68, 190.67
 721.71, 190.27 722.57, 189.40 722.97, 188.37 722.97, 187.34"/>
<polyline points="
 722.97, 187.86 722.97, 187.34 722.57, 186.31 721.71, 185.45 720.68, 185.05
 719.65, 185.05 718.61, 185.45 717.75, 186.31 717.35, 187.34 717.35, 187.86
 717.35, 188.37 717.75, 189.40 718.61, 190.27 719.65, 190.67 720.68, 190.67
 721.71, 190.27 722.57, 189.40 722.97, 188.37 722.97, 187.34"/>
<polygon fill="#0000ff" points="
 648.40, 156.31 648.40, 155.79 648.00, 154.76 647.14, 153.90 646.11, 153.50
 645.08, 153.50 644.05, 153.90 643.18, 154.76 642.78, 155.79 642.78, 156.31
 642.78, 156.82 643.18, 157.86 644.05, 158.72 645.08, 159.12 646.11, 159.12
 647.14, 158.72 648.00, 157.86 648.40, 156.82 648.40, 155.79"/>
<polyline points="
 648.40, 156.31 648.40, 155.79 648.00, 154.76 647.14, 153.90 646.11, 153.50
 645.08, 153.50 644.05, 153.90 643.18, 154.76 642.78, 155.79 642.78, 156.31
 642.78, 156.82 643.18, 157.86 644.05, 158.72 645.08, 159.12 646.11, 159.12
 647.14, 158.72 648.00, 157.86 648.40, 156.82 648.40, 155.79"/>
<polygon fill="#0000ff" points="
 698.60, 194.17 698.60, 193.65 698.19, 192.62 697.33, 191.76 696.30, 191.36
 695.27, 191.36 694.24, 191.76 693.38, 192.62 692.97, 193.65 692.97, 194.17
 692.97, 194.68 693.38, 195.71 694.24, 196.57 695.27, 196.98 696.30, 196.98
 697.33, 196.57 698.19, 195.71 698.60, 194.68 698.60, 193.65"/>
<polyline points="
 698.60, 194.17 698.60, 193.65 698.19, 192.62 697.33, 191.76 696.30, 191.36
 695.27, 191.36 694.24, 191.76 693.38, 192.62 692.97, 193.65 692.97, 194.17
 692.97, 194.68 693.38, 195.71 694.24, 196.57 695.27, 196.98 696.30, 196.98
 697.33, 196.57 698.19, 195.71 698.60, 194.68 698.60, 193.65"/>
<polygon fill="#0000ff" points="
 726.13, 193.59 726.13, 193.08 725.73, 192.04 724.87, 191.18 723.83, 190.78
 722.80, 190.78 721.77, 191.18 720.91, 192.04 720.51, 193.08 720.51, 193.59
 720.51, 194.11 720.91, 195.14 721.77, 196.00 722.80, 196.40 723.83, 196.40
 724.87, 196.00 725.73, 195.14 726.13, 194.11 726.13, 193.08"/>
<polyline points="
 726.13, 193.59 726.13, 193.08 725.73, 192.04 724.87, 191.18 723.83, 190.78
 722.80, 190.78 721.77, 191.18 720.91, 192.04 720.51, 193.08 720.51, 193.59
 720.51, 194.11 720.91, 195.14 721.77, 196.00 722.80, 196.40 723.83, 196.40
 724.87, 196.00 725.73, 195.14 726.13, 194.11 726.13, 193.08"/>
<polygon fill="#0000ff" points="
 721.83, 176.96 721.83, 176.44 721.42, 175.41 720.56, 174.55 719.53, 174.15
 718.50, 174.15 717.47, 174.55 716.61, 175.41 716.21, 176.44 716.21, 176.96
 716.21, 177.47 716.61, 178.51 717.47, 179.37 718.50, 179.77 719.53, 179.77
 720.56, 179.37 721.42, 178.51 721.83, 177.47 721.83, 176.44"/>
<polyline points="
 721.83, 176.96 721.83, 176.44 721.42, 175.41 720.56, 174.55 719.53, 174.15
 718.50, 174.15 717.47, 174.55 716.61, 175.41 716.21, 176.44 716.21, 176.96
 716.21, 177.47 716.61, 178.51 717.47, 179.37 718.50, 179.77 719.53, 179.77
 720.56, 179.37 721.42, 178.51 721.83, 177.47 721.83, 176.44"/>
<polygon fill="#0000ff" points="
 648.40, 172.37 648.40, 171.85 648.00, 170.82 647.14, 169.96 646.11, 169.56
 645.08, 169.56 644.05, 169.96 643.18, 170.82 642.78, 171.85 642.78, 172.37
 642.78, 172.88 643.18, 173.92 644.05, 174.78 645.08, 175.18 646.11, 175.18
 647.14, 174.78 648.00, 173.92 648.40, 172.88 648.40, 171.85"/>
<polyline points="
 648.40, 172.37 648.40, 171.85 648.00, 170.82 647.14, 169.96 646.11, 169.56
 645.08, 169.56 644.05, 169.96 643.18, 170.82 642.78, 171.85 642.78, 172.37
 642.78, 172.88 643.18, 173.92 644.05, 174.78 645.08, 175.18 646.11, 175.18
 647.14, 174.78 648.00, 173.92 648.40, 172.88 648.40, 171.85"/>
<polygon fill="#0000ff" points="
 727.85, 159.75 727.85, 159.23 727.45, 158.20 726.59, 157.34 725.55, 156.94
 724.52, 156.94 723.49, 157.34 722.63, 158.20 722.23, 159.23 722.23, 159.75
 722.23, 160.27 722.63, 161.30 723.49, 162.16 724.52, 162.56 725.55, 162.56
 726.59, 162.16 727.45, 161.30 727.85, 160.27 727.85, 159.23"/>
<polyline points="
 727.85, 159.75 727.85, 159.23 727.45, 158.20 726.59, 157.34 725.55, 156.94
 724.52, 156.94 723.49, 157.34 722.63, 158.20 722.23, 159.23 722.23, 159.75
 722.23, 160.27 722.63, 161.30 723.49, 162.16 724.52, 162.56 725.55, 162.56
 726.59, 162.16 727.45, 161.30 727.85, 160.27 727.85, 159.23"/>
<polygon fill="#0000ff" points="
 725.55, 201.05 725.55, 200.53 725.15, 199.50 724.29, 198.64 723.26, 198.24
 722.23, 198.24 721.20, 198.64 720.34, 199.50 719.93, 200.53 719.93, 201.05
 719.93, 201.57 720.34, 202.60 721.20, 203.46 722.23, 203.86 723.26, 203.86
 724.29, 203.46 725.15, 202.60 725.55, 201.57 725.55, 200.53"/>
<polyline points="
 725.55, 201.05 725.55, 200.53 725.15, 199.50 724.29, 198.64 723.26, 198.24
 722.23, 198.24 721.20, 198.64 720.34, 199.50 719.93, 200.53 719.93, 201.05
 719.93, 201.57 720.34, 202.60 721.20, 203.46 722.23, 203.86 723.26, 203.86
 724.29, 203.46 725.15, 202.60 725.55, 201.57 725.55, 200.53"/>
<polygon fill="#0000ff" points="
 654.71, 162.62 654.71, 162.10 654.31, 161.07 653.45, 160.21 652.42, 159.81
 651.39, 159.81 650.36, 160.21 649.49, 161.07 649.09, 162.10 649.09, 162.62
 649.09, 163.13 649.49, 164.17 650.36, 165.03 651.39, 165.43 652.42, 165.43
 653.45, 165.03 654.31, 164.17 654.71, 163.13 654.71, 162.10"/>
<polyline points="
 654.71, 162.62 654.71, 162.10 654.31, 161.07 653.45, 160.21 652.42, 159.81
 651.39, 159.81 650.36, 160.21 649.49, 161.07 649.09, 162.10 649.09, 162.62
 649.09, 163.13 649.49, 164.17 650.36, 165.03 651.39, 165.43 652.42, 165.43
 653.45, 165.03 654.31, 164.17 654.71, 163.13 654.71, 162.10"/>
<polygon fill="#0000ff" points="
 728.14, 149.14 728.14, 148.62 727.73, 147.59 726.87, 146.73 725.84, 146.33
 724.81, 146.33 723.78, 146.73 722.92, 147.59 722.51, 148.62 722.51, 149.14
 722.51, 149.65 722.92, 150.69 723.78, 151.55 724.81, 151.95 725.84, 151.95
 726.87, 151.55 727.73, 150.69 728.14, 149.65 728.14, 148.62"/>
<polyline points="
 728.14, 149.14 728.14, 148.62 727.73, 147.59 726.87, 146.73 725.84, 146.33
 724.81, 146.33 723.78, 146.73 722.92, 147.59 722.51, 148.62 722.51, 149.14
 722.51, 149.65 722.92, 150.69 723.78, 151.55 724.81, 151.95 725.84, 151.95
 726.87, 151.55 727.73, 150.69 728.14, 149.65 728.14, 148.62"/>
<polygon fill="#0000ff" points="
 657.30, 159.46 657.30, 158.95 656.89, 157.91 656.03, 157.05 655.00, 156.65
 653.97, 156.65 652.94, 157.05 652.08, 157.91 651.67, 158.95 651.67, 159.46
 651.67, 159.98 652.08, 161.01 652.94, 161.87 653.97, 162.27 655.00, 162.27
 656.03, 161.87 656.89, 161.01 657.30, 159.98 657.30, 158.95"/>
<polyline points="
 657.30, 159.46 657.30, 158.95 656.89, 157.91 656.03, 157.05 655.00, 156.65
 653.97, 156.65 652.94, 157.05 652.08, 157.91 651.67, 158.95 651.67, 159.46
 651.67, 159.98 652.08, 161.01 652.94, 161.87 653.97, 162.27 655.00, 162.27
 656.03, 161.87 656.89, 161.01 657.30, 159.98 657.30, 158.95"/>
<polygon fill="#0000ff" points="
 687.12, 146.27 687.12, 145.75 686.72, 144.72 685.86, 143.86 684.83, 143.46
 683.80, 143.46 682.76, 143.86 681.90, 144.72 681.50, 145.75 681.50, 146.27
 681.50, 146.79 681.90, 147.82 682.76, 148.68 683.80, 149.08 684.83, 149.08
 685.86, 148.68 686.72, 147.82 687.12, 146.79 687.12, 145.75"/>
<polyline points="
 687.12, 146.27 687.12, 145.75 686.72, 144.72 685.86, 143.86 684.83, 143.46
 683.80, 143.46 682.76, 143.86 681.90, 144.72 681.50, 145.75 681.50, 146.27
 681.50, 146.79 681.90, 147.82 682.76, 148.68 683.80, 149.08 684.83, 149.08
 685.86, 148.68 686.72, 147.82 687.12, 146.79 687.12, 145.75"/>
<polygon fill="#0000ff" points="
 706.91, 162.62 706.91, 162.10 706.51, 161.07 705.65, 160.21 704.62, 159.81
 703.59, 159.81 702.55, 160.21 701.69, 161.07 701.29, 162.10 701.29, 162.62
 701.29, 163.13 701.69, 164.17 702.55, 165.03 703.59, 165.43 704.62, 165.43
 705.65, 165.03 706.51, 164.17 706.91, 163.13 706.91, 162.10"/>
<polyline points="
 706.91, 162.62 706.91, 162.10 706.51, 161.07 705.65, 160.21 704.62, 159.81
 703.59, 159.81 702.55, 160.21 701.69, 161.07 701.29, 162.10 701.29, 162.62
 701.29, 163.13 701.69, 164.17 702.55, 165.03 703.59, 165.43 704.62, 165.43
 705.65, 165.03 706.51, 164.17 706.91, 163.13 706.91, 162.10"/>
<polygon fill="#0000ff" points="
 723.83, 147.70 723.83, 147.19 723.43, 146.15 722.57, 145.29 721.54, 144.89
 720.51, 144.89 719.47, 145.29 718.61, 146.15 718.21, 147.19 718.21, 147.70
 718.21, 148.22 718.61, 149.25 719.47, 150.11 720.51, 150.51 721.54, 150.51
 722.57, 150.11 723.43, 149.25 723.83, 148.22 723.83, 147.19"/>
<polyline points="
 723.83, 147.70 723.83, 147.19 723.43, 146.15 722.57, 145.29 721.54, 144.89
 720.51, 144.89 719.47, 145.29 718.61, 146.15 718.21, 147.19 718.21, 147.70
 718.21, 148.22 718.61, 149.25 719.47, 150.11 720.51, 150.51 721.54, 150.51
 722.57, 150.11 723.43, 149.25 723.83, 148.22 723.83, 147.19"/>
<polygon fill="#0000ff" points="
 648.40, 165.20 648.40, 164.68 648.00, 163.65 647.14, 162.79 646.11, 162.39
 645.08, 162.39 644.05, 162.79 643.18, 163.65 642.78, 164.68 642.78, 165.20
 642.78, 165.71 643.18, 166.75 644.05, 167.61 645.08, 168.01 646.11, 168.01
 647.14, 167.61 648.00, 166.75 648.40, 165.71 648.40, 164.68"/>
<polyline points="
 648.40, 165.20 648.40, 164.68 648.00, 163.65 647.14, 162.79 646.11, 162.39
 645.08, 162.39 644.05, 162.79 643.18, 163.65 642.78, 164.68 642.78, 165.20
 642.78, 165.71 643.18, 166.75 644.05, 167.61 645.08, 168.01 646.11, 168.01
 647.14, 167.61 648.00, 166.75 648.40, 165.71 648.40, 164.68"/>
<polygon fill="#0000ff" points="
 709.21, 191.87 709.21, 191.36 708.81, 190.32 707.95, 189.46 706.91, 189.06
 705.88, 189.06 704.85, 189.46 703.99, 190.32 703.59, 191.36 703.59, 191.87
 703.59, 192.39 703.99, 193.42 704.85, 194.28 705.88, 194.68 706.91, 194.68
 707.95, 194.28 708.81, 193.42 709.21, 192.39 709.21, 191.36"/>
<polyline points="
 709.21, 191.87 709.21, 191.36 708.81, 190.32 707.95, 189.46 706.91, 189.06
 705.88, 189.06 704.85, 189.46 703.99, 190.32 703.59, 191.36 703.59, 191.87
 703.59, 192.39 703.99, 193.42 704.85, 194.28 705.88, 194.68 706.91, 194.68
 707.95, 194.28 708.81, 193.42 709.21, 192.39 709.21, 191.36"/>
<polygon fill="#0000ff" points="
 716.38, 157.17 716.38, 156.65 715.98, 155.62 715.12, 154.76 714.08, 154.36
 713.05, 154.36 712.02, 154.76 711.16, 155.62 710.76, 156.65 710.76, 157.17
 710.76, 157.68 711.16, 158.72 712.02, 159.58 713.05, 159.98 714.08, 159.98
 715.12, 159.58 715.98, 158.72 716.38, 157.68 716.38, 156.65"/>
<polyline points="
 716.38, 157.17 716.38, 156.65 715.98, 155.62 715.12, 154.76 714.08, 154.36
 713.05, 154.36 712.02, 154.76 711.16, 155.62 710.76, 156.65 710.76, 157.17
 710.76, 157.68 711.16, 158.72 712.02, 159.58 713.05, 159.98 714.08, 159.98
 715.12, 159.58 715.98, 158.72 716.38, 157.68 716.38, 156.65"/>
<polygon fill="#0000ff" points="
 652.13, 176.96 652.13, 176.44 651.73, 175.41 650.87, 174.55 649.84, 174.15
 648.81, 174.15 647.77, 174.55 646.91, 175.41 646.51, 176.44 646.51, 176.96
 646.51, 177.47 646.91, 178.51 647.77, 179.37 648.81, 179.77 649.84, 179.77
 650.87, 179.37 651.73, 178.51 652.13, 177.47 652.13, 176.44"/>
<polyline points="
 652.13, 176.96 652.13, 176.44 651.73, 175.41 650.87, 174.55 649.84, 174.15
 648.81, 174.15 647.77, 174.55 646.91, 175.41 646.51, 176.44 646.51, 176.96
 646.51, 177.47 646.91, 178.51 647.77, 179.37 648.81, 179.77 649.84, 179.77
 650.87, 179.37 651.73, 178.51 652.13, 177.47 652.13, 176.44"/>
<polygon fill="#0000ff" points="
 720.97, 164.34 720.97, 163.82 720.56, 162.79 719.70, 161.93 718.67, 161.53
 717.64, 161.53 716.61, 161.93 715.75, 162.79 715.34, 163.82 715.34, 164.34
 715.34, 164.85 715.75, 165.89 716.61, 166.75 717.64, 167.15 718.67, 167.15
 719.70, 166.75 720.56, 165.89 720.97, 164.85 720.97, 163.82"/>
<polyline points="
 720.97, 164.34 720.97, 163.82 720.56, 162.79 719.70, 161.93 718.67, 161.53
 717.64, 161.53 716.61, 161.93 715.75, 162.79 715.34, 163.82 715.34, 164.34
 715.34, 164.85 715.75, 165.89 716.61, 166.75 717.64, 167.15 718.67, 167.15
 719.70, 166.75 720.56, 165.89 720.97, 164.85 720.97, 163.82"/>
</g>
<g fill="none" stroke="#000000" stroke-width="1.000">
<polyline points="
 681.73, 108.70 794.44, 108.70 794.44, 149.71 681.73, 149.71 681.73, 108.70"/>
</g>
<g fill="none" stroke="#ff0000" stroke-width="1.000">
<polyline points="
 696.07, 117.88 696.07, 125.91 704.10, 125.91 704.10, 117.88 696.07, 117.88"/>
</g>
<g fill="none" stroke="#0000ff" stroke-width="1.000">
<polygon fill="#0000ff" points="
 704.02, 137.38 704.02, 136.66 703.46, 135.21 702.25, 134.01 700.81, 133.44
 699.36, 133.44 697.92, 134.01 696.71, 135.21 696.15, 136.66 696.15, 137.38
 696.15, 138.10 696.71, 139.55 697.92, 140.75 699.36, 141.31 700.81, 141.31
 702.25, 140.75 703.46, 139.55 704.02, 138.10 704.02, 136.66"/>
<polyline points="
 704.02, 137.38 704.02, 136.66 703.46, 135.21 702.25, 134.01 700.81, 133.44
 699.36, 133.44 697.92, 134.01 696.71, 135.21 696.15, 136.66 696.15, 137.38
 696.15, 138.10 696.71, 139.55 697.92, 140.75 699.36, 141.31 700.81, 141.31
 702.25, 140.75 703.46, 139.55 704.02, 138.10 704.02, 136.66"/>
</g>
<g font-family="Times" font-weight="normal" font-style="normal"
font-size="15" stroke="none" fill="#000000">
<text x="720.74" y="126.77">C</text>
<text x="731.84" y="126.77">l</text>
<text x="737.05" y="126.77">u</text>
<text x="745.58" y="126.77">s</text>
<text x="752.51" y="126.77">t</text>
<text x="757.72" y="126.77">e</text>
<text x="765.39" y="126.77">r</text>
<text x="771.46" y="126.77"> </text>
<text x="776.24" y="126.77">A</text>
<text x="720.74" y="142.25">C</text>
<text x="731.84" y="142.25">l</text>
<text x="737.05" y="142.25">u</text>
<text x="745.58" y="142.25">s</text>
<text x="752.51" y="142.25">t</text>
<text x="757.72" y="142.25">e</text>
<text x="765.39" y="142.25">r</text>
<text x="771.46" y="142.25"> </text>
<text x="776.24" y="142.25">B</text>
</g>
<g font-family="Times" font-weight="normal" font-style="normal"
font-size="17" stroke="none" fill="#000000">
<text x="457.16" y="74.28"> </text>
<text x="462.48" y="74.28"> </text>
<text x="467.79" y="74.28"> </text>
</g>
</svg>
