<?xml version="1.0" encoding="ISO-8859-1" standalone="no"?>
<!DOCTYPE svg PUBLIC "-//W3C//DTD SVG 20010904//EN"
  "http://www.w3.org/TR/2001/REC-SVG-20010904/DTD/svg10.dtd">
<!-- Created by DISLIN (http://www.dislin.de)
Version: 11.5
Date   : 26.06.2026 22:55:08
-->
<svg width="853" height="603"
  xmlns="http://www.w3.org/2000/svg"
  xmlns:xlink="http://www.w3.org/1999/xlink">

<g fill="none" stroke="#000000" stroke-width="1.000">
<line x1="157.74" y1="444.55" x2="851.52" y2="444.55"/>
<line x1="157.74" y1="451.43" x2="157.74" y2="444.55"/>
<line x1="215.68" y1="444.55" x2="215.68" y2="449.13"/>
<line x1="273.32" y1="451.43" x2="273.32" y2="444.55"/>
<line x1="331.26" y1="444.55" x2="331.26" y2="449.13"/>
<line x1="388.91" y1="451.43" x2="388.91" y2="444.55"/>
<line x1="446.84" y1="444.55" x2="446.84" y2="449.13"/>
<line x1="504.77" y1="451.43" x2="504.77" y2="444.55"/>
<line x1="562.42" y1="444.55" x2="562.42" y2="449.13"/>
<line x1="620.36" y1="451.43" x2="620.36" y2="444.55"/>
<line x1="678.00" y1="444.55" x2="678.00" y2="449.13"/>
<line x1="735.94" y1="451.43" x2="735.94" y2="444.55"/>
<line x1="793.58" y1="444.55" x2="793.58" y2="449.13"/>
</g>
<g font-family="Times" font-weight="normal" font-style="normal"
font-size="15" stroke="none" fill="#000000">
<text x="147.42" y="468.35">0</text>
<text x="155.95" y="468.35">.</text>
<text x="160.73" y="468.35">5</text>
<text x="263.00" y="468.35">1</text>
<text x="271.53" y="468.35">.</text>
<text x="276.31" y="468.35">0</text>
<text x="378.58" y="468.35">1</text>
<text x="387.11" y="468.35">.</text>
<text x="391.89" y="468.35">5</text>
<text x="494.16" y="468.35">2</text>
<text x="502.69" y="468.35">.</text>
<text x="507.48" y="468.35">0</text>
<text x="609.74" y="468.35">2</text>
<text x="618.28" y="468.35">.</text>
<text x="623.06" y="468.35">5</text>
<text x="725.33" y="468.35">3</text>
<text x="733.86" y="468.35">.</text>
<text x="738.64" y="468.35">0</text>
<text x="841.19" y="468.35">3</text>
<text x="849.73" y="468.35">.</text>
<text x="854.51" y="468.35">5</text>
</g>
<g font-family="Times" font-weight="normal" font-style="normal"
font-size="15" stroke="none" fill="#000000">
<text x="499.32" y="487.28">X</text>
</g>
<g fill="none" stroke="#000000" stroke-width="1.000">
<line x1="851.52" y1="451.43" x2="851.52" y2="444.55"/>
<line x1="157.74" y1="444.55" x2="157.74" y2="63.38"/>
<line x1="157.74" y1="444.55" x2="150.86" y2="444.55"/>
<line x1="153.15" y1="412.71" x2="157.74" y2="412.71"/>
<line x1="157.74" y1="381.16" x2="150.86" y2="381.16"/>
<line x1="153.15" y1="349.33" x2="157.74" y2="349.33"/>
<line x1="157.74" y1="317.49" x2="150.86" y2="317.49"/>
<line x1="153.15" y1="285.66" x2="157.74" y2="285.66"/>
<line x1="157.74" y1="254.11" x2="150.86" y2="254.11"/>
<line x1="153.15" y1="222.27" x2="157.74" y2="222.27"/>
<line x1="157.74" y1="190.44" x2="150.86" y2="190.44"/>
<line x1="153.15" y1="158.60" x2="157.74" y2="158.60"/>
<line x1="157.74" y1="127.05" x2="150.86" y2="127.05"/>
<line x1="153.15" y1="95.22" x2="157.74" y2="95.22"/>
</g>
<g font-family="Times" font-weight="normal" font-style="normal"
font-size="15" stroke="none" fill="#000000">
<text x="123.04" y="449.13">1</text>
<text x="131.57" y="449.13">.</text>
<text x="136.35" y="449.13">5</text>
<text x="123.04" y="385.75">2</text>
<text x="131.57" y="385.75">.</text>
<text x="136.35" y="385.75">0</text>
<text x="123.04" y="322.08">2</text>
<text x="131.57" y="322.08">.</text>
<text x="136.35" y="322.08">5</text>
<text x="123.04" y="258.70">3</text>
<text x="131.57" y="258.70">.</text>
<text x="136.35" y="258.70">0</text>
<text x="123.04" y="195.03">3</text>
<text x="131.57" y="195.03">.</text>
<text x="136.35" y="195.03">5</text>
<text x="123.04" y="131.64">4</text>
<text x="131.57" y="131.64">.</text>
<text x="136.35" y="131.64">0</text>
<text x="123.04" y="67.97">4</text>
<text x="131.57" y="67.97">.</text>
<text x="136.35" y="67.97">5</text>
</g>
<g font-family="Times" font-weight="normal" font-style="normal"
font-size="15" stroke="none" fill="#000000">
<text x="114.15" y="259.27" rotate="-90">Y</text>
</g>
<g fill="none" stroke="#000000" stroke-width="1.000">
<line x1="157.74" y1="63.38" x2="150.86" y2="63.38"/>
<line x1="157.74" y1="63.38" x2="851.52" y2="63.38"/>
<line x1="157.74" y1="56.50" x2="157.74" y2="63.38"/>
<line x1="215.68" y1="63.38" x2="215.68" y2="58.79"/>
<line x1="273.32" y1="56.50" x2="273.32" y2="63.38"/>
<line x1="331.26" y1="63.38" x2="331.26" y2="58.79"/>
<line x1="388.91" y1="56.50" x2="388.91" y2="63.38"/>
<line x1="446.84" y1="63.38" x2="446.84" y2="58.79"/>
<line x1="504.77" y1="56.50" x2="504.77" y2="63.38"/>
<line x1="562.42" y1="63.38" x2="562.42" y2="58.79"/>
<line x1="620.36" y1="56.50" x2="620.36" y2="63.38"/>
<line x1="678.00" y1="63.38" x2="678.00" y2="58.79"/>
<line x1="735.94" y1="56.50" x2="735.94" y2="63.38"/>
<line x1="793.58" y1="63.38" x2="793.58" y2="58.79"/>
<line x1="851.52" y1="56.50" x2="851.52" y2="63.38"/>
<line x1="851.52" y1="444.55" x2="851.52" y2="63.38"/>
<line x1="851.52" y1="444.55" x2="851.52" y2="444.55"/>
<line x1="851.52" y1="412.71" x2="851.52" y2="412.71"/>
<line x1="851.52" y1="381.16" x2="851.52" y2="381.16"/>
<line x1="851.52" y1="349.33" x2="851.52" y2="349.33"/>
<line x1="851.52" y1="317.49" x2="851.52" y2="317.49"/>
<line x1="851.52" y1="285.66" x2="851.52" y2="285.66"/>
<line x1="851.52" y1="254.11" x2="851.52" y2="254.11"/>
<line x1="851.52" y1="222.27" x2="851.52" y2="222.27"/>
<line x1="851.52" y1="190.44" x2="851.52" y2="190.44"/>
<line x1="851.52" y1="158.60" x2="851.52" y2="158.60"/>
<line x1="851.52" y1="127.05" x2="851.52" y2="127.05"/>
<line x1="851.52" y1="95.22" x2="851.52" y2="95.22"/>
<line x1="851.52" y1="63.38" x2="851.52" y2="63.38"/>
<polyline points="
 157.74, 63.38 851.52, 63.38 851.52, 444.55 157.74, 444.55 157.74, 63.38"/>
</g>
<g fill="none" stroke="#bfbfbf" stroke-width="1.000">
<line x1="273.32" y1="444.26" x2="273.32" y2="63.67"/>
<line x1="388.91" y1="63.67" x2="388.91" y2="444.26"/>
<line x1="504.77" y1="444.26" x2="504.77" y2="63.67"/>
<line x1="620.36" y1="63.67" x2="620.36" y2="444.26"/>
<line x1="735.94" y1="444.26" x2="735.94" y2="63.67"/>
<line x1="851.23" y1="381.16" x2="158.03" y2="381.16"/>
<line x1="158.03" y1="317.49" x2="851.23" y2="317.49"/>
<line x1="851.23" y1="254.11" x2="158.03" y2="254.11"/>
<line x1="158.03" y1="190.44" x2="851.23" y2="190.44"/>
<line x1="851.23" y1="127.05" x2="158.03" y2="127.05"/>
</g>
<g fill="none" stroke="#ff0000" stroke-width="1.000">
<polygon fill="#ff0000" points="
 224.85, 402.96 227.72, 408.69 230.59, 402.96 224.85, 402.96"/>
<polyline points="
 224.85, 402.96 227.72, 408.69 230.59, 402.96 224.85, 402.96"/>
<polygon fill="#ff0000" points="
 269.60, 383.46 272.46, 389.19 275.33, 383.46 269.60, 383.46"/>
<polyline points="
 269.60, 383.46 272.46, 389.19 275.33, 383.46 269.60, 383.46"/>
<polygon fill="#ff0000" points="
 269.02, 400.95 271.89, 406.69 274.76, 400.95 269.02, 400.95"/>
<polyline points="
 269.02, 400.95 271.89, 406.69 274.76, 400.95 269.02, 400.95"/>
<polygon fill="#ff0000" points="
 262.14, 392.63 265.01, 398.37 267.87, 392.63 262.14, 392.63"/>
<polyline points="
 262.14, 392.63 265.01, 398.37 267.87, 392.63 262.14, 392.63"/>
<polygon fill="#ff0000" points="
 283.94, 382.31 286.80, 388.04 289.67, 382.31 283.94, 382.31"/>
<polyline points="
 283.94, 382.31 286.80, 388.04 289.67, 382.31 283.94, 382.31"/>
<polygon fill="#ff0000" points="
 249.52, 362.23 252.39, 367.97 255.25, 362.23 249.52, 362.23"/>
<polyline points="
 249.52, 362.23 252.39, 367.97 255.25, 362.23 249.52, 362.23"/>
<polygon fill="#ff0000" points="
 250.09, 392.63 252.96, 398.37 255.83, 392.63 250.09, 392.63"/>
<polyline points="
 250.09, 392.63 252.96, 398.37 255.83, 392.63 250.09, 392.63"/>
<polygon fill="#ff0000" points="
 234.03, 397.80 236.90, 403.53 239.77, 397.80 234.03, 397.80"/>
<polyline points="
 234.03, 397.80 236.90, 403.53 239.77, 397.80 234.03, 397.80"/>
<polygon fill="#ff0000" points="
 305.73, 376.57 308.60, 382.31 311.47, 376.57 305.73, 376.57"/>
<polyline points="
 305.73, 376.57 308.60, 382.31 311.47, 376.57 305.73, 376.57"/>
<polygon fill="#ff0000" points="
 257.26, 356.78 260.13, 362.52 263.00, 356.78 257.26, 356.78"/>
<polyline points="
 257.26, 356.78 260.13, 362.52 263.00, 356.78 257.26, 356.78"/>
<polygon fill="#ff0000" points="
 301.72, 357.07 304.59, 362.81 307.45, 357.07 301.72, 357.07"/>
<polyline points="
 301.72, 357.07 304.59, 362.81 307.45, 357.07 301.72, 357.07"/>
<polygon fill="#ff0000" points="
 235.18, 392.35 238.05, 398.08 240.91, 392.35 235.18, 392.35"/>
<polyline points="
 235.18, 392.35 238.05, 398.08 240.91, 392.35 235.18, 392.35"/>
<polygon fill="#ff0000" points="
 291.68, 380.59 294.55, 386.32 297.41, 380.59 291.68, 380.59"/>
<polyline points="
 291.68, 380.59 294.55, 386.32 297.41, 380.59 291.68, 380.59"/>
<polygon fill="#ff0000" points="
 270.46, 399.23 273.32, 404.97 276.19, 399.23 270.46, 399.23"/>
<polyline points="
 270.46, 399.23 273.32, 404.97 276.19, 399.23 270.46, 399.23"/>
<polygon fill="#ff0000" points="
 293.97, 377.72 296.84, 383.46 299.71, 377.72 293.97, 377.72"/>
<polyline points="
 293.97, 377.72 296.84, 383.46 299.71, 377.72 293.97, 377.72"/>
<polygon fill="#ff0000" points="
 234.89, 393.21 237.76, 398.94 240.63, 393.21 234.89, 393.21"/>
<polyline points="
 234.89, 393.21 237.76, 398.94 240.63, 393.21 234.89, 393.21"/>
<polygon fill="#ff0000" points="
 249.81, 399.80 252.67, 405.54 255.54, 399.80 249.81, 399.80"/>
<polyline points="
 249.81, 399.80 252.67, 405.54 255.54, 399.80 249.81, 399.80"/>
<polygon fill="#ff0000" points="
 287.95, 401.81 290.82, 407.55 293.69, 401.81 287.95, 401.81"/>
<polyline points="
 287.95, 401.81 290.82, 407.55 293.69, 401.81 287.95, 401.81"/>
<polygon fill="#ff0000" points="
 271.32, 366.82 274.18, 372.56 277.05, 366.82 271.32, 366.82"/>
<polyline points="
 271.32, 366.82 274.18, 372.56 277.05, 366.82 271.32, 366.82"/>
<polygon fill="#ff0000" points="
 297.99, 372.56 300.86, 378.29 303.72, 372.56 297.99, 372.56"/>
<polyline points="
 297.99, 372.56 300.86, 378.29 303.72, 372.56 297.99, 372.56"/>
<polygon fill="#ff0000" points="
 251.81, 391.49 254.68, 397.22 257.55, 391.49 251.81, 391.49"/>
<polyline points="
 251.81, 391.49 254.68, 397.22 257.55, 391.49 251.81, 391.49"/>
<polygon fill="#ff0000" points="
 292.83, 355.92 295.69, 361.66 298.56, 355.92 292.83, 355.92"/>
<polyline points="
 292.83, 355.92 295.69, 361.66 298.56, 355.92 292.83, 355.92"/>
<polygon fill="#ff0000" points="
 230.88, 363.38 233.74, 369.12 236.61, 363.38 230.88, 363.38"/>
<polyline points="
 230.88, 363.38 233.74, 369.12 236.61, 363.38 230.88, 363.38"/>
<polygon fill="#ff0000" points="
 272.46, 402.10 275.33, 407.83 278.20, 402.10 272.46, 402.10"/>
<polyline points="
 272.46, 402.10 275.33, 407.83 278.20, 402.10 272.46, 402.10"/>
<polygon fill="#ff0000" points="
 305.45, 361.37 308.31, 367.11 311.18, 361.37 305.45, 361.37"/>
<polyline points="
 305.45, 361.37 308.31, 367.11 311.18, 361.37 305.45, 361.37"/>
<polygon fill="#ff0000" points="
 312.62, 374.57 315.48, 380.30 318.35, 374.57 312.62, 374.57"/>
<polyline points="
 312.62, 374.57 315.48, 380.30 318.35, 374.57 312.62, 374.57"/>
<polygon fill="#ff0000" points="
 275.90, 376.29 278.77, 382.02 281.64, 376.29 275.90, 376.29"/>
<polyline points="
 275.90, 376.29 278.77, 382.02 281.64, 376.29 275.90, 376.29"/>
<polygon fill="#ff0000" points="
 310.03, 393.49 312.90, 399.23 315.77, 393.49 310.03, 393.49"/>
<polyline points="
 310.03, 393.49 312.90, 399.23 315.77, 393.49 310.03, 393.49"/>
<polygon fill="#ff0000" points="
 228.87, 356.50 231.74, 362.23 234.61, 356.50 228.87, 356.50"/>
<polyline points="
 228.87, 356.50 231.74, 362.23 234.61, 356.50 228.87, 356.50"/>
<polygon fill="#ff0000" points="
 291.39, 382.60 294.26, 388.33 297.13, 382.60 291.39, 382.60"/>
<polyline points="
 291.39, 382.60 294.26, 388.33 297.13, 382.60 291.39, 382.60"/>
<polygon fill="#ff0000" points="
 299.71, 375.14 302.58, 380.87 305.45, 375.14 299.71, 375.14"/>
<polyline points="
 299.71, 375.14 302.58, 380.87 305.45, 375.14 299.71, 375.14"/>
<polygon fill="#ff0000" points="
 276.48, 397.51 279.35, 403.25 282.21, 397.51 276.48, 397.51"/>
<polyline points="
 276.48, 397.51 279.35, 403.25 282.21, 397.51 276.48, 397.51"/>
<polygon fill="#ff0000" points="
 261.28, 357.64 264.15, 363.38 267.01, 357.64 261.28, 357.64"/>
<polyline points="
 261.28, 357.64 264.15, 363.38 267.01, 357.64 261.28, 357.64"/>
<polygon fill="#ff0000" points="
 239.48, 363.95 242.35, 369.69 245.22, 363.95 239.48, 363.95"/>
<polyline points="
 239.48, 363.95 242.35, 369.69 245.22, 363.95 239.48, 363.95"/>
<polygon fill="#ff0000" points="
 232.31, 388.04 235.18, 393.78 238.05, 388.04 232.31, 388.04"/>
<polyline points="
 232.31, 388.04 235.18, 393.78 238.05, 388.04 232.31, 388.04"/>
<polygon fill="#ff0000" points="
 271.89, 393.21 274.76, 398.94 277.63, 393.21 271.89, 393.21"/>
<polyline points="
 271.89, 393.21 274.76, 398.94 277.63, 393.21 271.89, 393.21"/>
<polygon fill="#ff0000" points="
 290.53, 374.57 293.40, 380.30 296.27, 374.57 290.53, 374.57"/>
<polyline points="
 290.53, 374.57 293.40, 380.30 296.27, 374.57 290.53, 374.57"/>
<polygon fill="#ff0000" points="
 291.39, 354.78 294.26, 360.51 297.13, 354.78 291.39, 354.78"/>
<polyline points="
 291.39, 354.78 294.26, 360.51 297.13, 354.78 291.39, 354.78"/>
<polygon fill="#ff0000" points="
 279.92, 392.35 282.79, 398.08 285.66, 392.35 279.92, 392.35"/>
<polyline points="
 279.92, 392.35 282.79, 398.08 285.66, 392.35 279.92, 392.35"/>
<polygon fill="#ff0000" points="
 226.00, 383.74 228.87, 389.48 231.74, 383.74 226.00, 383.74"/>
<polyline points="
 226.00, 383.74 228.87, 389.48 231.74, 383.74 226.00, 383.74"/>
</g>
<g fill="none" stroke="#0000ff" stroke-width="1.000">
<polygon fill="#0000ff" points="
 742.76, 105.83 742.76, 105.31 742.36, 104.28 741.50, 103.42 740.47, 103.02
 739.44, 103.02 738.40, 103.42 737.54, 104.28 737.14, 105.31 737.14, 105.83
 737.14, 106.35 737.54, 107.38 738.40, 108.24 739.44, 108.64 740.47, 108.64
 741.50, 108.24 742.36, 107.38 742.76, 106.35 742.76, 105.31"/>
<polyline points="
 742.76, 105.83 742.76, 105.31 742.36, 104.28 741.50, 103.42 740.47, 103.02
 739.44, 103.02 738.40, 103.42 737.54, 104.28 737.14, 105.31 737.14, 105.83
 737.14, 106.35 737.54, 107.38 738.40, 108.24 739.44, 108.64 740.47, 108.64
 741.50, 108.24 742.36, 107.38 742.76, 106.35 742.76, 105.31"/>
<polygon fill="#0000ff" points="
 714.94, 140.53 714.94, 140.02 714.54, 138.98 713.68, 138.12 712.65, 137.72
 711.62, 137.72 710.58, 138.12 709.72, 138.98 709.32, 140.02 709.32, 140.53
 709.32, 141.05 709.72, 142.08 710.58, 142.94 711.62, 143.34 712.65, 143.34
 713.68, 142.94 714.54, 142.08 714.94, 141.05 714.94, 140.02"/>
<polyline points="
 714.94, 140.53 714.94, 140.02 714.54, 138.98 713.68, 138.12 712.65, 137.72
 711.62, 137.72 710.58, 138.12 709.72, 138.98 709.32, 140.02 709.32, 140.53
 709.32, 141.05 709.72, 142.08 710.58, 142.94 711.62, 143.34 712.65, 143.34
 713.68, 142.94 714.54, 142.08 714.94, 141.05 714.94, 140.02"/>
<polygon fill="#0000ff" points="
 784.06, 105.83 784.06, 105.31 783.66, 104.28 782.80, 103.42 781.77, 103.02
 780.74, 103.02 779.70, 103.42 778.84, 104.28 778.44, 105.31 778.44, 105.83
 778.44, 106.35 778.84, 107.38 779.70, 108.24 780.74, 108.64 781.77, 108.64
 782.80, 108.24 783.66, 107.38 784.06, 106.35 784.06, 105.31"/>
<polyline points="
 784.06, 105.83 784.06, 105.31 783.66, 104.28 782.80, 103.42 781.77, 103.02
 780.74, 103.02 779.70, 103.42 778.84, 104.28 778.44, 105.31 778.44, 105.83
 778.44, 106.35 778.84, 107.38 779.70, 108.24 780.74, 108.64 781.77, 108.64
 782.80, 108.24 783.66, 107.38 784.06, 106.35 784.06, 105.31"/>
<polygon fill="#0000ff" points="
 699.17, 116.44 699.17, 115.93 698.77, 114.89 697.91, 114.03 696.87, 113.63
 695.84, 113.63 694.81, 114.03 693.95, 114.89 693.55, 115.93 693.55, 116.44
 693.55, 116.96 693.95, 117.99 694.81, 118.85 695.84, 119.25 696.87, 119.25
 697.91, 118.85 698.77, 117.99 699.17, 116.96 699.17, 115.93"/>
<polyline points="
 699.17, 116.44 699.17, 115.93 698.77, 114.89 697.91, 114.03 696.87, 113.63
 695.84, 113.63 694.81, 114.03 693.95, 114.89 693.55, 115.93 693.55, 116.44
 693.55, 116.96 693.95, 117.99 694.81, 118.85 695.84, 119.25 696.87, 119.25
 697.91, 118.85 698.77, 117.99 699.17, 116.96 699.17, 115.93"/>
<polygon fill="#0000ff" points="
 733.01, 121.89 733.01, 121.38 732.61, 120.34 731.75, 119.48 730.72, 119.08
 729.68, 119.08 728.65, 119.48 727.79, 120.34 727.39, 121.38 727.39, 121.89
 727.39, 122.41 727.79, 123.44 728.65, 124.30 729.68, 124.70 730.72, 124.70
 731.75, 124.30 732.61, 123.44 733.01, 122.41 733.01, 121.38"/>
<polyline points="
 733.01, 121.89 733.01, 121.38 732.61, 120.34 731.75, 119.48 730.72, 119.08
 729.68, 119.08 728.65, 119.48 727.79, 120.34 727.39, 121.38 727.39, 121.89
 727.39, 122.41 727.79, 123.44 728.65, 124.30 729.68, 124.70 730.72, 124.70
 731.75, 124.30 732.61, 123.44 733.01, 122.41 733.01, 121.38"/>
<polygon fill="#0000ff" points="
 776.32, 112.71 776.32, 112.20 775.92, 111.16 775.06, 110.30 774.02, 109.90
 772.99, 109.90 771.96, 110.30 771.10, 111.16 770.70, 112.20 770.70, 112.71
 770.70, 113.23 771.10, 114.26 771.96, 115.12 772.99, 115.52 774.02, 115.52
 775.06, 115.12 775.92, 114.26 776.32, 113.23 776.32, 112.20"/>
<polyline points="
 776.32, 112.71 776.32, 112.20 775.92, 111.16 775.06, 110.30 774.02, 109.90
 772.99, 109.90 771.96, 110.30 771.10, 111.16 770.70, 112.20 770.70, 112.71
 770.70, 113.23 771.10, 114.26 771.96, 115.12 772.99, 115.52 774.02, 115.52
 775.06, 115.12 775.92, 114.26 776.32, 113.23 776.32, 112.20"/>
<polygon fill="#0000ff" points="
 710.35, 142.83 710.35, 142.31 709.95, 141.28 709.09, 140.42 708.06, 140.02
 707.03, 140.02 705.99, 140.42 705.13, 141.28 704.73, 142.31 704.73, 142.83
 704.73, 143.34 705.13, 144.38 705.99, 145.24 707.03, 145.64 708.06, 145.64
 709.09, 145.24 709.95, 144.38 710.35, 143.34 710.35, 142.31"/>
<polyline points="
 710.35, 142.83 710.35, 142.31 709.95, 141.28 709.09, 140.42 708.06, 140.02
 707.03, 140.02 705.99, 140.42 705.13, 141.28 704.73, 142.31 704.73, 142.83
 704.73, 143.34 705.13, 144.38 705.99, 145.24 707.03, 145.64 708.06, 145.64
 709.09, 145.24 709.95, 144.38 710.35, 143.34 710.35, 142.31"/>
<polygon fill="#0000ff" points="
 777.75, 146.84 777.75, 146.33 777.35, 145.29 776.49, 144.43 775.46, 144.03
 774.43, 144.03 773.39, 144.43 772.53, 145.29 772.13, 146.33 772.13, 146.84
 772.13, 147.36 772.53, 148.39 773.39, 149.25 774.43, 149.65 775.46, 149.65
 776.49, 149.25 777.35, 148.39 777.75, 147.36 777.75, 146.33"/>
<polyline points="
 777.75, 146.84 777.75, 146.33 777.35, 145.29 776.49, 144.43 775.46, 144.03
 774.43, 144.03 773.39, 144.43 772.53, 145.29 772.13, 146.33 772.13, 146.84
 772.13, 147.36 772.53, 148.39 773.39, 149.25 774.43, 149.65 775.46, 149.65
 776.49, 149.25 777.35, 148.39 777.75, 147.36 777.75, 146.33"/>
<polygon fill="#0000ff" points="
 714.66, 104.11 714.66, 103.59 714.25, 102.56 713.39, 101.70 712.36, 101.30
 711.33, 101.30 710.30, 101.70 709.44, 102.56 709.03, 103.59 709.03, 104.11
 709.03, 104.63 709.44, 105.66 710.30, 106.52 711.33, 106.92 712.36, 106.92
 713.39, 106.52 714.25, 105.66 714.66, 104.63 714.66, 103.59"/>
<polyline points="
 714.66, 104.11 714.66, 103.59 714.25, 102.56 713.39, 101.70 712.36, 101.30
 711.33, 101.30 710.30, 101.70 709.44, 102.56 709.03, 103.59 709.03, 104.11
 709.03, 104.63 709.44, 105.66 710.30, 106.52 711.33, 106.92 712.36, 106.92
 713.39, 106.52 714.25, 105.66 714.66, 104.63 714.66, 103.59"/>
<polygon fill="#0000ff" points="
 715.52, 121.89 715.52, 121.38 715.12, 120.34 714.25, 119.48 713.22, 119.08
 712.19, 119.08 711.16, 119.48 710.30, 120.34 709.90, 121.38 709.90, 121.89
 709.90, 122.41 710.30, 123.44 711.16, 124.30 712.19, 124.70 713.22, 124.70
 714.25, 124.30 715.12, 123.44 715.52, 122.41 715.52, 121.38"/>
<polyline points="
 715.52, 121.89 715.52, 121.38 715.12, 120.34 714.25, 119.48 713.22, 119.08
 712.19, 119.08 711.16, 119.48 710.30, 120.34 709.90, 121.38 709.90, 121.89
 709.90, 122.41 710.30, 123.44 711.16, 124.30 712.19, 124.70 713.22, 124.70
 714.25, 124.30 715.12, 123.44 715.52, 122.41 715.52, 121.38"/>
<polygon fill="#0000ff" points="
 769.72, 127.05 769.72, 126.54 769.32, 125.51 768.46, 124.64 767.43, 124.24
 766.40, 124.24 765.36, 124.64 764.50, 125.51 764.10, 126.54 764.10, 127.05
 764.10, 127.57 764.50, 128.60 765.36, 129.46 766.40, 129.86 767.43, 129.86
 768.46, 129.46 769.32, 128.60 769.72, 127.57 769.72, 126.54"/>
<polyline points="
 769.72, 127.05 769.72, 126.54 769.32, 125.51 768.46, 124.64 767.43, 124.24
 766.40, 124.24 765.36, 124.64 764.50, 125.51 764.10, 126.54 764.10, 127.05
 764.10, 127.57 764.50, 128.60 765.36, 129.46 766.40, 129.86 767.43, 129.86
 768.46, 129.46 769.32, 128.60 769.72, 127.57 769.72, 126.54"/>
<polygon fill="#0000ff" points="
 704.33, 103.82 704.33, 103.31 703.93, 102.27 703.07, 101.41 702.04, 101.01
 701.00, 101.01 699.97, 101.41 699.11, 102.27 698.71, 103.31 698.71, 103.82
 698.71, 104.34 699.11, 105.37 699.97, 106.23 701.00, 106.63 702.04, 106.63
 703.07, 106.23 703.93, 105.37 704.33, 104.34 704.33, 103.31"/>
<polyline points="
 704.33, 103.82 704.33, 103.31 703.93, 102.27 703.07, 101.41 702.04, 101.01
 701.00, 101.01 699.97, 101.41 699.11, 102.27 698.71, 103.31 698.71, 103.82
 698.71, 104.34 699.11, 105.37 699.97, 106.23 701.00, 106.63 702.04, 106.63
 703.07, 106.23 703.93, 105.37 704.33, 104.34 704.33, 103.31"/>
<polygon fill="#0000ff" points="
 710.93, 119.60 710.93, 119.08 710.53, 118.05 709.67, 117.19 708.63, 116.79
 707.60, 116.79 706.57, 117.19 705.71, 118.05 705.31, 119.08 705.31, 119.60
 705.31, 120.11 705.71, 121.15 706.57, 122.01 707.60, 122.41 708.63, 122.41
 709.67, 122.01 710.53, 121.15 710.93, 120.11 710.93, 119.08"/>
<polyline points="
 710.93, 119.60 710.93, 119.08 710.53, 118.05 709.67, 117.19 708.63, 116.79
 707.60, 116.79 706.57, 117.19 705.71, 118.05 705.31, 119.08 705.31, 119.60
 705.31, 120.11 705.71, 121.15 706.57, 122.01 707.60, 122.41 708.63, 122.41
 709.67, 122.01 710.53, 121.15 710.93, 120.11 710.93, 119.08"/>
<polygon fill="#0000ff" points="
 708.06, 106.12 708.06, 105.60 707.66, 104.57 706.80, 103.71 705.77, 103.31
 704.73, 103.31 703.70, 103.71 702.84, 104.57 702.44, 105.60 702.44, 106.12
 702.44, 106.63 702.84, 107.67 703.70, 108.53 704.73, 108.93 705.77, 108.93
 706.80, 108.53 707.66, 107.67 708.06, 106.63 708.06, 105.60"/>
<polyline points="
 708.06, 106.12 708.06, 105.60 707.66, 104.57 706.80, 103.71 705.77, 103.31
 704.73, 103.31 703.70, 103.71 702.84, 104.57 702.44, 105.60 702.44, 106.12
 702.44, 106.63 702.84, 107.67 703.70, 108.53 704.73, 108.93 705.77, 108.93
 706.80, 108.53 707.66, 107.67 708.06, 106.63 708.06, 105.60"/>
<polygon fill="#0000ff" points="
 726.42, 106.98 726.42, 106.46 726.01, 105.43 725.15, 104.57 724.12, 104.17
 723.09, 104.17 722.06, 104.57 721.20, 105.43 720.79, 106.46 720.79, 106.98
 720.79, 107.49 721.20, 108.53 722.06, 109.39 723.09, 109.79 724.12, 109.79
 725.15, 109.39 726.01, 108.53 726.42, 107.49 726.42, 106.46"/>
<polyline points="
 726.42, 106.98 726.42, 106.46 726.01, 105.43 725.15, 104.57 724.12, 104.17
 723.09, 104.17 722.06, 104.57 721.20, 105.43 720.79, 106.46 720.79, 106.98
 720.79, 107.49 721.20, 108.53 722.06, 109.39 723.09, 109.79 724.12, 109.79
 725.15, 109.39 726.01, 108.53 726.42, 107.49 726.42, 106.46"/>
<polygon fill="#0000ff" points="
 761.69, 102.39 761.69, 101.87 761.29, 100.84 760.43, 99.98 759.40, 99.58
 758.37, 99.58 757.33, 99.98 756.47, 100.84 756.07, 101.87 756.07, 102.39
 756.07, 102.91 756.47, 103.94 757.33, 104.80 758.37, 105.20 759.40, 105.20
 760.43, 104.80 761.29, 103.94 761.69, 102.91 761.69, 101.87"/>
<polyline points="
 761.69, 102.39 761.69, 101.87 761.29, 100.84 760.43, 99.98 759.40, 99.58
 758.37, 99.58 757.33, 99.98 756.47, 100.84 756.07, 101.87 756.07, 102.39
 756.07, 102.91 756.47, 103.94 757.33, 104.80 758.37, 105.20 759.40, 105.20
 760.43, 104.80 761.29, 103.94 761.69, 102.91 761.69, 101.87"/>
<polygon fill="#0000ff" points="
 705.19, 121.32 705.19, 120.80 704.79, 119.77 703.93, 118.91 702.90, 118.51
 701.86, 118.51 700.83, 118.91 699.97, 119.77 699.57, 120.80 699.57, 121.32
 699.57, 121.83 699.97, 122.87 700.83, 123.73 701.86, 124.13 702.90, 124.13
 703.93, 123.73 704.79, 122.87 705.19, 121.83 705.19, 120.80"/>
<polyline points="
 705.19, 121.32 705.19, 120.80 704.79, 119.77 703.93, 118.91 702.90, 118.51
 701.86, 118.51 700.83, 118.91 699.97, 119.77 699.57, 120.80 699.57, 121.32
 699.57, 121.83 699.97, 122.87 700.83, 123.73 701.86, 124.13 702.90, 124.13
 703.93, 123.73 704.79, 122.87 705.19, 121.83 705.19, 120.80"/>
<polygon fill="#0000ff" points="
 742.48, 102.68 742.48, 102.16 742.07, 101.13 741.21, 100.27 740.18, 99.86
 739.15, 99.86 738.12, 100.27 737.26, 101.13 736.85, 102.16 736.85, 102.68
 736.85, 103.19 737.26, 104.22 738.12, 105.08 739.15, 105.49 740.18, 105.49
 741.21, 105.08 742.07, 104.22 742.48, 103.19 742.48, 102.16"/>
<polyline points="
 742.48, 102.68 742.48, 102.16 742.07, 101.13 741.21, 100.27 740.18, 99.86
 739.15, 99.86 738.12, 100.27 737.26, 101.13 736.85, 102.16 736.85, 102.68
 736.85, 103.19 737.26, 104.22 738.12, 105.08 739.15, 105.49 740.18, 105.49
 741.21, 105.08 742.07, 104.22 742.48, 103.19 742.48, 102.16"/>
<polygon fill="#0000ff" points="
 705.77, 115.29 705.77, 114.78 705.36, 113.75 704.50, 112.89 703.47, 112.48
 702.44, 112.48 701.41, 112.89 700.55, 113.75 700.14, 114.78 700.14, 115.29
 700.14, 115.81 700.55, 116.84 701.41, 117.70 702.44, 118.11 703.47, 118.11
 704.50, 117.70 705.36, 116.84 705.77, 115.81 705.77, 114.78"/>
<polyline points="
 705.77, 115.29 705.77, 114.78 705.36, 113.75 704.50, 112.89 703.47, 112.48
 702.44, 112.48 701.41, 112.89 700.55, 113.75 700.14, 114.78 700.14, 115.29
 700.14, 115.81 700.55, 116.84 701.41, 117.70 702.44, 118.11 703.47, 118.11
 704.50, 117.70 705.36, 116.84 705.77, 115.81 705.77, 114.78"/>
<polygon fill="#0000ff" points="
 705.48, 151.15 705.48, 150.63 705.08, 149.60 704.22, 148.74 703.18, 148.33
 702.15, 148.33 701.12, 148.74 700.26, 149.60 699.86, 150.63 699.86, 151.15
 699.86, 151.66 700.26, 152.69 701.12, 153.55 702.15, 153.96 703.18, 153.96
 704.22, 153.55 705.08, 152.69 705.48, 151.66 705.48, 150.63"/>
<polyline points="
 705.48, 151.15 705.48, 150.63 705.08, 149.60 704.22, 148.74 703.18, 148.33
 702.15, 148.33 701.12, 148.74 700.26, 149.60 699.86, 150.63 699.86, 151.15
 699.86, 151.66 700.26, 152.69 701.12, 153.55 702.15, 153.96 703.18, 153.96
 704.22, 153.55 705.08, 152.69 705.48, 151.66 705.48, 150.63"/>
<polygon fill="#0000ff" points="
 700.03, 143.98 700.03, 143.46 699.63, 142.43 698.77, 141.57 697.73, 141.16
 696.70, 141.16 695.67, 141.57 694.81, 142.43 694.41, 143.46 694.41, 143.98
 694.41, 144.49 694.81, 145.52 695.67, 146.38 696.70, 146.79 697.73, 146.79
 698.77, 146.38 699.63, 145.52 700.03, 144.49 700.03, 143.46"/>
<polyline points="
 700.03, 143.98 700.03, 143.46 699.63, 142.43 698.77, 141.57 697.73, 141.16
 696.70, 141.16 695.67, 141.57 694.81, 142.43 694.41, 143.46 694.41, 143.98
 694.41, 144.49 694.81, 145.52 695.67, 146.38 696.70, 146.79 697.73, 146.79
 698.77, 146.38 699.63, 145.52 700.03, 144.49 700.03, 143.46"/>
<polygon fill="#0000ff" points="
 771.73, 139.67 771.73, 139.16 771.33, 138.12 770.47, 137.26 769.44, 136.86
 768.40, 136.86 767.37, 137.26 766.51, 138.12 766.11, 139.16 766.11, 139.67
 766.11, 140.19 766.51, 141.22 767.37, 142.08 768.40, 142.48 769.44, 142.48
 770.47, 142.08 771.33, 141.22 771.73, 140.19 771.73, 139.16"/>
<polyline points="
 771.73, 139.67 771.73, 139.16 771.33, 138.12 770.47, 137.26 769.44, 136.86
 768.40, 136.86 767.37, 137.26 766.51, 138.12 766.11, 139.16 766.11, 139.67
 766.11, 140.19 766.51, 141.22 767.37, 142.08 768.40, 142.48 769.44, 142.48
 770.47, 142.08 771.33, 141.22 771.73, 140.19 771.73, 139.16"/>
<polygon fill="#0000ff" points="
 694.87, 110.99 694.87, 110.48 694.47, 109.44 693.60, 108.58 692.57, 108.18
 691.54, 108.18 690.51, 108.58 689.65, 109.44 689.25, 110.48 689.25, 110.99
 689.25, 111.51 689.65, 112.54 690.51, 113.40 691.54, 113.80 692.57, 113.80
 693.60, 113.40 694.47, 112.54 694.87, 111.51 694.87, 110.48"/>
<polyline points="
 694.87, 110.99 694.87, 110.48 694.47, 109.44 693.60, 108.58 692.57, 108.18
 691.54, 108.18 690.51, 108.58 689.65, 109.44 689.25, 110.48 689.25, 110.99
 689.25, 111.51 689.65, 112.54 690.51, 113.40 691.54, 113.80 692.57, 113.80
 693.60, 113.40 694.47, 112.54 694.87, 111.51 694.87, 110.48"/>
<polygon fill="#0000ff" points="
 746.78, 145.41 746.78, 144.89 746.38, 143.86 745.52, 143.00 744.48, 142.60
 743.45, 142.60 742.42, 143.00 741.56, 143.86 741.16, 144.89 741.16, 145.41
 741.16, 145.93 741.56, 146.96 742.42, 147.82 743.45, 148.22 744.48, 148.22
 745.52, 147.82 746.38, 146.96 746.78, 145.93 746.78, 144.89"/>
<polyline points="
 746.78, 145.41 746.78, 144.89 746.38, 143.86 745.52, 143.00 744.48, 142.60
 743.45, 142.60 742.42, 143.00 741.56, 143.86 741.16, 144.89 741.16, 145.41
 741.16, 145.93 741.56, 146.96 742.42, 147.82 743.45, 148.22 744.48, 148.22
 745.52, 147.82 746.38, 146.96 746.78, 145.93 746.78, 144.89"/>
<polygon fill="#0000ff" points="
 775.17, 144.84 775.17, 144.32 774.77, 143.29 773.91, 142.43 772.88, 142.02
 771.84, 142.02 770.81, 142.43 769.95, 143.29 769.55, 144.32 769.55, 144.84
 769.55, 145.35 769.95, 146.38 770.81, 147.24 771.84, 147.65 772.88, 147.65
 773.91, 147.24 774.77, 146.38 775.17, 145.35 775.17, 144.32"/>
<polyline points="
 775.17, 144.84 775.17, 144.32 774.77, 143.29 773.91, 142.43 772.88, 142.02
 771.84, 142.02 770.81, 142.43 769.95, 143.29 769.55, 144.32 769.55, 144.84
 769.55, 145.35 769.95, 146.38 770.81, 147.24 771.84, 147.65 772.88, 147.65
 773.91, 147.24 774.77, 146.38 775.17, 145.35 775.17, 144.32"/>
<polygon fill="#0000ff" points="
 770.87, 129.92 770.87, 129.41 770.47, 128.37 769.61, 127.51 768.58, 127.11
 767.54, 127.11 766.51, 127.51 765.65, 128.37 765.25, 129.41 765.25, 129.92
 765.25, 130.44 765.65, 131.47 766.51, 132.33 767.54, 132.73 768.58, 132.73
 769.61, 132.33 770.47, 131.47 770.87, 130.44 770.87, 129.41"/>
<polyline points="
 770.87, 129.92 770.87, 129.41 770.47, 128.37 769.61, 127.51 768.58, 127.11
 767.54, 127.11 766.51, 127.51 765.65, 128.37 765.25, 129.41 765.25, 129.92
 765.25, 130.44 765.65, 131.47 766.51, 132.33 767.54, 132.73 768.58, 132.73
 769.61, 132.33 770.47, 131.47 770.87, 130.44 770.87, 129.41"/>
<polygon fill="#0000ff" points="
 694.58, 125.62 694.58, 125.10 694.18, 124.07 693.32, 123.21 692.29, 122.81
 691.25, 122.81 690.22, 123.21 689.36, 124.07 688.96, 125.10 688.96, 125.62
 688.96, 126.14 689.36, 127.17 690.22, 128.03 691.25, 128.43 692.29, 128.43
 693.32, 128.03 694.18, 127.17 694.58, 126.14 694.58, 125.10"/>
<polyline points="
 694.58, 125.62 694.58, 125.10 694.18, 124.07 693.32, 123.21 692.29, 122.81
 691.25, 122.81 690.22, 123.21 689.36, 124.07 688.96, 125.10 688.96, 125.62
 688.96, 126.14 689.36, 127.17 690.22, 128.03 691.25, 128.43 692.29, 128.43
 693.32, 128.03 694.18, 127.17 694.58, 126.14 694.58, 125.10"/>
<polygon fill="#0000ff" points="
 776.89, 114.15 776.89, 113.63 776.49, 112.60 775.63, 111.74 774.60, 111.34
 773.57, 111.34 772.53, 111.74 771.67, 112.60 771.27, 113.63 771.27, 114.15
 771.27, 114.66 771.67, 115.70 772.53, 116.56 773.57, 116.96 774.60, 116.96
 775.63, 116.56 776.49, 115.70 776.89, 114.66 776.89, 113.63"/>
<polyline points="
 776.89, 114.15 776.89, 113.63 776.49, 112.60 775.63, 111.74 774.60, 111.34
 773.57, 111.34 772.53, 111.74 771.67, 112.60 771.27, 113.63 771.27, 114.15
 771.27, 114.66 771.67, 115.70 772.53, 116.56 773.57, 116.96 774.60, 116.96
 775.63, 116.56 776.49, 115.70 776.89, 114.66 776.89, 113.63"/>
<polygon fill="#0000ff" points="
 774.60, 151.72 774.60, 151.20 774.20, 150.17 773.34, 149.31 772.30, 148.91
 771.27, 148.91 770.24, 149.31 769.38, 150.17 768.98, 151.20 768.98, 151.72
 768.98, 152.24 769.38, 153.27 770.24, 154.13 771.27, 154.53 772.30, 154.53
 773.34, 154.13 774.20, 153.27 774.60, 152.24 774.60, 151.20"/>
<polyline points="
 774.60, 151.72 774.60, 151.20 774.20, 150.17 773.34, 149.31 772.30, 148.91
 771.27, 148.91 770.24, 149.31 769.38, 150.17 768.98, 151.20 768.98, 151.72
 768.98, 152.24 769.38, 153.27 770.24, 154.13 771.27, 154.53 772.30, 154.53
 773.34, 154.13 774.20, 153.27 774.60, 152.24 774.60, 151.20"/>
<polygon fill="#0000ff" points="
 701.18, 117.02 701.18, 116.50 700.78, 115.47 699.91, 114.61 698.88, 114.21
 697.85, 114.21 696.82, 114.61 695.96, 115.47 695.56, 116.50 695.56, 117.02
 695.56, 117.53 695.96, 118.56 696.82, 119.42 697.85, 119.83 698.88, 119.83
 699.91, 119.42 700.78, 118.56 701.18, 117.53 701.18, 116.50"/>
<polyline points="
 701.18, 117.02 701.18, 116.50 700.78, 115.47 699.91, 114.61 698.88, 114.21
 697.85, 114.21 696.82, 114.61 695.96, 115.47 695.56, 116.50 695.56, 117.02
 695.56, 117.53 695.96, 118.56 696.82, 119.42 697.85, 119.83 698.88, 119.83
 699.91, 119.42 700.78, 118.56 701.18, 117.53 701.18, 116.50"/>
<polygon fill="#0000ff" points="
 777.18, 104.40 777.18, 103.88 776.78, 102.85 775.92, 101.99 774.88, 101.59
 773.85, 101.59 772.82, 101.99 771.96, 102.85 771.56, 103.88 771.56, 104.40
 771.56, 104.91 771.96, 105.95 772.82, 106.81 773.85, 107.21 774.88, 107.21
 775.92, 106.81 776.78, 105.95 777.18, 104.91 777.18, 103.88"/>
<polyline points="
 777.18, 104.40 777.18, 103.88 776.78, 102.85 775.92, 101.99 774.88, 101.59
 773.85, 101.59 772.82, 101.99 771.96, 102.85 771.56, 103.88 771.56, 104.40
 771.56, 104.91 771.96, 105.95 772.82, 106.81 773.85, 107.21 774.88, 107.21
 775.92, 106.81 776.78, 105.95 777.18, 104.91 777.18, 103.88"/>
<polygon fill="#0000ff" points="
 704.04, 113.86 704.04, 113.34 703.64, 112.31 702.78, 111.45 701.75, 111.05
 700.72, 111.05 699.69, 111.45 698.82, 112.31 698.42, 113.34 698.42, 113.86
 698.42, 114.38 698.82, 115.41 699.69, 116.27 700.72, 116.67 701.75, 116.67
 702.78, 116.27 703.64, 115.41 704.04, 114.38 704.04, 113.34"/>
<polyline points="
 704.04, 113.86 704.04, 113.34 703.64, 112.31 702.78, 111.45 701.75, 111.05
 700.72, 111.05 699.69, 111.45 698.82, 112.31 698.42, 113.34 698.42, 113.86
 698.42, 114.38 698.82, 115.41 699.69, 116.27 700.72, 116.67 701.75, 116.67
 702.78, 116.27 703.64, 115.41 704.04, 114.38 704.04, 113.34"/>
<polygon fill="#0000ff" points="
 734.73, 102.10 734.73, 101.59 734.33, 100.55 733.47, 99.69 732.44, 99.29
 731.41, 99.29 730.37, 99.69 729.51, 100.55 729.11, 101.59 729.11, 102.10
 729.11, 102.62 729.51, 103.65 730.37, 104.51 731.41, 104.91 732.44, 104.91
 733.47, 104.51 734.33, 103.65 734.73, 102.62 734.73, 101.59"/>
<polyline points="
 734.73, 102.10 734.73, 101.59 734.33, 100.55 733.47, 99.69 732.44, 99.29
 731.41, 99.29 730.37, 99.69 729.51, 100.55 729.11, 101.59 729.11, 102.10
 729.11, 102.62 729.51, 103.65 730.37, 104.51 731.41, 104.91 732.44, 104.91
 733.47, 104.51 734.33, 103.65 734.73, 102.62 734.73, 101.59"/>
<polygon fill="#0000ff" points="
 755.38, 116.73 755.38, 116.21 754.98, 115.18 754.12, 114.32 753.09, 113.92
 752.06, 113.92 751.02, 114.32 750.16, 115.18 749.76, 116.21 749.76, 116.73
 749.76, 117.25 750.16, 118.28 751.02, 119.14 752.06, 119.54 753.09, 119.54
 754.12, 119.14 754.98, 118.28 755.38, 117.25 755.38, 116.21"/>
<polyline points="
 755.38, 116.73 755.38, 116.21 754.98, 115.18 754.12, 114.32 753.09, 113.92
 752.06, 113.92 751.02, 114.32 750.16, 115.18 749.76, 116.21 749.76, 116.73
 749.76, 117.25 750.16, 118.28 751.02, 119.14 752.06, 119.54 753.09, 119.54
 754.12, 119.14 754.98, 118.28 755.38, 117.25 755.38, 116.21"/>
<polygon fill="#0000ff" points="
 772.59, 103.25 772.59, 102.73 772.19, 101.70 771.33, 100.84 770.30, 100.44
 769.26, 100.44 768.23, 100.84 767.37, 101.70 766.97, 102.73 766.97, 103.25
 766.97, 103.77 767.37, 104.80 768.23, 105.66 769.26, 106.06 770.30, 106.06
 771.33, 105.66 772.19, 104.80 772.59, 103.77 772.59, 102.73"/>
<polyline points="
 772.59, 103.25 772.59, 102.73 772.19, 101.70 771.33, 100.84 770.30, 100.44
 769.26, 100.44 768.23, 100.84 767.37, 101.70 766.97, 102.73 766.97, 103.25
 766.97, 103.77 767.37, 104.80 768.23, 105.66 769.26, 106.06 770.30, 106.06
 771.33, 105.66 772.19, 104.80 772.59, 103.77 772.59, 102.73"/>
<polygon fill="#0000ff" points="
 694.87, 119.02 694.87, 118.51 694.47, 117.47 693.60, 116.61 692.57, 116.21
 691.54, 116.21 690.51, 116.61 689.65, 117.47 689.25, 118.51 689.25, 119.02
 689.25, 119.54 689.65, 120.57 690.51, 121.43 691.54, 121.83 692.57, 121.83
 693.60, 121.43 694.47, 120.57 694.87, 119.54 694.87, 118.51"/>
<polyline points="
 694.87, 119.02 694.87, 118.51 694.47, 117.47 693.60, 116.61 692.57, 116.21
 691.54, 116.21 690.51, 116.61 689.65, 117.47 689.25, 118.51 689.25, 119.02
 689.25, 119.54 689.65, 120.57 690.51, 121.43 691.54, 121.83 692.57, 121.83
 693.60, 121.43 694.47, 120.57 694.87, 119.54 694.87, 118.51"/>
<polygon fill="#0000ff" points="
 757.68, 143.40 757.68, 142.89 757.28, 141.85 756.41, 140.99 755.38, 140.59
 754.35, 140.59 753.32, 140.99 752.46, 141.85 752.06, 142.89 752.06, 143.40
 752.06, 143.92 752.46, 144.95 753.32, 145.81 754.35, 146.21 755.38, 146.21
 756.41, 145.81 757.28, 144.95 757.68, 143.92 757.68, 142.89"/>
<polyline points="
 757.68, 143.40 757.68, 142.89 757.28, 141.85 756.41, 140.99 755.38, 140.59
 754.35, 140.59 753.32, 140.99 752.46, 141.85 752.06, 142.89 752.06, 143.40
 752.06, 143.92 752.46, 144.95 753.32, 145.81 754.35, 146.21 755.38, 146.21
 756.41, 145.81 757.28, 144.95 757.68, 143.92 757.68, 142.89"/>
<polygon fill="#0000ff" points="
 765.13, 111.85 765.13, 111.34 764.73, 110.30 763.87, 109.44 762.84, 109.04
 761.81, 109.04 760.77, 109.44 759.91, 110.30 759.51, 111.34 759.51, 111.85
 759.51, 112.37 759.91, 113.40 760.77, 114.26 761.81, 114.66 762.84, 114.66
 763.87, 114.26 764.73, 113.40 765.13, 112.37 765.13, 111.34"/>
<polyline points="
 765.13, 111.85 765.13, 111.34 764.73, 110.30 763.87, 109.44 762.84, 109.04
 761.81, 109.04 760.77, 109.44 759.91, 110.30 759.51, 111.34 759.51, 111.85
 759.51, 112.37 759.91, 113.40 760.77, 114.26 761.81, 114.66 762.84, 114.66
 763.87, 114.26 764.73, 113.40 765.13, 112.37 765.13, 111.34"/>
<polygon fill="#0000ff" points="
 698.60, 129.92 698.60, 129.41 698.19, 128.37 697.33, 127.51 696.30, 127.11
 695.27, 127.11 694.24, 127.51 693.38, 128.37 692.97, 129.41 692.97, 129.92
 692.97, 130.44 693.38, 131.47 694.24, 132.33 695.27, 132.73 696.30, 132.73
 697.33, 132.33 698.19, 131.47 698.60, 130.44 698.60, 129.41"/>
<polyline points="
 698.60, 129.92 698.60, 129.41 698.19, 128.37 697.33, 127.51 696.30, 127.11
 695.27, 127.11 694.24, 127.51 693.38, 128.37 692.97, 129.41 692.97, 129.92
 692.97, 130.44 693.38, 131.47 694.24, 132.33 695.27, 132.73 696.30, 132.73
 697.33, 132.33 698.19, 131.47 698.60, 130.44 698.60, 129.41"/>
<polygon fill="#0000ff" points="
 770.01, 118.16 770.01, 117.65 769.61, 116.61 768.75, 115.75 767.71, 115.35
 766.68, 115.35 765.65, 115.75 764.79, 116.61 764.39, 117.65 764.39, 118.16
 764.39, 118.68 764.79, 119.71 765.65, 120.57 766.68, 120.97 767.71, 120.97
 768.75, 120.57 769.61, 119.71 770.01, 118.68 770.01, 117.65"/>
<polyline points="
 770.01, 118.16 770.01, 117.65 769.61, 116.61 768.75, 115.75 767.71, 115.35
 766.68, 115.35 765.65, 115.75 764.79, 116.61 764.39, 117.65 764.39, 118.16
 764.39, 118.68 764.79, 119.71 765.65, 120.57 766.68, 120.97 767.71, 120.97
 768.75, 120.57 769.61, 119.71 770.01, 118.68 770.01, 117.65"/>
</g>
<g fill="none" stroke="#000000" stroke-width="1.000">
<polyline points="
 733.36, 68.55 846.07, 68.55 846.07, 109.56 733.36, 109.56 733.36, 68.55"/>
</g>
<g fill="none" stroke="#ff0000" stroke-width="1.000">
<polygon fill="#ff0000" points="
 747.70, 77.72 751.71, 85.75 755.73, 77.72 747.70, 77.72"/>
<polyline points="
 747.70, 77.72 751.71, 85.75 755.73, 77.72 747.70, 77.72"/>
</g>
<g fill="none" stroke="#0000ff" stroke-width="1.000">
<polygon fill="#0000ff" points="
 755.65, 97.23 755.65, 96.50 755.08, 95.06 753.88, 93.85 752.43, 93.29
 750.99, 93.29 749.54, 93.85 748.34, 95.06 747.78, 96.50 747.78, 97.23
 747.78, 97.95 748.34, 99.39 749.54, 100.60 750.99, 101.16 752.43, 101.16
 753.88, 100.60 755.08, 99.39 755.65, 97.95 755.65, 96.50"/>
<polyline points="
 755.65, 97.23 755.65, 96.50 755.08, 95.06 753.88, 93.85 752.43, 93.29
 750.99, 93.29 749.54, 93.85 748.34, 95.06 747.78, 96.50 747.78, 97.23
 747.78, 97.95 748.34, 99.39 749.54, 100.60 750.99, 101.16 752.43, 101.16
 753.88, 100.60 755.08, 99.39 755.65, 97.95 755.65, 96.50"/>
</g>
<g font-family="Times" font-weight="normal" font-style="normal"
font-size="15" stroke="none" fill="#000000">
<text x="772.36" y="86.61">C</text>
<text x="783.46" y="86.61">l</text>
<text x="788.67" y="86.61">u</text>
<text x="797.21" y="86.61">s</text>
<text x="804.13" y="86.61">t</text>
<text x="809.34" y="86.61">e</text>
<text x="817.02" y="86.61">r</text>
<text x="823.08" y="86.61"> </text>
<text x="827.86" y="86.61">A</text>
<text x="772.36" y="102.10">C</text>
<text x="783.46" y="102.10">l</text>
<text x="788.67" y="102.10">u</text>
<text x="797.21" y="102.10">s</text>
<text x="804.13" y="102.10">t</text>
<text x="809.34" y="102.10">e</text>
<text x="817.02" y="102.10">r</text>
<text x="823.08" y="102.10"> </text>
<text x="827.86" y="102.10">B</text>
</g>
<g font-family="Times" font-weight="normal" font-style="normal"
font-size="17" stroke="none" fill="#000000">
<text x="423.61" y="34.13">S</text>
<text x="434.04" y="34.13">c</text>
<text x="442.57" y="34.13">a</text>
<text x="451.09" y="34.13">t</text>
<text x="456.88" y="34.13">t</text>
<text x="462.67" y="34.13">e</text>
<text x="471.20" y="34.13">r</text>
<text x="477.94" y="34.13"> </text>
<text x="483.26" y="34.13">T</text>
<text x="494.64" y="34.13">w</text>
<text x="507.93" y="34.13">o</text>
<text x="517.41" y="34.13"> </text>
<text x="522.72" y="34.13">C</text>
<text x="535.06" y="34.13">l</text>
<text x="540.85" y="34.13">u</text>
<text x="550.33" y="34.13">s</text>
<text x="558.02" y="34.13">t</text>
<text x="563.81" y="34.13">e</text>
<text x="572.34" y="34.13">r</text>
<text x="579.08" y="34.13">s</text>
</g>
</svg>
