<?xml version="1.0" encoding="ISO-8859-1" standalone="no"?>
<!DOCTYPE svg PUBLIC "-//W3C//DTD SVG 20010904//EN"
  "http://www.w3.org/TR/2001/REC-SVG-20010904/DTD/svg10.dtd">
<!-- Created by DISLIN (http://www.dislin.de)
Version: 11.5
Date   : 29.06.2026 09:48:44
-->
<svg width="853" height="603"
  xmlns="http://www.w3.org/2000/svg"
  xmlns:xlink="http://www.w3.org/1999/xlink">

<g fill="none" stroke="#000000" stroke-width="1.000">
<line x1="100.38" y1="258.12" x2="425.62" y2="258.12"/>
<line x1="100.38" y1="265.01" x2="100.38" y2="258.12"/>
<line x1="120.74" y1="258.12" x2="120.74" y2="262.71"/>
<line x1="141.11" y1="265.01" x2="141.11" y2="258.12"/>
<line x1="161.47" y1="258.12" x2="161.47" y2="262.71"/>
<line x1="181.83" y1="265.01" x2="181.83" y2="258.12"/>
<line x1="201.91" y1="258.12" x2="201.91" y2="262.71"/>
<line x1="222.27" y1="265.01" x2="222.27" y2="258.12"/>
<line x1="242.64" y1="258.12" x2="242.64" y2="262.71"/>
<line x1="263.00" y1="265.01" x2="263.00" y2="258.12"/>
<line x1="283.36" y1="258.12" x2="283.36" y2="262.71"/>
<line x1="303.72" y1="265.01" x2="303.72" y2="258.12"/>
<line x1="324.09" y1="258.12" x2="324.09" y2="262.71"/>
<line x1="344.45" y1="265.01" x2="344.45" y2="258.12"/>
<line x1="364.53" y1="258.12" x2="364.53" y2="262.71"/>
<line x1="384.89" y1="265.01" x2="384.89" y2="258.12"/>
<line x1="405.25" y1="258.12" x2="405.25" y2="262.71"/>
</g>
<g font-family="Times" font-weight="normal" font-style="normal"
font-size="15" stroke="none" fill="#000000">
<text x="86.90" y="281.93">-</text>
<text x="92.97" y="281.93">1</text>
<text x="101.50" y="281.93">.</text>
<text x="106.28" y="281.93">0</text>
<text x="130.50" y="281.93">0</text>
<text x="139.03" y="281.93">.</text>
<text x="143.81" y="281.93">0</text>
<text x="171.22" y="281.93">1</text>
<text x="179.75" y="281.93">.</text>
<text x="184.54" y="281.93">0</text>
<text x="211.95" y="281.93">2</text>
<text x="220.48" y="281.93">.</text>
<text x="225.26" y="281.93">0</text>
<text x="252.67" y="281.93">3</text>
<text x="261.21" y="281.93">.</text>
<text x="265.99" y="281.93">0</text>
<text x="293.11" y="281.93">4</text>
<text x="301.64" y="281.93">.</text>
<text x="306.43" y="281.93">0</text>
<text x="333.84" y="281.93">5</text>
<text x="342.37" y="281.93">.</text>
<text x="347.15" y="281.93">0</text>
<text x="374.57" y="281.93">6</text>
<text x="383.10" y="281.93">.</text>
<text x="387.88" y="281.93">0</text>
<text x="415.29" y="281.93">7</text>
<text x="423.82" y="281.93">.</text>
<text x="428.60" y="281.93">0</text>
</g>
<g font-family="Times" font-weight="normal" font-style="normal"
font-size="15" stroke="none" fill="#000000">
<text x="254.97" y="300.86">x</text>
<text x="263.50" y="300.86">1</text>
</g>
<g fill="none" stroke="#000000" stroke-width="1.000">
<line x1="425.62" y1="265.01" x2="425.62" y2="258.12"/>
<line x1="100.38" y1="258.12" x2="100.38" y2="71.99"/>
<line x1="100.38" y1="258.12" x2="93.50" y2="258.12"/>
<line x1="95.79" y1="234.89" x2="100.38" y2="234.89"/>
<line x1="100.38" y1="211.66" x2="93.50" y2="211.66"/>
<line x1="95.79" y1="188.43" x2="100.38" y2="188.43"/>
<line x1="100.38" y1="165.20" x2="93.50" y2="165.20"/>
<line x1="95.79" y1="141.68" x2="100.38" y2="141.68"/>
<line x1="100.38" y1="118.45" x2="93.50" y2="118.45"/>
<line x1="95.79" y1="95.22" x2="100.38" y2="95.22"/>
</g>
<g font-family="Times" font-weight="normal" font-style="normal"
font-size="15" stroke="none" fill="#000000">
<text x="59.66" y="262.71">-</text>
<text x="65.72" y="262.71">1</text>
<text x="74.25" y="262.71">.</text>
<text x="79.04" y="262.71">0</text>
<text x="59.66" y="216.25">-</text>
<text x="65.72" y="216.25">0</text>
<text x="74.25" y="216.25">.</text>
<text x="79.04" y="216.25">5</text>
<text x="65.68" y="169.79">0</text>
<text x="74.21" y="169.79">.</text>
<text x="78.99" y="169.79">0</text>
<text x="65.68" y="123.04">0</text>
<text x="74.21" y="123.04">.</text>
<text x="78.99" y="123.04">5</text>
<text x="65.68" y="76.58">1</text>
<text x="74.21" y="76.58">.</text>
<text x="78.99" y="76.58">0</text>
</g>
<g font-family="Times" font-weight="normal" font-style="normal"
font-size="15" stroke="none" fill="#000000">
<text x="50.76" y="172.94" rotate="-90">y</text>
<text x="50.76" y="164.41" rotate="-90">1</text>
</g>
<g fill="none" stroke="#000000" stroke-width="1.000">
<line x1="100.38" y1="71.99" x2="93.50" y2="71.99"/>
<line x1="100.38" y1="71.99" x2="425.62" y2="71.99"/>
<line x1="100.38" y1="65.10" x2="100.38" y2="71.99"/>
<line x1="120.74" y1="71.99" x2="120.74" y2="67.40"/>
<line x1="141.11" y1="65.10" x2="141.11" y2="71.99"/>
<line x1="161.47" y1="71.99" x2="161.47" y2="67.40"/>
<line x1="181.83" y1="65.10" x2="181.83" y2="71.99"/>
<line x1="201.91" y1="71.99" x2="201.91" y2="67.40"/>
<line x1="222.27" y1="65.10" x2="222.27" y2="71.99"/>
<line x1="242.64" y1="71.99" x2="242.64" y2="67.40"/>
<line x1="263.00" y1="65.10" x2="263.00" y2="71.99"/>
<line x1="283.36" y1="71.99" x2="283.36" y2="67.40"/>
<line x1="303.72" y1="65.10" x2="303.72" y2="71.99"/>
<line x1="324.09" y1="71.99" x2="324.09" y2="67.40"/>
<line x1="344.45" y1="65.10" x2="344.45" y2="71.99"/>
<line x1="364.53" y1="71.99" x2="364.53" y2="67.40"/>
<line x1="384.89" y1="65.10" x2="384.89" y2="71.99"/>
<line x1="405.25" y1="71.99" x2="405.25" y2="67.40"/>
<line x1="425.62" y1="65.10" x2="425.62" y2="71.99"/>
<line x1="425.62" y1="258.12" x2="425.62" y2="71.99"/>
<line x1="425.62" y1="258.12" x2="432.50" y2="258.12"/>
<line x1="430.20" y1="234.89" x2="425.62" y2="234.89"/>
<line x1="425.62" y1="211.66" x2="432.50" y2="211.66"/>
<line x1="430.20" y1="188.43" x2="425.62" y2="188.43"/>
<line x1="425.62" y1="165.20" x2="432.50" y2="165.20"/>
<line x1="430.20" y1="141.68" x2="425.62" y2="141.68"/>
<line x1="425.62" y1="118.45" x2="432.50" y2="118.45"/>
<line x1="430.20" y1="95.22" x2="425.62" y2="95.22"/>
<line x1="425.62" y1="71.99" x2="432.50" y2="71.99"/>
</g>
<g fill="none" stroke="#bfbfbf" stroke-width="1.000">
<line x1="141.11" y1="257.84" x2="141.11" y2="72.27"/>
<line x1="181.83" y1="72.27" x2="181.83" y2="257.84"/>
<line x1="222.27" y1="257.84" x2="222.27" y2="72.27"/>
<line x1="263.00" y1="72.27" x2="263.00" y2="257.84"/>
<line x1="303.72" y1="257.84" x2="303.72" y2="72.27"/>
<line x1="344.45" y1="72.27" x2="344.45" y2="257.84"/>
<line x1="384.89" y1="257.84" x2="384.89" y2="72.27"/>
<line x1="425.33" y1="211.66" x2="100.67" y2="211.66"/>
<line x1="100.67" y1="165.20" x2="425.33" y2="165.20"/>
<line x1="425.33" y1="118.45" x2="100.67" y2="118.45"/>
</g>
<g fill="none" stroke="#ff0000" stroke-width="1.000">
<polyline points="
 141.04, 165.06 143.62, 159.15 146.20, 153.27 148.78, 147.44 151.36, 141.68
 153.94, 136.02 156.52, 130.47 159.10, 125.06 161.68, 119.81 164.26, 114.74
 166.84, 109.87 169.42, 105.23 172.00, 100.83 174.58, 96.69 177.16, 92.82
 179.74, 89.24 182.32, 85.97 184.90, 83.02 187.48, 80.40 190.06, 78.12
 192.64, 76.18 195.22, 74.61 197.80, 73.40 200.38, 72.56 201.96, 72.27"/>
<polyline points="
 208.07, 72.27 208.12, 72.28 210.70, 72.93 213.28, 73.96 215.86, 75.35
 218.44, 77.11 221.02, 79.21 223.60, 81.67 226.18, 84.46 228.76, 87.57
 231.34, 91.00 233.92, 94.72 236.50, 98.73 239.08, 103.00 241.66, 107.52
 244.24, 112.28 246.82, 117.25 249.40, 122.41 251.98, 127.74 254.56, 133.22
 257.14, 138.84 259.72, 144.55 262.30, 150.35 264.88, 156.21 267.46, 162.10
 270.05, 168.01 272.63, 173.90 275.21, 179.76 277.79, 185.56 280.37, 191.28
 282.95, 196.89 285.53, 202.37 288.11, 207.70 290.69, 212.86 293.27, 217.83
 295.85, 222.59 298.43, 227.11 301.01, 231.38 303.59, 235.39 306.17, 239.11
 308.75, 242.54 311.33, 245.65 313.91, 248.44 316.49, 250.90 319.07, 253.00
 321.65, 254.76 324.23, 256.15 326.81, 257.18 329.39, 257.83 329.44, 257.84"/>
<polyline points="
 335.55, 257.84 337.13, 257.55 339.71, 256.71 342.29, 255.50 344.87, 253.93
 347.45, 251.99 350.03, 249.71 352.61, 247.09 355.19, 244.14 357.77, 240.87
 360.35, 237.29 362.93, 233.42 365.51, 229.28 368.09, 224.88 370.67, 220.24
 373.25, 215.37 375.83, 210.30 378.41, 205.06 380.99, 199.65 383.57, 194.10
 386.15, 188.43 388.73, 182.67 391.31, 176.84 393.89, 170.96 396.47, 165.06"/>
</g>
<g font-family="Times" font-weight="normal" font-style="normal"
font-size="17" stroke="none" fill="#000000">
<text x="240.63" y="42.73">s</text>
<text x="248.32" y="42.73">i</text>
<text x="254.11" y="42.73">n</text>
<text x="263.59" y="42.73">(</text>
<text x="270.33" y="42.73">x</text>
<text x="279.81" y="42.73">)</text>
</g>
<g fill="none" stroke="#000000" stroke-width="1.000">
<line x1="497.60" y1="258.12" x2="822.84" y2="258.12"/>
<line x1="497.60" y1="265.01" x2="497.60" y2="258.12"/>
<line x1="517.97" y1="258.12" x2="517.97" y2="262.71"/>
<line x1="538.33" y1="265.01" x2="538.33" y2="258.12"/>
<line x1="558.69" y1="258.12" x2="558.69" y2="262.71"/>
<line x1="579.06" y1="265.01" x2="579.06" y2="258.12"/>
<line x1="599.13" y1="258.12" x2="599.13" y2="262.71"/>
<line x1="619.49" y1="265.01" x2="619.49" y2="258.12"/>
<line x1="639.86" y1="258.12" x2="639.86" y2="262.71"/>
<line x1="660.22" y1="265.01" x2="660.22" y2="258.12"/>
<line x1="680.58" y1="258.12" x2="680.58" y2="262.71"/>
<line x1="700.95" y1="265.01" x2="700.95" y2="258.12"/>
<line x1="721.31" y1="258.12" x2="721.31" y2="262.71"/>
<line x1="741.67" y1="265.01" x2="741.67" y2="258.12"/>
<line x1="761.75" y1="258.12" x2="761.75" y2="262.71"/>
<line x1="782.11" y1="265.01" x2="782.11" y2="258.12"/>
<line x1="802.48" y1="258.12" x2="802.48" y2="262.71"/>
</g>
<g font-family="Times" font-weight="normal" font-style="normal"
font-size="15" stroke="none" fill="#000000">
<text x="484.12" y="281.93">-</text>
<text x="490.19" y="281.93">1</text>
<text x="498.72" y="281.93">.</text>
<text x="503.50" y="281.93">0</text>
<text x="527.72" y="281.93">0</text>
<text x="536.25" y="281.93">.</text>
<text x="541.03" y="281.93">0</text>
<text x="568.44" y="281.93">1</text>
<text x="576.98" y="281.93">.</text>
<text x="581.76" y="281.93">0</text>
<text x="609.17" y="281.93">2</text>
<text x="617.70" y="281.93">.</text>
<text x="622.48" y="281.93">0</text>
<text x="649.90" y="281.93">3</text>
<text x="658.43" y="281.93">.</text>
<text x="663.21" y="281.93">0</text>
<text x="690.34" y="281.93">4</text>
<text x="698.87" y="281.93">.</text>
<text x="703.65" y="281.93">0</text>
<text x="731.06" y="281.93">5</text>
<text x="739.59" y="281.93">.</text>
<text x="744.37" y="281.93">0</text>
<text x="771.79" y="281.93">6</text>
<text x="780.32" y="281.93">.</text>
<text x="785.10" y="281.93">0</text>
<text x="812.51" y="281.93">7</text>
<text x="821.05" y="281.93">.</text>
<text x="825.83" y="281.93">0</text>
</g>
<g font-family="Times" font-weight="normal" font-style="normal"
font-size="15" stroke="none" fill="#000000">
<text x="652.19" y="300.86">x</text>
<text x="660.72" y="300.86">2</text>
</g>
<g fill="none" stroke="#000000" stroke-width="1.000">
<line x1="822.84" y1="265.01" x2="822.84" y2="258.12"/>
<line x1="497.60" y1="258.12" x2="497.60" y2="71.99"/>
<line x1="497.60" y1="258.12" x2="490.72" y2="258.12"/>
<line x1="493.01" y1="239.48" x2="497.60" y2="239.48"/>
<line x1="497.60" y1="220.84" x2="490.72" y2="220.84"/>
<line x1="493.01" y1="202.20" x2="497.60" y2="202.20"/>
<line x1="497.60" y1="183.55" x2="490.72" y2="183.55"/>
<line x1="493.01" y1="165.20" x2="497.60" y2="165.20"/>
<line x1="497.60" y1="146.56" x2="490.72" y2="146.56"/>
<line x1="493.01" y1="127.91" x2="497.60" y2="127.91"/>
<line x1="497.60" y1="109.27" x2="490.72" y2="109.27"/>
<line x1="493.01" y1="90.63" x2="497.60" y2="90.63"/>
</g>
<g font-family="Times" font-weight="normal" font-style="normal"
font-size="15" stroke="none" fill="#000000">
<text x="456.88" y="262.71">-</text>
<text x="462.95" y="262.71">1</text>
<text x="471.48" y="262.71">.</text>
<text x="476.26" y="262.71">0</text>
<text x="456.88" y="225.43">-</text>
<text x="462.95" y="225.43">0</text>
<text x="471.48" y="225.43">.</text>
<text x="476.26" y="225.43">5</text>
<text x="462.90" y="188.14">0</text>
<text x="471.43" y="188.14">.</text>
<text x="476.21" y="188.14">0</text>
<text x="462.90" y="151.15">0</text>
<text x="471.43" y="151.15">.</text>
<text x="476.21" y="151.15">5</text>
<text x="462.90" y="113.86">1</text>
<text x="471.43" y="113.86">.</text>
<text x="476.21" y="113.86">0</text>
<text x="462.90" y="76.58">1</text>
<text x="471.43" y="76.58">.</text>
<text x="476.21" y="76.58">5</text>
</g>
<g font-family="Times" font-weight="normal" font-style="normal"
font-size="15" stroke="none" fill="#000000">
<text x="447.99" y="172.94" rotate="-90">y</text>
<text x="447.99" y="164.41" rotate="-90">2</text>
</g>
<g fill="none" stroke="#000000" stroke-width="1.000">
<line x1="497.60" y1="71.99" x2="490.72" y2="71.99"/>
<line x1="497.60" y1="71.99" x2="822.84" y2="71.99"/>
<line x1="497.60" y1="65.10" x2="497.60" y2="71.99"/>
<line x1="517.97" y1="71.99" x2="517.97" y2="67.40"/>
<line x1="538.33" y1="65.10" x2="538.33" y2="71.99"/>
<line x1="558.69" y1="71.99" x2="558.69" y2="67.40"/>
<line x1="579.06" y1="65.10" x2="579.06" y2="71.99"/>
<line x1="599.13" y1="71.99" x2="599.13" y2="67.40"/>
<line x1="619.49" y1="65.10" x2="619.49" y2="71.99"/>
<line x1="639.86" y1="71.99" x2="639.86" y2="67.40"/>
<line x1="660.22" y1="65.10" x2="660.22" y2="71.99"/>
<line x1="680.58" y1="71.99" x2="680.58" y2="67.40"/>
<line x1="700.95" y1="65.10" x2="700.95" y2="71.99"/>
<line x1="721.31" y1="71.99" x2="721.31" y2="67.40"/>
<line x1="741.67" y1="65.10" x2="741.67" y2="71.99"/>
<line x1="761.75" y1="71.99" x2="761.75" y2="67.40"/>
<line x1="782.11" y1="65.10" x2="782.11" y2="71.99"/>
<line x1="802.48" y1="71.99" x2="802.48" y2="67.40"/>
<line x1="822.84" y1="65.10" x2="822.84" y2="71.99"/>
<line x1="822.84" y1="258.12" x2="822.84" y2="71.99"/>
<line x1="822.84" y1="258.12" x2="829.72" y2="258.12"/>
<line x1="827.43" y1="239.48" x2="822.84" y2="239.48"/>
<line x1="822.84" y1="220.84" x2="829.72" y2="220.84"/>
<line x1="827.43" y1="202.20" x2="822.84" y2="202.20"/>
<line x1="822.84" y1="183.55" x2="829.72" y2="183.55"/>
<line x1="827.43" y1="165.20" x2="822.84" y2="165.20"/>
<line x1="822.84" y1="146.56" x2="829.72" y2="146.56"/>
<line x1="827.43" y1="127.91" x2="822.84" y2="127.91"/>
<line x1="822.84" y1="109.27" x2="829.72" y2="109.27"/>
<line x1="827.43" y1="90.63" x2="822.84" y2="90.63"/>
<line x1="822.84" y1="71.99" x2="829.72" y2="71.99"/>
</g>
<g fill="none" stroke="#bfbfbf" stroke-width="1.000">
<line x1="538.33" y1="257.84" x2="538.33" y2="72.27"/>
<line x1="579.06" y1="72.27" x2="579.06" y2="257.84"/>
<line x1="619.49" y1="257.84" x2="619.49" y2="72.27"/>
<line x1="660.22" y1="72.27" x2="660.22" y2="257.84"/>
<line x1="700.95" y1="257.84" x2="700.95" y2="72.27"/>
<line x1="741.67" y1="72.27" x2="741.67" y2="257.84"/>
<line x1="782.11" y1="257.84" x2="782.11" y2="72.27"/>
<line x1="822.55" y1="220.84" x2="497.89" y2="220.84"/>
<line x1="497.89" y1="183.55" x2="822.55" y2="183.55"/>
<line x1="822.55" y1="146.56" x2="497.89" y2="146.56"/>
<line x1="497.89" y1="109.27" x2="822.55" y2="109.27"/>
</g>
<g fill="none" stroke="#0000ff" stroke-width="1.000">
<polyline points="
 538.26, 109.21 540.84, 109.36 543.42, 109.81 546.00, 110.56 548.58, 111.60
 551.16, 112.93 553.74, 114.55 556.32, 116.44 558.90, 118.61 561.48, 121.03
 564.06, 123.71 566.64, 126.63 569.22, 129.78 571.80, 133.15 574.38, 136.72
 576.96, 140.48 579.54, 144.41 582.12, 148.51 584.70, 152.74 587.28, 157.10
 589.86, 161.56 592.44, 166.12 595.02, 170.74 597.60, 175.42 600.18, 180.13
 602.76, 184.85 605.34, 189.57 607.92, 194.26 610.50, 198.92 613.08, 203.51
 615.66, 208.02 618.24, 212.43 620.82, 216.73 623.40, 220.90 625.98, 224.91
 628.56, 228.76 631.14, 232.43 633.73, 235.90 636.31, 239.16 638.89, 242.19
 641.47, 244.99 644.05, 247.55 646.63, 249.85 649.21, 251.88 651.79, 253.63
 654.37, 255.11 656.95, 256.29 659.53, 257.19 662.11, 257.79 662.54, 257.84"/>
<polyline points="
 669.41, 257.84 669.85, 257.79 672.43, 257.19 675.01, 256.29 677.59, 255.11
 680.17, 253.63 682.75, 251.88 685.33, 249.85 687.91, 247.55 690.49, 244.99
 693.07, 242.19 695.65, 239.16 698.23, 235.90 700.81, 232.43 703.39, 228.76
 705.97, 224.91 708.55, 220.90 711.13, 216.73 713.71, 212.43 716.29, 208.02
 718.87, 203.51 721.45, 198.92 724.03, 194.26 726.61, 189.57 729.19, 184.85
 731.77, 180.13 734.35, 175.42 736.93, 170.74 739.51, 166.12 742.09, 161.56
 744.67, 157.10 747.25, 152.74 749.83, 148.51 752.41, 144.41 754.99, 140.48
 757.57, 136.72 760.15, 133.15 762.73, 129.78 765.31, 126.63 767.89, 123.71
 770.48, 121.03 773.06, 118.61 775.64, 116.44 778.22, 114.55 780.80, 112.93
 783.38, 111.60 785.96, 110.56 788.54, 109.81 791.12, 109.36 793.70, 109.21"/>
</g>
<g font-family="Times" font-weight="normal" font-style="normal"
font-size="17" stroke="none" fill="#000000">
<text x="636.42" y="42.73">c</text>
<text x="644.94" y="42.73">o</text>
<text x="654.42" y="42.73">s</text>
<text x="662.12" y="42.73">(</text>
<text x="668.86" y="42.73">x</text>
<text x="678.34" y="42.73">)</text>
</g>
<g fill="none" stroke="#000000" stroke-width="1.000">
<line x1="100.38" y1="544.93" x2="425.62" y2="544.93"/>
<line x1="100.38" y1="544.93" x2="100.38" y2="551.81"/>
<line x1="120.74" y1="549.52" x2="120.74" y2="544.93"/>
<line x1="141.11" y1="544.93" x2="141.11" y2="551.81"/>
<line x1="161.47" y1="549.52" x2="161.47" y2="544.93"/>
<line x1="181.83" y1="544.93" x2="181.83" y2="551.81"/>
<line x1="201.91" y1="549.52" x2="201.91" y2="544.93"/>
<line x1="222.27" y1="544.93" x2="222.27" y2="551.81"/>
<line x1="242.64" y1="549.52" x2="242.64" y2="544.93"/>
<line x1="263.00" y1="544.93" x2="263.00" y2="551.81"/>
<line x1="283.36" y1="549.52" x2="283.36" y2="544.93"/>
<line x1="303.72" y1="544.93" x2="303.72" y2="551.81"/>
<line x1="324.09" y1="549.52" x2="324.09" y2="544.93"/>
<line x1="344.45" y1="544.93" x2="344.45" y2="551.81"/>
<line x1="364.53" y1="549.52" x2="364.53" y2="544.93"/>
<line x1="384.89" y1="544.93" x2="384.89" y2="551.81"/>
<line x1="405.25" y1="549.52" x2="405.25" y2="544.93"/>
</g>
<g font-family="Times" font-weight="normal" font-style="normal"
font-size="15" stroke="none" fill="#000000">
<text x="86.90" y="568.73">-</text>
<text x="92.97" y="568.73">1</text>
<text x="101.50" y="568.73">.</text>
<text x="106.28" y="568.73">0</text>
<text x="130.50" y="568.73">0</text>
<text x="139.03" y="568.73">.</text>
<text x="143.81" y="568.73">0</text>
<text x="171.22" y="568.73">1</text>
<text x="179.75" y="568.73">.</text>
<text x="184.54" y="568.73">0</text>
<text x="211.95" y="568.73">2</text>
<text x="220.48" y="568.73">.</text>
<text x="225.26" y="568.73">0</text>
<text x="252.67" y="568.73">3</text>
<text x="261.21" y="568.73">.</text>
<text x="265.99" y="568.73">0</text>
<text x="293.11" y="568.73">4</text>
<text x="301.64" y="568.73">.</text>
<text x="306.43" y="568.73">0</text>
<text x="333.84" y="568.73">5</text>
<text x="342.37" y="568.73">.</text>
<text x="347.15" y="568.73">0</text>
<text x="374.57" y="568.73">6</text>
<text x="383.10" y="568.73">.</text>
<text x="387.88" y="568.73">0</text>
<text x="415.29" y="568.73">7</text>
<text x="423.82" y="568.73">.</text>
<text x="428.60" y="568.73">0</text>
</g>
<g font-family="Times" font-weight="normal" font-style="normal"
font-size="15" stroke="none" fill="#000000">
<text x="254.97" y="587.66">x</text>
<text x="263.50" y="587.66">3</text>
</g>
<g fill="none" stroke="#000000" stroke-width="1.000">
<line x1="425.62" y1="544.93" x2="425.62" y2="551.81"/>
<line x1="100.38" y1="544.93" x2="100.38" y2="358.79"/>
<line x1="93.50" y1="544.93" x2="100.38" y2="544.93"/>
<line x1="100.38" y1="533.17" x2="95.79" y2="533.17"/>
<line x1="93.50" y1="521.70" x2="100.38" y2="521.70"/>
<line x1="100.38" y1="509.94" x2="95.79" y2="509.94"/>
<line x1="93.50" y1="498.46" x2="100.38" y2="498.46"/>
<line x1="100.38" y1="486.71" x2="95.79" y2="486.71"/>
<line x1="93.50" y1="475.23" x2="100.38" y2="475.23"/>
<line x1="100.38" y1="463.47" x2="95.79" y2="463.47"/>
<line x1="93.50" y1="452.00" x2="100.38" y2="452.00"/>
<line x1="100.38" y1="440.24" x2="95.79" y2="440.24"/>
<line x1="93.50" y1="428.48" x2="100.38" y2="428.48"/>
<line x1="100.38" y1="417.01" x2="95.79" y2="417.01"/>
<line x1="93.50" y1="405.25" x2="100.38" y2="405.25"/>
<line x1="100.38" y1="393.78" x2="95.79" y2="393.78"/>
<line x1="93.50" y1="382.02" x2="100.38" y2="382.02"/>
<line x1="100.38" y1="370.55" x2="95.79" y2="370.55"/>
</g>
<g font-family="Times" font-weight="normal" font-style="normal"
font-size="15" stroke="none" fill="#000000">
<text x="65.68" y="549.52">0</text>
<text x="74.21" y="549.52">.</text>
<text x="78.99" y="549.52">3</text>
<text x="65.68" y="526.28">0</text>
<text x="74.21" y="526.28">.</text>
<text x="78.99" y="526.28">4</text>
<text x="65.68" y="503.05">0</text>
<text x="74.21" y="503.05">.</text>
<text x="78.99" y="503.05">5</text>
<text x="65.68" y="479.82">0</text>
<text x="74.21" y="479.82">.</text>
<text x="78.99" y="479.82">6</text>
<text x="65.68" y="456.59">0</text>
<text x="74.21" y="456.59">.</text>
<text x="78.99" y="456.59">7</text>
<text x="65.68" y="433.07">0</text>
<text x="74.21" y="433.07">.</text>
<text x="78.99" y="433.07">8</text>
<text x="65.68" y="409.84">0</text>
<text x="74.21" y="409.84">.</text>
<text x="78.99" y="409.84">9</text>
<text x="65.68" y="386.61">1</text>
<text x="74.21" y="386.61">.</text>
<text x="78.99" y="386.61">0</text>
<text x="65.68" y="363.38">1</text>
<text x="74.21" y="363.38">.</text>
<text x="78.99" y="363.38">1</text>
</g>
<g font-family="Times" font-weight="normal" font-style="normal"
font-size="15" stroke="none" fill="#000000">
<text x="56.79" y="459.75" rotate="-90">y</text>
<text x="56.79" y="451.21" rotate="-90">3</text>
</g>
<g fill="none" stroke="#000000" stroke-width="1.000">
<line x1="93.50" y1="358.79" x2="100.38" y2="358.79"/>
<line x1="100.38" y1="358.79" x2="425.62" y2="358.79"/>
<line x1="100.38" y1="358.79" x2="100.38" y2="351.91"/>
<line x1="120.74" y1="354.20" x2="120.74" y2="358.79"/>
<line x1="141.11" y1="358.79" x2="141.11" y2="351.91"/>
<line x1="161.47" y1="354.20" x2="161.47" y2="358.79"/>
<line x1="181.83" y1="358.79" x2="181.83" y2="351.91"/>
<line x1="201.91" y1="354.20" x2="201.91" y2="358.79"/>
<line x1="222.27" y1="358.79" x2="222.27" y2="351.91"/>
<line x1="242.64" y1="354.20" x2="242.64" y2="358.79"/>
<line x1="263.00" y1="358.79" x2="263.00" y2="351.91"/>
<line x1="283.36" y1="354.20" x2="283.36" y2="358.79"/>
<line x1="303.72" y1="358.79" x2="303.72" y2="351.91"/>
<line x1="324.09" y1="354.20" x2="324.09" y2="358.79"/>
<line x1="344.45" y1="358.79" x2="344.45" y2="351.91"/>
<line x1="364.53" y1="354.20" x2="364.53" y2="358.79"/>
<line x1="384.89" y1="358.79" x2="384.89" y2="351.91"/>
<line x1="405.25" y1="354.20" x2="405.25" y2="358.79"/>
<line x1="425.62" y1="358.79" x2="425.62" y2="351.91"/>
<line x1="425.62" y1="544.93" x2="425.62" y2="358.79"/>
<line x1="432.50" y1="544.93" x2="425.62" y2="544.93"/>
<line x1="425.62" y1="533.17" x2="430.20" y2="533.17"/>
<line x1="432.50" y1="521.70" x2="425.62" y2="521.70"/>
<line x1="425.62" y1="509.94" x2="430.20" y2="509.94"/>
<line x1="432.50" y1="498.46" x2="425.62" y2="498.46"/>
<line x1="425.62" y1="486.71" x2="430.20" y2="486.71"/>
<line x1="432.50" y1="475.23" x2="425.62" y2="475.23"/>
<line x1="425.62" y1="463.47" x2="430.20" y2="463.47"/>
<line x1="432.50" y1="452.00" x2="425.62" y2="452.00"/>
<line x1="425.62" y1="440.24" x2="430.20" y2="440.24"/>
<line x1="432.50" y1="428.48" x2="425.62" y2="428.48"/>
<line x1="425.62" y1="417.01" x2="430.20" y2="417.01"/>
<line x1="432.50" y1="405.25" x2="425.62" y2="405.25"/>
<line x1="425.62" y1="393.78" x2="430.20" y2="393.78"/>
<line x1="432.50" y1="382.02" x2="425.62" y2="382.02"/>
<line x1="425.62" y1="370.55" x2="430.20" y2="370.55"/>
<line x1="432.50" y1="358.79" x2="425.62" y2="358.79"/>
</g>
<g fill="none" stroke="#bfbfbf" stroke-width="1.000">
<line x1="141.11" y1="359.08" x2="141.11" y2="544.64"/>
<line x1="181.83" y1="544.64" x2="181.83" y2="359.08"/>
<line x1="222.27" y1="359.08" x2="222.27" y2="544.64"/>
<line x1="263.00" y1="544.64" x2="263.00" y2="359.08"/>
<line x1="303.72" y1="359.08" x2="303.72" y2="544.64"/>
<line x1="344.45" y1="544.64" x2="344.45" y2="359.08"/>
<line x1="384.89" y1="359.08" x2="384.89" y2="544.64"/>
<line x1="100.67" y1="521.70" x2="425.33" y2="521.70"/>
<line x1="425.33" y1="498.46" x2="100.67" y2="498.46"/>
<line x1="100.67" y1="475.23" x2="425.33" y2="475.23"/>
<line x1="425.33" y1="452.00" x2="100.67" y2="452.00"/>
<line x1="100.67" y1="428.48" x2="425.33" y2="428.48"/>
<line x1="425.33" y1="405.25" x2="100.67" y2="405.25"/>
<line x1="100.67" y1="382.02" x2="425.33" y2="382.02"/>
</g>
<g fill="none" stroke="#00ff00" stroke-width="1.000">
<polyline points="
 141.04, 382.06 143.62, 384.40 146.20, 386.71 148.78, 389.00 151.36, 391.27
 153.94, 393.52 156.52, 395.74 159.10, 397.94 161.68, 400.12 164.26, 402.28
 166.84, 404.41 169.42, 406.53 172.00, 408.62 174.58, 410.69 177.16, 412.74
 179.74, 414.77 182.32, 416.78 184.90, 418.77 187.48, 420.74 190.06, 422.69
 192.64, 424.62 195.22, 426.53 197.80, 428.42 200.38, 430.29 202.96, 432.15
 205.54, 433.98 208.12, 435.80 210.70, 437.60 213.28, 439.38 215.86, 441.14
 218.44, 442.88 221.02, 444.61 223.60, 446.32 226.18, 448.01 228.76, 449.69
 231.34, 451.35 233.92, 452.99 236.50, 454.61 239.08, 456.22 241.66, 457.82
 244.24, 459.39 246.82, 460.95 249.40, 462.50 251.98, 464.03 254.56, 465.54
 257.14, 467.04 259.72, 468.53 262.30, 470.00 264.88, 471.45 267.46, 472.89
 270.05, 474.32 272.63, 475.73 275.21, 477.12 277.79, 478.51 280.37, 479.88
 282.95, 481.23 285.53, 482.57 288.11, 483.90 290.69, 485.22 293.27, 486.52
 295.85, 487.81 298.43, 489.08 301.01, 490.35 303.59, 491.60 306.17, 492.83
 308.75, 494.06 311.33, 495.27 313.91, 496.47 316.49, 497.66 319.07, 498.84
 321.65, 500.00 324.23, 501.15 326.81, 502.30 329.39, 503.43 331.97, 504.54
 334.55, 505.65 337.13, 506.75 339.71, 507.83 342.29, 508.91 344.87, 509.97
 347.45, 511.02 350.03, 512.07 352.61, 513.10 355.19, 514.12 357.77, 515.13
 360.35, 516.13 362.93, 517.12 365.51, 518.10 368.09, 519.07 370.67, 520.04
 373.25, 520.99 375.83, 521.93 378.41, 522.86 380.99, 523.78 383.57, 524.70
 386.15, 525.60 388.73, 526.50 391.31, 527.39 393.89, 528.26 396.47, 529.13"/>
</g>
<g font-family="Times" font-weight="normal" font-style="normal"
font-size="17" stroke="none" fill="#000000">
<text x="224.85" y="329.54">e</text>
<text x="233.38" y="329.54">x</text>
<text x="242.86" y="329.54">p</text>
<text x="252.34" y="329.54"> </text>
<text x="257.65" y="329.54">d</text>
<text x="267.13" y="329.54">e</text>
<text x="275.66" y="329.54">c</text>
<text x="284.19" y="329.54">a</text>
<text x="292.71" y="329.54">y</text>
</g>
<g fill="none" stroke="#000000" stroke-width="1.000">
<line x1="497.60" y1="544.93" x2="822.84" y2="544.93"/>
<line x1="497.60" y1="544.93" x2="497.60" y2="551.81"/>
<line x1="517.97" y1="549.52" x2="517.97" y2="544.93"/>
<line x1="538.33" y1="544.93" x2="538.33" y2="551.81"/>
<line x1="558.69" y1="549.52" x2="558.69" y2="544.93"/>
<line x1="579.06" y1="544.93" x2="579.06" y2="551.81"/>
<line x1="599.13" y1="549.52" x2="599.13" y2="544.93"/>
<line x1="619.49" y1="544.93" x2="619.49" y2="551.81"/>
<line x1="639.86" y1="549.52" x2="639.86" y2="544.93"/>
<line x1="660.22" y1="544.93" x2="660.22" y2="551.81"/>
<line x1="680.58" y1="549.52" x2="680.58" y2="544.93"/>
<line x1="700.95" y1="544.93" x2="700.95" y2="551.81"/>
<line x1="721.31" y1="549.52" x2="721.31" y2="544.93"/>
<line x1="741.67" y1="544.93" x2="741.67" y2="551.81"/>
<line x1="761.75" y1="549.52" x2="761.75" y2="544.93"/>
<line x1="782.11" y1="544.93" x2="782.11" y2="551.81"/>
<line x1="802.48" y1="549.52" x2="802.48" y2="544.93"/>
</g>
<g font-family="Times" font-weight="normal" font-style="normal"
font-size="15" stroke="none" fill="#000000">
<text x="484.12" y="568.73">-</text>
<text x="490.19" y="568.73">1</text>
<text x="498.72" y="568.73">.</text>
<text x="503.50" y="568.73">0</text>
<text x="527.72" y="568.73">0</text>
<text x="536.25" y="568.73">.</text>
<text x="541.03" y="568.73">0</text>
<text x="568.44" y="568.73">1</text>
<text x="576.98" y="568.73">.</text>
<text x="581.76" y="568.73">0</text>
<text x="609.17" y="568.73">2</text>
<text x="617.70" y="568.73">.</text>
<text x="622.48" y="568.73">0</text>
<text x="649.90" y="568.73">3</text>
<text x="658.43" y="568.73">.</text>
<text x="663.21" y="568.73">0</text>
<text x="690.34" y="568.73">4</text>
<text x="698.87" y="568.73">.</text>
<text x="703.65" y="568.73">0</text>
<text x="731.06" y="568.73">5</text>
<text x="739.59" y="568.73">.</text>
<text x="744.37" y="568.73">0</text>
<text x="771.79" y="568.73">6</text>
<text x="780.32" y="568.73">.</text>
<text x="785.10" y="568.73">0</text>
<text x="812.51" y="568.73">7</text>
<text x="821.05" y="568.73">.</text>
<text x="825.83" y="568.73">0</text>
</g>
<g font-family="Times" font-weight="normal" font-style="normal"
font-size="15" stroke="none" fill="#000000">
<text x="652.19" y="587.66">x</text>
<text x="660.72" y="587.66">4</text>
</g>
<g fill="none" stroke="#000000" stroke-width="1.000">
<line x1="822.84" y1="544.93" x2="822.84" y2="551.81"/>
<line x1="497.60" y1="544.93" x2="497.60" y2="358.79"/>
<line x1="490.72" y1="544.93" x2="497.60" y2="544.93"/>
<line x1="497.60" y1="529.44" x2="493.01" y2="529.44"/>
<line x1="490.72" y1="513.95" x2="497.60" y2="513.95"/>
<line x1="497.60" y1="498.46" x2="493.01" y2="498.46"/>
<line x1="490.72" y1="482.98" x2="497.60" y2="482.98"/>
<line x1="497.60" y1="467.49" x2="493.01" y2="467.49"/>
<line x1="490.72" y1="452.00" x2="497.60" y2="452.00"/>
<line x1="497.60" y1="436.23" x2="493.01" y2="436.23"/>
<line x1="490.72" y1="420.74" x2="497.60" y2="420.74"/>
<line x1="497.60" y1="405.25" x2="493.01" y2="405.25"/>
<line x1="490.72" y1="389.77" x2="497.60" y2="389.77"/>
<line x1="497.60" y1="374.28" x2="493.01" y2="374.28"/>
</g>
<g font-family="Times" font-weight="normal" font-style="normal"
font-size="15" stroke="none" fill="#000000">
<text x="456.88" y="549.52">-</text>
<text x="462.95" y="549.52">0</text>
<text x="471.48" y="549.52">.</text>
<text x="476.26" y="549.52">2</text>
<text x="462.90" y="518.54">0</text>
<text x="471.43" y="518.54">.</text>
<text x="476.21" y="518.54">0</text>
<text x="462.90" y="487.57">0</text>
<text x="471.43" y="487.57">.</text>
<text x="476.21" y="487.57">2</text>
<text x="462.90" y="456.59">0</text>
<text x="471.43" y="456.59">.</text>
<text x="476.21" y="456.59">4</text>
<text x="462.90" y="425.33">0</text>
<text x="471.43" y="425.33">.</text>
<text x="476.21" y="425.33">6</text>
<text x="462.90" y="394.35">0</text>
<text x="471.43" y="394.35">.</text>
<text x="476.21" y="394.35">8</text>
<text x="462.90" y="363.38">1</text>
<text x="471.43" y="363.38">.</text>
<text x="476.21" y="363.38">0</text>
</g>
<g font-family="Times" font-weight="normal" font-style="normal"
font-size="15" stroke="none" fill="#000000">
<text x="447.99" y="459.75" rotate="-90">y</text>
<text x="447.99" y="451.21" rotate="-90">4</text>
</g>
<g fill="none" stroke="#000000" stroke-width="1.000">
<line x1="490.72" y1="358.79" x2="497.60" y2="358.79"/>
<line x1="497.60" y1="358.79" x2="822.84" y2="358.79"/>
<line x1="497.60" y1="358.79" x2="497.60" y2="351.91"/>
<line x1="517.97" y1="354.20" x2="517.97" y2="358.79"/>
<line x1="538.33" y1="358.79" x2="538.33" y2="351.91"/>
<line x1="558.69" y1="354.20" x2="558.69" y2="358.79"/>
<line x1="579.06" y1="358.79" x2="579.06" y2="351.91"/>
<line x1="599.13" y1="354.20" x2="599.13" y2="358.79"/>
<line x1="619.49" y1="358.79" x2="619.49" y2="351.91"/>
<line x1="639.86" y1="354.20" x2="639.86" y2="358.79"/>
<line x1="660.22" y1="358.79" x2="660.22" y2="351.91"/>
<line x1="680.58" y1="354.20" x2="680.58" y2="358.79"/>
<line x1="700.95" y1="358.79" x2="700.95" y2="351.91"/>
<line x1="721.31" y1="354.20" x2="721.31" y2="358.79"/>
<line x1="741.67" y1="358.79" x2="741.67" y2="351.91"/>
<line x1="761.75" y1="354.20" x2="761.75" y2="358.79"/>
<line x1="782.11" y1="358.79" x2="782.11" y2="351.91"/>
<line x1="802.48" y1="354.20" x2="802.48" y2="358.79"/>
<line x1="822.84" y1="358.79" x2="822.84" y2="351.91"/>
<line x1="822.84" y1="544.93" x2="822.84" y2="358.79"/>
<line x1="829.72" y1="544.93" x2="822.84" y2="544.93"/>
<line x1="822.84" y1="529.44" x2="827.43" y2="529.44"/>
<line x1="829.72" y1="513.95" x2="822.84" y2="513.95"/>
<line x1="822.84" y1="498.46" x2="827.43" y2="498.46"/>
<line x1="829.72" y1="482.98" x2="822.84" y2="482.98"/>
<line x1="822.84" y1="467.49" x2="827.43" y2="467.49"/>
<line x1="829.72" y1="452.00" x2="822.84" y2="452.00"/>
<line x1="822.84" y1="436.23" x2="827.43" y2="436.23"/>
<line x1="829.72" y1="420.74" x2="822.84" y2="420.74"/>
<line x1="822.84" y1="405.25" x2="827.43" y2="405.25"/>
<line x1="829.72" y1="389.77" x2="822.84" y2="389.77"/>
<line x1="822.84" y1="374.28" x2="827.43" y2="374.28"/>
<line x1="829.72" y1="358.79" x2="822.84" y2="358.79"/>
</g>
<g fill="none" stroke="#bfbfbf" stroke-width="1.000">
<line x1="538.33" y1="359.08" x2="538.33" y2="544.64"/>
<line x1="579.06" y1="544.64" x2="579.06" y2="359.08"/>
<line x1="619.49" y1="359.08" x2="619.49" y2="544.64"/>
<line x1="660.22" y1="544.64" x2="660.22" y2="359.08"/>
<line x1="700.95" y1="359.08" x2="700.95" y2="544.64"/>
<line x1="741.67" y1="544.64" x2="741.67" y2="359.08"/>
<line x1="782.11" y1="359.08" x2="782.11" y2="544.64"/>
<line x1="497.89" y1="513.95" x2="822.55" y2="513.95"/>
<line x1="822.55" y1="482.98" x2="497.89" y2="482.98"/>
<line x1="497.89" y1="452.00" x2="822.55" y2="452.00"/>
<line x1="822.55" y1="420.74" x2="497.89" y2="420.74"/>
<line x1="497.89" y1="389.77" x2="822.55" y2="389.77"/>
</g>
<g fill="none" stroke="#ff8000" stroke-width="1.000">
<polyline points="
 538.26, 513.90 540.84, 513.28 543.42, 511.42 546.00, 508.35 548.58, 504.12
 551.16, 498.80 553.74, 492.48 556.32, 485.25 558.90, 477.24 561.48, 468.57
 564.06, 459.38 566.64, 449.81 569.22, 440.04 571.80, 430.20 574.38, 420.46
 576.96, 410.98 579.54, 401.91 582.12, 393.39 584.70, 385.56 587.28, 378.55
 589.86, 372.47 592.44, 367.41 595.02, 363.47 597.60, 360.70 600.18, 359.14
 600.71, 359.08"/>
<polyline points="
 603.45, 359.08 605.34, 359.77 607.92, 361.93 610.50, 365.30 613.08, 369.81
 615.66, 375.38 618.24, 381.94 620.82, 389.38 623.40, 397.57 625.98, 406.38
 628.56, 415.68 631.14, 425.31 633.73, 435.12 636.31, 444.94 638.89, 454.63
 641.47, 464.03 644.05, 472.97 646.63, 481.33 649.21, 488.97 651.79, 495.76
 654.37, 501.59 656.95, 506.37 659.53, 510.03 662.11, 512.50 664.69, 513.75
 667.27, 513.75 669.85, 512.50 672.43, 510.03 675.01, 506.37 677.59, 501.59
 680.17, 495.76 682.75, 488.97 685.33, 481.33 687.91, 472.97 690.49, 464.03
 693.07, 454.63 695.65, 444.94 698.23, 435.12 700.81, 425.31 703.39, 415.68
 705.97, 406.38 708.55, 397.57 711.13, 389.38 713.71, 381.94 716.29, 375.38
 718.87, 369.81 721.45, 365.30 724.03, 361.93 726.61, 359.77 728.51, 359.08"/>
<polyline points="
 731.24, 359.08 731.77, 359.14 734.35, 360.70 736.93, 363.47 739.51, 367.41
 742.09, 372.47 744.67, 378.55 747.25, 385.56 749.83, 393.39 752.41, 401.91
 754.99, 410.98 757.57, 420.46 760.15, 430.20 762.73, 440.04 765.31, 449.81
 767.89, 459.38 770.48, 468.57 773.06, 477.24 775.64, 485.25 778.22, 492.48
 780.80, 498.80 783.38, 504.12 785.96, 508.35 788.54, 511.42 791.12, 513.28
 793.70, 513.90"/>
</g>
<g fill="none" stroke="#000000" stroke-width="1.000">
<polyline points="
 628.66, 328.47 628.66, 327.94 628.10, 327.94 628.10, 328.47 628.66, 329.00
 630.34, 329.54 632.01, 329.54 633.69, 329.00 634.25, 328.47 634.25, 326.87
 633.69, 326.34 629.78, 324.21 629.22, 323.68"/>
<polyline points="
 634.25, 327.41 633.69, 326.87 629.78, 324.74 629.22, 324.21 629.22, 323.15
 629.78, 322.61 631.45, 322.08 633.13, 322.08 634.81, 322.61 635.37, 323.15
 635.37, 323.68 634.81, 323.68 634.81, 323.15"/>
<polyline points="
 642.15, 318.88 642.71, 319.42 643.27, 318.88 642.71, 318.35 642.15, 318.88"/>
<polyline points="
 638.24, 324.21 638.80, 323.15 639.92, 322.08 641.59, 322.08 642.15, 322.61
 642.15, 324.21 641.03, 327.41 641.03, 329.00 641.59, 329.54"/>
<polyline points="
 641.03, 322.08 641.59, 322.61 641.59, 324.21 640.47, 327.41 640.47, 329.00
 641.03, 329.54 642.71, 329.54 643.83, 328.47 644.39, 327.41"/>
<polyline points="
 647.26, 324.21 647.82, 323.15 648.94, 322.08 650.61, 322.08 651.17, 322.61
 651.17, 323.68 650.61, 325.81 649.49, 329.54"/>
<polyline points="
 650.05, 322.08 650.61, 322.61 650.61, 323.68 650.05, 325.81 648.94, 329.54"/>
<polyline points="
 650.61, 325.81 651.73, 323.68 652.85, 322.61 653.97, 322.08 655.09, 322.08
 656.21, 322.61 656.77, 323.15 656.77, 324.21 655.65, 327.41 655.65, 329.00
 656.21, 329.54"/>
</g>
<g font-family="Times" font-weight="normal" font-style="normal"
font-size="10" stroke="none" fill="#000000">
<text x="661.87" y="321.97">2</text>
</g>
<g font-family="Times" font-weight="normal" font-style="normal"
font-size="17" stroke="none" fill="#000000">
<text x="668.25" y="329.54">(</text>
</g>
<g fill="none" stroke="#000000" stroke-width="1.000">
<polyline points="
 655.09, 322.08 656.21, 323.15 656.21, 324.21 655.09, 327.41 655.09, 329.00
 655.65, 329.54 657.32, 329.54 658.44, 328.47 659.00, 327.41"/>
<polyline points="
 675.55, 329.00 676.11, 328.47 675.55, 327.94 674.99, 328.47 674.99, 329.00
 675.55, 329.54 676.11, 329.54 677.22, 329.00 678.34, 327.94 678.90, 326.87"/>
<polyline points="
 680.02, 324.74 680.58, 323.68 681.70, 322.61 682.82, 322.08 683.38, 322.08
 683.94, 322.61 683.94, 323.15 683.38, 323.68 682.82, 323.15 683.38, 322.61"/>
<polyline points="
 683.38, 327.41 682.26, 329.00 681.14, 329.54 679.46, 329.54 678.90, 328.47
 678.90, 326.87 679.46, 324.74 679.46, 323.15 678.90, 322.08"/>
</g>
<g font-family="Times" font-weight="normal" font-style="normal"
font-size="17" stroke="none" fill="#000000">
<text x="686.80" y="329.54">)</text>
</g>
<g fill="none" stroke="#000000" stroke-width="1.000">
<polyline points="
 675.55, 324.21 676.67, 322.61 677.78, 322.08 679.46, 322.08 680.02, 323.15
 680.02, 324.74 679.46, 326.87 679.46, 328.47 680.02, 329.54"/>
</g>
</svg>
